<?xml version="1.0" encoding="utf-8"?>
<!-- Generator: Adobe Illustrator 19.0.0, SVG Export Plug-In . SVG Version: 6.00 Build 0)  -->
<svg version="1.1" id="Layer_1" xmlns="http://www.w3.org/2000/svg" xmlns:xlink="http://www.w3.org/1999/xlink" x="0px" y="0px"
	 viewBox="34 -34 128 128" style="enable-background:new 34 -34 128 128;" xml:space="preserve">
<style type="text/css">
	.st0{fill:#F73111;}
</style>
<path class="st0" d="M98-22C69.3-22,46,1.3,46,30s23.3,52,52,52s52-23.3,52-52S126.7-22,98-22z M98,78c-26.5,0-48-21.5-48-48
	s21.5-48,48-48s48,21.5,48,48S124.5,78,98,78z"/>
<path class="st0" d="M98,45.7c-0.4,0-0.7-0.2-0.9-0.6c-0.4-0.9-10.3-22.7-10.3-40.5c0-6.2,5-11.2,11.2-11.2s11.2,5,11.2,11.2
	c0,17.8-9.9,39.6-10.3,40.5C98.7,45.5,98.4,45.7,98,45.7z M98-4.5c-5.1,0-9.2,4.1-9.2,9.2c0,14.2,6.7,31.6,9.2,37.5
	c2.5-5.9,9.2-23.3,9.2-37.5C107.2-0.4,103.1-4.5,98-4.5z"/>
<path class="st0" d="M98,66.5c-4.4,0-8.1-3.6-8.1-8.1s3.6-8.1,8.1-8.1s8.1,3.6,8.1,8.1S102.4,66.5,98,66.5z M98,52.4
	c-3.3,0-6.1,2.7-6.1,6.1c0,3.3,2.7,6.1,6.1,6.1c3.3,0,6.1-2.7,6.1-6.1S101.3,52.4,98,52.4z"/>
</svg>
