<svg version="1.1" xmlns="http://www.w3.org/2000/svg" xmlns:xlink="http://www.w3.org/1999/xlink" style="" xml:space="preserve" width="650" height="650"><rect id="backgroundrect" width="100%" height="100%" x="0" y="0" fill="none" stroke="none" style="" class=""/>




<g class="currentLayer" style=""><title>Layer 1</title><g class="selected" fill="#ffffff" fill-opacity="1"><path id="XMLID_87_" style="" d="M466.69430923461914,635.952702999115 c-8.577410697937012,-34.164451599121094 -17.188325881958008,-68.30656433105469 -25.72106170654297,-102.482177734375 c-3.4734041690826416,-13.904786109924316 -3.406393527984619,-13.927123069763184 -17.869604110717773,-13.927123069763184 c-66.89933013916016,0 -133.7986602783203,0 -200.68682861328125,0 c-2.423564910888672,0 -4.8582987785339355,0 -7.605750560760498,0 c-4.590254783630371,18.260501861572266 -9.124666213989258,36.174781799316406 -13.60323715209961,54.10022735595703 c-4.7801194190979,19.165149688720703 -9.526732444763184,38.330299377441406 -14.251009941101074,57.517791748046875 c-0.37972912192344666,1.563590407371521 -0.46907711029052734,3.1941919326782227 -0.6924471855163574,4.791287422180176 c-21.633390426635742,0 -43.266780853271484,0 -64.9001693725586,0 c6.533574104309082,-23.956438064575195 13.089486122131348,-47.901710510253906 19.589553833007812,-71.85814666748047 c3.942481279373169,-14.530221939086914 7.773277759552002,-29.082782745361328 11.905623435974121,-44.53998947143555 c-2.7809572219848633,0 -4.9141411781311035,0 -7.047325134277344,0 c-24.48135757446289,0 -48.96271514892578,0.01116850320249796 -73.44407653808594,0 c-21.33184051513672,-0.01116850320249796 -31.01493263244629,-8.208849906921387 -33.91874313354492,-29.30615234375 c-0.6924471855163574,-4.981152534484863 -0.10051652044057846,-10.141000747680664 -0.10051652044057846,-15.736420631408691 c189.8868865966797,0 379.8519592285156,0 570.1743774414062,0 c0.837637722492218,9.660755157470703 0.4467400908470154,19.098140716552734 -3.2165286540985107,28.16696548461914 c-4.813624858856201,11.905623435974121 -14.183998107910156,16.819765090942383 -26.52519416809082,16.84210205078125 c-24.06812286376953,0.0670110210776329 -48.14741516113281,0.02233700640499592 -72.21553802490234,0.03350551053881645 c-2.1778578758239746,0 -4.355715751647949,0 -7.15900993347168,0 c10.464886665344238,39.32429885864258 20.717573165893555,77.86680603027344 30.981426239013672,116.39813232421875 C509.15698623657227,635.952702999115 487.92563247680664,635.952702999115 466.69430923461914,635.952702999115 zM449.4277992248535,504.0303702354431 c0.5025826692581177,1.775791883468628 1.0498392581939697,3.495741367340088 1.4854109287261963,5.249196529388428 c8.856622695922852,35.37064743041992 17.65740203857422,70.74129486083984 26.62571144104004,106.07843780517578 c0.45790863037109375,1.7981289625167847 2.200195074081421,4.601423263549805 3.439898729324341,4.646097183227539 c9.459721565246582,0.39089760184288025 18.95294952392578,0.2122015506029129 29.13862419128418,0.2122015506029129 c-10.487224578857422,-39.279624938964844 -20.695236206054688,-77.56525421142578 -31.070775985717773,-116.42047119140625 c2.981990098953247,0 5.204522132873535,0 7.427054405212402,0 c30.199630737304688,0 60.38809585571289,0.03350551053881645 90.58773040771484,-0.02233700640499592 c9.381542205810547,-0.02233700640499592 13.580899238586426,-4.2663679122924805 13.994133949279785,-14.027640342712402 c-178.40567016601562,0 -356.7889709472656,0 -535.1834716796875,0 c0.2233700454235077,9.549070358276367 4.668434143066406,14.016470909118652 13.960628509521484,14.027640342712402 c32.03126525878906,0.04467401280999184 64.06253051757812,0.02233700640499592 96.09379577636719,0.02233700640499592 c2.1778578758239746,0 4.344547748565674,0 7.237189769744873,0 c-10.431382179260254,39.100929260253906 -20.639392852783203,77.4200668334961 -30.947919845581055,116.08541870117188 c10.788773536682129,0 21.08613395690918,0 31.450504302978516,0 c9.694259643554688,-38.82171630859375 19.310340881347656,-77.29721069335938 28.937591552734375,-115.85088348388672 C285.1279640197754,504.0303702354431 367.1047706604004,504.0303702354431 449.4277992248535,504.0303702354431 z" class="" fill="#ffffff" fill-opacity="1"/><path id="XMLID_80_" style="" d="M347.90610122680664,8.941799879074097 c0,7.080831050872803 0,14.172830581665039 0,22.03545570373535 c11.59290599822998,-0.1340220421552658 22.28116226196289,2.8367998600006104 29.596532821655273,13.089486122131348 c4.400390148162842,6.165013313293457 6.109170913696289,13.74842643737793 5.305038928985596,24.42551612854004 c-39.36897277832031,0 -78.77144622802734,0 -118.16275787353516,0 c-3.7079427242279053,-21.946107864379883 8.331703186035156,-34.65586471557617 36.73320770263672,-37.89472961425781 c0,-7.125504970550537 0,-14.385031700134277 0,-21.65572738647461 C316.88000869750977,8.941799879074097 332.39307022094727,8.941799879074097 347.90610122680664,8.941799879074097 zM282.02312088012695,52.91219472885132 c28.233976364135742,0 54.81501007080078,0 83.0378189086914,0 c-10.554235458374023,-9.794776916503906 -22.582714080810547,-4.054166793823242 -33.52784729003906,-6.835123538970947 c0,-7.069662570953369 0,-14.08348274230957 0,-20.99678611755371 c-5.293870449066162,0 -9.872956275939941,0 -15.245006561279297,0 c0,7.438222885131836 0,14.440874099731445 0,21.030290603637695 C304.91855239868164,49.04789113998413 292.70019912719727,42.69301748275757 282.02312088012695,52.91219472885132 z" class="" fill="#ffffff" fill-opacity="1"/><path id="XMLID_77_" style="" d="M323.90500259399414,81.2131781578064 c68.97667694091797,0 137.95335388183594,-0.01116850320249796 206.93002319335938,0 c27.217641830444336,0 42.4849853515625,15.245006561279297 42.4849853515625,42.39563751220703 c0.01116850320249796,97.54570770263672 0.02233700640499592,195.09141540527344 -0.01116850320249796,292.6371154785156 c-0.01116850320249796,19.891103744506836 -10.275022506713867,34.454830169677734 -27.798404693603516,39.100929260253906 c-4.467401027679443,1.183861255645752 -9.269857406616211,1.5970959663391113 -13.915955543518066,1.5970959663391113 c-138.76864624023438,0.07817952334880829 -277.53729248046875,0.07817952334880829 -416.30596923828125,0.05584251135587692 c-25.94443130493164,0 -41.63617706298828,-15.65824031829834 -41.64734649658203,-41.51332473754883 c-0.03350551053881645,-97.54570770263672 -0.02233700640499592,-195.09141540527344 0,-292.6371154785156 c0.01116850320249796,-25.933263778686523 15.635903358459473,-41.61384201049805 41.49098587036133,-41.6250114440918 C184.72311782836914,81.20201635360718 254.31404495239258,81.2131781578064 323.90500259399414,81.2131781578064 zM323.41357803344727,96.9496054649353 c-69.80314636230469,0 -139.59510803222656,-0.02233700640499592 -209.3982696533203,0.02233700640499592 c-15.98212718963623,0.01116850320249796 -24.64888572692871,8.610916137695312 -24.64888572692871,24.526033401489258 c-0.03350551053881645,98.3721694946289 -0.02233700640499592,196.7443389892578 0.01116850320249796,295.11651611328125 c0,2.8256311416625977 0.12285353243350983,5.762947082519531 0.8488062024116516,8.46572494506836 c2.8591368198394775,10.643583297729492 11.291357040405273,16.20549774169922 24.302663803100586,16.21666717529297 c138.77981567382812,0.01116850320249796 277.57080078125,0.01116850320249796 416.3506164550781,0 c18.78542137145996,0 26.860248565673828,-8.007816314697266 26.860248565673828,-26.726226806640625 c0.01116850320249796,-96.9426040649414 -0.20103304088115692,-193.8852081298828 0.20103304088115692,-290.82781982421875 c0.0670110210776329,-17.288841247558594 -10.319696426391602,-27.139463424682617 -26.960765838623047,-27.0166072845459 C461.79135513305664,97.25114965438843 392.602481842041,96.9496054649353 323.41357803344727,96.9496054649353 z" class="" fill="#ffffff" fill-opacity="1"/><path id="XMLID_69_" style="" d="M455.10141372680664,272.58548498153687 c-38.140438079833984,35.97374725341797 -76.09101104736328,71.768798828125 -114.57766723632812,108.0664291381836 c-29.752891540527344,-33.47200393676758 -59.248905181884766,-66.65362548828125 -89.20283508300781,-100.36016845703125 c-19.567216873168945,18.517377853393555 -38.89989471435547,36.81138610839844 -58.567626953125,55.42927932739258 c-12.821441650390625,-13.714921951293945 -25.330163955688477,-27.10595703125 -38.2409553527832,-40.91022872924805 c33.30447769165039,-31.528682708740234 66.43025207519531,-62.90100860595703 99.92459106445312,-94.61956024169922 c30.735721588134766,34.00809097290039 61.19222640991211,67.71463775634766 91.9837875366211,101.76740264892578 c24.23565101623535,-22.794912338256836 48.12508010864258,-45.2547721862793 72.1820297241211,-67.88216400146484 c-2.624598264694214,-2.981990098953247 -5.070500373840332,-5.427892208099365 -7.1143364906311035,-8.164175987243652 c-6.701101779937744,-9.001812934875488 -2.256037712097168,-20.873931884765625 8.82311725616455,-21.376514434814453 c16.473541259765625,-0.7594582438468933 33.04759979248047,-0.4467400908470154 49.521141052246094,0.39089760184288025 c8.901296615600586,0.45790863037109375 16.417699813842773,8.689095497131348 16.495878219604492,17.769086837768555 c0.15635904669761658,16.9202823638916 -0.17869605123996735,33.88523483276367 -1.3290518522262573,50.74967956542969 c-0.7147842049598694,10.40904426574707 -12.609238624572754,14.530221939086914 -20.739910125732422,7.817951679229736 C461.15475845336914,278.70581579208374 458.37378311157227,275.71268224716187 455.10141372680664,272.58548498153687 zM252.28139114379883,257.9770712852478 c29.842239379882812,33.58368682861328 59.3382568359375,66.75414276123047 89.19166564941406,100.34899139404297 c38.140438079833984,-35.96257781982422 76.03517150878906,-71.67945098876953 115.4599838256836,-108.84822845458984 c4.545580863952637,5.238028049468994 8.588578224182129,9.906462669372559 12.642745018005371,14.563728332519531 c0.591930627822876,-0.11168502271175385 1.1726927757263184,-0.23453855514526367 1.7646235227584839,-0.3462235927581787 c0,-12.397038459777832 0.24570706486701965,-24.794076919555664 -0.2233700454235077,-37.16877746582031 c-0.08934802561998367,-2.2895431518554688 -3.0378329753875732,-6.3213725090026855 -4.802456378936768,-6.399552345275879 c-12.687419891357422,-0.5584251284599304 -25.408344268798828,-0.3015495836734772 -39.34663391113281,-0.3015495836734772 c5.1263427734375,5.584251403808594 9.325699806213379,10.163337707519531 13.692584037780762,14.921119689941406 c-31.930749893188477,30.02093505859375 -63.381256103515625,59.595130920410156 -95.15564727783203,89.47087097167969 c-30.83623504638672,-34.130943298339844 -61.259239196777344,-67.79281616210938 -91.93911743164062,-101.75623321533203 c-25.955598831176758,24.593042373657227 -51.35277557373047,48.672332763671875 -77.11851501464844,73.08668518066406 c5.829958438873291,6.187350749969482 11.224345207214355,11.905623435974121 17.031967163085938,18.07063865661621 C213.18046951293945,294.97830724716187 232.51314163208008,276.68433141708374 252.28139114379883,257.9770712852478 z" class="" fill="#ffffff" fill-opacity="1"/></g></g></svg>