<?xml version="1.0" encoding="iso-8859-1"?>
<!-- Generator: Adobe Illustrator 19.0.0, SVG Export Plug-In . SVG Version: 6.00 Build 0)  -->
<svg version="1.1" id="Layer_1" xmlns="http://www.w3.org/2000/svg" xmlns:xlink="http://www.w3.org/1999/xlink" x="0px" y="0px"
	 viewBox="104 -194 1000 1000" style="enable-background:new 104 -194 1000 1000;" xml:space="preserve">
<g>
	<path style="fill:#FFFFFF;" d="M493.7,107.7L389.6,214c54.2,120.8,169.2,255.3,302.6,300.5l90-90c0,0,213.4,37.4,261.4,60.7
		c41.6,20.2,55.3,65.1,48.8,120.4c-7,59.5-84.6,190.5-224.5,192C728,799,522,693.3,374.4,537.2C226.8,381.2,95.2,183.4,116.2,15.5
		c21.1-168,166.9-198,203.4-200.7c36.9-2.7,66.2,8.1,88.4,35.8C436.6-113.8,493.7,107.7,493.7,107.7z M372.6-101.2
		c-16.4-21.6-44.7-25.2-73-18.5c-25.1,5.9-116.6,44-129.5,145.9c-14.4,113.4,76.1,324,227.4,470.8c151.2,146.8,315.7,238.7,441,249
		c125.3,10.2,186.4-100.4,195.3-133.6c8.9-33.2,1.5-66.8-16.4-80.2c-22.9-17-219.9-52.4-219.9-52.4l-89.4,88.4
		c-147-48-310.4-207.3-369.3-371.3l97.6-98.7C436.3,98.2,389-79.6,372.6-101.2z"/>
</g>
</svg>
