<svg version="1.1" xmlns="http://www.w3.org/2000/svg" xmlns:xlink="http://www.w3.org/1999/xlink" style="" xml:space="preserve" width="650" height="650"><rect id="backgroundrect" width="100%" height="100%" x="0" y="0" fill="none" stroke="none" style="" class=""/>


<g class="currentLayer" style=""><title>Layer 1</title><g class="" id="svg_1" opacity="1" stroke="#ffffff" stroke-opacity="1" stroke-width="23"><path id="XMLID_454_" style="fill: none; stroke-miterlimit: 10;" d="M122.38446807861328,300.5623092651367 l-7.0146355628967285,7.0146355628967285 v312.32470703125 l7.137699604034424,7.0146355628967285 l99.5026626586914,-1.801206350326538 l6.891571998596191,-7.0146355628967285 l0.011187617667019367,-231.3375244140625 c0,-8.625653266906738 3.5800373554229736,-12.306379318237305 11.97075080871582,-12.317564964294434 l72.03707122802734,-0.022375235334038734 c34.46904754638672,0 68.93809509277344,0.022375235334038734 103.4183349609375,0.06712570041418076 c2.897592782974243,0 4.598110675811768,0.4363170564174652 5.515495300292969,0.794320821762085 c3.870914936065674,1.521515965461731 6.444067001342773,4.128230571746826 6.432879447937012,11.870061874389648 l-0.011187617667019367,227.08624267578125 l7.1488871574401855,7.0146355628967285 l99.48028564453125,-1.823581576347351 l6.88038444519043,-7.0146355628967285 V307.5769577026367 l-7.0146355628967285,-7.0146355628967285 H122.38446807861328 z" class="" opacity="1" stroke="#ffffff" stroke-opacity="1" stroke-width="23"/><path id="XMLID_453_" style="fill: none; stroke-miterlimit: 10;" d="M324.04126739501953,23.433859825134277 L54.72176742553711,251.41512298583984 l-16.24441909790039,12.373503684997559 h579.8541870117188 l-15.85285472869873,-12.261627197265625 l-2.237523317337036,-1.9802082777023315 l-24.221189498901367,-20.518089294433594 c-23.561120986938477,-19.969894409179688 -47.133426666259766,-39.939788818359375 -70.80642700195312,-59.79780960083008 c-4.38554573059082,-3.6807258129119873 -6.164376735687256,-7.529265880584717 -6.142002105712891,-13.279701232910156 c0.10068854689598083,-31.76164436340332 0.08950094133615494,-63.51210403442383 0.07831332087516785,-95.27374267578125 l0.12306378781795502,-43.86664581298828 h-7.1488871574401855 h-56.58696365356445 h-7.529265880584717 l0.5258179903030396,64.45185852050781 c0.011187617667019367,4.944926738739014 -1.387264370918274,7.0146355628967285 -2.6179022789001465,8.24527359008789 c-2.1256473064422607,2.159209966659546 -4.452671527862549,3.25559663772583 -6.925134658813477,3.25559663772583 c-2.5731518268585205,0 -5.358868598937988,-1.1970750093460083 -8.032708168029785,-3.4457859992980957 c-10.012916564941406,-8.424276351928711 -19.981082916259766,-16.870925903320312 -29.960437774658203,-25.328763961791992 l-47.90537643432617,-40.54392623901367 L324.04126739501953,23.433859825134277 z" class="" opacity="1" stroke="#ffffff" stroke-opacity="1" stroke-width="23"/></g></g></svg>