<svg version="1.1" xmlns="http://www.w3.org/2000/svg" xmlns:xlink="http://www.w3.org/1999/xlink" style="enable-background:new 0 0 25 25;" xml:space="preserve" width="650" height="650"><rect id="backgroundrect" width="100%" height="100%" x="0" y="0" fill="none" stroke="none" style="" class=""/>


























<g class="currentLayer" style=""><title>Layer 1</title><g class="" fill="#ffffff" fill-opacity="1"><path style="" d="M368.08837890625,630.5264152288437 c-0.792851984500885,-0.3964259922504425 -2.140700340270996,-2.510698080062866 -2.2728424072265625,-3.3828353881835938 c-3.118551254272461,-11.443497657775879 -10.254219055175781,-20.376296997070312 -21.777002334594727,-27.43267822265625 c-13.055628776550293,-7.9813761711120605 -27.59124755859375,-12.368489265441895 -40.09187698364258,-15.619184494018555 c-20.534866333007812,-5.312108516693115 -41.99472427368164,-8.64208698272705 -60.91746139526367,-11.602066993713379 l-23.52127456665039,-3.514977216720581 c-26.4019718170166,-3.858546257019043 -53.67607498168945,-7.822806358337402 -80.07804870605469,-14.614904403686523 c-11.760637283325195,-2.9864091873168945 -25.50340461730957,-7.029954433441162 -38.08332061767578,-14.244905471801758 c-5.972818374633789,-3.4092633724212646 -13.372770309448242,-8.404231071472168 -17.469173431396484,-16.808462142944336 c-2.6956965923309326,-5.497107028961182 -3.0392658710479736,-11.073498725891113 -1.083564281463623,-16.54417610168457 c0.13214199244976044,-0.34356918931007385 0.3171408176422119,-0.6342816352844238 0.5549963712692261,-0.8985656499862671 c-0.23785556852817535,-0.44928282499313354 -0.34356918931007385,-0.9249939322471619 -0.2907123863697052,-1.4535620212554932 c1.7971312999725342,-19.715585708618164 8.64208698272705,-37.68689727783203 20.32343864440918,-53.35894012451172 c10.465645790100098,-14.059908866882324 22.596282958984375,-23.891273498535156 36.894046783447266,-29.837661743164062 c-6.4485297203063965,-1.3214199542999268 -12.817773818969727,-2.748553514480591 -19.054874420166016,-4.783539772033691 c-4.942110538482666,-1.6385607719421387 -9.989933967590332,-1.9557015895843506 -15.354899406433105,-2.2992703914642334 c-2.5635547637939453,-0.1849987953901291 -5.100681781768799,-0.34356918931007385 -7.637807369232178,-0.6342816352844238 c-28.093387603759766,-3.488548517227173 -48.998252868652344,-11.20564079284668 -65.78028869628906,-24.26127052307129 c-17.469173431396484,-13.610624313354492 -27.406246185302734,-31.344079971313477 -29.546951293945312,-52.69822311401367 c-1.4799903631210327,-14.879189491271973 1.030707597732544,-29.837661743164062 7.6642351150512695,-45.72113037109375 c6.712813854217529,-16.12132453918457 16.597036361694336,-30.974084854125977 30.181230545043945,-45.3775634765625 c4.942110538482666,-5.232822895050049 7.082810878753662,-11.28492546081543 6.739241600036621,-19.054874420166016 c-0.23785556852817535,-5.7613911628723145 -0.9249939322471619,-11.469923973083496 -1.6121324300765991,-17.178457260131836 L45.053646087646484,201.8574699163437 c-2.431412696838379,-23.17770767211914 0.2114272117614746,-46.03826904296875 7.8756632804870605,-67.92098236083984 C57.475040435791016,120.88099133968353 64.2144546508789,103.96726453304291 75.7905502319336,89.11414563655853 c13.610624313354492,-17.4427433013916 31.449796676635742,-30.49837303161621 54.60107421875,-39.88045120239258 c20.587722778320312,-8.351374626159668 42.78757858276367,-12.606346130371094 65.96528625488281,-12.606346130371094 c4.334257125854492,0 8.668514251708984,0.15857040882110596 13.029200553894043,0.44928282499313354 c24.31412696838379,1.58570396900177 47.01612091064453,7.796377182006836 67.41885375976562,18.447023391723633 c2.6428399085998535,1.3742767572402954 5.127109527587891,2.9599807262420654 7.637807369232178,4.519256114959717 c2.140700340270996,1.3478482961654663 4.281400680541992,2.6956965923309326 6.501386642456055,3.884974479675293 c2.722125291824341,1.4799903631210327 5.497107028961182,2.827838659286499 8.272088050842285,4.175687313079834 c4.3078293800354,2.087843656539917 8.6156587600708,4.202115535736084 12.68563175201416,6.712813854217529 c22.331998825073242,13.795623779296875 38.29475021362305,32.08407974243164 47.41255187988281,54.31036376953125 c4.228543758392334,10.254219055175781 6.607100009918213,21.195575714111328 7.13566780090332,32.559783935546875 c9.382081985473633,-11.15278434753418 22.09414291381836,-20.614151000976562 34.38334655761719,-29.811233520507812 c18.36773681640625,-13.716339111328125 36.048336029052734,-23.732704162597656 54.36321258544922,-30.868370056152344 c16.940603256225586,-6.607100009918213 32.48050308227539,-9.804935455322266 47.54469299316406,-9.804935455322266 c2.0085582733154297,0 4.043545246124268,0.05285680294036865 6.104959964752197,0.1849987953901291 c27.06268310546875,1.58570396900177 49.13039016723633,12.65920352935791 65.56885528564453,32.903358459472656 c0.6078531742095947,0.7664235234260559 1.3478482961654663,1.2685632705688477 2.3521273136138916,1.6385607719421387 c14.773475646972656,5.285679817199707 27.696962356567383,14.588476181030273 39.53688430786133,28.43695831298828 c17.2313175201416,20.112010955810547 27.723392486572266,43.97685623168945 31.15908432006836,70.93382263183594 c1.5064187049865723,12.051349639892578 1.0571359395980835,23.944129943847656 -1.3214199542999268,35.36119842529297 c-0.4228544235229492,2.0349864959716797 -0.3699975907802582,4.202115535736084 -0.34356918931007385,6.474958419799805 c0.05285680294036865,1.5064187049865723 0.07928520441055298,3.0128374099731445 -0.026428401470184326,4.519256114959717 c-1.3742767572402954,23.574132919311523 -10.148506164550781,45.113277435302734 -26.824825286865234,65.78028869628906 c-5.682106018066406,7.003525733947754 -11.972064971923828,13.399198532104492 -18.288450241088867,19.821300506591797 l-3.9378316402435303,4.017116546630859 c-3.884974479675293,3.9642598628997803 -7.9285197257995605,8.087090492248535 -10.703500747680664,12.976343154907227 c-1.3214199542999268,2.3785560131073 -2.0349864959716797,4.704254627227783 -2.2199854850769043,7.294238090515137 c-0.07928520441055298,1.1364212036132812 -0.8457088470458984,2.061415195465088 -1.9292731285095215,2.3785560131073 c-0.23785556852817535,0.05285680294036865 -0.4757111370563507,0.07928520441055298 -0.6871383786201477,0.07928520441055298 c-0.8457088470458984,0 -1.6649891138076782,-0.4228544235229492 -2.167128562927246,-1.1364212036132812 c-2.140700340270996,-3.0656940937042236 -4.545684814453125,-4.334257125854492 -8.272088050842285,-4.334257125854492 c-1.4799903631210327,0 -2.9864091873168945,0.2114272117614746 -4.545684814453125,0.4228544235229492 c9.804935455322266,9.989933967590332 18.024168014526367,22.067712783813477 25.741260528564453,37.97760772705078 c9.408509254455566,19.45130157470703 15.222756385803223,40.01259994506836 17.25774383544922,61.07603073120117 c1.8764163255691528,19.424875259399414 0.15857040882110596,38.10974884033203 -5.100681781768799,55.552494049072266 c-0.4757111370563507,1.5064187049865723 -0.5814247727394104,3.118551254272461 -0.7664235234260559,4.7571120262146 c-0.13214199244976044,1.2949916124343872 -0.2642839848995209,2.6164114475250244 -0.5021395683288574,3.884974479675293 c-3.118551254272461,16.464893341064453 -12.84420108795166,29.097667694091797 -29.731948852539062,38.61188507080078 c-14.747047424316406,8.298518180847168 -30.70979881286621,11.787066459655762 -42.97257995605469,13.901339530944824 c-19.874155044555664,3.462120294570923 -39.933311462402344,4.3606858253479 -59.305328369140625,5.206395149230957 l-10.042792320251465,0.4228544235229492 c-14.535619735717773,0.5549963712692261 -29.546951293945312,1.1364212036132812 -44.18828582763672,3.2242648601531982 c-9.487794876098633,1.3742767572402954 -19.530588150024414,3.3299782276153564 -28.72766876220703,8.324945449829102 c-7.16209602355957,3.858546257019043 -12.183491706848145,9.1177978515625 -15.434185028076172,16.015609741210938 c-0.6078531742095947,1.030707597732544 -2.510698080062866,2.6956965923309326 -3.8056890964508057,2.6956965923309326 C368.4320068359375,630.6320670843124 368.2464599609375,630.5796378850937 368.08837890625,630.5264152288437 zM87.60382843017578,506.3659232854843 c0.23785556852817535,0.4228544235229492 0.34356918931007385,0.8721371293067932 0.34356918931007385,1.3478482961654663 c-0.1057136058807373,8.430658340454102 4.017116546630859,14.059908866882324 13.848481178283691,18.817018508911133 c10.148506164550781,4.942110538482666 21.274860382080078,7.2149529457092285 31.79336166381836,9.144225120544434 c15.751326560974121,2.854267120361328 31.66122055053711,4.783539772033691 47.57111358642578,6.712813854217529 l9.910650253295898,1.18927800655365 c31.52907943725586,3.858546257019043 64.1417236328125,7.9020915031433105 96.12010192871094,16.147750854492188 c22.252710342407227,5.734961986541748 38.45332336425781,12.077778816223145 52.56608200073242,20.561294555664062 c10.914928436279297,6.580671787261963 18.605592727661133,13.584197044372559 24.181983947753906,22.067712783813477 c2.827838659286499,4.228543758392334 4.915682315826416,8.747800827026367 6.1578168869018555,13.478483200073242 c6.818526744842529,-13.901339530944824 19.662729263305664,-20.640579223632812 30.76265525817871,-25.001264572143555 c12.527060508728027,-4.968538761138916 25.71483039855957,-7.294238090515137 36.9468994140625,-8.906371116638184 c2.2199854850769043,-0.34356918931007385 4.413542747497559,-0.6078531742095947 6.607100009918213,-0.8721371293067932 c-14.747047424316406,-3.4356918334960938 -29.916948318481445,-9.06494140625 -46.19684600830078,-17.12560272216797 c-18.922733306884766,-9.434938430786133 -34.40977478027344,-19.662729263305664 -47.2804069519043,-31.264795303344727 c-4.254971981048584,-3.8056890964508057 -8.166375160217285,-7.9020915031433105 -11.681351661682129,-12.342062950134277 c-3.514977216720581,3.7528326511383057 -9.461366653442383,5.708534240722656 -16.83489227294922,5.708534240722656 c-2.0085582733154297,0 -4.017116546630859,-0.15857040882110596 -6.052103519439697,-0.3699975907802582 c-3.7264041900634766,-0.4228544235229492 -7.347095012664795,-1.18927800655365 -11.020642280578613,-1.9292731285095215 c-3.4356918334960938,-0.713566780090332 -6.8713836669921875,-1.4535620212554932 -10.386361122131348,-1.8235595226287842 c-2.5371265411376953,-0.2907123863697052 -5.074253082275391,-0.4757111370563507 -7.558522701263428,-0.4757111370563507 c-8.087090492248535,0 -14.32419204711914,1.9557015895843506 -19.63629913330078,6.131388187408447 c-0.05285680294036865,0.05285680294036865 -2.2728424072265625,1.5592756271362305 -2.3521273136138916,1.6121324300765991 c-2.6428399085998535,1.6649891138076782 -5.021396160125732,2.457841157913208 -7.320666313171387,2.457841157913208 c-3.541405439376831,0 -6.686385154724121,-1.8499878644943237 -9.619935989379883,-5.708534240722656 c-0.44928282499313354,-0.5549963712692261 -0.6078531742095947,-1.3214199542999268 -0.5021395683288574,-2.0349864959716797 s0.5285679697990417,-1.3478482961654663 1.1364212036132812,-1.7442742586135864 c0.2642839848995209,0 2.087843656539917,-0.5549963712692261 2.5635547637939453,-0.5549963712692261 c0.026428401470184326,0 0.05285680294036865,0 0.07928520441055298,0 c2.3256990909576416,0.792851984500885 3.884974479675293,1.3478482961654663 4.704254627227783,1.3478482961654663 c0.5549963712692261,0 1.3478482961654663,-0.8985656499862671 3.3828353881835938,-3.6206905841827393 c7.10923957824707,-9.355653762817383 17.12560272216797,-14.297764778137207 30.70979881286621,-15.090615272521973 l3.858546257019043,-0.13214199244976044 c7.426379680633545,0 14.747047424316406,1.2949916124343872 21.829856872558594,2.510698080062866 l2.6428399085998535,0.4757111370563507 c1.9821299314498901,0.34356918931007385 3.9906880855560303,0.5285679697990417 6.025674819946289,0.5285679697990417 c1.1099927425384521,0 2.193557024002075,-0.05285680294036865 3.3035500049591064,-0.1849987953901291 c3.2506933212280273,-0.34356918931007385 5.127109527587891,-1.7971312999725342 6.104959964752197,-4.809967994689941 c1.083564281463623,-3.3299782276153564 1.242134690284729,-6.8713836669921875 1.427133560180664,-10.941357612609863 c0.05285680294036865,-1.0571359395980835 0.792851984500885,-3.144979476928711 1.8235595226287842,-3.514977216720581 c0.6871383786201477,-0.23785556852817535 1.4799903631210327,-0.713566780090332 2.140700340270996,-0.713566780090332 c0.2907123863697052,0 0.5549963712692261,0.1057136058807373 0.7664235234260559,0.34356918931007385 c2.9599807262420654,3.3299782276153564 4.83639669418335,6.924240589141846 5.972818374633789,11.311354637145996 c1.6649891138076782,6.34281587600708 0.9514222741127014,12.024922370910645 -2.167128562927246,16.83489227294922 c6.42210054397583,4.968538761138916 13.795623779296875,10.333503723144531 22.886995315551758,15.672039985656738 c26.904111862182617,15.830610275268555 53.25322723388672,26.586971282958984 80.55376434326172,32.95621109008789 c6.052103519439697,1.4535620212554932 12.527060508728027,2.3256990909576416 19.768442153930664,2.722125291824341 c0.07928520441055298,0 0.15857040882110596,0 0.23785556852817535,0 c7.8756632804870605,0 14.059908866882324,-2.140700340270996 20.984149932861328,-6.659956455230713 c10.359932899475098,-6.739241600036621 20.08558464050293,-15.777753829956055 30.60408592224121,-28.4105281829834 c11.522782325744629,-13.742767333984375 22.56985092163086,-29.969804763793945 34.8326301574707,-51.059669494628906 c0,0 8.007804870605469,-13.769196510314941 10.72992992401123,-18.288450241088867 c0.5021395683288574,-0.792851984500885 1.3742767572402954,-1.2685632705688477 2.2728424072265625,-1.2685632705688477 c0.3171408176422119,0 0.6078531742095947,0.05285680294036865 0.8985656499862671,0.15857040882110596 c1.18927800655365,0.44928282499313354 1.9028445482254028,1.6649891138076782 1.6914176940917969,2.8806955814361572 c-0.5549963712692261,3.3828353881835938 -1.7178459167480469,6.474958419799805 -2.8806955814361572,9.461366653442383 c-11.575638771057129,30.41908836364746 -24.869123458862305,54.41607666015625 -41.096160888671875,74.47523498535156 c-10.386361122131348,12.817773818969727 -20.587722778320312,22.01485824584961 -31.872648239135742,28.595529556274414 l5.232822895050049,-0.3699975907802582 c9.752079010009766,-0.6871383786201477 19.50415802001953,-1.400705099105835 29.229808807373047,-2.6692686080932617 c15.090615272521973,-1.9292731285095215 31.053369522094727,-4.492827892303467 45.3775634765625,-12.474205017089844 c8.6156587600708,-4.783539772033691 15.037759780883789,-11.443497657775879 19.662729263305664,-20.349864959716797 c1.58570396900177,-3.0128374099731445 2.087843656539917,-6.237102508544922 2.3785560131073,-10.174932479858398 c1.6914176940917969,-23.151277542114258 -0.13214199244976044,-46.593265533447266 -5.470678806304932,-69.63883209228516 c-5.814248085021973,-24.974836349487305 -14.747047424316406,-48.81325149536133 -26.586971282958984,-70.74883270263672 c-1.1364212036132812,-2.114271879196167 -2.4049839973449707,-4.149259090423584 -3.6735475063323975,-6.184244632720947 l-2.80141019821167,-4.651398181915283 c-3.9378316402435303,0.1057136058807373 -6.369243621826172,0.2907123863697052 -8.7742280960083,0.2907123863697052 c-1.6121324300765991,0 -3.19783616065979,-0.07928520441055298 -4.83639669418335,-0.3171408176422119 c-4.915682315826416,-0.6078531742095947 -8.747800827026367,-2.748553514480591 -11.04707145690918,-6.104959964752197 c-2.2992703914642334,-3.3299782276153564 -2.8806955814361572,-7.611378192901611 -1.7178459167480469,-12.368489265441895 c0.2642839848995209,-1.1099927425384521 0.5814247727394104,-2.193557024002075 0.9778507947921753,-3.3299782276153564 c-2.484269380569458,1.3742767572402954 -5.127109527587891,2.5635547637939453 -8.007804870605469,3.3828353881835938 c-2.827838659286499,0.8192803859710693 -5.364964962005615,1.2157063484191895 -7.796377182006836,1.2157063484191895 c-3.9378316402435303,0 -7.611378192901611,-1.1099927425384521 -10.835643768310547,-3.3035500049591064 c-2.457841157913208,-1.6649891138076782 -4.281400680541992,-3.858546257019043 -5.734961986541748,-6.8978118896484375 c-0.5285679697990417,-1.030707597732544 -0.2642839848995209,-2.2992703914642334 0.5814247727394104,-3.0921223163604736 c0.5021395683288574,-0.44928282499313354 1.1364212036132812,-0.6607099771499634 1.7707027196884155,-0.6607099771499634 c0.4757111370563507,0 0.9514222741127014,0.1057136058807373 1.3742767572402954,0.3699975907802582 c3.2771215438842773,2.0085582733154297 5.179966449737549,3.17140793800354 7.320666313171387,3.4092633724212646 c0.1849987953901291,0 0.3699975907802582,0 0.5549963712692261,0 c4.202115535736084,0 6.8978118896484375,-0.9249939322471619 9.382081985473633,-2.6956965923309326 c14.377050399780273,-10.254219055175781 23.574132919311523,-23.706275939941406 27.274106979370117,-39.986167907714844 c0.7664235234260559,-3.3564069271087646 0.5549963712692261,-5.999246597290039 -0.6342816352844238,-7.822806358337402 c-1.242134690284729,-1.9028445482254028 -3.6999757289886475,-3.19783616065979 -7.267809867858887,-3.858546257019043 c-2.6956965923309326,-0.5021395683288574 -5.364964962005615,-0.7399951815605164 -8.087090492248535,-0.7399951815605164 c-2.431412696838379,0 -4.83639669418335,0.1849987953901291 -7.2413811683654785,0.5549963712692261 c-1.7442742586135864,0.2642839848995209 -3.541405439376831,0.34356918931007385 -5.391393184661865,0.4228544235229492 c-0.05285680294036865,0 -0.1057136058807373,0 -0.15857040882110596,0 c-1.1099927425384521,0 -3.19783616065979,-0.5285679697990417 -3.6471190452575684,-1.4535620212554932 c-0.44928282499313354,-0.9778507947921753 -1.5328470468521118,-2.061415195465088 -0.792851984500885,-2.854267120361328 c0,-0.07928520441055298 0.4228544235229492,-3.9906880855560303 0.4228544235229492,-4.069972991943359 c0.2907123863697052,-4.175687313079834 2.2992703914642334,-6.316387176513672 6.025674819946289,-6.39567232131958 l0,0 c3.884974479675293,0 6.289958953857422,2.3785560131073 6.316387176513672,6.078531742095947 c2.827838659286499,-2.6692686080932617 7.9020915031433105,-4.043545246124268 13.214200019836426,-4.043545246124268 c1.3478482961654663,0 2.722125291824341,0.07928520441055298 4.069972991943359,0.2642839848995209 c11.787066459655762,1.6121324300765991 18.975589752197266,9.619935989379883 19.21344566345215,21.433429718017578 c0.2114272117614746,8.509943962097168 -2.2464139461517334,16.702749252319336 -7.9285197257995605,26.5605411529541 c-3.0392658710479736,5.259251594543457 -6.712813854217529,10.069220542907715 -10.914928436279297,14.297764778137207 l-1.58570396900177,4.519256114959717 c-0.8721371293067932,3.6999757289886475 -1.6649891138076782,7.16209602355957 -1.7442742586135864,10.756359100341797 c-0.05285680294036865,3.0128374099731445 0.6078531742095947,3.7528326511383057 3.5942625999450684,3.858546257019043 l17.495601654052734,-0.05285680294036865 c4.915682315826416,0 8.959226608276367,1.1628495454788208 12.024922370910645,2.193557024002075 c1.6121324300765991,0.5549963712692261 3.0392658710479736,1.3214199542999268 4.3606858253479,2.3521273136138916 c2.748553514480591,-8.562801361083984 8.192803382873535,-15.196329116821289 13.478483200073242,-21.671287536621094 l7.2149529457092285,-8.959226608276367 c8.377802848815918,-10.412790298461914 17.07274627685547,-21.169145584106445 23.65341567993164,-33.03550338745117 c0.6871383786201477,-1.242134690284729 1.400705099105835,-2.510698080062866 2.0349864959716797,-3.8056890964508057 c-1.8235595226287842,2.2728424072265625 -3.8056890964508057,4.466399192810059 -5.946389198303223,6.580671787261963 c-0.5285679697990417,0.5021395683288574 -1.18927800655365,0.7664235234260559 -1.8499878644943237,0.7664235234260559 c-0.5549963712692261,0 -1.1364212036132812,-0.1849987953901291 -1.6385607719421387,-0.5549963712692261 c-1.0571359395980835,-0.8192803859710693 -1.3214199542999268,-2.2728424072265625 -0.6342816352844238,-3.4356918334960938 l5.734961986541748,-9.593509674072266 c8.747800827026367,-15.275614738464355 12.68563175201416,-31.370512008666992 11.760637283325195,-47.83539962768555 c-0.8721371293067932,-15.037759780883789 -5.074253082275391,-29.59980583190918 -12.923486709594727,-44.53185272216797 c-8.351374626159668,-15.989182472229004 -19.26630210876465,-30.894798278808594 -33.352638244628906,-45.5889892578125 c-1.7178459167480469,-1.7971312999725342 -3.2771215438842773,-3.779261350631714 -4.466399192810059,-5.259251594543457 c-0.8192803859710693,-1.030707597732544 -1.3742767572402954,-3.2771215438842773 -0.44928282499313354,-4.228543758392334 c0.6607099771499634,-0.6871383786201477 1.3214199542999268,-1.3478482961654663 2.0349864959716797,-1.3478482961654663 c0.2642839848995209,0 0.5549963712692261,0.07928520441055298 0.8457088470458984,0.3171408176422119 c16.359180450439453,12.315633773803711 29.494094848632812,26.19054412841797 39.351890563964844,41.54544448852539 c-0.713566780090332,-1.3742767572402954 -1.4799903631210327,-2.722125291824341 -2.2464139461517334,-4.069972991943359 c-9.487794876098633,-16.517751693725586 -20.904865264892578,-28.912668228149414 -34.85905838012695,-37.924747467041016 c-5.972818374633789,-3.8321175575256348 -12.289205551147461,-6.607100009918213 -18.817018508911133,-8.219231605529785 c-1.4535620212554932,-0.3699975907802582 -3.2771215438842773,-1.030707597732544 -4.83639669418335,-2.9599807262420654 c-10.439217567443848,-13.10848617553711 -24.472698211669922,-21.486289978027344 -41.704010009765625,-24.921981811523438 c-5.259251594543457,-1.0571359395980835 -10.465645790100098,-1.5328470468521118 -15.645612716674805,-1.5328470468521118 c-11.17921257019043,0 -22.966279983520508,2.2464139461517334 -36.074764251708984,6.8449554443359375 c-19.239871978759766,6.7656707763671875 -38.34760284423828,17.5484561920166 -60.151039123535156,33.90763473510742 c-8.668514251708984,6.501386642456055 -18.658449172973633,14.165621757507324 -27.406246185302734,22.728424072265625 c-6.580671787261963,6.39567232131958 -11.33778190612793,14.456334114074707 -14.139193534851074,23.996986389160156 c-0.23785556852817535,0.8192803859710693 -0.05285680294036865,1.4535620212554932 0.4757111370563507,2.748553514480591 c3.858546257019043,9.329224586486816 8.139945983886719,18.526308059692383 12.474205017089844,27.696962356567383 c3.779261350631714,8.034233093261719 7.320666313171387,14.21847915649414 11.15278434753418,19.530588150024414 c0.8192803859710693,1.1099927425384521 1.3742767572402954,1.9028445482254028 2.0349864959716797,2.6164114475250244 c3.6735475063323975,4.017116546630859 6.554243087768555,6.34281587600708 10.571359634399414,6.34281587600708 c0.13214199244976044,-0.026428401470184326 0.2642839848995209,-0.026428401470184326 0.4228544235229492,-0.026428401470184326 c1.18927800655365,0 2.748553514480591,0.6078531742095947 3.17140793800354,1.6385607719421387 c0.44928282499313354,1.1364212036132812 0.792851984500885,2.3785560131073 -0.1849987953901291,3.0921223163604736 c-2.114271879196167,1.4535620212554932 -4.413542747497559,2.193557024002075 -6.8978118896484375,2.193557024002075 c-1.8235595226287842,0 -3.7528326511383057,-0.3964259922504425 -5.867104530334473,-1.242134690284729 c-6.950669765472412,-2.748553514480591 -11.522782325744629,-8.139945983886719 -14.747047424316406,-12.553489685058594 c-6.8449554443359375,-9.382081985473633 -11.866352081298828,-20.00629997253418 -15.275614738464355,-32.269073486328125 c0.13214199244976044,13.795623779296875 4.281400680541992,29.46766471862793 12.024922370910645,36.788326263427734 c0.8192803859710693,0.7664235234260559 1.0571359395980835,1.9557015895843506 0.6078531742095947,2.9864091873168945 c-0.44928282499313354,0.9514222741127014 -1.400705099105835,1.58570396900177 -2.431412696838379,1.58570396900177 c-0.05285680294036865,0 -0.13214199244976044,0 -0.2114272117614746,0 c-2.748553514480591,-0.2114272117614746 -4.519256114959717,-1.58570396900177 -5.946389198303223,-2.6956965923309326 c-1.7971312999725342,-1.427133560180664 -3.4356918334960938,-2.9599807262420654 -4.889253616333008,-4.572112560272217 c2.5899832248687744,4.968538761138916 3.884974479675293,9.408509254455566 4.069972991943359,13.901339530944824 c9.804935455322266,1.9557015895843506 14.85275936126709,7.267809867858887 15.460613250732422,16.17418098449707 c0.3171408176422119,4.096401691436768 -0.5549963712692261,8.404231071472168 -2.6692686080932617,13.504910469055176 c-2.9599807262420654,7.2149529457092285 -6.42210054397583,12.65920352935791 -10.862071990966797,17.12560272216797 c-2.0085582733154297,2.0085582733154297 -2.9864091873168945,3.4356918334960938 -2.9599807262420654,4.228543758392334 c0.05285680294036865,1.18927800655365 2.6692686080932617,3.3299782276153564 3.488548517227173,4.043545246124268 l7.2149529457092285,5.708534240722656 c0.8985656499862671,0.6871383786201477 1.242134690284729,1.8764163255691528 0.8721371293067932,2.9599807262420654 c-0.3964259922504425,1.0571359395980835 -1.400705099105835,1.7707027196884155 -2.510698080062866,1.7707027196884155 c0,0 0,0 -0.026428401470184326,0 c-3.9906880855560303,-0.026428401470184326 -7.373523712158203,-0.4757111370563507 -10.412790298461914,-1.400705099105835 l7.452808380126953,13.055628776550293 c5.497107028961182,10.016363143920898 10.756359100341797,21.116291046142578 16.068466186523438,33.90763473510742 c2.2728424072265625,5.497107028961182 6.474958419799805,9.382081985473633 12.84420108795166,11.945636749267578 c11.417068481445312,4.572112560272217 23.09842300415039,6.8978118896484375 34.7269172668457,6.8978118896484375 c13.372770309448242,0 27.0891056060791,-3.0392658710479736 40.83187484741211,-9.09136962890625 c5.972818374633789,-2.6164114475250244 11.707780838012695,-6.289958953857422 17.099172592163086,-11.020642280578613 c0.2114272117614746,-0.1849987953901291 1.9821299314498901,-1.3214199542999268 2.2728424072265625,-1.4535620212554932 c0.3171408176422119,-0.13214199244976044 0.6607099771499634,-0.1849987953901291 1.0042791366577148,-0.1849987953901291 c0.6871383786201477,0 1.3742767572402954,0.2642839848995209 1.8764163255691528,0.7664235234260559 c0.7399951815605164,0.7664235234260559 0.9778507947921753,1.9292731285095215 0.5549963712692261,2.9071240425109863 c-0.9249939322471619,2.140700340270996 -2.457841157913208,3.6999757289886475 -3.779261350631714,5.021396160125732 c-11.28492546081543,11.681351661682129 -25.001264572143555,19.239871978759766 -42.41758346557617,23.46841812133789 c2.3256990909576416,5.391393184661865 3.4092633724212646,10.439217567443848 3.6735475063323975,15.275614738464355 c0.5285679697990417,8.7213716506958 -3.0656940937042236,15.592754364013672 -10.62421703338623,20.402727127075195 l-15.196329116821289,9.382081985473633 c-10.465645790100098,6.580671787261963 -19.821300506591797,14.667762756347656 -27.247678756713867,21.56557273864746 c14.562047958374023,0.9514222741127014 29.546951293945312,2.9864091873168945 43.34257507324219,10.386361122131348 c0.6871383786201477,-2.6428399085998535 1.427133560180664,-5.179966449737549 2.193557024002075,-7.717092514038086 c1.6121324300765991,-5.047823429107666 3.56783390045166,-9.408509254455566 5.999246597290039,-13.346341133117676 c3.2771215438842773,-5.391393184661865 5.814248085021973,-11.17921257019043 8.298518180847168,-16.967031478881836 c1.5592756271362305,-3.56783390045166 3.0921223163604736,-7.13566780090332 4.809967994689941,-10.571359634399414 c7.056382179260254,-14.192049980163574 15.249186515808105,-28.939098358154297 27.538393020629883,-40.594024658203125 c8.139945983886719,-7.717092514038086 16.43846321105957,-12.289205551147461 25.476974487304688,-13.954194068908691 c2.5899832248687744,-0.4757111370563507 5.074253082275391,-0.6871383786201477 7.532093524932861,-0.6871383786201477 c8.64208698272705,0 17.178457260131836,2.748553514480591 26.111257553100586,8.351374626159668 c2.3521273136138916,1.5064187049865723 4.598540782928467,3.19783616065979 6.739241600036621,5.021396160125732 c1.0042791366577148,0.8721371293067932 1.2157063484191895,2.3521273136138916 0.4757111370563507,3.462120294570923 c-0.5021395683288574,0.7664235234260559 -1.3478482961654663,1.18927800655365 -2.193557024002075,1.18927800655365 c-0.3964259922504425,0 -0.792851984500885,-0.07928520441055298 -1.1628495454788208,-0.2642839848995209 l-2.457841157913208,-1.2157063484191895 c-2.854267120361328,-1.427133560180664 -5.708534240722656,-2.827838659286499 -8.64208698272705,-4.017116546630859 c-5.338537216186523,-2.114271879196167 -10.492074966430664,-3.19783616065979 -15.354899406433105,-3.19783616065979 c-8.087090492248535,0 -15.407756805419922,2.854267120361328 -22.41128158569336,8.747800827026367 c-5.100681781768799,4.3078293800354 -9.646366119384766,9.6727933883667 -14.350621223449707,16.914175033569336 c-8.800657272338867,13.637053489685059 -14.85275936126709,28.54267120361328 -19.134159088134766,40.01259994506836 c-1.5328470468521118,4.043545246124268 -3.4356918334960938,7.8756632804870605 -5.338537216186523,11.707780838012695 c-1.9292731285095215,3.858546257019043 -3.858546257019043,7.690663814544678 -5.338537216186523,11.760637283325195 c-2.2199854850769043,6.237102508544922 -3.6206905841827393,13.214200019836426 -4.228543758392334,21.327716827392578 c-0.05285680294036865,0.8457088470458984 0.15857040882110596,1.8764163255691528 0.4228544235229492,2.9864091873168945 c0.2907123863697052,1.3742767572402954 0.6078531742095947,2.9335522651672363 0.5021395683288574,4.677826881408691 c-0.15857040882110596,2.2464139461517334 -0.2642839848995209,3.6999757289886475 -0.6871383786201477,5.153537750244141 c-1.242134690284729,3.9378316402435303 -4.334257125854492,6.289958953857422 -8.324945449829102,6.289958953857422 c-4.519256114959717,-0.1057136058807373 -7.690663814544678,-2.80141019821167 -8.509943962097168,-7.082810878753662 c-0.3699975907802582,-1.9292731285095215 -0.6871383786201477,-3.9906880855560303 -0.5021395683288574,-6.131388187408447 c0.2114272117614746,-1.8764163255691528 -0.5285679697990417,-3.19783616065979 -2.6428399085998535,-4.83639669418335 c-4.492827892303467,-3.4356918334960938 -9.725650787353516,-5.259251594543457 -13.795623779296875,-6.474958419799805 c-10.174932479858398,-3.0128374099731445 -20.693437576293945,-3.9642598628997803 -28.72766876220703,-4.492827892303467 c-16.967031478881836,-1.083564281463623 -34.8854866027832,-2.77498197555542 -51.561805725097656,-10.544930458068848 c-3.56783390045166,-1.6649891138076782 -6.950669765472412,-3.5942625999450684 -10.333503723144531,-5.52353572845459 l-5.946389198303223,-3.3035500049591064 c-20.587722778320312,-11.020642280578613 -38.7440299987793,-16.147750854492188 -57.19105911254883,-16.147750854492188 c0,0 -3.514977216720581,0.05285680294036865 -3.541405439376831,0.05285680294036865 c-1.3478482961654663,0 -2.457841157913208,-0.9778507947921753 -2.6164114475250244,-2.3256990909576416 c-0.15857040882110596,-1.3742767572402954 0.7399951815605164,-2.6428399085998535 2.114271879196167,-2.8806955814361572 c5.7613911628723145,-1.1628495454788208 11.443497657775879,-1.6649891138076782 17.07274627685547,-1.6649891138076782 c9.1177978515625,0 18.658449172973633,1.3478482961654663 29.38838005065918,4.175687313079834 c-9.223511695861816,-6.818526744842529 -17.759883880615234,-12.368489265441895 -27.06268310546875,-16.755605697631836 c-9.197081565856934,-4.3606858253479 -18.57916259765625,-6.474958419799805 -28.674816131591797,-6.474958419799805 c-2.6956965923309326,0 -5.417821884155273,0.15857040882110596 -8.166375160217285,0.4757111370563507 c-12.632774353027344,1.3742767572402954 -27.353391647338867,2.854267120361328 -42.100440979003906,2.854267120361328 l-3.6735475063323975,-0.05285680294036865 c-11.787066459655762,-0.15857040882110596 -23.679845809936523,-2.061415195465088 -36.33905029296875,-5.8406758308410645 c-3.9378316402435303,-1.1628495454788208 -8.483515739440918,-1.7707027196884155 -13.478483200073242,-1.7971312999725342 l0,0 c-1.58570396900177,0 -3.0128374099731445,0.9778507947921753 -4.651398181915283,2.087843656539917 c-21.724143981933594,13.425627708435059 -38.47974395751953,31.370512008666992 -52.75108337402344,55.816776275634766 c-2.748553514480591,4.677826881408691 -5.364964962005615,9.434938430786133 -7.954948425292969,14.21847915649414 l-4.096401691436768,7.426379680633545 C89.3741455078125,504.2777580022812 88.3433837890625,505.54640424251556 87.60382843017578,506.3659232854843 zM279.1039123535156,414.6858695745468 c6.924240589141846,1.9028445482254028 12.71205997467041,4.38711404800415 18.394163131713867,7.690663814544678 c13.637053489685059,7.9285197257995605 25.767690658569336,19.239871978759766 37.026187896728516,34.54191589355469 l7.717092514038086,4.3606858253479 c3.17140793800354,1.4535620212554932 6.316387176513672,2.9071240425109863 9.54065227508545,4.228543758392334 c11.628496170043945,4.83639669418335 24.52555274963379,7.188525199890137 41.75687026977539,7.769948959350586 l2.484269380569458,-1.242134690284729 c8.562801361083984,-13.319912910461426 19.26630210876465,-23.891273498535156 31.819793701171875,-31.52907943725586 c4.3078293800354,-2.6428399085998535 8.747800827026367,-5.100681781768799 13.13491439819336,-7.5849504470825195 c5.338537216186523,-2.9599807262420654 7.5849504470825195,-6.607100009918213 7.9020915031433105,-11.892778396606445 c0.2642839848995209,-4.175687313079834 0.07928520441055298,-8.272088050842285 -0.1057136058807373,-12.421347618103027 c-6.5278143882751465,0.8457088470458984 -12.84420108795166,1.4535620212554932 -19.18701934814453,1.4535620212554932 c-11.09992790222168,0 -21.222003936767578,-1.7442742586135864 -30.974084854125977,-5.364964962005615 c-11.707780838012695,-4.334257125854492 -19.424875259399414,-11.15278434753418 -23.574132919311523,-20.825580596923828 c-2.2464139461517334,-5.179966449737549 -4.413542747497559,-10.359932899475098 -6.42210054397583,-15.672039985656738 c-0.13214199244976044,-0.44928282499313354 -0.2642839848995209,-0.8457088470458984 -0.3964259922504425,-1.2157063484191895 c-1.1364212036132812,1.58570396900177 -2.3785560131073,3.0128374099731445 -3.7528326511383057,4.3078293800354 c-7.479237079620361,7.003525733947754 -17.07274627685547,11.364212036132812 -30.128374099731445,13.742767333984375 c-3.6471190452575684,0.6342816352844238 -7.320666313171387,0.8457088470458984 -10.994214057922363,0.8457088470458984 c-3.0392658710479736,0 -6.052103519439697,-0.13214199244976044 -9.09136962890625,-0.2907123863697052 l-4.492827892303467,-0.2114272117614746 l-0.3699975907802582,-2.6428399085998535 v2.6428399085998535 c-2.087843656539917,0 -3.118551254272461,0.5549963712692261 -4.38711404800415,2.3785560131073 c-7.13566780090332,10.148506164550781 -15.513470649719238,18.949161529541016 -24.921981811523438,26.137685775756836 L279.1039123535156,414.6858695745468 zM56.391868591308594,305.4574455022812 c-2.167128562927246,7.822806358337402 -3.9642598628997803,15.434185028076172 -3.9906880855560303,23.54770278930664 c-0.05285680294036865,13.848481178283691 4.783539772033691,25.55626106262207 14.826332092285156,35.81047821044922 c10.703500747680664,10.994214057922363 23.970558166503906,18.394163131713867 34.30406188964844,23.626989364624023 c16.54417610168457,8.324945449829102 33.90763473510742,14.641332626342773 50.68967056274414,20.719865798950195 c2.6956965923309326,0.9778507947921753 5.417821884155273,1.7971312999725342 8.139945983886719,2.6428399085998535 c4.334257125854492,1.3214199542999268 8.668514251708984,2.6428399085998535 12.79134464263916,4.492827892303467 c5.655677318572998,2.5635547637939453 11.496354103088379,2.9071240425109863 16.464893341064453,2.9071240425109863 l6.633527755737305,-0.1849987953901291 c11.892778396606445,-0.3964259922504425 21.56557273864746,-1.6385607719421387 31.264795303344727,-2.8806955814361572 c5.312108516693115,-0.6607099771499634 10.597787857055664,-1.3742767572402954 15.936324119567871,-1.9028445482254028 l3.0921223163604736,-0.3171408176422119 c5.655677318572998,-0.5549963712692261 11.33778190612793,-1.1364212036132812 17.046316146850586,-1.18927800655365 c7.637807369232178,-12.447774887084961 16.729177474975586,-21.803430557250977 27.9348201751709,-28.489810943603516 l-1.5064187049865723,-0.15857040882110596 c-21.169145584106445,-1.8764163255691528 -39.16688919067383,-5.54996395111084 -55.36749267578125,-11.258498191833496 c-17.15203094482422,-6.052103519439697 -28.859811782836914,-13.10848617553711 -37.924747467041016,-22.886995315551758 C189.61705017089844,342.2981742620468 185.78521728515625,334.1053947210312 185.01898193359375,324.90855634212494 c-3.514977216720581,1.7178459167480469 -8.139945983886719,2.6956965923309326 -12.976343154907227,2.6956965923309326 c-12.104207038879395,-0.2642839848995209 -20.534866333007812,-5.7878193855285645 -26.6133975982666,-16.887746810913086 C144.9005889892578,309.73851239681244 144.4246826171875,308.73439252376556 143.97549438476562,307.7036613225937 c-0.23785556852817535,2.0085582733154297 -0.2907123863697052,3.9378316402435303 -0.13214199244976044,5.893533229827881 c0.8721371293067932,10.677074432373047 6.977097034454346,19.00201988220215 12.209919929504395,25.02769660949707 c7.6642351150512695,8.827085494995117 16.967031478881836,16.30632209777832 25.979114532470703,23.49484634399414 l8.351374626159668,6.712813854217529 c7.10923957824707,5.682106018066406 14.429905891418457,11.549211502075195 20.772722244262695,18.499879837036133 c3.6735475063323975,4.017116546630859 7.690663814544678,8.985655784606934 9.619935989379883,15.302042961120605 c0.3699975907802582,1.1099927425384521 0.792851984500885,2.431412696838379 0.3699975907802582,4.3078293800354 c-0.2642839848995209,1.1364212036132812 -1.242134690284729,1.9557015895843506 -2.3785560131073,2.0349864959716797 c-0.05285680294036865,0 -0.13214199244976044,0 -0.1849987953901291,0 c-1.083564281463623,0 -2.061415195465088,-0.6342816352844238 -2.457841157913208,-1.6649891138076782 c-2.6428399085998535,-6.818526744842529 -7.717092514038086,-11.33778190612793 -13.10848617553711,-16.12132453918457 c-4.413542747497559,-3.9378316402435303 -8.906371116638184,-6.792098522186279 -13.372770309448242,-9.646366119384766 c-1.9292731285095215,-1.242134690284729 -3.858546257019043,-2.457841157913208 -5.7613911628723145,-3.7528326511383057 c2.3785560131073,3.8321175575256348 4.069972991943359,7.954948425292969 4.7571120262146,12.738487243652344 c0.1849987953901291,1.3214199542999268 -0.6342816352844238,2.5635547637939453 -1.9028445482254028,2.9071240425109863 c-0.23785556852817535,0.05285680294036865 -0.4757111370563507,0.07928520441055298 -0.713566780090332,0.07928520441055298 c-1.030707597732544,0 -2.0085582733154297,-0.5814247727394104 -2.431412696838379,-1.6121324300765991 c-2.061415195465088,-4.809967994689941 -5.497107028961182,-9.012084007263184 -10.835643768310547,-13.161343574523926 c-6.104959964752197,-4.7571120262146 -12.553489685058594,-9.1177978515625 -19.134159088134766,-13.240628242492676 l-3.3564069271087646,-2.140700340270996 c-10.386361122131348,-6.554243087768555 -21.116291046142578,-13.346341133117676 -30.78908348083496,-21.45985984802246 c-7.8756632804870605,-6.607100009918213 -13.557768821716309,-12.71205997467041 -17.865596771240234,-19.31916046142578 c-10.62421703338623,-16.17418098449707 -11.813494682312012,-33.53763961791992 -3.514977216720581,-51.53538131713867 c7.13566780090332,-15.539897918701172 18.764163970947266,-27.300537109375 28.11981773376465,-35.784053802490234 c10.439217567443848,-9.5142240524292 21.909143447875977,-17.601314544677734 32.74478530883789,-25.054121017456055 c16.200607299804688,-11.15278434753418 29.494094848632812,-25.31840705871582 39.27259826660156,-36.418338775634766 c12.94991683959961,-14.720617294311523 24.869123458862305,-30.736228942871094 36.39190673828125,-46.223270416259766 l11.628496170043945,-15.539897918701172 c6.42210054397583,-8.483515739440918 13.08205795288086,-17.25774383544922 21.24843406677246,-24.657697677612305 c2.167128562927246,-1.9557015895843506 4.38711404800415,-3.858546257019043 6.8449554443359375,-5.417821884155273 c1.9821299314498901,-1.2157063484191895 4.334257125854492,-2.5371265411376953 7.611378192901611,-2.6692686080932617 c0.026428401470184326,0 0.05285680294036865,0 0.07928520441055298,0 c1.2157063484191895,0 2.2728424072265625,0.8192803859710693 2.5635547637939453,2.0085582733154297 c0.2907123863697052,1.2157063484191895 -0.2907123863697052,2.484269380569458 -1.400705099105835,3.0128374099731445 c-6.977097034454346,3.3828353881835938 -10.994214057922363,9.170655250549316 -15.513470649719238,16.359180450439453 C262.29498291015625,109.22579419612885 257.1154479980469,117.84197461605072 251.9085693359375,126.45733869075775 L241.68101501464844,143.3186515569687 C229.02174377441406,163.9061759710312 217.552001953125,180.18600690364838 205.5532684326172,194.58986127376556 C193.79324340820312,208.72914350032806 179.25717163085938,221.94333112239838 161.18040466308594,234.9986137151718 C146.6184844970703,245.5440238714218 135.70367431640625,255.5337394475937 126.82383728027344,266.4486869573593 c-5.444250583648682,6.686385154724121 -11.232069969177246,14.932044982910156 -12.84420108795166,25.186264038085938 c-0.8192803859710693,5.285679817199707 0,10.78278636932373 2.484269380569458,16.755605697631836 c3.4356918334960938,8.245660781860352 9.276368141174316,14.588476181030273 16.015609741210938,21.24843406677246 c-6.474958419799805,-14.112764358520508 -5.708534240722656,-29.01838493347168 2.2728424072265625,-44.4261360168457 c7.188525199890137,-13.874908447265625 17.865596771240234,-24.499126434326172 26.349111557006836,-32.216217041015625 c8.906371116638184,-8.113518714904785 18.288450241088867,-15.407756805419922 27.855533599853516,-21.724143981933594 c15.513470649719238,-10.227789878845215 28.806957244873047,-24.20841407775879 40.72616195678711,-42.734718322753906 c10.756359100341797,-16.782032012939453 19.00201988220215,-34.7797737121582 27.168394088745117,-53.2796516418457 l1.9557015895843506,-4.466399192810059 c3.56783390045166,-8.166375160217285 7.2413811683654785,-16.597036361694336 12.024922370910645,-24.44626808166504 c2.6692686080932617,-4.413542747497559 5.497107028961182,-8.536373138427734 10.756359100341797,-10.544930458068848 c0.3171408176422119,-0.1057136058807373 0.6342816352844238,-0.1849987953901291 0.9514222741127014,-0.1849987953901291 c0.9514222741127014,0 1.8764163255691528,0.5285679697990417 2.3256990909576416,1.427133560180664 c0.6342816352844238,1.18927800655365 0.2642839848995209,2.6428399085998535 -0.8457088470458984,3.4092633724212646 c-4.3606858253479,2.9864091873168945 -6.42210054397583,7.9020915031433105 -8.404231071472168,12.65920352935791 c-3.19783616065979,7.637807369232178 -5.893533229827881,15.460613250732422 -8.589228630065918,23.283418655395508 l-3.884974479675293,11.09992790222168 C256.9565124511719,164.540895819664 248.10337829589844,186.7140678167343 234.49244689941406,206.85232770442963 c-10.016363143920898,14.79990291595459 -21.301288604736328,26.5605411529541 -34.51548767089844,35.96905517578125 c-11.919208526611328,8.457087516784668 -27.221248626708984,20.032726287841797 -40.01259994506836,34.54191589355469 c-5.021396160125732,5.682106018066406 -8.985655784606934,11.443497657775879 -12.077778816223145,17.5484561920166 c-0.5814247727394104,1.1364212036132812 -0.6078531742095947,1.8499878644943237 -0.1849987953901291,2.827838659286499 c1.8499878644943237,4.096401691436768 3.3035500049591064,7.294238090515137 5.179966449737549,10.307075500488281 c5.206395149230957,8.272088050842285 12.500632286071777,12.262776374816895 22.35842514038086,12.262776374816895 c1.2949916124343872,0 7.003525733947754,-0.5285679697990417 7.082810878753662,-0.5285679697990417 l2.8806955814361572,0.07928520441055298 c0,-0.1057136058807373 -0.15857040882110596,-3.858546257019043 -0.13214199244976044,-3.9642598628997803 c0.2642839848995209,-1.9292731285095215 0.6607099771499634,-3.8321175575256348 1.242134690284729,-5.708534240722656 c0.34356918931007385,-1.1099927425384521 1.3742767572402954,-1.8764163255691528 2.5371265411376953,-1.8764163255691528 c0.1057136058807373,0 0.23785556852817535,0 0.3699975907802582,0.026428401470184326 c1.2685632705688477,0.1849987953901291 2.2464139461517334,1.2685632705688477 2.2728424072265625,2.5635547637939453 c0.13214199244976044,5.153537750244141 0.7399951815605164,9.302796363830566 1.9028445482254028,13.08205795288086 c2.77498197555542,8.932798385620117 8.6156587600708,15.989182472229004 18.394163131713867,22.173425674438477 c12.447774887084961,7.8756632804870605 26.349111557006836,11.998493194580078 38.32118225097656,14.984902381896973 c14.535619735717773,3.6206905841827393 30.28694725036621,6.263530254364014 49.55324935913086,8.351374626159668 l7.029954433441162,0.8192803859710693 c6.5278143882751465,0.7664235234260559 13.055628776550293,1.5592756271362305 19.583444595336914,1.8764163255691528 l3.884974479675293,0.1057136058807373 c11.998493194580078,0 21.882715225219727,-2.9599807262420654 30.15480613708496,-9.09136962890625 c4.624969959259033,-4.149259090423584 5.179966449737549,-6.104959964752197 3.9642598628997803,-9.302796363830566 c-2.2992703914642334,-6.025674819946289 -3.17140793800354,-12.421347618103027 -3.9906880855560303,-18.632022857666016 c0,-0.07928520441055298 -0.1849987953901291,-2.722125291824341 -0.1849987953901291,-2.80141019821167 c-0.026428401470184326,-1.0571359395980835 0.5285679697990417,-3.0392658710479736 1.427133560180664,-3.7264041900634766 c-0.5549963712692261,-0.3171408176422119 -1.1364212036132812,-0.6607099771499634 -1.6649891138076782,-1.0571359395980835 c-3.19783616065979,1.242134690284729 -6.712813854217529,2.114271879196167 -10.333503723144531,2.114271879196167 c-3.884974479675293,0 -7.9285197257995605,-0.9778507947921753 -12.262776374816895,-2.9335522651672363 c-7.796377182006836,-3.56783390045166 -14.826332092285156,-8.6156587600708 -20.799150466918945,-13.10848617553711 c-0.9249939322471619,-0.6871383786201477 -1.2949916124343872,-1.9292731285095215 -0.8985656499862671,-3.0128374099731445 c0.3964259922504425,-1.0571359395980835 1.3742767572402954,-1.7442742586135864 2.484269380569458,-1.7442742586135864 c0.026428401470184326,0 0.5021395683288574,0 0.6871383786201477,0 c6.025674819946289,0 9.831364631652832,-0.7664235234260559 13.399198532104492,-2.2992703914642334 c3.3035500049591064,-1.427133560180664 6.369243621826172,-3.2506933212280273 9.434938430786133,-5.074253082275391 l3.6471190452575684,-2.140700340270996 c3.4092633724212646,-1.9557015895843506 6.818526744842529,-3.7264041900634766 10.862071990966797,-4.122830390930176 c0.34356918931007385,0 0.6607099771499634,0 0.9778507947921753,0 c3.6999757289886475,0 5.60282039642334,0.5021395683288574 7.320666313171387,1.427133560180664 c0.34356918931007385,-2.6164114475250244 1.9557015895843506,-5.497107028961182 3.6471190452575684,-8.351374626159668 c-0.3964259922504425,0.05285680294036865 -0.7664235234260559,0.07928520441055298 -1.1364212036132812,0.07928520441055298 c-3.19783616065979,0 -5.629249095916748,-2.114271879196167 -6.659956455230713,-5.259251594543457 c-3.2506933212280273,1.4799903631210327 -6.686385154724121,1.9821299314498901 -9.989933967590332,2.2728424072265625 c-1.8499878644943237,0.15857040882110596 -3.6735475063323975,0.6607099771499634 -5.470678806304932,1.1628495454788208 c-1.5328470468521118,0.4228544235229492 -3.0656940937042236,0.8457088470458984 -4.651398181915283,1.1099927425384521 c-1.18927800655365,0.2114272117614746 -2.3785560131073,0.3171408176422119 -3.56783390045166,0.3171408176422119 c-1.1364212036132812,0 -2.2728424072265625,-0.1057136058807373 -3.3299782276153564,-0.34356918931007385 c-4.413542747497559,-0.9514222741127014 -6.977097034454346,-3.8056890964508057 -7.8756632804870605,-8.7213716506958 c-0.2114272117614746,-1.242134690284729 0.44928282499313354,-2.457841157913208 1.6121324300765991,-2.9335522651672363 c0.3171408176422119,-0.13214199244976044 0.6607099771499634,-0.1849987953901291 1.0042791366577148,-0.1849987953901291 c0.8721371293067932,0 1.6914176940917969,0.4228544235229492 2.193557024002075,1.1628495454788208 c1.4799903631210327,2.193557024002075 2.748553514480591,2.457841157913208 3.56783390045166,2.457841157913208 c1.030707597732544,0 2.2464139461517334,-0.4228544235229492 3.911403179168701,-1.2949916124343872 c4.783539772033691,-2.5371265411376953 9.593509674072266,-4.915682315826416 14.69419002532959,-6.659956455230713 c1.2157063484191895,-6.8449554443359375 -1.4535620212554932,-10.941357612609863 -4.254971981048584,-15.275614738464355 c-6.8449554443359375,-10.544930458068848 -12.764917373657227,-19.60987091064453 -16.729177474975586,-29.758378982543945 c-3.144979476928711,-8.060662269592285 -5.919961452484131,-17.707029342651367 -2.6428399085998535,-28.1991024017334 c2.9599807262420654,-9.5142240524292 9.408509254455566,-15.989182472229004 19.134159088134766,-19.26630210876465 c0.2907123863697052,-0.07928520441055298 0.5549963712692261,-0.13214199244976044 0.8457088470458984,-0.13214199244976044 c0.9249939322471619,0 1.7971312999725342,0.5021395683288574 2.2992703914642334,1.3214199542999268 c0.6078531742095947,1.083564281463623 0.3964259922504425,2.457841157913208 -0.5549963712692261,3.3035500049591064 c-3.514977216720581,3.0128374099731445 -5.312108516693115,4.572112560272217 -6.686385154724121,6.42210054397583 c-5.7613911628723145,7.717092514038086 -6.501386642456055,16.09489631652832 -2.2199854850769043,25.661975860595703 c1.9557015895843506,-0.8985656499862671 3.144979476928711,-1.242134690284729 4.122830390930176,-1.8235595226287842 c2.854267120361328,-1.6914176940917969 3.7264041900634766,-3.0921223163604736 3.6206905841827393,-5.8406758308410645 c-0.4757111370563507,-10.62421703338623 1.7971312999725342,-21.142719268798828 6.7656707763671875,-31.317651748657227 c0.44928282499313354,-0.8985656499862671 0.2907123863697052,-1.7971312999725342 -0.026428401470184326,-3.3299782276153564 c-4.572112560272217,-30.445512771606445 -17.839168548583984,-56.26605987548828 -39.66902542114258,-78.17520141601562 c-8.377802848815918,-8.404231071472168 -17.759883880615234,-16.597036361694336 -28.72766876220703,-25.106979370117188 c-1.9557015895843506,-1.5328470468521118 -4.38711404800415,-2.5635547637939453 -6.950669765472412,-3.6735475063323975 C267.6600036621094,60.545290350914 255.8733673095703,56.871546149253845 243.3465118408203,54.46649777889252 C232.58982849121094,52.404993414878845 221.4370880126953,51.34761655330658 210.17872619628906,51.34761655330658 c-4.7571120262146,0 -9.54065227508545,0.1849987953901291 -14.32419204711914,0.5549963712692261 C176.79965209960938,53.33008420467377 160.01739501953125,57.03045117855072 144.58358764648438,63.18827664852142 C122.75323486328125,71.93588483333588 106.02420043945312,83.88141095638275 93.44474029541016,99.73859632015228 C86.33512115478516,108.69755017757416 81.6572494506836,119.11068189144135 77.66651916503906,129.0470756292343 c-6.8713836669921875,17.046316146850586 -10.809215545654297,33.14120864868164 -12.104207038879395,49.23611068725586 C64.8749771118164,187.29556500911713 65.13948059082031,196.33438336849213 65.61537170410156,205.3723167181015 l0.3699975907802582,5.919961452484131 c0.44928282499313354,6.554243087768555 0.9249939322471619,13.293485641479492 0.07928520441055298,20.112010955810547 C64.8749771118164,240.8395255804062 61.36012268066406,248.345095038414 55.307861328125,254.3182853460312 c-15.064187049865723,14.932044982910156 -25.159835815429688,29.044809341430664 -31.740507125854492,44.3732795715332 c-8.536373138427734,19.900583267211914 -9.567079544067383,38.03046417236328 -3.17140793800354,55.47320556640625 c3.462120294570923,9.382081985473633 9.170655250549316,17.574886322021484 17.4427433013916,25.001264572143555 c11.787066459655762,10.571359634399414 26.16411590576172,17.971311569213867 45.060420989990234,23.071992874145508 c-14.403478622436523,-7.16209602355957 -25.952686309814453,-15.751326560974121 -35.12334060668945,-26.08483123779297 c-9.937077522277832,-11.232069969177246 -15.354899406433105,-24.52555274963379 -16.09489631652832,-39.45759963989258 c-0.6078531742095947,-12.84420108795166 2.2199854850769043,-26.058401107788086 8.906371116638184,-41.54544448852539 c3.911403179168701,-9.09136962890625 8.747800827026367,-17.707029342651367 13.531341552734375,-26.349111557006836 l4.704254627227783,-8.483515739440918 C62.91912841796875,252.838259100914 67.1219482421875,245.0415824651718 68.1784896850586,236.3463615179062 C68.33740234375,235.10428082942963 69.36815643310547,234.12677228450775 70.6102294921875,234.047731757164 c0.05285680294036865,0 0.13214199244976044,0 0.1849987953901291,0 c1.18927800655365,0 2.2199854850769043,0.792851984500885 2.5635547637939453,1.9557015895843506 c1.7971312999725342,6.633527755737305 0.792851984500885,13.13491439819336 -0.4228544235229492,18.632022857666016 c-2.0349864959716797,9.223511695861816 -5.206395149230957,17.759883880615234 -8.800657272338867,27.168394088745117 c-1.8764163255691528,4.915682315826416 -2.6428399085998535,9.223511695861816 -2.4049839973449707,13.531341552734375 c0.13214199244976044,2.748553514480591 0.2907123863697052,5.867104530334473 -0.2114272117614746,8.906371116638184 c-0.2114272117614746,1.2157063484191895 -1.242134690284729,2.140700340270996 -2.484269380569458,2.193557024002075 c-0.026428401470184326,0 -0.07928520441055298,0 -0.13214199244976044,0 c-0.713566780090332,0 -1.7442742586135864,-0.2642839848995209 -2.2464139461517334,-0.713566780090332 C56.576576232910156,305.6421684026718 56.470909118652344,305.5630668401718 56.391868591308594,305.4574455022812 zM356.1420593261719,239.41275250911713 c-0.3699975907802582,-0.792851984500885 -0.713566780090332,-1.58570396900177 -1.0571359395980835,-2.3521273136138916 c-1.3742767572402954,-3.19783616065979 -2.5635547637939453,-6.42210054397583 -3.2506933212280273,-9.804935455322266 c-0.1849987953901291,1.083564281463623 -1.242134690284729,1.5592756271362305 -2.6692686080932617,1.7178459167480469 L356.1420593261719,239.41275250911713 z" id="svg_1" class="" fill="#ffffff" fill-opacity="1"/><path style="" d="M241.20518493652344,514.4528678655624 c-0.5814247727394104,0 -1.18927800655365,-0.1849987953901291 -1.6649891138076782,-0.5549963712692261 c-3.6206905841827393,-2.9335522651672363 -5.734961986541748,-6.633527755737305 -6.104959964752197,-10.703500747680664 c-0.4228544235229492,-4.281400680541992 1.1099927425384521,-8.6156587600708 4.413542747497559,-12.553489685058594 c1.2949916124343872,-1.5328470468521118 1.3214199542999268,-1.8764163255691528 0.7664235234260559,-3.2506933212280273 c-2.457841157913208,-6.131388187408447 1.8499878644943237,-11.020642280578613 3.2771215438842773,-12.65920352935791 c3.2506933212280273,-3.6471190452575684 7.16209602355957,-5.972818374633789 11.126355171203613,-7.611378192901611 l-2.77498197555542,-0.4228544235229492 c-1.0042791366577148,-0.13214199244976044 -1.8235595226287842,-0.8192803859710693 -2.140700340270996,-1.7707027196884155 c-0.3171408176422119,-0.9514222741127014 -0.05285680294036865,-1.9821299314498901 0.6342816352844238,-2.722125291824341 c3.6206905841827393,-3.5942625999450684 9.567079544067383,-4.334257125854492 13.901339530944824,-4.334257125854492 c9.487794876098633,0 19.953441619873047,3.5942625999450684 26.031972885131836,8.906371116638184 c0.8457088470458984,0.713566780090332 1.1099927425384521,1.9028445482254028 0.713566780090332,2.9335522651672363 s-1.3742767572402954,1.6649891138076782 -2.457841157913208,1.6649891138076782 c-0.026428401470184326,0 -0.2114272117614746,0 -0.2907123863697052,0 c-4.809967994689941,0 -8.166375160217285,0.44928282499313354 -11.496354103088379,1.083564281463623 c-9.012084007263184,1.7442742586135864 -17.733455657958984,3.7528326511383057 -25.450550079345703,8.457087516784668 c-1.083564281463623,0.6607099771499634 -1.8764163255691528,1.3214199542999268 -2.484269380569458,1.9557015895843506 c8.906371116638184,-5.021396160125732 19.134159088134766,-7.5849504470825195 30.47194480895996,-7.5849504470825195 c8.6156587600708,0.1849987953901291 14.007051467895508,1.58570396900177 18.1827392578125,4.281400680541992 c1.0042791366577148,0.6342816352844238 1.427133560180664,1.8499878644943237 1.1099927425384521,2.9599807262420654 c-0.34356918931007385,1.1364212036132812 -1.3742767572402954,1.8764163255691528 -2.5371265411376953,1.8764163255691528 h-0.026428401470184326 c-8.377802848815918,0 -16.33275032043457,1.1364212036132812 -25.476974487304688,3.56783390045166 c-6.4485297203063965,1.6914176940917969 -13.927766799926758,4.017116546630859 -20.48200798034668,8.245660781860352 c-1.58570396900177,1.0042791366577148 -2.748553514480591,1.9557015895843506 -3.7264041900634766,2.9864091873168945 c-2.457841157913208,2.6164114475250244 -3.144979476928711,5.259251594543457 -2.167128562927246,8.324945449829102 l1.1099927425384521,3.462120294570923 c0.34356918931007385,1.1099927425384521 -0.07928520441055298,2.3256990909576416 -1.0571359395980835,2.9599807262420654 C242.23594665527344,514.3206046819687 241.7342529296875,514.4528678655624 241.20518493652344,514.4528678655624 z" id="svg_2" class="" fill="#ffffff" fill-opacity="1"/><path style="" d="M241.20518493652344,511.8365958929062 c-6.42210054397583,-5.206395149230957 -6.924240589141846,-12.84420108795166 -1.3214199542999268,-19.47772979736328 c1.6649891138076782,-1.9821299314498901 2.2199854850769043,-3.3564069271087646 1.18927800655365,-5.919961452484131 c-1.5064187049865723,-3.7528326511383057 0.2907123863697052,-7.082810878753662 2.80141019821167,-9.910650253295898 c4.413542747497559,-4.968538761138916 10.307075500488281,-7.347095012664795 16.517751693725586,-9.1177978515625 c1.1628495454788208,-0.34356918931007385 2.5371265411376953,-0.23785556852817535 3.911403179168701,-1.3214199542999268 c-4.7571120262146,-0.6871383786201477 -9.144225120544434,-1.3214199542999268 -13.663481712341309,-1.9557015895843506 c6.4485297203063965,-6.369243621826172 26.586971282958984,-3.858546257019043 36.33905029296875,4.677826881408691 c-4.439970970153809,-0.1057136058807373 -8.377802848815918,0.34356918931007385 -12.289205551147461,1.1099927425384521 c-9.144225120544434,1.7971312999725342 -18.235595703125,3.8321175575256348 -26.32268714904785,8.800657272338867 c-4.202115535736084,2.5899832248687744 -5.8406758308410645,5.734961986541748 -4.994966983795166,9.884221076965332 c10.78278636932373,-7.849233627319336 22.939847946166992,-10.888501167297363 36.021907806396484,-10.597787857055664 c6.659956455230713,0.15857040882110596 11.496354103088379,1.5328470468521118 15.090615272521973,3.8321175575256348 c-9.09136962890625,-0.05285680294036865 -17.707029342651367,1.400705099105835 -26.16411590576172,3.6471190452575684 c-7.426379680633545,1.9821299314498901 -14.720617294311523,4.3606858253479 -21.24843406677246,8.562801361083984 c-1.5328470468521118,0.9778507947921753 -2.9599807262420654,2.087843656539917 -4.202115535736084,3.4092633724212646 c-2.9335522651672363,3.144979476928711 -4.069972991943359,6.739241600036621 -2.748553514480591,10.941357612609863 C240.4123992919922,509.35243451595306 240.73011779785156,510.3300346136093 241.20518493652344,511.8365958929062 z" id="svg_3" class="" fill="#ffffff" fill-opacity="1"/><path style="" d="M427.9483337402344,177.25265729427338 c-0.8721371293067932,0 -1.7707027196884155,-0.2114272117614746 -2.193557024002075,-0.7664235234260559 c-0.6871383786201477,-0.9778507947921753 -1.58570396900177,-1.8764163255691528 -0.792851984500885,-2.80141019821167 c5.364964962005615,-6.607100009918213 11.522782325744629,-12.71205997467041 19.3455867767334,-19.239871978759766 c10.597787857055664,-8.827085494995117 21.24843406677246,-15.064187049865723 32.50693130493164,-19.0284481048584 c8.932798385620117,-3.144979476928711 17.892026901245117,-4.730683326721191 26.6133975982666,-4.730683326721191 c14.21847915649414,0 28.27838706970215,4.228543758392334 41.83615493774414,12.527060508728027 c9.302796363830566,5.708534240722656 17.019887924194336,13.00277328491211 23.362703323364258,19.37201499938965 c0.9514222741127014,0.9514222741127014 1.0042791366577148,2.484269380569458 0.15857040882110596,3.514977216720581 c-0.5285679697990417,0.6342816352844238 -1.2685632705688477,0.9778507947921753 -2.0349864959716797,0.9778507947921753 c-0.5021395683288574,0 -1.0042791366577148,-0.13214199244976044 -1.4535620212554932,-0.44928282499313354 l-7.8756632804870605,-5.153537750244141 c-10.862071990966797,-7.479237079620361 -20.217723846435547,-12.421347618103027 -29.441234588623047,-15.592754364013672 c-7.8756632804870605,-2.6956965923309326 -15.883468627929688,-4.043545246124268 -23.811988830566406,-4.043545246124268 c-9.778507232666016,0 -19.847728729248047,2.061415195465088 -29.890520095825195,6.1578168869018555 c-16.33275032043457,6.633527755737305 -29.943374633789062,16.914175033569336 -41.096160888671875,26.08483123779297 c0,0 -3.4092633724212646,2.827838659286499 -3.4092633724212646,2.827838659286499 C429.27020263671875,177.14699018001556 428.6088562011719,177.25265729427338 427.9483337402344,177.25265729427338 z" id="svg_4" class="" fill="#ffffff" fill-opacity="1"/><path style="" d="M283.1203918457031,262.5635246038437 c-3.858546257019043,0 -7.769948959350586,-0.4757111370563507 -11.734209060668945,-1.400705099105835 c-3.2506933212280273,-0.7399951815605164 -5.972818374633789,-2.0085582733154297 -8.853514671325684,-4.017116546630859 C261.6343994140625,256.51124799251556 261.2118225097656,255.37481915950775 261.5021057128906,254.3182853460312 c0.2907123863697052,-1.083564281463623 1.2157063484191895,-1.8499878644943237 2.3256990909576416,-1.9557015895843506 c12.579917907714844,-1.1099927425384521 24.551984786987305,-4.624969959259033 36.550479888916016,-10.677074432373047 c-4.281400680541992,-6.104959964752197 -5.470678806304932,-10.069220542907715 -4.915682315826416,-15.592754364013672 c0.1057136058807373,-1.0571359395980835 0.8192803859710693,-1.9292731285095215 1.8235595226287842,-2.2464139461517334 c0.2642839848995209,-0.07928520441055298 0.5285679697990417,-0.13214199244976044 0.792851984500885,-0.13214199244976044 c0.7399951815605164,0 1.4799903631210327,0.3171408176422119 2.0085582733154297,0.9249939322471619 c0,0 3.9906880855560303,4.704254627227783 5.179966449737549,5.972818374633789 c1.7707027196884155,1.8764163255691528 3.2242648601531982,2.6692686080932617 4.809967994689941,2.6692686080932617 l3.3564069271087646,-0.44928282499313354 c2.484269380569458,0 4.83639669418335,1.3478482961654663 6.42210054397583,3.6735475063323975 c1.2157063484191895,1.7707027196884155 2.2464139461517334,4.704254627227783 0.3964259922504425,8.536373138427734 c-1.1099927425384521,2.3256990909576416 -2.8806955814361572,4.334257125854492 -5.338537216186523,6.184244632720947 C304.7919006347656,258.7582572698593 294.0884094238281,262.5635246038437 283.1203918457031,262.5635246038437 z" id="svg_5" class="" fill="#ffffff" fill-opacity="1"/><path style="" d="M264.0661315917969,255.0054191350937 c14.720617294311523,-1.3214199542999268 27.829103469848633,-5.708534240722656 40.27688217163086,-12.394920349121094 c-5.391393184661865,-7.082810878753662 -6.792098522186279,-10.703500747680664 -6.210673809051514,-16.25346565246582 c1.8235595226287842,2.114271879196167 3.462120294570923,4.175687313079834 5.285679817199707,6.078531742095947 c2.4049839973449707,2.5371265411376953 5.100681781768799,4.202115535736084 8.959226608276367,3.17140793800354 c2.087843656539917,-0.5549963712692261 4.069972991943359,0.4757111370563507 5.364964962005615,2.3785560131073 c1.3214199542999268,1.9028445482254028 1.1364212036132812,3.911403179168701 0.1849987953901291,5.893533229827881 c-1.030707597732544,2.140700340270996 -2.6956965923309326,3.8321175575256348 -4.545684814453125,5.232822895050049 c-12.368489265441895,9.223511695861816 -26.00554656982422,13.10848617553711 -41.334014892578125,9.54065227508545 C269.4045104980469,258.01783978939056 266.9203796386719,257.0403312444687 264.0661315917969,255.0054191350937 z" id="svg_6" class="" fill="#ffffff" fill-opacity="1"/><path style="" d="M500.1238708496094,303.1846183538437 c-0.8457088470458984,0 -1.6914176940917969,-0.4228544235229492 -2.193557024002075,-1.1628495454788208 l2.193557024002075,-1.4799903631210327 l-3.0128374099731445,0.2642839848995209 c-0.7664235234260559,-1.1099927425384521 -1.5328470468521118,-2.193557024002075 -2.114271879196167,-3.3299782276153564 c-8.007804870605469,-14.773475646972656 -12.500632286071777,-31.317651748657227 -13.769196510314941,-50.531097412109375 C479.8533935546875,226.8059104681015 482.5763244628906,205.3989280462265 489.50030517578125,181.4546378850937 l3.488548517227173,-2.748553514480591 l-2.5635547637939453,-0.6607099771499634 l0.9249939322471619,-3.2771215438842773 c0.34356918931007385,-1.1099927425384521 1.3742767572402954,-1.9028445482254028 2.5371265411376953,-1.9028445482254028 c0.07928520441055298,0 0.15857040882110596,0 0.2114272117614746,0 c1.2685632705688477,0.1057136058807373 2.2728424072265625,1.083564281463623 2.431412696838379,2.3256990909576416 c0.5285679697990417,4.3606858253479 -0.026428401470184326,8.6156587600708 -0.5549963712692261,12.738487243652344 c-2.2992703914642334,18.499879837036133 -4.149259090423584,36.814762115478516 -3.541405439376831,55.1824951171875 c0.6078531742095947,17.733455657958984 3.2242648601531982,33.564064025878906 8.007804870605469,48.31111526489258 c0.9249939322471619,2.80141019821167 1.7442742586135864,5.60282039642334 2.3256990909576416,8.6156587600708 c0.23785556852817535,1.242134690284729 -0.44928282499313354,2.457841157913208 -1.6121324300765991,2.9335522651672363 C500.7852783203125,303.1048148870468 500.4674377441406,303.1846183538437 500.1238708496094,303.1846183538437 z" id="svg_7" class="" fill="#ffffff" fill-opacity="1"/><path style="" d="M493.8604736328125,175.48227155208588 c0.5549963712692261,4.545684814453125 -0.15857040882110596,9.038512229919434 -0.713566780090332,13.557768821716309 c-2.2199854850769043,17.971311569213867 -3.9906880855560303,35.995479583740234 -3.3564069271087646,54.15179443359375 c0.5814247727394104,16.676319122314453 2.9864091873168945,33.114784240722656 8.139945983886719,49.05110549926758 c0.8721371293067932,2.6956965923309326 1.6914176940917969,5.391393184661865 2.2199854850769043,8.298518180847168 c-0.9514222741127014,-1.427133560180664 -1.9821299314498901,-2.80141019821167 -2.80141019821167,-4.3078293800354 c-8.324945449829102,-15.434185028076172 -12.315633773803711,-32.057647705078125 -13.478483200073242,-49.47395706176758 c-1.4799903631210327,-22.067712783813477 2.087843656539917,-43.47471618652344 8.166375160217285,-64.56458282470703 c0.34356918931007385,-1.1628495454788208 0.6342816352844238,-2.3256990909576416 0.9514222741127014,-3.488548517227173 C493.25311279296875,177.62282025814056 493.57012939453125,176.56552350521088 493.8604736328125,175.48227155208588 z" id="svg_8" class="" fill="#ffffff" fill-opacity="1"/><path style="" d="M246.913818359375,234.02110517024994 c-0.8457088470458984,0 -1.6121324300765991,-0.1849987953901291 -1.9821299314498901,-0.6607099771499634 l2.140700340270996,-1.5592756271362305 L244.5087127685547,232.77903974056244 c-0.5814247727394104,-0.8192803859710693 -0.792851984500885,-2.0349864959716797 -0.34356918931007385,-2.9335522651672363 c7.10923957824707,-13.637053489685059 16.967031478881836,-28.014102935791016 36.180477142333984,-31.42336654663086 c1.7707027196884155,-0.3171408176422119 3.488548517227173,-0.44928282499313354 5.179966449737549,-0.44928282499313354 c7.769948959350586,0 15.064187049865723,3.144979476928711 21.671287536621094,9.382081985473633 c0.5549963712692261,0.8457088470458984 1.1099927425384521,2.722125291824341 0.5814247727394104,3.56783390045166 c-0.5021395683288574,0.8457088470458984 -0.8985656499862671,2.061415195465088 -1.8499878644943237,2.061415195465088 c-0.026428401470184326,0 -5.444250583648682,-0.4228544235229492 -6.8713836669921875,-0.6078531742095947 c-1.7707027196884155,-0.23785556852817535 -3.514977216720581,-0.3699975907802582 -5.232822895050049,-0.3699975907802582 c-7.558522701263428,0 -14.720617294311523,2.2992703914642334 -21.935571670532227,7.003525733947754 l-7.16209602355957,4.889253616333008 C260.6036682128906,226.7002433538437 256.50732421875,229.52794110774994 252.17308044433594,232.0652641057968 L249.58335876464844,233.4662650823593 C248.9752960205078,233.7831596136093 247.89207458496094,234.02110517024994 246.913818359375,234.02110517024994 z" id="svg_9" class="" fill="#ffffff" fill-opacity="1"/><path style="" d="M246.51780700683594,231.06112897396088 c7.505665302276611,-14.429905891418457 16.861316680908203,-26.956966400146484 34.27763366699219,-30.049089431762695 c9.434938430786133,-1.6649891138076782 17.654170989990234,1.7178459167480469 24.578411102294922,8.245660781860352 c0.23785556852817535,0.2114272117614746 0.34356918931007385,0.5285679697990417 0.6871383786201477,1.083564281463623 c-2.431412696838379,-0.2114272117614746 -4.545684814453125,-0.3171408176422119 -6.633527755737305,-0.6078531742095947 c-10.597787857055664,-1.4799903631210327 -20.13844108581543,1.242134690284729 -28.991952896118164,7.029954433441162 C263.880615234375,221.07147443294525 257.6170959472656,225.82838666439056 250.8519744873047,229.79249799251556 C249.61000061035156,230.5062736272812 248.31472778320312,231.14016950130463 247.07266235351562,231.80076825618744 C246.88796997070312,231.5628226995468 246.70248413085938,231.2990745306015 246.51780700683594,231.06112897396088 z" id="svg_10" class="" fill="#ffffff" fill-opacity="1"/><path style="" d="M424.9883728027344,373.8012260198593 c-0.5814247727394104,0 -1.18927800655365,-0.1849987953901291 -1.6649891138076782,-0.5814247727394104 c-4.994966983795166,-4.122830390930176 -10.148506164550781,-8.6156587600708 -14.350621223449707,-14.297764778137207 c-3.884974479675293,5.206395149230957 -9.012084007263184,7.8756632804870605 -15.249186515808105,7.9020915031433105 c-6.316387176513672,0 -11.232069969177246,-1.9292731285095215 -15.143473625183105,-5.919961452484131 c-0.5285679697990417,-0.5549963712692261 -0.792851984500885,-1.2685632705688477 -0.7399951815605164,-2.0085582733154297 s0.4228544235229492,-1.4535620212554932 0.9778507947921753,-1.9028445482254028 c0.5021395683288574,-0.3964259922504425 2.9071240425109863,-1.18927800655365 3.514977216720581,-1.18927800655365 l3.0656940937042236,0.13214199244976044 c1.1364212036132812,0 2.2992703914642334,-0.05285680294036865 3.4356918334960938,-0.13214199244976044 c-5.206395149230957,-0.9778507947921753 -9.910650253295898,-3.2771215438842773 -14.086335182189941,-6.8449554443359375 c-1.9028445482254028,-1.6121324300765991 -4.598540782928467,-3.8056890964508057 -3.3035500049591064,-6.818526744842529 c0.4228544235229492,-0.9778507947921753 2.510698080062866,-2.2728424072265625 3.56783390045166,-2.2728424072265625 l1.6914176940917969,2.9599807262420654 l1.6121324300765991,-2.3256990909576416 c7.13566780090332,0.6607099771499634 14.456334114074707,2.6956965923309326 22.41128158569336,6.1578168869018555 c0.6078531742095947,0.2642839848995209 1.242134690284729,0.4757111370563507 1.9028445482254028,0.6607099771499634 c-2.6164114475250244,-6.633527755737305 -3.8321175575256348,-13.531341552734375 -3.6735475063323975,-20.878435134887695 c0.026428401470184326,-1.3742767572402954 1.083564281463623,-2.484269380569458 2.431412696838379,-2.5899832248687744 c0.07928520441055298,0 0.15857040882110596,0 0.2114272117614746,0 c1.2949916124343872,0 2.4049839973449707,0.9249939322471619 2.6164114475250244,2.193557024002075 c2.457841157913208,14.588476181030273 9.487794876098633,27.987674713134766 22.807706832885742,43.4218635559082 c0.8985656499862671,1.030707597732544 0.8457088470458984,2.6164114475250244 -0.1057136058807373,3.5942625999450684 C426.3626708984375,373.53673017024994 425.7021484375,373.8012260198593 424.9883728027344,373.8012260198593 z" id="svg_11" class="" fill="#ffffff" fill-opacity="1"/><path style="" d="M424.9883728027344,371.1582511663437 c-6.025674819946289,-4.994966983795166 -11.813494682312012,-10.122076988220215 -16.09489631652832,-17.07274627685547 c-3.3828353881835938,6.210673809051514 -8.113518714904785,10.042792320251465 -15.196329116821289,10.069220542907715 c-4.994966983795166,0.026428401470184326 -9.487794876098633,-1.3478482961654663 -13.240628242492676,-5.127109527587891 c1.1099927425384521,-0.8985656499862671 2.2464139461517334,-0.5549963712692261 3.3035500049591064,-0.5285679697990417 c6.263530254364014,0.2114272117614746 12.368489265441895,-0.9514222741127014 18.394163131713867,-2.3785560131073 c1.7178459167480469,-0.3964259922504425 4.3606858253479,-0.9778507947921753 3.911403179168701,-2.9071240425109863 c-0.3699975907802582,-1.6121324300765991 -2.9071240425109863,-0.4757111370563507 -4.413542747497559,-0.2114272117614746 c-9.329224586486816,1.6649891138076782 -17.839168548583984,0.1849987953901291 -25.186264038085938,-6.131388187408447 c-1.2157063484191895,-1.0571359395980835 -3.19783616065979,-2.4049839973449707 -2.6164114475250244,-3.8056890964508057 c0.6078531742095947,-1.400705099105835 2.748553514480591,-0.1849987953901291 4.202115535736084,-0.05285680294036865 c7.532093524932861,0.713566780090332 14.667762756347656,2.9335522651672363 21.591999053955078,5.946389198303223 c2.2464139461517334,0.9778507947921753 4.545684814453125,1.3742767572402954 7.2413811683654785,1.427133560180664 c-3.7528326511383057,-7.690663814544678 -5.470678806304932,-15.592754364013672 -5.312108516693115,-23.996986389160156 C404.5065002441406,343.91041791439056 413.6767578125,358.07631146907806 424.9883728027344,371.1582511663437 z" id="svg_12" class="" fill="#ffffff" fill-opacity="1"/><path style="" d="M444.49273681640625,265.6558402776718 c-6.712813854217529,-1.400705099105835 -11.28492546081543,-5.814248085021973 -14.535619735717773,-9.5142240524292 c-5.54996395111084,-6.34281587600708 -10.016363143920898,-14.21847915649414 -13.742767333984375,-24.04984474182129 c-5.417821884155273,-14.32419204711914 -8.192803382873535,-29.229808807373047 -9.989933967590332,-40.62044906616211 l-0.8192803859710693,-5.682106018066406 c-0.1057136058807373,-0.8457088470458984 0.44928282499313354,-1.9821299314498901 1.0571359395980835,-2.5635547637939453 c0.5549963712692261,-0.5021395683288574 1.3742767572402954,-0.792851984500885 2.140700340270996,-0.792851984500885 c0.6342816352844238,0 1.2949916124343872,0.2114272117614746 1.7442742586135864,0.6871383786201477 c1.6914176940917969,1.7178459167480469 2.457841157913208,3.8321175575256348 2.9864091873168945,5.364964962005615 c2.193557024002075,6.131388187408447 4.122830390930176,12.368489265441895 6.052103519439697,18.605592727661133 c2.2199854850769043,7.16209602355957 4.439970970153809,14.350621223449707 7.082810878753662,21.407001495361328 c3.56783390045166,9.54065227508545 6.659956455230713,17.812742233276367 12.236349105834961,24.948410034179688 c2.114271879196167,2.748553514480591 4.677826881408691,5.179966449737549 7.849233627319336,7.479237079620361 c1.0042791366577148,0.7399951815605164 1.3742767572402954,2.087843656539917 0.8721371293067932,3.2242648601531982 c-0.44928282499313354,0.9778507947921753 -1.400705099105835,1.58570396900177 -2.431412696838379,1.58570396900177 C444.836181640625,265.73488080501556 444.65081787109375,265.70909345149994 444.49273681640625,265.6558402776718 z" id="svg_13" class="" fill="#ffffff" fill-opacity="1"/><path style="" d="M445.0209045410156,263.0926078557968 c-5.52353572845459,-1.1628495454788208 -9.5142240524292,-4.624969959259033 -13.055628776550293,-8.668514251708984 c-5.972818374633789,-6.8449554443359375 -10.069220542907715,-14.79990291595459 -13.240628242492676,-23.230562210083008 c-4.889253616333008,-12.976343154907227 -7.690663814544678,-26.4548282623291 -9.857792854309082,-40.09187698364258 c-0.2907123863697052,-1.8499878644943237 -0.5549963712692261,-3.7264041900634766 -0.792851984500885,-5.60282039642334 c-0.026428401470184326,-0.1057136058807373 0.2114272117614746,-0.23785556852817535 0.44928282499313354,-0.5021395683288574 c1.2157063484191895,1.2685632705688477 1.8235595226287842,2.827838659286499 2.3785560131073,4.413542747497559 c4.730683326721191,13.240628242492676 8.219231605529785,26.8776798248291 13.13491439819336,40.039024353027344 c3.3564069271087646,8.959226608276367 6.633527755737305,17.971311569213867 12.632774353027344,25.635547637939453 C439.0486145019531,258.17674481868744 441.84967041015625,260.7665580511093 445.0209045410156,263.0926078557968 z" id="svg_14" class="" fill="#ffffff" fill-opacity="1"/><path style="" d="M498.0365905761719,312.5928519964218 c-1.18927800655365,0 -2.431412696838379,-0.15857040882110596 -3.8056890964508057,-0.5021395683288574 c-4.968538761138916,-1.1628495454788208 -9.302796363830566,-4.043545246124268 -13.637053489685059,-9.06494140625 c-8.007804870605469,-9.223511695861816 -13.980622291564941,-20.402727127075195 -18.31488037109375,-34.19834518432617 c-1.6649891138076782,-5.444250583648682 -2.9599807262420654,-10.967785835266113 -3.6206905841827393,-16.623462677001953 c-0.1849987953901291,-1.7178459167480469 -0.34356918931007385,-3.2771215438842773 0.05285680294036865,-5.391393184661865 C458.92230224609375,245.64967572689056 459.9006042480469,244.77699506282806 461.0370788574219,244.64554059505463 c0.07928520441055298,0 0.1849987953901291,0 0.2907123863697052,0 c1.0571359395980835,0 2.0085582733154297,0.6342816352844238 2.431412696838379,1.6121324300765991 l6.792098522186279,15.857039451599121 c5.338537216186523,11.919208526611328 10.280647277832031,22.596282958984375 16.597036361694336,32.559783935546875 c2.114271879196167,3.3299782276153564 4.334257125854492,5.972818374633789 6.818526744842529,8.034233093261719 c2.5635547637939453,2.140700340270996 4.334257125854492,2.854267120361328 7.029954433441162,2.854267120361328 c0.1057136058807373,0 0.2642839848995209,-0.026428401470184326 0.3964259922504425,-0.026428401470184326 c1.2949916124343872,0 3.3035500049591064,0.5814247727394104 3.6999757289886475,1.6121324300765991 c0.44928282499313354,1.1099927425384521 1.3742767572402954,2.2992703914642334 0.3699975907802582,3.0128374099731445 C503.13714599609375,311.77342450618744 500.7054138183594,312.5928519964218 498.0365905761719,312.5928519964218 z" id="svg_15" class="" fill="#ffffff" fill-opacity="1"/><path style="" d="M461.3540344238281,247.28770673274994 c2.431412696838379,5.682106018066406 4.545684814453125,10.835643768310547 6.818526744842529,15.909896850585938 c5.021396160125732,11.258498191833496 10.122076988220215,22.464139938354492 16.755605697631836,32.903358459472656 c2.0349864959716797,3.19783616065979 4.413542747497559,6.184244632720947 7.347095012664795,8.64208698272705 c3.7264041900634766,3.0921223163604736 6.5278143882751465,3.911403179168701 11.628496170043945,3.2771215438842773 c-3.0128374099731445,2.167128562927246 -5.999246597290039,2.2464139461517334 -9.038512229919434,1.5328470468521118 c-5.074253082275391,-1.2157063484191895 -8.932798385620117,-4.413542747497559 -12.262776374816895,-8.219231605529785 c-8.457087516784668,-9.725650787353516 -13.980622291564941,-21.037006378173828 -17.786312103271484,-33.246925354003906 c-1.6385607719421387,-5.285679817199707 -2.8806955814361572,-10.650644302368164 -3.514977216720581,-16.147750854492188 C461.16851806640625,250.5655082464218 460.95721435546875,249.24356305599213 461.3540344238281,247.28770673274994 z" id="svg_16" class="" fill="#ffffff" fill-opacity="1"/><path style="" d="M468.912841796875,285.0014213323593 c-0.5021395683288574,0 -1.0042791366577148,-0.13214199244976044 -1.4535620212554932,-0.4228544235229492 c-27.961244583129883,-18.209169387817383 -41.492584228515625,-50.663238525390625 -42.259010314941406,-73.10095977783203 c-0.05285680294036865,-1.2949916124343872 0.8457088470458984,-2.431412696838379 2.140700340270996,-2.6956965923309326 c0.15857040882110596,-0.026428401470184326 0.34356918931007385,-0.05285680294036865 0.5021395683288574,-0.05285680294036865 c1.1099927425384521,0 2.114271879196167,0.6871383786201477 2.484269380569458,1.7442742586135864 c10.016363143920898,28.014102935791016 23.283418655395508,50.92752456665039 40.54116439819336,70.0881118774414 c0.8721371293067932,0.9778507947921753 0.8985656499862671,2.484269380569458 0.05285680294036865,3.488548517227173 C470.4186096191406,284.68443524837494 469.6789855957031,285.0014213323593 468.912841796875,285.0014213323593 z" id="svg_17" class="" fill="#ffffff" fill-opacity="1"/><path style="" d="M468.912841796875,282.3591789007187 c-26.69268226623535,-17.36345863342285 -40.303306579589844,-48.54896926879883 -41.04330062866211,-70.96025085449219 C437.1984558105469,237.56256330013275 450.20135498046875,261.6126273870468 468.912841796875,282.3591789007187 z" id="svg_18" class="" fill="#ffffff" fill-opacity="1"/><path style="" d="M247.97117614746094,521.5093253850937 c-0.34356918931007385,0 -0.6871383786201477,-0.05285680294036865 -1.030707597732544,-0.2114272117614746 c-1.0571359395980835,-0.44928282499313354 -1.6914176940917969,-1.5328470468521118 -1.6121324300765991,-2.6956965923309326 c1.6914176940917969,-18.1298828125 17.36345863342285,-31.819793701171875 36.444759368896484,-31.819793701171875 c5.682106018066406,0 11.258498191833496,1.2157063484191895 16.597036361694336,3.5942625999450684 c1.083564281463623,0.5021395683288574 1.6914176940917969,1.6385607719421387 1.5328470468521118,2.77498197555542 c-0.15857040882110596,1.18927800655365 -1.083564281463623,2.087843656539917 -2.2464139461517334,2.2464139461517334 l-5.8406758308410645,0.7664235234260559 c-7.8756632804870605,0.9514222741127014 -15.328470230102539,1.8499878644943237 -22.146997451782227,5.021396160125732 c-6.474958419799805,3.0128374099731445 -10.809215545654297,8.430658340454102 -15.407756805419922,14.165621757507324 l-4.281400680541992,5.206395149230957 C249.4777374267578,521.1923087835312 248.73736572265625,521.5093253850937 247.97117614746094,521.5093253850937 z" id="svg_19" class="" fill="#ffffff" fill-opacity="1"/><path style="" d="M297.31292724609375,492.80812299251556 c-10.148506164550781,1.427133560180664 -19.821300506591797,1.8764163255691528 -28.754100799560547,6.025674819946289 c-9.09136962890625,4.228543758392334 -14.112764358520508,12.579917907714844 -20.561294555664062,20.032726287841797 C250.11160278320312,496.0592521429062 274.9808654785156,482.8450187444687 297.31292724609375,492.80812299251556 z" id="svg_20" class="" fill="#ffffff" fill-opacity="1"/><path style="" d="M421.52587890625,263.7798331975937 c-2.3521273136138916,0 -4.466399192810059,-0.8457088470458984 -6.659956455230713,-2.6428399085998535 c-3.7528326511383057,-3.0392658710479736 -6.025674819946289,-7.10923957824707 -7.743521213531494,-10.677074432373047 c-3.779261350631714,-7.822806358337402 -6.39567232131958,-16.517751693725586 -8.6156587600708,-28.225528717041016 c-0.9514222741127014,-5.047823429107666 -3.6206905841827393,-21.010576248168945 -3.6206905841827393,-21.010576248168945 c-0.2114272117614746,-1.1628495454788208 0.3964259922504425,-2.2992703914642334 1.4535620212554932,-2.80141019821167 c0.3964259922504425,-0.1849987953901291 0.7664235234260559,-0.2642839848995209 1.1628495454788208,-0.2642839848995209 c0.713566780090332,0 1.4535620212554932,0.3171408176422119 1.9557015895843506,0.8721371293067932 c2.6956965923309326,2.9599807262420654 3.9378316402435303,6.34281587600708 5.153537750244141,9.619935989379883 c3.0656940937042236,8.113518714904785 5.338537216186523,16.412036895751953 7.611378192901611,24.710554122924805 l2.3521273136138916,8.457087516784668 c1.1364212036132812,3.911403179168701 2.5371265411376953,8.404231071472168 4.83639669418335,12.342062950134277 c1.5064187049865723,2.6164114475250244 2.8806955814361572,3.541405439376831 5.285679817199707,3.541405439376831 c1.2685632705688477,0 2.510698080062866,0.8721371293067932 2.748553514480591,2.087843656539917 s-0.1849987953901291,2.457841157913208 -1.3478482961654663,2.9599807262420654 C424.5390930175781,263.4362052679062 423.0067138671875,263.7798331975937 421.52587890625,263.7798331975937 z" id="svg_21" class="" fill="#ffffff" fill-opacity="1"/><path style="" d="M397.50262451171875,200.747682929039 c2.3521273136138916,2.6164114475250244 3.514977216720581,5.7613911628723145 4.677826881408691,8.853514671325684 c4.043545246124268,10.72992992401123 6.712813854217529,21.882715225219727 9.857792854309082,32.87692642211914 c1.2949916124343872,4.492827892303467 2.6956965923309326,8.906371116638184 5.074253082275391,12.94991683959961 c1.6121324300765991,2.748553514480591 3.6471190452575684,4.968538761138916 7.954948425292969,4.83639669418335 c-3.6735475063323975,1.6121324300765991 -6.210673809051514,0.6871383786201477 -8.536373138427734,-1.2157063484191895 c-3.19783616065979,-2.6164114475250244 -5.259251594543457,-6.104959964752197 -7.029954433441162,-9.778507232666016 c-4.202115535736084,-8.7742280960083 -6.607100009918213,-18.077024459838867 -8.404231071472168,-27.59124755859375 C399.8019714355469,214.75467145442963 398.69219970703125,207.7508109807968 397.50262451171875,200.747682929039 z" id="svg_22" class="" fill="#ffffff" fill-opacity="1"/><path style="" d="M420.3370666503906,303.0258048772812 c-1.7971312999725342,0 -3.5942625999450684,-0.2907123863697052 -5.338537216186523,-0.5814247727394104 c-1.9821299314498901,-0.34356918931007385 -3.9378316402435303,-1.030707597732544 -5.867104530334473,-1.6914176940917969 c-3.2771215438842773,-1.2685632705688477 -4.730683326721191,-1.8235595226287842 -6.1578168869018555,-1.9557015895843506 c-2.5635547637939453,-0.1849987953901291 -4.994966983795166,-1.58570396900177 -6.8713836669921875,-3.884974479675293 c-0.8192803859710693,-1.0042791366577148 -3.2242648601531982,-4.017116546630859 -1.5328470468521118,-7.743521213531494 c1.1099927425384521,-2.457841157913208 3.3299782276153564,-3.858546257019043 6.607100009918213,-4.149259090423584 c0.1057136058807373,0 0.1849987953901291,0 0.2907123863697052,0 c2.722125291824341,0 4.651398181915283,0.5285679697990417 6.8449554443359375,1.6385607719421387 c2.9071240425109863,1.427133560180664 5.60282039642334,3.2506933212280273 8.272088050842285,5.127109527587891 c3.3035500049591064,2.4049839973449707 6.686385154724121,4.704254627227783 10.78278636932373,6.8449554443359375 c0.8721371293067932,0.44928282499313354 1.427133560180664,1.3478482961654663 1.427133560180664,2.3256990909576416 c0.026428401470184326,0.9778507947921753 -0.5285679697990417,1.8764163255691528 -1.3742767572402954,2.3521273136138916 C425.2262268066406,302.44420087337494 422.92681884765625,303.0258048772812 420.3370666503906,303.0258048772812 z" id="svg_23" class="" fill="#ffffff" fill-opacity="1"/><path style="" d="M426.1513366699219,298.9293998479843 c-3.779261350631714,2.061415195465088 -7.267809867858887,1.4799903631210327 -10.703500747680664,0.8985656499862671 c-1.8499878644943237,-0.3171408176422119 -3.6471190452575684,-0.9514222741127014 -5.444250583648682,-1.58570396900177 c-2.2464139461517334,-0.792851984500885 -4.3606858253479,-1.9028445482254028 -6.8449554443359375,-2.087843656539917 c-2.0085582733154297,-0.15857040882110596 -3.7264041900634766,-1.3478482961654663 -5.021396160125732,-2.9335522651672363 c-1.18927800655365,-1.4535620212554932 -2.0085582733154297,-3.0921223163604736 -1.1628495454788208,-4.994966983795166 c0.8457088470458984,-1.8764163255691528 2.5635547637939453,-2.431412696838379 4.439970970153809,-2.5899832248687744 c2.0349864959716797,-0.1849987953901291 3.911403179168701,0.4757111370563507 5.708534240722656,1.3478482961654663 c2.80141019821167,1.3742767572402954 5.364964962005615,3.118551254272461 7.8756632804870605,4.915682315826416 C418.4602966308594,294.35716474056244 421.9227294921875,296.73561322689056 426.1513366699219,298.9293998479843 z" id="svg_24" class="" fill="#ffffff" fill-opacity="1"/><path style="" d="M424.08990478515625,285.89988934993744 l-15.672039985656738,-4.783539772033691 c-2.9864091873168945,-0.9249939322471619 -6.025674819946289,-1.6914176940917969 -9.144225120544434,-2.140700340270996 c-0.5285679697990417,-0.026428401470184326 -0.9514222741127014,-0.05285680294036865 -1.3478482961654663,-0.05285680294036865 c-1.7442742586135864,0 -2.457841157913208,0.2907123863697052 -3.19783616065979,0.792851984500885 c-0.44928282499313354,0.3171408176422119 -0.9778507947921753,0.4757111370563507 -1.5064187049865723,0.4757111370563507 c-0.6342816352844238,0 -1.2949916124343872,-0.23785556852817535 -1.7971312999725342,-0.713566780090332 c-0.8985656499862671,-0.8457088470458984 -1.1099927425384521,-2.193557024002075 -0.4757111370563507,-3.2771215438842773 c2.2992703914642334,-3.9642598628997803 5.682106018066406,-4.281400680541992 7.9285197257995605,-4.466399192810059 c0.1057136058807373,0 0.23785556852817535,0 0.34356918931007385,0 c9.857792854309082,0 21.882715225219727,4.624969959259033 27.406246185302734,9.6727933883667 c0.8985656499862671,0.8457088470458984 1.1364212036132812,2.193557024002075 0.5285679697990417,3.2771215438842773 c-0.5021395683288574,0.8457088470458984 -1.3742767572402954,1.3214199542999268 -2.2992703914642334,1.3214199542999268 C424.61810302734375,286.0063041448593 424.3544006347656,285.9796928167343 424.08990478515625,285.89988934993744 z" id="svg_25" class="" fill="#ffffff" fill-opacity="1"/><path style="" d="M393.2481384277344,277.5490287542343 c1.7442742586135864,-2.9599807262420654 4.122830390930176,-2.9864091873168945 6.289958953857422,-3.19783616065979 c6.8713836669921875,-0.6607099771499634 19.742015838623047,3.911403179168701 25.34483528137207,9.012084007263184 c-5.470678806304932,-1.6649891138076782 -10.571359634399414,-3.19783616065979 -15.672039985656738,-4.7571120262146 c-3.118551254272461,-0.9514222741127014 -6.289958953857422,-1.7707027196884155 -9.5142240524292,-2.2199854850769043 C397.63482666015625,276.06907880306244 395.5999755859375,275.9102042913437 393.2481384277344,277.5490287542343 z" id="svg_26" class="" fill="#ffffff" fill-opacity="1"/></g></g></svg>