<svg version="1.1" xmlns="http://www.w3.org/2000/svg" xmlns:xlink="http://www.w3.org/1999/xlink" style="" xml:space="preserve" width="646.8504028320312" height="539.7637939453125"><rect id="backgroundrect" width="100%" height="100%" x="0" y="0" fill="none" stroke="none" style="" class=""/>

<g class="currentLayer" style=""><title>Layer 1</title><g id="XMLID_194_" class="selected" stroke="none" fill="#ffffff" fill-opacity="1">
	<path id="XMLID_268_" style="" d="M341.1108102798462,19.266525268554688 c6.579481601715088,2.718080759048462 9.06026840209961,7.269787788391113 9.027911186218262,14.70136547088623 c-0.2804369032382965,67.9304428100586 -0.16179051995277405,135.8608856201172 -0.16179051995277405,203.79132080078125 c0,1.909128189086914 0,3.818256378173828 0,6.3853325843811035 c2.08170485496521,0.08628828078508377 3.9153308868408203,0.23729276657104492 5.748956203460693,0.23729276657104492 c86.63343048095703,0.010786035098135471 173.26686096191406,-0.010786035098135471 259.8895263671875,0.09707430750131607 c3.3760287761688232,0 6.9246344566345215,0.8520967960357666 10.084942817687988,2.08170485496521 c4.0016188621521,1.5639749765396118 5.112580299377441,5.1449384689331055 5.101794719696045,9.362277030944824 c-0.09707430750131607,21.582855224609375 -0.043144140392541885,43.15492248535156 -0.043144140392541885,64.73777770996094 c0,58.665245056152344 -0.18336260318756104,117.31969451904297 0.18336260318756104,175.9849395751953 c0.06471620500087738,9.869221687316895 -6.137253761291504,13.665905952453613 -13.709050178527832,13.665905952453613 c-101.49658966064453,0 -202.99317932128906,0.010786035098135471 -304.48974609375,-0.010786035098135471 c-9.718216896057129,0 -14.075775146484375,-4.497776508331299 -14.075775146484375,-14.237565994262695 c0,-68.56682586669922 0,-137.13365173339844 -0.010786035098135471,-205.7112579345703 c0,-1.42375648021698 0,-2.8582990169525146 0,-5.188082695007324 c-2.2650671005249023,0 -4.249697208404541,0 -6.234328269958496,0 c-86.47164154052734,0 -172.9432830810547,-0.021572070196270943 -259.4149169921875,0.053930170834064484 c-6.288258075714111,0.010786035098135471 -11.562629699707031,-1.445328712463379 -15.111234664916992,-7.000136375427246 c0,-83.76434326171875 0,-167.51791381835938 0,-251.28224182128906 c3.1926662921905518,-2.5562901496887207 6.3961181640625,-5.112580299377441 9.588785171508789,-7.66887092590332 C132.03431797027588,19.266525268554688 236.57257175445557,19.266525268554688 341.1108102798462,19.266525268554688 zM43.32997226715088,39.921775817871094 c0,75.189453125 0,149.7532958984375 0,224.5976104736328 c85.0047378540039,0 169.7613983154297,0 254.71218872070312,0 c0.09707430750131607,-1.4669008255004883 0.3882972300052643,-2.7396528720855713 0.23729276657104492,-3.947688579559326 c-1.6179052591323853,-13.051102638244629 7.064852237701416,-16.9664306640625 16.923290252685547,-16.556562423706055 c3.1063778400421143,0.12943241000175476 6.234328269958496,0.021572070196270943 9.373064994812012,0.021572070196270943 c0,-68.4589614868164 0,-136.14132690429688 0,-204.1149139404297 C230.78047275543213,39.921775817871094 137.2439661026001,39.921775817871094 43.32997226715088,39.921775817871094 zM325.1043405532837,264.9400177001953 c0,75.1355209350586 0,149.8288116455078 0,224.9858856201172 c1.7041935920715332,0 3.1063778400421143,0 4.5085625648498535,0 c90.12810516357422,0 180.25621032714844,-0.043144140392541885 270.38433837890625,0.10786034166812897 c4.853715419769287,0.010786035098135471 5.673454761505127,-1.6394771337509155 5.662667751312256,-6.029393672943115 c-0.12943241000175476,-71.27411651611328 -0.09707430750131607,-142.54823303222656 -0.09707430750131607,-213.81155395507812 c0,-1.6934075355529785 0,-3.3976008892059326 0,-5.242012977600098 C511.75665378570557,264.9400177001953 418.6192636489868,264.9400177001953 325.1043405532837,264.9400177001953 z" stroke="none" stroke-opacity="1" fill="#ffffff" fill-opacity="1"/>
	<path id="XMLID_266_" style="" d="M71.39523029327393,344.19581604003906 c-6.503978729248047,6.773630142211914 -12.587303161621094,13.353111267089844 -18.95106315612793,19.641368865966797 c-4.22812557220459,4.174195289611816 -11.57341480255127,4.325199604034424 -17.343944549560547,0.8089526295661926 c-4.066335201263428,-2.480787992477417 -5.134152889251709,-6.687341690063477 -3.5378193855285645,-10.408522605895996 c1.6826214790344238,-3.9045443534851074 4.886073589324951,-7.269787788391113 7.841446876525879,-10.494811058044434 c7.312931060791016,-7.992452144622803 14.88472843170166,-15.736824989318848 22.305519104003906,-23.621416091918945 c3.451530933380127,-3.656465530395508 6.6549835205078125,-7.561010360717773 10.235947608947754,-11.07725715637207 c5.468519687652588,-5.371445178985596 14.291496276855469,-4.368343830108643 21.96036720275879,1.8659839630126953 c15.682893753051758,12.727519989013672 31.613866806030273,25.174606323242188 47.15654754638672,38.074703216552734 c2.4052858352661133,1.9954164028167725 4.918431758880615,6.0186076164245605 4.540920734405518,8.704329490661621 c-0.6255899667739868,4.51934814453125 -4.195767402648926,7.895377159118652 -9.243631362915039,9.0386962890625 c-7.118782997131348,1.5963331460952759 -12.134288787841797,-2.0924909114837646 -17.149795532226562,-6.2127556800842285 c-6.309830188751221,-5.188082695007324 -12.749093055725098,-10.214375495910645 -19.13442611694336,-15.305383682250977 c-0.49615761637687683,0.2804369032382965 -0.981529176235199,0.5716598033905029 -1.4776867628097534,0.8520967960357666 c2.5886483192443848,6.633411407470703 4.659567356109619,13.536473274230957 7.906163692474365,19.82473373413086 c3.278954267501831,6.342188358306885 7.658084392547607,12.145075798034668 11.702848434448242,18.077392578125 c7.259000778198242,10.656601905822754 16.491846084594727,19.522722244262695 26.630720138549805,27.277881622314453 c25.228534698486328,19.285430908203125 53.84388732910156,30.891202926635742 85.23124694824219,35.367408752441406 c9.772147178649902,1.3913984298706055 19.73844337463379,1.4021844863891602 29.575307846069336,2.448429822921753 c3.322098731994629,0.355939120054245 6.903061866760254,1.326682209968567 9.696645736694336,3.0955920219421387 c6.730485916137695,4.238912105560303 4.6164231300354,12.867738723754883 -2.782796859741211,15.974116325378418 c-1.7149795293807983,0.7226643562316895 -3.6996099948883057,1.1109615564346313 -5.565593719482422,1.1325335502624512 c-32.821903228759766,0.24807880818843842 -64.25240325927734,-6.180397987365723 -94.24836730957031,-19.57665252685547 c-18.62748146057129,-8.32681941986084 -35.72334671020508,-19.13442611694336 -50.5972900390625,-32.98369216918945 c-7.992452144622803,-7.44236421585083 -14.949444770812988,-16.1251220703125 -21.679929733276367,-24.797094345092773 c-9.40542221069336,-12.145075798034668 -16.36241340637207,-25.659975051879883 -20.094383239746094,-40.717281341552734 C73.8436632156372,348.94163513183594 72.58169269561768,346.9031219482422 71.39523029327393,344.19581604003906 z" stroke="none" stroke-opacity="1" fill="#ffffff" fill-opacity="1"/>
	<path id="XMLID_265_" style="" d="M576.5915536880493,183.75355529785156 c6.288258075714111,-5.79210090637207 12.749093055725098,-11.767563819885254 19.242286682128906,-17.69988441467285 c5.069436073303223,-4.637994766235352 13.816910743713379,-4.810571670532227 18.8863468170166,-0.42065536975860596 c3.6456797122955322,3.149522066116333 4.0016188621521,9.91236686706543 0.2912229597568512,13.92477035522461 c-8.531753540039062,9.20048713684082 -17.290014266967773,18.196041107177734 -25.940412521362305,27.288667678833008 c-3.354456663131714,3.5270333290100098 -6.644197463989258,7.118782997131348 -10.031012535095215,10.624244689941406 c-8.16502857208252,8.467037200927734 -15.61817741394043,8.445465087890625 -24.667661666870117,0.9275990128517151 c-14.183635711669922,-11.799921989440918 -28.744781494140625,-23.157617568969727 -43.07942199707031,-34.78496170043945 c-2.4268577098846436,-1.973844289779663 -5.608737945556641,-3.95847487449646 -6.514764308929443,-6.601052761077881 c-1.0031012296676636,-2.9230153560638428 -0.9060268998146057,-7.302145004272461 0.6795201897621155,-9.793719291687012 c2.6965086460113525,-4.217339515686035 8.046381950378418,-6.137253761291504 12.652018547058105,-4.325199604034424 c5.425375461578369,2.1356348991394043 10.322235107421875,5.813672065734863 15.154378890991211,9.254417419433594 c5.349873065948486,3.818256378173828 10.354593276977539,8.1218843460083 15.5103178024292,12.20979118347168 c0.49615761637687683,-0.2804369032382965 0.981529176235199,-0.560873806476593 1.4776867628097534,-0.8413107395172119 c-2.987731695175171,-7.399219989776611 -5.436161518096924,-15.068090438842773 -9.103413581848145,-22.100584030151367 c-3.3005263805389404,-6.33140230178833 -7.798303604125977,-12.05878734588623 -12.026429176330566,-17.86167335510254 c-8.628828048706055,-11.832280158996582 -19.436433792114258,-21.496566772460938 -31.365787506103516,-29.801815032958984 c-25.552114486694336,-17.786170959472656 -54.07039260864258,-27.9250431060791 -84.90766143798828,-31.538366317749023 c-8.229743957519531,-0.9599571228027344 -16.556562423706055,-1.121747612953186 -24.851022720336914,-1.5531889200210571 c-6.946206092834473,-0.355939120054245 -12.155860900878906,-4.152623176574707 -12.544157981872559,-9.319134712219238 c-0.48537155985832214,-6.460834503173828 4.530134201049805,-10.937039375305176 12.619660377502441,-11.034112930297852 c18.454904556274414,-0.22650672495365143 36.640159606933594,1.9846304655075073 54.58811950683594,6.201969623565674 c27.051374435424805,6.3529744148254395 52.07497787475586,17.387088775634766 74.57464599609375,33.66321563720703 c11.735206604003906,8.488609313964844 22.445737838745117,18.26075553894043 31.430505752563477,29.79102897644043 c8.337604522705078,10.699746131896973 15.887828826904297,21.8309326171875 20.655256271362305,34.644744873046875 C571.8240976333618,171.31724548339844 574.4127817153931,178.0045928955078 576.5915536880493,183.75355529785156 z" stroke="none" stroke-opacity="1" fill="#ffffff" fill-opacity="1"/>
	<path id="XMLID_256_" style="" d="M171.3494119644165,101.01388549804688 c0,-10.160444259643555 -0.010786035098135471,-19.57665252685547 0,-28.982074737548828 c0.010786035098135471,-7.334503650665283 4.691925048828125,-11.724420547485352 12.468656539916992,-11.78913688659668 c7.992452144622803,-0.053930170834064484 12.64123249053955,4.077121257781982 12.68437671661377,11.443982124328613 c0.06471620500087738,9.556427001953125 0.010786035098135471,19.102067947387695 0.010786035098135471,29.30565643310547 c2.178779125213623,0 3.8721864223480225,0 5.565593719482422,0 c18.853988647460938,0.010786035098135471 37.707977294921875,-0.08628828078508377 56.56196594238281,0.11864638328552246 c3.2358105182647705,0.03235810250043869 6.698127746582031,0.8413107395172119 9.610357284545898,2.2327091693878174 c3.613321542739868,1.7365515232086182 5.597951889038086,4.983148574829102 4.896859645843506,9.394636154174805 c-0.6903062462806702,4.368343830108643 -3.7427542209625244,6.892276287078857 -7.44236421585083,7.647298336029053 c-5.09100866317749,1.035459280014038 -10.419309616088867,1.1433196067810059 -15.661323547363281,1.17567777633667 c-2.976945638656616,0.021572070196270943 -4.055548667907715,1.0570313930511475 -4.7782135009765625,3.8398284912109375 c-3.3113129138946533,12.66280460357666 -9.847649574279785,23.707704544067383 -17.937175750732422,33.835792541503906 c-6.859918117523193,8.585683822631836 -13.946342468261719,16.977218627929688 -20.989622116088867,25.411897659301758 c-1.6934075355529785,2.016988515853882 -3.613321542739868,3.850614309310913 -5.889174938201904,6.266685962677002 c6.2127556800842285,5.371445178985596 12.004857063293457,10.624244689941406 18.055822372436523,15.564247131347656 c8.316032409667969,6.795201778411865 17.09586524963379,13.029528617858887 25.153032302856445,20.094383239746094 c7.010922431945801,6.148039817810059 5.576379776000977,12.274507522583008 -3.0416617393493652,16.459487915039062 c-7.863018989562988,3.818256378173828 -14.011058807373047,-0.71187824010849 -19.82473373413086,-5.457733154296875 c-12.31765079498291,-10.052583694458008 -24.613731384277344,-20.115955352783203 -37.07160186767578,-30.297971725463867 c-6.849132061004639,5.781314849853516 -13.860054016113281,11.843067169189453 -21.01119613647461,17.69988441467285 c-6.827559947967529,5.597951889038086 -13.665905952453613,11.195903778076172 -20.78468894958496,16.405559539794922 c-4.99393367767334,3.656465530395508 -11.001754760742188,4.335986137390137 -16.2437686920166,1.0678174495697021 c-6.557908535003662,-4.087906837463379 -9.092626571655273,-9.72900390625 -0.7010922431945801,-16.675209045410156 c13.342325210571289,-11.034112930297852 26.82486915588379,-21.906435012817383 40.102474212646484,-33.00526428222656 c0.7550224661827087,-0.6363760828971863 0.9060268998146057,-3.322098731994629 0.22650672495365143,-4.152623176574707 c-10.02022647857666,-12.220577239990234 -20.957263946533203,-23.77242088317871 -30.125394821166992,-36.58622741699219 c-5.565593719482422,-7.776731491088867 -8.77983283996582,-17.343944549560547 -12.425511360168457,-26.361068725585938 c-1.1864638328552246,-2.9338016510009766 -2.3297836780548096,-4.174195289611816 -5.295943260192871,-4.087906837463379 c-3.1926662921905518,0.09707430750131607 -6.428476810455322,0.3020089566707611 -9.577999114990234,-0.06471620500087738 c-2.782796859741211,-0.3235810399055481 -5.641096115112305,-1.0138871669769287 -8.186600685119629,-2.1572070121765137 c-3.8721864223480225,-1.7473375797271729 -5.511663436889648,-5.09100866317749 -5.0047197341918945,-9.362277030944824 c0.5500877499580383,-4.6164231300354 3.893758535385132,-6.795201778411865 7.73358678817749,-8.078740119934082 c2.3621416091918945,-0.7873805165290833 5.026291847229004,-0.9060268998146057 7.550224304199219,-0.9060268998146057 c18.53040885925293,-0.06471620500087738 37.07160186767578,-0.03235810250043869 55.602012634277344,-0.021572070196270943 C167.31541538238525,101.024658203125 169.05198764801025,101.01388549804688 171.3494119644165,101.01388549804688 zM183.97985935211182,174.43441772460938 c14.70136547088623,-15.920186996459961 28.636920928955078,-31.818803787231445 36.53229904174805,-52.40934371948242 c-24.613731384277344,0 -48.591087341308594,0 -73.24796295166016,0 C155.17036533355713,142.8636932373047 169.27850437164307,158.52500915527344 183.97985935211182,174.43441772460938 z" stroke="none" stroke-opacity="1" fill="#ffffff" fill-opacity="1"/>
	<path id="XMLID_253_" style="" d="M541.7094736099243,469.28147888183594 c-5.306728839874268,0.3451531231403351 -11.088043212890625,-3.3760287761688232 -13.32075309753418,-8.790617942810059 c-4.195767402648926,-10.138872146606445 -9.135771751403809,-19.97573471069336 -13.989487648010254,-29.823387145996094 c-0.517729640007019,-1.0462454557418823 -2.4376437664031982,-1.9954164028167725 -3.7103960514068604,-2.006202459335327 c-30.362688064575195,-0.11864638328552246 -60.73616027832031,-0.07550223916769028 -91.10962677001953,-0.14021845161914825 c-3.0093038082122803,-0.010786035098135471 -4.357558250427246,1.2835382223129272 -5.565593719482422,4.0016188621521 c-4.659567356109619,10.462453842163086 -9.545639991760254,20.838619232177734 -14.561147689819336,31.139284133911133 c-2.674936532974243,5.490091800689697 -12.889312744140625,7.539438247680664 -18.72455406188965,3.882972478866577 c-4.92921781539917,-3.084805965423584 -7.91694974899292,-7.873805522918701 -2.57786226272583,-15.704466819763184 c2.3621416091918945,-3.451530933380127 3.6456797122955322,-7.647298336029053 5.40380334854126,-11.508699417114258 c5.597951889038086,-12.31765079498291 11.131187438964844,-24.656875610351562 16.804641723632812,-36.942169189453125 c6.320616245269775,-13.676692008972168 12.781450271606445,-27.288667678833008 19.177570343017578,-40.92221450805664 c6.3961181640625,-13.644333839416504 12.781450271606445,-27.288667678833008 19.188356399536133,-40.92221450805664 c4.594850540161133,-9.793719291687012 9.07105541229248,-19.65215492248535 13.892412185668945,-29.338014602661133 c2.35135555267334,-4.724283218383789 6.9246344566345215,-6.363759994506836 11.950926780700684,-6.255899906158447 c4.864501953125,0.09707430750131607 9.610357284545898,0.7550224661827087 12.037215232849121,5.9862494468688965 c4.9076457023620605,10.527169227600098 9.85843563079834,21.043554306030273 14.787653923034668,31.559938430786133 c6.450048446655273,13.784552574157715 12.889312744140625,27.57988929748535 19.350147247314453,41.36444091796875 c4.659567356109619,9.944724082946777 9.362277030944824,19.867874145507812 14.011058807373047,29.801815032958984 c6.5255513191223145,13.93555736541748 13.007957458496094,27.892684936523438 19.565866470336914,41.81745910644531 c2.6641504764556885,5.662667751312256 5.802886486053467,11.120401382446289 8.143455505371094,16.91250228881836 C556.3030405044556,462.8314666748047 551.8375864028931,469.1736297607422 541.7094736099243,469.28147888183594 zM464.8589792251587,324.62998962402344 c-13.169747352600098,28.12997817993164 -25.897268295288086,55.32157516479492 -38.872867584228516,83.03089141845703 c26.37185287475586,0 51.84846878051758,0 77.81045532226562,0 C490.8964853286743,380.1780242919922 478.2012948989868,353.0943145751953 464.8589792251587,324.62998962402344 z" stroke="none" stroke-opacity="1" fill="#ffffff" fill-opacity="1"/>
</g></g></svg>