<svg version="1.1" xmlns="http://www.w3.org/2000/svg" xmlns:xlink="http://www.w3.org/1999/xlink" style="" xml:space="preserve" width="650" height="650"><rect id="backgroundrect" width="100%" height="100%" x="0" y="0" fill="none" stroke="none" style="" class=""/>


<g class="currentLayer" style=""><title>Layer 1</title><g class="selected" fill="#ffffff" fill-opacity="1"><path id="XMLID_519_" style="" d="M607.154296875,358.43833696842194 C607.8823852539062,503.42930376529694 494.06488037109375,629.8484016656876 352.0310363769531,641.8451057672501 C202.25704956054688,654.4914680719376 68.9267349243164,553.2196174860001 43.25311279296875,407.31007158756256 C20.62627410888672,278.67310869693756 92.49449157714844,148.053586602211 213.86172485351562,96.89674913883209 c17.082143783569336,-7.202503681182861 34.92598342895508,-12.747200012207031 44.592796325683594,8.423456192016602 c10.271688461303711,22.503623962402344 -5.7799248695373535,32.09202575683594 -24.105424880981445,40.20184326171875 C144.17776489257812,185.45506060123444 86.82657623291016,274.0469185113907 91.73280334472656,364.6438728570938 c5.488688945770264,101.4847412109375 67.57807922363281,184.41995239257812 160.6505584716797,214.5853271484375 c115.71051788330078,37.51350784301758 240.12452697753906,-20.913022994995117 286.0390930175781,-134.3384552001953 c45.56731414794922,-112.55172729492188 -4.3685479164123535,-241.50230407714844 -114.0527114868164,-294.428955078125 c-6.216780185699463,-3.001976728439331 -12.635185241699219,-5.555897235870361 -18.997583389282227,-8.233033180236816 c-15.88359260559082,-6.687239170074463 -24.20623779296875,-18.661540985107422 -17.541400909423828,-35.004390716552734 c7.090489864349365,-17.38458251953125 20.834613800048828,-19.524049758911133 38.64484786987305,-12.90401840209961 C533.090576171875,133.99581682682037 606.57177734375,240.77882158756256 607.154296875,358.43833696842194 z" class="" fill="#ffffff" fill-opacity="1"/><path id="XMLID_518_" style="" d="M349.7235412597656,198.96397173404694 c0,52.803428649902344 -0.2240281105041504,105.60685729980469 0.1232154592871666,158.4102783203125 c0.1232154592871666,18.51592254638672 -4.446958065032959,33.98506164550781 -25.718427658081055,34.377113342285156 c-21.249065399169922,0.3920491933822632 -26.71535301208496,-14.573028564453125 -26.681747436523438,-33.34658432006836 c0.1792224943637848,-105.60685729980469 0.1792224943637848,-211.22491455078125 0,-316.8317565917969 c-0.0336042158305645,-18.314298629760742 4.032505989074707,-34.108280181884766 25.673622131347656,-34.309906005859375 c23.41093635559082,-0.2128266990184784 26.816165924072266,16.75730323791504 26.71535301208496,35.86689758300781 C349.5443420410156,95.0821281671524 349.7235412597656,147.02305376529694 349.7235412597656,198.96397173404694 z" class="" fill="#ffffff" fill-opacity="1"/></g></g></svg>