<svg version="1.1" xmlns="http://www.w3.org/2000/svg" xmlns:xlink="http://www.w3.org/1999/xlink" style="enable-background:new 0 0 60 60;" xml:space="preserve" width="650" height="650"><rect id="backgroundrect" width="100%" height="100%" x="0" y="0" fill="none" stroke="none" style="" class=""/>

<g class="currentLayer" style=""><title>Layer 1</title><path id="XMLID_45_" style="" d="M323.5436887741089,643.9270939826965 C151.10840129852295,643.5320134162903 7.56963586807251,498.5665593147278 8.008626699447632,325.27523851394653 C8.45859169960022,150.90840196609497 152.10708904266357,6.414826452732086 324.432635307312,6.974538683891296 C496.8788938522339,7.52327561378479 640.1762266159058,152.8399510383606 639.6055479049683,325.96664476394653 C639.0238828659058,499.65304613113403 496.33015727996826,643.4881291389465 323.5436887741089,643.9270939826965 zM199.8801908493042,272.4098515510559 c-0.18657076358795166,-0.010974750854074955 -0.3731415271759033,-0.02194950170814991 -0.5487375259399414,-0.02194950170814991 c0.6036112904548645,-13.433094024658203 0.18657076358795166,-26.997886657714844 1.9974045753479004,-40.266357421875 c5.684920787811279,-41.60527801513672 27.294204711914062,-71.63219451904297 66.33139038085938,-87.61143493652344 c29.895219802856445,-12.236846923828125 61.063514709472656,-13.16970157623291 92.29765319824219,-7.100663661956787 c55.18104553222656,10.722331047058105 88.5223388671875,50.50580596923828 90.38804626464844,107.1245346069336 c0.6036112904548645,18.272958755493164 0.03292425349354744,36.589820861816406 0.40606576204299927,54.884727478027344 c0.08779800683259964,4.225278854370117 1.1633235216140747,8.757850646972656 2.9741573333740234,12.566088676452637 c10.261391639709473,21.576358795166016 6.453153133392334,48.87056350708008 -9.438285827636719,66.61673736572266 c-2.282748222351074,2.546142101287842 -4.148455619812012,5.794668197631836 -5.256905555725098,9.054168701171875 c-7.605502128601074,22.25679588317871 -18.10833740234375,42.867374420166016 -33.02302551269531,61.096435546875 c-1.3937933444976807,1.701086401939392 -2.754662275314331,3.852137565612793 -3.072930097579956,5.95928955078125 c-1.8766824007034302,12.127099990844727 0.559712290763855,22.509214401245117 12.412443161010742,28.742870330810547 c2.392495632171631,1.2511215209960938 4.488673210144043,3.050980567932129 6.793370723724365,4.488673210144043 c29.489154815673828,18.459529876708984 61.39275360107422,31.980422973632812 92.84638977050781,46.50001907348633 c6.914092540740967,3.193652391433716 10.722331047058105,1.5913387537002563 15.430499076843262,-3.4350967407226562 c67.0886459350586,-71.54439544677734 93.46097564697266,-156.34629821777344 78.67798614501953,-253.23138427734375 c-12.10515022277832,-79.38037109375 -51.50450134277344,-143.24244689941406 -116.46405792236328,-189.89610290527344 c-66.0899429321289,-47.45481872558594 -140.03782653808594,-63.258460998535156 -219.75840759277344,-49.49612808227539 C196.84018230438232,51.51007890701294 134.7340726852417,89.36199235916138 90.07781505584717,152.68629503250122 c-61.612247467041016,87.39193725585938 -71.65414428710938,182.55401611328125 -34.66923522949219,282.6546936035156 c14.025731086730957,37.950687408447266 36.68859100341797,70.589599609375 65.27781677246094,99.01420593261719 c2.1510510444641113,2.140076160430908 3.9509103298187256,4.576470851898193 7.912795066833496,2.6558895111083984 c31.32193946838379,-15.211004257202148 62.87434768676758,-29.961069107055664 94.04264068603516,-45.46839141845703 c7.550628662109375,-3.7533648014068604 14.234251976013184,-9.504134178161621 20.775203704833984,-14.980534553527832 c5.311779022216797,-4.444774150848389 6.255607604980469,-21.69708251953125 1.9535056352615356,-26.855215072631836 c-15.660969734191895,-18.755847930908203 -26.525972366333008,-40.10173797607422 -34.252197265625,-63.236515045166016 c-0.8889548182487488,-2.6668643951416016 -2.579066276550293,-5.2239813804626465 -4.422824382781982,-7.396982192993164 c-15.562195777893066,-18.349782943725586 -20.27036476135254,-39.26765823364258 -11.644209861755371,-61.64517593383789 c3.863112211227417,-10.019947052001953 5.103259086608887,-19.611879348754883 4.839865207672119,-29.895219802856445 C199.78140544891357,282.5066227912903 199.8801908493042,277.44726610183716 199.8801908493042,272.4098515510559 zM500.3578977584839,557.1058659553528 c-2.4802935123443604,-1.1852730512619019 -4.291127681732178,-2.08520245552063 -6.134885787963867,-2.919283628463745 c-30.23543930053711,-13.696489334106445 -60.437950134277344,-27.50272560119629 -87.90775299072266,-46.423194885253906 c-8.362760543823242,-5.761743545532227 -15.891438484191895,-12.873382568359375 -23.299394607543945,-19.8972225189209 c-4.17040491104126,-3.9618849754333496 -6.101961135864258,-9.635830879211426 -6.529976844787598,-15.265878677368164 c-0.768232524394989,-10.283341407775879 -2.08520245552063,-20.87397575378418 2.436394691467285,-30.454933166503906 c2.6449148654937744,-5.608097076416016 6.2117085456848145,-10.722331047058105 10.074820518493652,-15.562195777893066 c1.9754551649093628,-2.4693188667297363 4.159430503845215,-4.774016380310059 6.112936019897461,-7.265285015106201 c1.4706165790557861,-1.8766824007034302 2.436394691467285,-4.280152320861816 3.6545920372009277,-6.365355014801025 c6.1787848472595215,-10.513811111450195 11.073522567749023,-21.74098014831543 14.991509437561035,-33.27544403076172 c0.6365355253219604,-1.8766824007034302 1.2511215209960938,-3.7643394470214844 1.8327833414077759,-5.65199613571167 c1.3937933444976807,-4.488673210144043 4.488673210144043,-9.021245002746582 8.011568069458008,-12.149048805236816 c12.906306266784668,-11.435690879821777 15.232954025268555,-25.615068435668945 5.191056728363037,-39.72859573364258 c-3.5119199752807617,-4.938637733459473 -4.68621826171875,-9.932148933410645 -4.741092205047607,-15.836565017700195 c-0.2194949984550476,-25.0004825592041 0.3731415271759033,-50.08876419067383 -1.4706165790557861,-74.9794921875 c-2.4693188667297363,-33.264469146728516 -22.6848087310791,-56.50899124145508 -54.621334075927734,-65.26683807373047 c-24.967557907104492,-6.848244667053223 -50.36313247680664,-7.3311333656311035 -75.61602783203125,-2.140076160430908 c-40.29928207397461,8.274962425231934 -61.73297119140625,31.936525344848633 -65.00344848632812,73.4979019165039 c-1.8218084573745728,23.20062255859375 -0.5816617608070374,46.6426887512207 -1.295020580291748,69.95306396484375 c-0.15364651381969452,4.894738674163818 -1.8327833414077759,10.349189758300781 -4.47769832611084,14.453746795654297 c-9.328537940979004,14.519594192504883 -7.517704010009766,28.468503952026367 5.234955787658691,40.013938903808594 c3.6326425075531006,3.2814502716064453 6.672647953033447,8.0444917678833 8.198138236999512,12.719736099243164 c3.7643394470214844,11.523487091064453 8.000593185424805,22.959178924560547 13.740386962890625,33.6595573425293 c2.875384569168091,5.355678081512451 6.123910903930664,10.524785995483398 9.811427116394043,15.353676795959473 c3.4460718631744385,4.499647617340088 7.495754718780518,8.373734474182129 10.338214874267578,13.345295906066895 c4.02773380279541,7.056764602661133 6.2007341384887695,15.178080558776855 6.2007341384887695,23.31037139892578 c-0.010974750854074955,7.879870891571045 -0.8779799938201904,16.879165649414062 -4.80694055557251,23.848133087158203 c-3.555819272994995,6.310481548309326 -8.92247200012207,11.413740158081055 -14.662266731262207,15.737792015075684 c-4.510622501373291,3.391197681427002 -8.812724113464355,7.210411071777344 -13.718438148498535,9.888250350952148 c-22.322641372680664,12.203922271728516 -44.75503158569336,24.21030044555664 -67.30814361572266,35.97523498535156 c-8.428608894348145,4.389900207519531 -17.296207427978516,7.923769950866699 -26.152830123901367,11.940528869628906 C240.5416440963745,632.491425037384 393.83696269989014,640.9419865608215 500.3578977584839,557.1058659553528 z" class="selected" fill="#ffffff" fill-opacity="1"/></g></svg>