<svg version="1.1" xmlns="http://www.w3.org/2000/svg" xmlns:xlink="http://www.w3.org/1999/xlink" style="" xml:space="preserve" width="650" height="650"><rect id="backgroundrect" width="100%" height="100%" x="0" y="0" fill="none" stroke="none" style="" class=""/>

<g class="currentLayer" style=""><title>Layer 1</title><path id="XMLID_278_" style="" d="M30.229978368715138,582.0994423198717 c-12.893376533787773,-18.929073420281043 -20.07984893194009,-38.139969703386896 -22.804132482182013,-58.88914439990913 c-9.652418913242627,-73.43822671816588 38.0929980480405,-140.28885638899555 110.54483767706597,-154.73226043563318 c24.765146957149,-4.931892146523921 49.2249834564866,-2.9708781133852824 73.07420257482818,5.507279902353446 c3.0765614660304124,1.092061936589836 5.42508215646734,2.0079848048283395 8.34898993999127,-0.974635891022281 c20.044619306773598,-20.349927997271607 40.31235132547249,-40.488488847424605 60.4978802963451,-60.709250978090495 c0.6106152270828211,-0.6106152270828211 1.0568340787367347,-1.3621416646638735 1.1742601243042898,-1.514795457627443 c-38.84452332582214,-38.82103926546233 -77.45419897879265,-77.39548175863956 -117.16767495344902,-117.08547367293613 c-5.13151637980593,6.141380460052574 -10.991073977033693,13.151713568939385 -16.463126905190734,19.70408452573588 c-40.78205374042932,-40.78205374042932 -80.01408880457575,-80.01408880457575 -119.09346687250309,-119.10520183342942 c19.152182597579554,-19.04649902402025 38.58618805798392,-38.37482091086531 57.40957437007887,-57.104267446894255 c38.69186986422983,38.77407114474272 77.84170718249015,77.99436064408246 117.47298187663364,117.69608751930537 c-5.37811138477764,4.697040497217159 -12.083137570479835,10.544855622436671 -18.189290172679307,15.875997119181307 c40.3006057606658,40.206665984599795 79.06293487522862,78.8867973532765 118.189273994622,117.91919316197709 c0.22310941201982093,-0.19962423328200884 1.737905076754302,-1.4443400732925014 3.1117891029693396,-2.818224209964626 c28.323153531058665,-28.29966947069886 56.57585134641113,-56.681536687283824 85.01642694658221,-84.86378055424348 c3.1822450395897164,-3.158759653744866 3.687176858798864,-5.5777356180596485 2.1958665661020973,-9.863784293047843 c-28.863313429035088,-82.6209396818249 23.309064522305334,-169.73929606941329 109.85202961943742,-183.12586084583108 c34.71113076339634,-5.3663689127693885 66.9210818519091,2.254579588885875 97.11131184918213,21.559415427143563 c-1.7613902416849783,1.9257866171138858 -3.147017181736615,3.5462654273864587 -4.650070167355807,5.049318633919825 c-16.369187129124725,16.39267118948453 -32.78534237896906,32.75011628842935 -49.13104368042059,49.1662697709603 c-11.965711083083931,12.012680971116936 -12.58806872694646,28.581490566210277 -1.6087362278072348,39.666507853936764 c11.143728322282698,11.261154809678601 27.44245708473113,10.838421399098081 39.654762289130076,-1.2447157295534055 c16.310473443598426,-16.134332387019526 32.50351951614425,-32.39783770989834 48.64959570065707,-48.696563821376685 c1.7026771084441137,-1.726162383831877 2.7829965730256987,-4.0746824115262825 4.614842309502706,-6.834193819621305 c16.991544772987254,25.880692843641555 24.6124917282433,51.9727563690285 24.119299950986488,80.36635677922641 c-1.6439641961174232,94.79801879568413 -94.95067932653001,159.62892030602052 -184.40581989722978,128.2057205858291 c-3.1705025675814653,-1.1155471015205123 -5.659933805774102,-2.2310942030410246 -8.912634781984195,1.0685766612020728 c-29.239076067925907,29.61484047413012 -58.73649093831682,58.971342145795234 -88.15171159744841,88.39830130047994 c-0.4697040165845898,0.4697040165845898 -0.8219820980587116,1.0450914962713966 -0.7632690200463905,0.974635891022281 c13.703616380752408,13.62141686755291 27.30154918794551,27.125408131366612 41.31046984091245,41.04038900826754 c18.400657319797915,-18.471111268190725 37.70549337896978,-37.834659245575494 57.01032767082825,-57.19821075758705 c6.751995190078503,7.010332667058464 12.940346421820777,13.445277578287403 19.727568586095686,20.490839428684012 c-6.035697328321618,5.495536988516847 -12.48238426973046,11.366838383237905 -19.26960820131876,17.54344670114358 c2.724283329327747,2.912164869687331 4.450445934073798,4.861436872646067 6.29403436347323,6.71676777405375 c42.461245352571495,42.4729873827514 85.03991807619559,84.8285473944502 127.36023785884754,127.44243913936043 c19.08172688187335,19.210896283105853 26.056833900220454,42.56692715881741 18.98778533849395,68.74118843009046 c-6.998590636878561,25.904178671314753 -24.354152925778294,42.76655227575611 -50.50492836937815,49.248467516846404 c-25.962888822214268,6.434944911228939 -48.60262404531068,-1.1155471015205123 -67.3203320857865,-19.66885666788278 c-42.49647497773799,-42.120708804220385 -84.69938506247126,-84.54672453162539 -126.92577567293756,-126.92577567293756 c-1.8670733734159342,-1.8788160663383593 -2.923907562609756,-4.567871537813005 -5.284170283226587,-8.372474000351076 c-7.996711361460257,9.100515217772909 -14.055893191970029,15.981678925427218 -20.02113524641379,22.76890285701552 c-7.339125417916279,-7.245184758193574 -13.691872583259112,-13.515734177650302 -20.220760363352497,-19.950677763394197 c19.727568586095686,-19.73931238358898 39.396427021291856,-39.40816905147176 58.83043424900961,-58.853914774742634 c-14.032408247953526,-14.008922420280328 -27.548142425603828,-27.48942874007753 -41.49835292767125,-41.41615164715836 c-0.6575856674012606,0.5871300621521449 -1.7966179890809926,1.526538040092781 -2.829966902887051,2.5598871748130136 c-19.57491689181677,19.55143106414357 -39.055890472940746,39.196805438979936 -58.78346259366322,58.6073250717111 c-3.041333608177311,2.9826208063077075 -3.464067239672005,5.37811138477764 -2.0901829925427933,9.300140334711614 c29.497414870390912,83.95960181486953 -24.224985291859184,171.45371730672196 -112.77594358855822,183.86564409343282 c-31.352744004485203,4.391733132204195 -67.4260174266592,-4.039454995501529 -93.846864866337,-22.24048675653239 c1.6557067785827613,-1.7966179890809926 3.1822450395897164,-3.569750592317135 4.837951486801217,-5.225457481356983 c16.686236082489245,-16.721463940342346 33.513383596390895,-33.31375847945219 50.07045204496103,-50.16439182102704 c8.795208294588292,-8.959605553673896 10.568340566453173,-20.514323489043818 5.436824628475591,-31.05917911148049 c-4.978862918213622,-10.239548699252055 -15.617660084029694,-16.92108728996766 -27.031468355300603,-14.79567732322846 c-6.211835733930428,1.1507748489165266 -12.846404878441376,4.556129065804754 -17.461247187944082,8.889149837967693 C67.20741639175594,542.7734674796593 51.260979462688965,559.2835112534813 35.09141921781634,575.5705059386601 C33.365255950327764,577.3084112363285 32.12053712797592,579.5278175331623 30.229978368715138,582.0994423198717 zM200.32154594740587,408.649452636002 c-53.82808196849601,-29.509156900570815 -106.86941256867067,-10.627053368322777 -135.33347929845513,18.846873907081545 C33.9171561111707,459.682818313624 28.045849414509462,506.6884343541715 39.56535186322003,535.7513799693988 c2.1371533224041457,-3.158759653744866 3.81634537637467,-6.669797886020746 6.399717495204186,-9.300140334711614 c13.210426370808989,-13.503990380157006 26.409110711438075,-27.043210385480506 40.10098417835388,-40.04227049282758 c10.216063755235552,-9.687645003782336 26.056833900220454,-9.593705227716327 36.143725603253415,0.08219820842515757 c13.633159781389509,13.06951582305328 27.0197263251207,26.420852741617978 40.07749658336729,40.06575455318739 c9.217941705168812,9.628932201912733 10.333488475318063,24.92954068160782 1.3151713348025211,34.49976361627773 c-16.016908550593712,17.003285035853764 -31.540627091244005,34.66415557342316 -50.293557687632756,48.53217186423126 c31.975103415661124,11.648659478749323 78.28792553708718,4.1686235130773355 109.42930239445377,-27.348519075978516 c15.594174256356496,-15.782055575801905 25.821979158115255,-34.52324767663754 29.978859315527643,-56.2822899880332 c5.248942425373485,-27.501172537570824 0.7632690200463905,-53.593230761017594 -12.693752300505764,-77.01971558512196 c69.69233529018402,-69.77453657069691 138.93844515651745,-139.10284771754323 208.29026864073785,-208.5251092443359 c47.53404981416452,26.726161432115987 101.3973649424538,15.28886733317188 134.31187318802858,-17.966180995380796 c31.916389730134824,-32.256926278485935 37.95209015125488,-80.06104985604179 26.279941310205572,-108.98308403985675 c-2.4542036012537096,3.452324767663754 -4.626584781510957,7.468293493663737 -7.691403554618944,10.615311338142874 c-12.224047234578848,12.576325813109861 -24.635977555916497,24.976512336954215 -37.16533171367996,37.259275024372755 c-11.848283712031332,11.613432504552918 -27.818221490935343,11.437292331630715 -39.67824988411667,-0.29356503107607246 c-12.317988777958249,-12.177076462889147 -24.55377981003039,-24.424608641484497 -36.71911335908294,-36.75434298424943 c-11.68388822025912,-11.848283712031332 -11.789570910161729,-27.759509572722436 0.011742602313095929,-39.64302025895017 c15.406292936911086,-15.500234480290487 31.106150766826886,-30.706900532949476 46.25410490127297,-45.631745490097046 c-33.41944382032489,-12.153591518872645 -78.8867973532765,-1.9140439241914606 -106.88115459885057,26.914040984248004 c-39.10286212828714,40.277121700306 -42.801781900922606,86.29637185947377 -18.940815450460946,134.92248703439782 C338.7081368932286,270.2511691447744 269.567726506275,339.4033427696686 200.32154594740587,408.649452636002 zM386.87630582188285,473.90310257908277 c1.0333489138060585,1.1038045190551742 2.054955134689692,2.278064532902377 3.158759653744866,3.370126359035126 c41.31046984091245,41.32221187109235 82.72662502269759,82.52700344038567 123.80225426001198,124.08406298432965 c5.847815125219512,5.918271282754063 12.094879600659738,9.394080994434319 20.056363104266893,11.308124697711605 c21.45373185358426,5.1550017656507805 43.50633552335785,-6.200093261922177 49.76514158714963,-27.325031480991925 c4.626584781510957,-15.605916286536399 2.9826208063077075,-30.213714057632842 -9.664160059765834,-42.7078421248566 c-41.545324583017646,-41.07561863343403 -82.70314096233778,-82.55048750074548 -124.01361080325023,-123.86095734165792 c-1.3973695225169749,-1.3973695225169749 -2.923907562609756,-2.6655705274581436 -4.133395655224234,-3.7576321326767186 C426.1552842643614,434.65930074236894 406.77998718754316,454.0111278973345 386.87630582188285,473.90310257908277 zM143.6987335495287,154.30466533003528 c-25.92766273167456,-25.99811844738076 -52.0314700545548,-52.16063592116052 -77.19586017632764,-77.37199769827976 c-5.894785455080864,5.753874907325155 -12.259275976088645,11.965711083083931 -18.013149116100408,17.590416589176584 c25.692809756882752,25.681069494016242 51.70267200175681,51.6674459112171 77.36025566809985,77.31328047812667 C131.7799861688809,166.0002929295042 138.1327284741119,159.76497092607224 143.6987335495287,154.30466533003528 z" class="" fill="#ffffff" fill-opacity="1"/></g></svg>