<?xml version="1.0" encoding="iso-8859-1"?>
<!-- Generator: Adobe Illustrator 19.0.0, SVG Export Plug-In . SVG Version: 6.00 Build 0)  -->
<svg version="1.1" id="Layer_1" xmlns="http://www.w3.org/2000/svg" xmlns:xlink="http://www.w3.org/1999/xlink" x="0px" y="0px"
	 viewBox="104 -194 1000 1000" style="enable-background:new 104 -194 1000 1000;" xml:space="preserve">
<g>
	<path style="fill:#FFFFFF;" d="M862.8,459.7c-46.9,0-89.4,19.3-119.9,50.4L478.2,357.4c7.1-17.8,11-37.2,11-57.5
		c0-17.1-2.8-33.5-7.9-48.9L730,85.1c28,26.7,65.9,43.1,107.5,43.1c86.1,0,156.1-70,156.1-156.1s-70-156.1-156-156.1
		c-86.1,0-156.1,70-156.1,156.1c0,17.1,2.8,33.7,7.9,49.1L440.8,187.1c-28-26.8-66-43.2-107.7-43.2C247,143.9,177,213.9,177,300
		s70,156.1,156.1,156.1c38.3,0,73.4-13.9,100.6-36.9l269.5,155.5c-5.6,16.7-8.6,34.6-8.6,53.2c0,92.7,75.4,168.1,168.1,168.1
		s168.1-75.4,168.1-168.1C1030.9,535.1,955.5,459.7,862.8,459.7z M837.6-98.9c39.1,0,70.9,31.8,70.9,71c0,39.1-31.8,70.9-70.9,70.9
		c-39.1,0-70.9-31.8-70.9-70.9C766.6-67,798.4-98.9,837.6-98.9z M333.1,370.9c-39.1,0-70.9-31.8-70.9-70.9s31.8-70.9,70.9-70.9
		S404,260.9,404,300C404.1,339.1,372.2,370.9,333.1,370.9z M862.8,711.9c-46.4,0-84.1-37.7-84.1-84.1c0-46.4,37.7-84.1,84.1-84.1
		c46.4,0,84.1,37.7,84.1,84.1C946.9,674.2,909.1,711.9,862.8,711.9z"/>
</g>
</svg>
