<?xml version="1.0" encoding="iso-8859-1"?>
<!-- Generator: Adobe Illustrator 19.0.0, SVG Export Plug-In . SVG Version: 6.00 Build 0)  -->
<svg version="1.1" id="Layer_1" xmlns="http://www.w3.org/2000/svg" xmlns:xlink="http://www.w3.org/1999/xlink" x="0px" y="0px"
	 viewBox="0 0 20.375 23.188" style="enable-background:new 0 0 20.375 23.188;" xml:space="preserve">
<path id="XMLID_343_" style="fill:#FFFFFF;" d="M9.71,21.646c-0.35,0-0.444-0.09-0.464-0.437l-0.069-1.342l-0.037-0.501
	l-0.181-2.848c-0.012-0.185-0.021-0.37-0.026-0.555c-0.003-0.081-0.03-0.135-0.097-0.189l-0.47-0.384
	c-0.238-0.197-0.477-0.394-0.72-0.583c-0.16-0.125-0.246-0.271-0.271-0.462c-0.041-0.317-0.423-3.014-0.423-3.014L6.525,8.291
	l-0.03-0.247l0.086-0.11c0.096-0.016,0.132-0.022,0.167-0.022l2.494-0.003c0.171,0,0.305,0.062,0.412,0.189
	c0.063,0.075,0.122,0.152,0.181,0.23l0.762,1.019l0.072,0.088L10.666,9.44l0.055-0.008L10.641,9.37l0.884-1.135l0.127-0.152
	c0.102-0.117,0.229-0.174,0.387-0.174l2.307,0.002c0.192,0.011,0.276,0.049,0.332,0.116c0.055,0.066,0.077,0.156,0.066,0.267
	c-0.006,0.061-0.017,0.121-0.027,0.181l-0.809,5.588c-0.008,0.054-0.012,0.108-0.017,0.163c-0.025,0.278-0.103,0.426-0.237,0.536
	l-0.446,0.368c-0.261,0.212-0.521,0.424-0.783,0.632c-0.072,0.056-0.102,0.116-0.107,0.212c-0.03,0.575-0.065,1.15-0.102,1.725
	l-0.082,1.172l-0.105,0.113l0.1,0.006l-0.1,1.579l-0.053,0.983l-0.1,0.094H10.68L9.71,21.646z M7.063,8.442
	c0.018,0.026,0.019,0.06,0.022,0.092c0,0,0.711,5.022,0.801,5.676c0.013,0.093,0.047,0.15,0.125,0.212l0.515,0.421
	c0.229,0.19,0.46,0.379,0.693,0.564c0.148,0.117,0.217,0.246,0.224,0.416c0.008,0.202,0.021,0.404,0.034,0.605l0.287,4.588
	c0.003,0.039,0.009,0.078,0.016,0.116l0.771-0.013l0.884-0.001l0.076-0.43c0,0,0.288-4.677,0.3-4.896
	c0.006-0.133,0.058-0.238,0.157-0.32l0.495-0.418c0.255-0.208,0.51-0.415,0.767-0.619c0.091-0.072,0.132-0.145,0.141-0.251
	c0.018-0.199,0.047-0.396,0.076-0.594l0.726-5.039l0.047-0.096c-0.149-0.012-0.646-0.02-1.217-0.02
	c-0.463,0-0.901,0.005-1.016,0.018l-0.217,0.317c-0.22,0.281-0.439,0.562-0.657,0.846C11.044,9.707,10.98,9.8,10.913,9.9
	l-0.098,0.142l-0.092,0.042c-0.112-0.011-0.275-0.045-0.396-0.21C10.09,9.547,9.373,8.583,9.373,8.583L9.276,8.461L9.281,8.44
	L7.063,8.442z"/>
<path id="XMLID_340_" style="fill:#FFFFFF;" d="M6.779,21.644L6.58,21.537l-0.075-0.652c-0.061-0.571-0.12-1.12-0.175-1.67
	l-0.173-1.79l0.084-0.153l-0.1,0.01c-0.008-0.08-0.041-0.139-0.108-0.192c-0.347-0.273-0.689-0.549-1.031-0.827
	c-0.37-0.302-0.396-0.323-0.437-0.607l-0.032-0.203c-0.105-0.586-0.205-1.174-0.306-1.761L3.349,8.6
	C3.332,8.497,3.315,8.392,3.301,8.287c-0.01-0.084-0.018-0.183,0.023-0.295l0.083-0.065c0.078-0.01,0.113-0.015,0.147-0.015
	l2.073,0.002C5.816,7.932,5.913,8.02,5.943,8.201c0.021,0.12,0.036,0.241,0.051,0.362c0,0,0.754,5.788,0.808,6.229
	c0.014,0.115,0.059,0.189,0.158,0.264c0.315,0.234,0.626,0.474,0.936,0.714l0.229,0.176c0.065,0.051,0.131,0.101,0.191,0.157
	c0.097,0.087,0.146,0.201,0.15,0.348c0.012,0.299,0.028,0.6,0.046,0.899l0.096,1.684l0.101,1.556
	c0.013,0.21,0.044,0.919,0.044,0.919l-0.074,0.102c-0.073,0.022-0.107,0.034-0.147,0.034l-0.79,0.001L6.779,21.644z M7.988,21.126
	c0.08,0,0.146-0.004,0.205-0.013l-0.265-4.691l-0.127-0.062l-0.305-0.235c-0.303-0.235-0.605-0.469-0.913-0.697
	c-0.145-0.108-0.309-0.267-0.291-0.544l-0.27-2.025L5.485,8.723C5.472,8.626,5.462,8.539,5.442,8.454L3.837,8.442
	C3.865,8.476,3.869,8.518,3.876,8.56c0,0,1.161,6.736,1.193,6.946c0.021,0.126,0.062,0.199,0.142,0.251
	c0.035,0.024,0.417,0.336,0.417,0.336c0.249,0.201,0.498,0.402,0.749,0.6c0.168,0.131,0.258,0.293,0.275,0.494
	c0.02,0.222,0.041,0.444,0.065,0.666l0.11,1.001l0.211,2.099c0.005,0.048,0.015,0.096,0.024,0.146
	c0.038,0.021,0.14,0.025,0.24,0.025l0.353-0.006L7.988,21.126z"/>
<path id="XMLID_337_" style="fill:#FFFFFF;" d="M12.866,21.646c-0.067,0-0.128-0.001-0.186-0.013
	c-0.125-0.022-0.216-0.126-0.227-0.258c-0.003-0.041,0-0.081,0.003-0.121l0.077-1.137l0.116-2.083l0.073-1.029l0.008-0.195
	l0.103-0.118l-0.101-0.002l0.005-0.163c0.009-0.227,0.103-0.404,0.287-0.542c0.174-0.129,0.346-0.263,0.517-0.396
	c0.214-0.167,0.428-0.333,0.647-0.492c0.151-0.109,0.219-0.232,0.232-0.425c0.015-0.225,0.046-0.45,0.076-0.675l0.787-5.973
	l0.084-0.085c0.134-0.021,0.775-0.028,1.284-0.028c0.463,0,1.048,0.006,1.174,0.024l0.085,0.099
	c0.004,0.096,0.007,0.146-0.002,0.196l-0.561,3.31l-0.516,2.976c-0.059,0.345-0.114,0.691-0.163,1.038
	c-0.037,0.262-0.147,0.456-0.347,0.61c-0.238,0.184-0.471,0.375-0.703,0.565l-0.452,0.368c-0.063,0.05-0.088,0.089-0.093,0.147
	c-0.009,0.114-0.227,2.243-0.227,2.243l-0.192,1.813l-0.021,0.114c-0.042,0.138-0.14,0.219-0.276,0.227l-0.125,0.004l-0.684,0
	L12.866,21.646z M15.604,9.59l-0.611,4.69l-0.081,0.665c-0.021,0.183-0.107,0.335-0.26,0.452l-0.469,0.364
	c-0.261,0.203-0.521,0.406-0.788,0.601c-0.104,0.076-0.143,0.154-0.139,0.28c0.003,0.123-0.002,0.246-0.009,0.368l-0.076,1.172
	l-0.066,1.222l-0.11,1.699l1.107,0.017c0.054-0.052,0.063-0.097,0.068-0.142c0,0,0.357-3.5,0.386-3.814
	c0.017-0.186,0.097-0.33,0.251-0.451c0.213-0.168,1.193-0.963,1.193-0.963c0.087-0.069,0.131-0.145,0.147-0.256
	c0.068-0.452,0.143-0.901,0.219-1.351l0.967-5.645c-0.035-0.053-0.355-0.059-0.693-0.059c-0.385,0-0.723,0.008-0.882,0.02
	L15.604,9.59z"/>
<path id="XMLID_334_" style="fill:#FFFFFF;" d="M10.591,6.988c-0.719,0-1.395-0.29-1.902-0.816S7.904,4.955,7.928,4.277
	C7.915,3.582,8.184,2.914,8.686,2.401c0.515-0.523,1.214-0.824,1.92-0.824c1.7,0.004,2.719,1.374,2.725,2.694
	c0.007,1.327-1.011,2.706-2.724,2.716H10.591z M10.615,2.1c-0.56,0-1.142,0.252-1.557,0.674c-0.4,0.408-0.616,0.94-0.606,1.499
	c-0.02,0.547,0.202,1.101,0.61,1.524c0.414,0.43,0.96,0.667,1.536,0.667c1.234-0.003,2.199-0.959,2.204-2.175
	c0.005-1.222-0.951-2.183-2.178-2.188L10.615,2V2.1z"/>
<path id="XMLID_281_" style="fill:#FFFFFF;" d="M15.523,6.99c-0.538,0-1.065-0.223-1.448-0.611
	c-0.376-0.382-0.578-0.898-0.569-1.454c-0.012-1.063,0.894-1.987,1.977-2.015c0.001,0,0.001,0,0.002,0
	c1.022,0,2.083,0.779,2.093,2.038c0.005,0.533-0.201,1.037-0.578,1.42C16.613,6.76,16.08,6.986,15.536,6.99H15.523z M15.496,3.437
	c-0.816,0.023-1.473,0.69-1.464,1.487c-0.015,0.525,0.214,0.873,0.408,1.073c0.285,0.293,0.692,0.469,1.089,0.469
	c0.41-0.003,0.804-0.174,1.092-0.469c0.285-0.292,0.438-0.667,0.433-1.056c-0.016-0.929-0.802-1.504-1.521-1.504v-0.1L15.496,3.437z
	"/>
<path id="XMLID_278_" style="fill:#FFFFFF;" d="M5.798,6.986c-1.135,0-2.028-0.896-2.033-2.039C3.761,4.423,3.981,3.899,4.368,3.511
	C4.753,3.123,5.261,2.91,5.799,2.91c0,0,0,0,0.001,0c1.117,0,2.034,0.936,2.042,2.043c0.006,0.833-0.616,2.015-2.018,2.033H5.798z
	 M5.794,3.436c-0.395,0-0.769,0.158-1.053,0.445c-0.286,0.29-0.455,0.689-0.452,1.07c0.009,0.833,0.686,1.51,1.511,1.51
	c0.429-0.002,0.795-0.153,1.071-0.436c0.282-0.289,0.454-0.705,0.448-1.087c-0.014-0.8-0.704-1.502-1.478-1.502L5.794,3.436z"/>
<polygon id="XMLID_277_" style="fill:#FF9800;" points="10.033,10.336 10.033,12.351 7.997,12.351 7.997,13.657 10.057,13.657 
	10.057,15.678 11.386,15.678 11.386,13.647 13.323,13.647 13.323,12.348 11.352,12.351 11.352,10.338 "/>
</svg>
