<?xml version="1.0" encoding="utf-8"?>
<!-- Generator: Adobe Illustrator 19.0.0, SVG Export Plug-In . SVG Version: 6.00 Build 0)  -->
<svg version="1.1" id="Layer_1" xmlns="http://www.w3.org/2000/svg" xmlns:xlink="http://www.w3.org/1999/xlink" x="0px" y="0px"
	 viewBox="0 0 25 25" style="enable-background:new 0 0 25 25;" xml:space="preserve">
<style type="text/css">
	.st0{fill:none;stroke:#0E2E63;stroke-width:0.5;stroke-miterlimit:10;}
	.st1{fill:#0E2E63;}
	.st2{font-family:'ArialRoundedMTBold';}
	.st3{font-size:2.7929px;}
</style>
<path id="XMLID_7_" class="st0" d="M5.6,9c-0.2,0-0.3-1.4-0.3-1.6C5.4,7.1,5.6,6.9,6,6.8c0.7-0.2,1,0.4,1.6,0.5
	c0.7,0,0.7-0.7,0.8-1.2c0.2-1.2,1.5-2.6,2.7-2.7c0.6-0.1,0.7,0.3,1.1,0.5c0.7,0.3,1.5-1.2,2-1.5C16,1.2,17,3.8,17.1,5.2
	c0-0.4,2.4-0.4,2.7-0.3c1.7,0.5,1.6,2.6,1.4,4l-0.1,9.5h-1.3c0,0.8-0.2,1.6-0.4,2.4c-0.4,1.4-1.6,3.2-3.1,3.5
	c-0.8,0.2-1.7-0.1-2.4-0.4c-0.7-0.4-1.2-1.2-2-1.2c-0.4,0-0.7,0.2-1.1,0.1c-0.5-0.1-1-0.5-1.4-0.9c-0.3-0.3-1.5-2.5-1.5-2.5
	l-3.5,0.1L3.8,9.1C3.8,9.1,5.6,9,5.6,9z"/>
<path id="XMLID_6_" class="st0" d="M3.8,9.2l0.5,10.1l15.5-0.9c0,0,0-0.1,0-0.1h1.3l0.1-9.3L3.8,9.2z"/>
<path id="XMLID_5_" class="st0" d="M11.4,4.5c-0.1,0.8-0.5,1.5-0.8,2.2c-0.2,0.6-0.4,1.1-0.4,1.8c0,1.4,1.9,1.7,2.8,0.8
	c0.5-0.5,0.8-1.2,1-1.9c0.3-0.7,0.6-1.4,1.2-1.8c0.6-0.4,0.6,0.6,0.8,1"/>
<path id="XMLID_4_" class="st0" d="M17,5.4c-0.2,0.3-0.4,0.5-0.6,0.8c-0.3,0.4-0.7,0.8-0.8,1.3s-0.1,1.1,0.3,1.4
	c0.3,0.3,0.8,0.3,1.2,0.3c0.2,0,0.3,0,0.5-0.1c0.7-0.2,1-1.2,1.7-1.4c0.1,0,0.2,0,0.3,0c0.1,0.1,0.1,0.2,0.1,0.2
	c0,0.2,0.1,0.4,0.1,0.5"/>
<path id="XMLID_3_" class="st0" d="M10.8,6.8c0.3,0,0.6,0,0.8,0c0.2,0,0.4,0.1,0.5,0.2c0.5,0.3,0.9,0.7,1.2,1.1"/>
<path id="XMLID_1_" class="st0" d="M8.1,7.3C7.9,7.8,7.6,8.4,7.9,8.9c0.3,0.5,1.4,0.8,1.7,0.3C9.8,8.9,9.9,8.5,10,8.1"/>
<text transform="matrix(1 0 0 1 6.4848 13.1648)" class="st1 st2 st3">How can i</text>
<text transform="matrix(1 0 0 1 6.5868 16.5168)" class="st1 st2 st3">help you?</text>
</svg>
