<?xml version="1.0" encoding="iso-8859-1"?>
<!-- Generator: Adobe Illustrator 19.0.0, SVG Export Plug-In . SVG Version: 6.00 Build 0)  -->
<svg version="1.1" id="Layer_1" xmlns="http://www.w3.org/2000/svg" xmlns:xlink="http://www.w3.org/1999/xlink" x="0px" y="0px"
	 viewBox="0 0 24.333 18.333" style="enable-background:new 0 0 24.333 18.333;" xml:space="preserve">
<path id="XMLID_340_" style="fill:#FFFFFF;" d="M4.732,17.935c-0.128-0.044-0.186-0.133-0.228-0.198l-1.37-2.106
	c-0.047-0.073-0.11-0.172-0.106-0.303l0.273-0.229l0.43-0.281l4.063-2.729c0.673-0.451,2.216-1.476,2.216-1.476
	c0.066-0.043,0.298-0.177,0.298-0.177l0.105,0.002c0.127,0.083,0.191,0.182,0.248,0.269l1.271,1.906l0.105,0.149
	c0.049-0.03,0.073-0.046,0.098-0.063l3.866-2.8l2.182-1.588l0.388-0.289l-0.04-0.073l-0.702-1.088
	c-0.053-0.083-0.098-0.17-0.143-0.258l-0.061-0.147l0.072-0.162l0.116,0.083v-0.1l5.71,0l0.096,0.072
	c0.033,0.114-0.002,0.202-0.028,0.266l-1.817,5.324L21.71,12.11l-0.153,0.136c-0.189-0.061-0.291-0.188-0.371-0.303l-0.861-1.234
	l-0.086,0.075l-8.783,6.373l-0.172,0.063c-0.142-0.06-0.216-0.17-0.281-0.269L9.71,15.015l-0.093-0.128l-0.02,0.016l-0.195,0.12
	l-3.719,2.376c-0.209,0.133-0.419,0.267-0.63,0.397c-0.056,0.035-0.115,0.066-0.17,0.094L4.732,17.935z M3.601,15.492
	c0.121,0.202,1.005,1.552,1.248,1.857c0.046-0.022,0.091-0.053,0.137-0.084l3.827-2.447c0.216-0.138,0.434-0.273,0.653-0.407
	c0.088-0.054,0.177-0.108,0.288-0.108l0.108,0.048c0.334,0.54,1.264,1.921,1.516,2.258l8.425-6.115
	c0.138-0.1,0.276-0.197,0.418-0.29c0.056-0.038,0.111-0.075,0.19-0.075l0.134,0.051l0.59,0.833c0.094,0.137,0.14,0.206,0.19,0.271
	c0,0,0.087,0.13,0.101,0.149l0.84-2.445L23,6.832l0.037-0.064l-4.56-0.002l-0.168-0.1l0.003,0.1l0.087,0.08l0.572,0.888
	c0.093,0.143,0.171,0.263,0.182,0.428l-0.154,0.164l-0.177,0.121l-4.287,3.121c-0.776,0.564-1.555,1.126-2.333,1.687
	c-0.088,0.07-0.159,0.127-0.268,0.134l-0.131-0.102l-0.096-0.134l-1.389-2.073l-0.05-0.06L3.601,15.492z"/>
<path id="XMLID_332_" style="fill:#FFFFFF;" d="M11.969,12.514c-0.121-0.024-0.18-0.104-0.223-0.164
	c-0.099-0.138-0.186-0.265-0.27-0.392l-1.127-1.7l-0.073-0.102c-0.205,0.128-0.476,0.312-0.744,0.494L7.8,11.812
	c-0.279,0.188-0.563,0.377-0.864,0.572l-0.154-0.073l-0.017-0.167c0.002-0.146,0.003-0.233,0.013-0.32
	c0.008-0.073,0.021-0.146,0.034-0.22l0.024-0.139L6.85,11.33l0.021-0.104l-0.006-0.003l0.005-0.008l0.003,0.002l0.002-0.007
	c0.031-0.045,0.031-0.101,0.028-0.182l0.08-0.003L6.91,10.982l0.148-0.402c0.062-0.199,0.123-0.397,0.195-0.592
	c0.206-0.555,0.508-1.071,0.895-1.535c0.167-0.199,0.354-0.386,0.571-0.572c0.092-0.077,0.156-0.129,0.208-0.184
	C8.905,7.66,8.875,7.627,8.846,7.593C8.533,7.198,8.363,6.848,8.28,6.469C8.214,6.176,8.203,5.883,8.247,5.598
	C8.339,4.993,8.582,4.48,8.97,4.073c0.426-0.447,0.969-0.682,1.614-0.698c0.002,0,0.003,0,0.004,0c0.858,0,1.491,0.31,1.955,0.92
	c0.195,0.255,0.341,0.544,0.434,0.861c-0.249-0.96,0.113-2.063,0.885-2.687c0.256-0.208,0.557-0.35,0.921-0.436
	c0.188-0.044,0.376-0.066,0.561-0.066c0.314,0,0.629,0.065,0.935,0.193c0.359,0.152,0.653,0.374,0.875,0.659
	c0.647,0.838,0.785,1.743,0.409,2.69c-0.073,0.184-0.182,0.368-0.344,0.579L17.09,6.255c0.048,0.11,0.093,0.149,0.139,0.188
	c0.304,0.254,0.586,0.563,0.887,0.973c0.089,0.12,0.171,0.24,0.209,0.388c-0.053,0.189-0.148,0.258-0.233,0.32l-3.516,2.545
	l-0.12,0.082l-0.158,0.016c-0.014,0.084-0.064,0.16-0.153,0.224l-2.055,1.479L11.969,12.514z M10.44,9.595
	c0.102,0.063,0.163,0.16,0.224,0.253l1.271,1.921l0.104,0.145l1.75-1.271l-0.057-0.182c-0.131-0.367-0.305-0.732-0.516-1.084
	c-0.271-0.456-0.581-0.823-0.946-1.124c-0.058-0.048-0.113-0.097-0.167-0.149c-0.252-0.248-0.272-0.456-0.076-0.741
	c0.035-0.052,0.189-0.251,0.189-0.251c0.292-0.402,0.422-0.85,0.387-1.332c-0.029-0.401-0.166-0.782-0.406-1.133
	c-0.22-0.319-0.511-0.54-0.891-0.676c-0.194-0.07-0.404-0.105-0.625-0.105c-0.099,0-0.198,0.007-0.298,0.02
	C9.954,3.94,9.593,4.121,9.31,4.424C8.995,4.761,8.799,5.182,8.727,5.675C8.69,5.935,8.705,6.194,8.773,6.443
	c0.076,0.281,0.21,0.539,0.408,0.789c0.1,0.122,0.144,0.175,0.183,0.232c0.127,0.186,0.117,0.349-0.03,0.514
	C9.251,8.07,9.156,8.153,9.061,8.232c-0.547,0.458-0.963,1.022-1.27,1.724c-0.199,0.457-0.352,0.963-0.477,1.588l2.084-1.394
	l0.682-0.451c0.095-0.063,0.181-0.12,0.307-0.12L10.44,9.595z M15.372,2.461c-0.151,0-0.312,0.017-0.476,0.051
	c-0.332,0.069-0.619,0.219-0.851,0.445c-0.709,0.691-0.963,1.967-0.163,2.906c0.064,0.074,0.107,0.125,0.143,0.179
	c0.128,0.195,0.114,0.383-0.041,0.559c-0.072,0.081-0.155,0.153-0.239,0.223c-0.249,0.206-0.485,0.455-0.741,0.783
	c-0.023,0.029-0.043,0.062-0.064,0.097l0.022,0.015c0.09,0.092,0.177,0.181,0.266,0.268c0.183,0.178,0.356,0.388,0.53,0.643
	c0.319,0.469,0.564,0.973,0.729,1.5l3.268-2.369L17.71,7.686c-0.275-0.368-0.527-0.643-0.792-0.865
	c-0.062-0.052-0.117-0.1-0.167-0.151c-0.239-0.239-0.256-0.421-0.063-0.694l0.19-0.251c0.602-0.806,0.515-1.969-0.203-2.705
	C16.314,2.649,15.875,2.461,15.372,2.461z M12.999,5.236c0.172,0.653,0.109,1.267-0.185,1.828c0.195-0.23,0.391-0.426,0.591-0.594
	c0.059-0.049,0.113-0.101,0.165-0.149c0.034-0.036,0.014-0.06-0.029-0.105C13.272,5.894,13.099,5.576,12.999,5.236z"/>
<path id="XMLID_279_" style="fill:#FFFFFF;" d="M2.748,11.419c-0.085,0-0.171-0.001-0.256-0.013c-0.29-0.04-0.437-0.201-0.448-0.493
	c-0.007-0.133,0-0.268,0.017-0.4C2.15,9.832,2.272,9.284,2.445,8.788c0.348-0.991,0.914-1.822,1.685-2.47l0.096-0.086L4.178,6.175
	L4.074,6.03c-0.07-0.095-0.14-0.191-0.201-0.292C3.534,5.181,3.437,4.566,3.584,3.91c0.085-0.375,0.242-0.724,0.468-1.034
	c0.434-0.599,1.034-0.922,1.787-0.961l0.14-0.003c0.289,0,0.573,0.049,0.842,0.146C7.099,2.16,7.325,2.295,7.51,2.47
	c0.62,0.59,0.916,1.292,0.879,2.086c-0.018,0.401-0.14,0.798-0.361,1.181C7.976,5.825,7.919,5.909,7.862,5.992l-0.075,0.11
	C7.719,6.195,7.699,6.224,7.699,6.27l0.114,0.066c0.404,0.383,0.822,0.78,1.089,1.296c-0.015,0.2-0.101,0.274-0.163,0.328
	C8.06,8.54,7.57,9.325,7.24,10.363c-0.047,0.149-0.087,0.302-0.121,0.455c-0.011,0.047-0.014,0.096-0.017,0.144L7.073,11.08
	L7.05,11.286c-0.009,0.009-0.017,0.018-0.024,0.025l0,0c-0.099,0.096-0.176,0.103-0.242,0.103L2.748,11.419z M5.978,2.406
	c-0.11,0-0.222,0.008-0.334,0.025C5.258,2.488,4.943,2.64,4.68,2.895C4.33,3.237,4.112,3.662,4.031,4.159
	C3.949,4.66,4.049,5.129,4.328,5.552c0.053,0.079,0.109,0.155,0.166,0.231c0,0,0.155,0.202,0.176,0.233
	c0.122,0.186,0.108,0.349-0.046,0.511C4.561,6.595,4.491,6.655,4.42,6.713C4.107,6.972,3.824,7.284,3.555,7.667
	c-0.557,0.792-0.88,1.747-1.02,3.006c-0.006,0.051-0.023,0.208-0.001,0.233C2.557,10.93,2.71,10.93,2.769,10.93l3.653-0.004
	l0.16-0.006l0.046-0.158c0.044-0.177,0.088-0.351,0.142-0.522C6.847,9.993,6.937,9.748,7.04,9.511
	c0.108-0.244,0.23-0.484,0.368-0.713C7.543,8.576,7.696,8.363,7.86,8.162c0.11-0.136,0.231-0.263,0.357-0.394l0.172-0.181
	l0.003-0.05L8.311,7.595c-0.202-0.282-0.453-0.553-0.814-0.88L7.349,6.587C7.16,6.402,7.137,6.224,7.27,5.993
	c0.022-0.038,0.192-0.284,0.192-0.284C7.532,5.606,7.601,5.502,7.66,5.393c0.156-0.293,0.239-0.594,0.247-0.895
	c0.016-0.656-0.241-1.228-0.766-1.699C7.012,2.683,6.855,2.593,6.659,2.523C6.44,2.445,6.211,2.406,5.978,2.406z"/>
<polygon id="XMLID_278_" style="fill:#FFFFFF;" points="14.135,10.351 14.127,10.367 14.122,10.349 "/>
<polygon id="XMLID_277_" style="fill:#FFFFFF;" points="14.135,10.351 14.127,10.367 14.122,10.349 "/>
</svg>
