<?xml version="1.0" encoding="iso-8859-1"?>
<!-- Generator: Adobe Illustrator 19.0.0, SVG Export Plug-In . SVG Version: 6.00 Build 0)  -->
<svg version="1.1" id="Layer_1" xmlns="http://www.w3.org/2000/svg" xmlns:xlink="http://www.w3.org/1999/xlink" x="0px" y="0px"
	 viewBox="0 0 20.875 22.25" style="enable-background:new 0 0 20.875 22.25;" xml:space="preserve">
<path style="fill:#FFFFFF;" d="M5.96,21.425l-0.092-0.06l-0.098-0.225l-3.771-9.363c-0.113-0.228-0.076-0.362-0.035-0.462
	l3.801-9.429l0.076-0.178l0.12-0.125h9.8c0.145,0.084,0.176,0.172,0.2,0.243l3.708,9.104c0.087,0.187,0.09,0.379,0.007,0.589
	l-3.692,9.6l-0.075,0.183l-0.118,0.125H5.96z M8.698,2.126c-2.2,0-2.454,0.008-2.48,0.011l-0.01,0.146l-3.759,9.217l3.769,9.238
	l0.063,0.147c0.018,0.005,0.893,0.015,3.139,0.015c0.001,0,0.002,0,0.003,0c2.575,0,5.534-0.013,5.994-0.03
	c0,0,3.647-9.25,3.755-9.517c0.037-0.089,0.037-0.148,0.002-0.209L15.55,2.299l-0.063-0.14C15.394,2.14,11.561,2.126,8.698,2.126z"
	/>
<path style="fill:#FFFFFF;" d="M14.609,18.84c-0.076,0-0.154-0.007-0.235-0.018c-0.119-0.147-0.116-0.238-0.113-0.311l0.001-3.122
	l-0.005-0.179c-0.182-0.007-0.599-0.012-1.151-0.012c-0.896,0-1.768,0.012-1.956,0.025c0.027,0.006,0.029,0.045,0.031,0.089
	l-0.002,2.977l-0.059,0.173c-0.079,0.039-0.152,0.044-0.207,0.044l-0.108-0.103v0.1L7.16,18.502l-0.193-0.069
	C6.913,18.277,6.925,18.136,6.936,18l0.059-0.132c0.074-0.037,0.146-0.042,0.2-0.042l3.351,0.002
	c-0.036-0.001-0.035-0.02-0.038-0.076l-0.001-2.534l-0.145-0.01l-2.854,0.014l-0.175-0.005l-0.171-0.08l-0.033-0.161
	c-0.004-0.088-0.004-0.177-0.004-0.266l0.002-3.529c-0.003-0.133-0.005-0.225,0.028-0.325l0.077-0.067
	c0.078-0.014,0.154-0.02,0.231-0.02c0.075,0,0.151,0.006,0.229,0.019l0.079,0.067c0.032,0.098,0.031,0.188,0.03,0.268l-0.001,3.2
	l0.005,0.21l0.05,0.009l2.616-0.012c0.038,0,0.039-0.028,0.035-0.088l-0.001-2.912l0.006-0.171l0.093-0.176l0.157-0.016l3.771,0.064
	c0.143,0,0.242,0,0.346,0.036c0.099,0.217,0.098,0.369,0.061,0.548l-0.082,0.079c-0.079,0.013-0.158,0.017-0.236,0.017l-0.385-0.012
	l-1.867-0.025l-0.623-0.017l-0.588,0c0.018,0.006,0.018,0.028,0.021,0.074l0.002,2.478c0,0.041,0.004,0.082,0.007,0.123
	c0.003,0,0.037,0,0.055,0l0.115,0.097v-0.1l3.336-0.009l0.078,0.107l0.03-0.097l0.107,0.081l0.025,3.896
	c0,0.082-0.002,0.125-0.006,0.168l-0.103,0.145C14.758,18.833,14.687,18.84,14.609,18.84z"/>
<path style="fill:#FFFFFF;" d="M9.43,13.665c-0.292-0.002-0.519-0.235-0.516-0.53c0.001-0.288,0.234-0.523,0.521-0.523
	c0.293,0.002,0.526,0.241,0.523,0.532c-0.003,0.292-0.233,0.521-0.523,0.521H9.43z"/>
<path style="fill:#FFFFFF;" d="M9.435,17.077c-0.294-0.001-0.522-0.232-0.521-0.525c0-0.291,0.233-0.527,0.521-0.527
	c0.284,0,0.523,0.243,0.523,0.53C9.957,16.847,9.728,17.077,9.435,17.077L9.435,17.077z"/>
<path style="fill:#FFFFFF;" d="M12.879,13.67c-0.293-0.005-0.513-0.234-0.51-0.533c0.002-0.29,0.233-0.517,0.527-0.517
	c0.141,0.001,0.27,0.057,0.366,0.158c0.1,0.102,0.154,0.241,0.15,0.382c-0.006,0.286-0.235,0.51-0.523,0.51H12.879z"/>
<path style="fill:#FFFFFF;" d="M12.89,17.082c-0.296,0-0.52-0.223-0.521-0.519c-0.002-0.291,0.23-0.528,0.518-0.53
	c0.291,0,0.525,0.235,0.526,0.523c0.002,0.141-0.051,0.272-0.147,0.371c-0.098,0.099-0.229,0.153-0.372,0.154H12.89z"/>
<path style="fill:#FFFFFF;" d="M13.209,7.278c-0.234,0-0.43-0.191-0.435-0.425c-0.003-0.112,0.039-0.221,0.12-0.305
	c0.08-0.084,0.192-0.134,0.307-0.136c0.246,0,0.436,0.187,0.438,0.424c0.004,0.243-0.182,0.438-0.422,0.442H13.209z"/>
<path style="fill:#FFFFFF;" d="M10.969,7.278c-0.114-0.006-0.22-0.059-0.298-0.146s-0.117-0.199-0.11-0.313
	c0.015-0.229,0.207-0.407,0.437-0.407c0.265,0.014,0.442,0.215,0.43,0.458c-0.012,0.229-0.202,0.409-0.432,0.409L10.969,7.278z"/>
<path style="fill:#FFFFFF;" d="M8.435,7.278C8.197,7.273,8.007,7.074,8.013,6.834c0.005-0.237,0.194-0.422,0.432-0.422
	c0.126,0.002,0.234,0.05,0.314,0.135c0.08,0.084,0.122,0.193,0.119,0.308C8.873,7.088,8.679,7.278,8.444,7.278H8.435z"/>
</svg>
