<?xml version="1.0" encoding="iso-8859-1"?>
<!-- Generator: Adobe Illustrator 19.0.0, SVG Export Plug-In . SVG Version: 6.00 Build 0)  -->
<svg version="1.1" id="Layer_1" xmlns="http://www.w3.org/2000/svg" xmlns:xlink="http://www.w3.org/1999/xlink" x="0px" y="0px"
	 viewBox="0 0 22 20.688" style="enable-background:new 0 0 22 20.688;" xml:space="preserve">
<path style="fill:#FFFFFF;" d="M2.524,19.961L2.32,19.855c-0.012-0.107-0.017-0.153-0.017-0.199l0.005-0.768L2.3,8.977
	c0-0.155,0.002-0.31,0.016-0.464C2.34,8.217,2.459,7.951,2.668,7.725C2.845,7.535,3.13,7.421,3.43,7.421
	c0.458,0,0.822,0.247,0.975,0.66c0.08,0.217,0.121,0.433,0.123,0.644l0.003,0.999c0.104-0.219,0.242-0.403,0.411-0.563
	c0.304-0.288,0.66-0.457,1.057-0.504c0.063-0.008,0.126-0.012,0.188-0.012c0.315,0,0.619,0.097,0.903,0.288
	c0.38,0.256,0.648,0.617,0.796,1.073l0.037,0.127l0.032-0.028c0.189-0.163,0.401-0.246,0.63-0.246c0.077,0,0.157,0.01,0.238,0.029
	c0.183,0.042,0.345,0.14,0.481,0.291c0-0.068,0.004-0.144,0.044-0.221L9.492,9.9c0.043-0.003,0.087-0.007,0.131-0.007l6.023,0
	c0.188,0,0.377,0.015,0.563,0.041c0.58,0.081,1.06,0.493,1.254,1.044c0.007-0.054,0.014-0.107,0.021-0.161
	c0.035-0.242,0.145-0.459,0.325-0.645c0.209-0.215,0.481-0.334,0.766-0.334c0.38,0,0.724,0.209,0.918,0.56
	c0.085,0.153,0.137,0.312,0.152,0.469c0.023,0.236,0.042,0.421,0.042,0.606c0.002,0.528,0.002,8.087,0.002,8.087l-0.004,0.159
	l-0.083,0.188l-0.139,0.026l-1.79-0.004l-0.059-0.108l-0.047,0.092c-0.126-0.126-0.121-0.221-0.117-0.297l0.002-2.54l-0.045-0.047
	l-0.009,0.1L4.788,17.13l-0.197,0.003c-0.026,0-0.023,0.05-0.021,0.112l0.001,2.585l-0.077,0.097
	C4.421,19.95,4.387,19.96,4.349,19.96l-1.012,0.001L2.524,19.961z M3.425,7.948c-0.185,0-0.36,0.09-0.469,0.242
	C2.892,8.28,2.855,8.365,2.845,8.45C2.826,8.604,2.808,8.76,2.806,8.915c-0.003,0.333,0.002,1.39,0.002,1.39l0.02,7.319
	c0,0.341-0.004,0.682-0.009,1.023l-0.007,0.634c-0.006,0.112-0.008,0.145,0.01,0.167c0.021-0.013,0.127-0.016,0.269-0.016
	c0.088,0,0.189,0.001,0.292,0.001c0.323,0,0.608-0.01,0.714-0.025c-0.036,0-0.038-0.046-0.04-0.098V16.97
	c-0.007-0.123-0.014-0.226,0.066-0.331l0.166-0.04l0.095,0.1l0.094-0.1l13.148-0.003l0.105,0.003
	c0.036,0.002,0.072,0.011,0.112,0.021l0.125,0.108l0,2.367c-0.001,0.095-0.002,0.19,0.002,0.287l1.207,0.019l-0.01-2.383
	l0.008-5.327c0-0.199-0.005-0.397-0.013-0.596c-0.005-0.149-0.037-0.284-0.094-0.401c-0.098-0.205-0.282-0.327-0.491-0.327
	c-0.149,0-0.294,0.065-0.407,0.182c-0.087,0.09-0.141,0.183-0.163,0.282c-0.023,0.102-0.04,0.172-0.042,0.242
	c-0.013,0.302-0.025,0.604-0.026,0.907c-0.001,0.23,0.002,0.459,0.006,0.689l0.009,1.979c-0.14,0.167-0.243,0.178-0.339,0.181
	c-0.104,0.004-0.209,0.007-0.315,0.007l-4.415,0.006l-8.589-0.006c-0.068,0-0.106-0.009-0.144-0.019L4.025,14.71l0.01-1.857
	c0-1.28-0.002-2.559-0.007-3.839C4.027,8.853,4.016,8.689,3.988,8.53C3.968,8.411,3.919,8.292,3.875,8.193
	C3.838,8.112,3.769,8.047,3.668,8.001C3.591,7.966,3.509,7.948,3.425,7.948z M9.926,10.426c-0.038,0-0.076,0.003-0.117,0.007
	c0.007,0.025,0.003,0.064,0.003,0.104l0,3.239c-0.003,0.119-0.005,0.171,0.018,0.216l7.252-0.042
	c0.004-0.003,0.004-0.04,0.003-0.097l0-0.401c0.001-0.429,0.002-0.857-0.002-1.286c-0.002-0.245-0.018-0.49-0.042-0.733
	c-0.052-0.526-0.396-0.891-0.92-0.976c-0.144-0.023-0.292-0.034-0.437-0.034l-0.895,0L9.926,10.426z M5.599,12.832
	c-0.155,0-0.277,0.012-0.384,0.035c-0.245,0.054-0.41,0.268-0.411,0.533c-0.001,0.289,0.133,0.458,0.409,0.52
	c0.133,0.03,0.272,0.043,0.409,0.047l1.678,0.003l1.053-0.003c0.13-0.001,0.26-0.018,0.388-0.04
	c0.149-0.025,0.245-0.114,0.287-0.266c0.036-0.131,0.056-0.258,0.059-0.377c0.015-0.566,0.024-1.134,0.027-1.701
	c0.001-0.157-0.009-0.315-0.019-0.473l-0.01-0.168c-0.008-0.145-0.05-0.266-0.129-0.37c-0.092-0.123-0.21-0.185-0.35-0.185
	c-0.241,0.025-0.362,0.121-0.421,0.29c-0.031,0.089-0.05,0.166-0.057,0.234c-0.022,0.187-0.043,0.375-0.045,0.563
	c-0.003,0.219,0.002,0.438,0.007,0.656l0.006,0.596l-0.099,0.1L6.583,12.83L5.599,12.832z M4.544,12.749
	c0.172-0.105,0.47-0.288,0.638-0.391c-0.066-0.05-0.13-0.101-0.189-0.157c-0.096-0.091-0.188-0.192-0.265-0.299
	c-0.054-0.075-0.1-0.157-0.146-0.239l-0.039-0.07L4.544,12.749z M7.36,12.303c0.069,0,0.139-0.002,0.207-0.008
	c0.015-0.115,0.015-0.25,0.003-0.371C7.547,11.954,7.528,11.977,7.508,12c-0.077,0.085-0.158,0.167-0.244,0.243
	c-0.022,0.02-0.046,0.039-0.069,0.058L7.36,12.303z M6.184,9.173c-0.134,0-0.273,0.026-0.414,0.079
	C5.431,9.378,5.172,9.607,4.999,9.934c-0.299,0.566-0.191,1.323,0.258,1.8c0.241,0.256,0.556,0.397,0.889,0.397
	c0.283,0,0.563-0.104,0.79-0.293c0.351-0.294,0.528-0.68,0.539-1.179l-0.019-0.234C7.39,9.971,7.169,9.616,6.8,9.371
	C6.604,9.24,6.396,9.173,6.184,9.173z"/>
<path style="fill:#FFFFFF;" d="M1.305,5.295c-0.318,0-0.549-0.16-0.688-0.475C0.529,4.619,0.481,4.394,0.477,4.153
	c-0.002-0.162,0.027-0.299,0.091-0.42C0.677,3.524,0.83,3.393,1.035,3.335c0,0,0.991-0.292,1.22-0.356
	C4.742,2.29,7.229,1.602,9.718,0.918c0.17-0.047,0.342-0.086,0.514-0.125l0.373-0.087c0.077-0.02,0.157-0.029,0.244-0.029
	c0.082,0,0.164,0.008,0.247,0.021c0.457,0.07,0.906,0.178,1.355,0.285l4.19,0.981l3.95,0.912c0.066,0.017,0.132,0.038,0.195,0.064
	c0.341,0.141,0.523,0.411,0.527,0.781c0.003,0.255-0.046,0.505-0.146,0.741c-0.13,0.308-0.372,0.471-0.698,0.471
	c-0.173-0.006-0.307-0.031-0.437-0.061l-7.051-1.64c-0.343-0.08-1.717-0.38-2.059-0.459c-0.051-0.012-0.102-0.018-0.153-0.018
	c-0.075,0-0.152,0.012-0.243,0.037l-8.709,2.41C1.681,5.243,1.542,5.278,1.402,5.291L1.305,5.295z M10.86,1.202l-0.253,0.042
	c-0.162,0.033-0.324,0.065-0.482,0.108C7.635,2.036,5.146,2.722,2.659,3.41C2.182,3.541,1.707,3.683,1.233,3.824
	C1.051,3.879,0.97,3.99,0.986,4.162c0.013,0.139,0.044,0.284,0.091,0.42c0.054,0.155,0.124,0.185,0.228,0.185
	c0.189-0.02,0.304-0.052,0.416-0.083l8.559-2.368c0.146-0.044,0.295-0.09,0.451-0.094c0.001,0,0.002,0,0.003,0
	c0.178,0,0.328,0.037,0.472,0.073l0.115,0.027c1.543,0.352,3.086,0.704,4.627,1.06l4.18,0.973c0.104,0.024,0.209,0.043,0.315,0.05
	c0.001,0,0.003,0,0.004,0c0.14,0,0.212-0.051,0.254-0.16c0.07-0.186,0.102-0.356,0.094-0.522c-0.005-0.124-0.059-0.21-0.164-0.263
	c-0.08-0.041-0.173-0.074-0.269-0.096l-6.985-1.611l-1.82-0.431c-0.154-0.036-0.31-0.064-0.457-0.09l-0.181-0.033L10.86,1.202z"/>
<polygon style="fill:#FF9800;" points="10.401,3.422 10.401,5.625 8.174,5.625 8.174,7.055 10.427,7.055 10.427,9.266 11.881,9.266 
	11.881,7.043 14,7.043 14,5.623 11.843,5.625 11.843,3.424 "/>
</svg>
