<?xml version="1.0" encoding="iso-8859-1"?>
<!-- Generator: Adobe Illustrator 19.0.0, SVG Export Plug-In . SVG Version: 6.00 Build 0)  -->
<svg version="1.1" xmlns="http://www.w3.org/2000/svg" xmlns:xlink="http://www.w3.org/1999/xlink" x="0px" y="0px"
	 viewBox="0 0 25 25" style="enable-background:new 0 0 25 25;" xml:space="preserve">
<g id="Layer_1">
	<path style="fill:#FFFFFF;" d="M24.51,13.242l-11.7-11.726c-0.002-0.002-0.004-0.005-0.006-0.007l-0.07-0.07
		c-0.067-0.067-0.155-0.101-0.243-0.104c-0.003,0-0.006,0-0.01,0c-0.003,0-0.006,0-0.01,0c-0.088,0.002-0.176,0.037-0.243,0.104
		l-0.07,0.07c-0.002,0.002-0.004,0.005-0.006,0.007l-11.7,11.726c-0.139,0.139-0.139,0.367,0.001,0.505l0.07,0.07
		c0.139,0.139,0.367,0.139,0.505-0.001L12.481,2.338l11.453,11.479c0.139,0.139,0.366,0.139,0.505,0.001l0.07-0.07
		C24.649,13.608,24.649,13.381,24.51,13.242z"/>
	<path style="fill:#FFFFFF;" d="M13.481,17.164c-0.018,0.02-0.035,0.054-0.055,0.056c-0.069,0.008-0.139,0.011-0.207,0.003
		c-0.217-0.024-0.425,0.028-0.633,0.077c-0.021,0.005-0.039,0.028-0.062,0.046c0.055,0.065,0.095,0.144,0.158,0.176
		c0.057,0.029,0.146,0.025,0.212,0.006c0.194-0.057,0.192-0.062,0.33-0.011c-0.091,0.12-0.261,0.08-0.386,0.217
		c0.057,0.024,0.114,0.048,0.171,0.073c-0.015,0.016-0.03,0.032-0.044,0.048c-0.11-0.052-0.197-0.139-0.281-0.225
		c-0.119-0.121-0.231-0.248-0.379-0.337c-0.048-0.029-0.092-0.07-0.125-0.114c-0.218-0.292-0.432-0.588-0.647-0.882
		c0.02-0.003,0.039-0.005,0.059-0.008c-0.016-0.072-0.047-0.134-0.144-0.2c0.038,0.094,0.06,0.15,0.083,0.205
		c-0.165-0.208-0.269-0.448-0.371-0.69c-0.004-0.009,0.02-0.028,0.039-0.054c0.043,0.039,0.082,0.075,0.142,0.13
		c-0.017-0.05-0.021-0.081-0.037-0.105c-0.236-0.356-0.316-0.778-0.495-1.158c-0.094-0.199-0.167-0.408-0.259-0.608
		c-0.036-0.079-0.093-0.148-0.144-0.219c-0.07-0.097-0.147-0.188-0.216-0.286c-0.196-0.274-0.488-0.362-0.797-0.415
		c-0.045-0.008-0.097,0.011-0.144,0.025c-0.198,0.056-0.396,0.114-0.595,0.171c-0.009,0.003-0.022-0.009-0.042-0.019
		c0.016-0.097,0.077-0.153,0.169-0.169c0.173-0.03,0.349-0.045,0.522-0.076c0.332-0.058,0.608,0.061,0.847,0.275
		c0.29,0.26,0.498,0.584,0.662,0.933c0.13,0.278,0.227,0.572,0.348,0.855c0.089,0.208,0.198,0.407,0.293,0.613
		c0.105,0.229,0.198,0.463,0.305,0.69c0.08,0.17,0.18,0.332,0.262,0.501c0.048,0.1,0.112,0.106,0.199,0.063
		c0.04-0.019,0.079-0.041,0.12-0.055c0.135-0.047,0.262-0.119,0.417-0.078c0.056,0.015,0.124-0.013,0.186-0.021
		c0.084-0.012,0.168-0.023,0.277,0.001c-0.102,0.136-0.199,0.041-0.286,0.044c-0.093,0.003-0.187,0.001-0.283,0.036
		c0.086,0.006,0.173,0.013,0.259,0.019c-0.268-0.011-0.506,0.085-0.741,0.192c0.06,0.195,0.123,0.23,0.308,0.168
		c0.06-0.02,0.118-0.044,0.176-0.069c0.095-0.04,0.188-0.053,0.294-0.04c0.123,0.015,0.251-0.008,0.377-0.013
		c0.058-0.002,0.117,0,0.176,0c0.001,0.017,0.001,0.035,0.002,0.052c-0.188,0.009-0.376,0.033-0.563,0.019
		c-0.088-0.006-0.159,0.01-0.233,0.039c-0.128,0.05-0.254,0.105-0.386,0.16c0.044,0.058,0.097,0.083,0.175,0.053
		c0.185-0.07,0.379-0.087,0.576-0.082c0.139,0.003,0.277-0.006,0.416-0.009C13.485,17.168,13.481,17.164,13.481,17.164z
		 M11.668,16.243c-0.01-0.13-0.01-0.13-0.133-0.25c0.06,0.108,0.099,0.177,0.137,0.246c0.012,0.144,0.07,0.264,0.181,0.357
		C11.819,16.464,11.777,16.337,11.668,16.243z M11.405,15.819c-0.016,0.006-0.032,0.012-0.047,0.018
		c0.014,0.037,0.027,0.075,0.041,0.112c0.012-0.004,0.023-0.007,0.035-0.011C11.425,15.899,11.415,15.859,11.405,15.819z"/>
	<path style="fill:none;stroke:#FFFFFF;stroke-width:0.4;stroke-miterlimit:10;" d="M11.916,19.335
		c0.112,0.107,0.277,0.11,0.355-0.021c-0.003,0.005,0.057,0.101,0.063,0.119c-0.249,0.1-0.525,0.154-0.783,0.228
		c-0.363,0.104-0.747,0.162-1.117,0.257c-0.303,0.078-0.589,0.219-0.834,0.414C9.453,20.45,9.284,20.596,9.1,20.551
		c-0.048-0.012-0.093-0.036-0.142-0.045c-0.049-0.008-0.108,0.005-0.129,0.05c-0.016,0.032-0.009,0.075-0.035,0.1
		c-0.04,0.04-0.111-0.008-0.126-0.063c-0.034-0.122,0.1-0.255,0.221-0.221c0.066,0.018,0.117,0.073,0.181,0.097
		c0.108,0.041,0.232-0.011,0.319-0.087c0.087-0.076,0.152-0.175,0.239-0.252c0.138-0.123,0.286-0.082,0.447-0.136
		c0.244-0.082,0.405-0.234,0.685-0.203c0.059,0.007,0.124-0.011,0.183-0.028c0.247-0.069,0.494-0.14,0.74-0.214
		c0.062-0.019,0.223-0.047,0.252-0.113C11.951,19.403,11.943,19.361,11.916,19.335z"/>
	<path style="fill:none;stroke:#FFFFFF;stroke-width:0.5;stroke-miterlimit:10;" d="M10.491,19.043
		c0.097-0.193,0.24-0.092,0.398-0.022c0.166,0.073,0.51,0.242,0.584,0.413c-0.089,0.041-0.199-0.016-0.268-0.075
		c-0.078-0.066-0.139-0.152-0.224-0.21c-0.218-0.15-0.408-0.02-0.609,0.086c-0.334,0.176-0.799,0.1-1.16,0.07
		c-0.281-0.023-0.54-0.156-0.819-0.189c-0.346-0.042-0.688,0.072-1.026,0.157c-0.032,0.008-0.078,0.007-0.084-0.025
		c-0.004-0.027,0.026-0.045,0.051-0.054c0.292-0.109,0.604-0.166,0.915-0.167c0.134-0.001,0.301-0.011,0.423,0.05
		c0.114,0.058,0.187,0.111,0.324,0.126c0.273,0.03,0.548,0.065,0.824,0.054c0.176-0.007,0.353-0.033,0.52-0.089
		c0.052-0.018,0.096-0.052,0.132-0.093C10.478,19.068,10.485,19.057,10.491,19.043z"/>
	<path style="fill:#FFFFFF;" d="M22.206,13.816L12.861,4.45c-0.002-0.003-0.005-0.005-0.007-0.008l-0.078-0.078
		c-0.074-0.074-0.171-0.112-0.268-0.114c-0.004,0-0.007,0-0.011,0c-0.004,0-0.007,0-0.011,0c-0.098,0.003-0.194,0.04-0.268,0.114
		L12.14,4.442c-0.003,0.003-0.005,0.005-0.007,0.008l-9.411,9.432l0.005,1.268v8.911h1.093V14.055l8.676-8.695l8.616,8.635h0v10.018
		h1.093V15.09L22.206,13.816z"/>
	<path style="fill:none;stroke:#FFFFFF;stroke-width:0.4;stroke-miterlimit:10;" d="M8.58,13.021c0.19-0.124,0.38-0.247,0.57-0.371
		c0.28-0.183,0.589-0.336,0.856-0.537c0.179-0.135,0.336-0.307,0.42-0.514c0.09-0.222,0.08-0.453,0.009-0.678
		c-0.078-0.248-0.102-0.517-0.118-0.778c-0.033-0.556,0.046-1.131,0.371-1.597c0.302-0.435,0.923-0.834,1.46-0.847
		c0.495-0.011,0.95,0.225,1.407,0.381c0.306,0.104,0.611,0.209,0.917,0.313c0.048,0.017,0.171,0.037,0.204,0.075
		c0.08,0.092-0.033,0.331-0.064,0.439c-0.117,0.407-0.288,0.794-0.432,1.19c-0.21,0.574-0.427,1.147-0.651,1.716
		c-0.17,0.431-0.309,0.885-0.589,1.262c-0.055,0.074-0.043,0.076,0.009,0.138c0.041,0.049,0.081,0.1,0.121,0.15
		c0.09,0.113,0.178,0.227,0.265,0.343c0.023,0.03,0.047,0.06,0.068,0.093c0.146,0.226,0.233,0.463,0.346,0.699
		c0.136,0.284,0.25,0.577,0.337,0.879c0.236,0.82,0.209,1.652,0.231,2.495c0.305,0.168,0.546,0.448,0.666,0.775
		c0.03,0.081,0.053,0.166,0.101,0.239c0.1,0.149,0.496,0.283,0.674,0.286c0.209,0.004,0.38-0.168,0.586-0.179
		c0.057-0.003,0.119,0.017,0.152,0.064c0.032,0.046,0.031,0.106,0.052,0.157c0.034,0.084,0.126,0.133,0.216,0.143
		c0.207,0.023,0.453-0.029,0.666-0.025c0.249,0.004,0.519,0.032,0.763,0.062c0.267,0.033,0.525,0.136,0.742,0.295
		c0.28,0.206,0.436,0.51,0.366,0.883c-0.031,0.166-0.137,0.355-0.188,0.523c-0.071,0.237,0.017,0.524,0,0.763
		c-0.024,0.331,0.011,0.644-0.051,0.97c-0.048,0.249-0.017,0.548-0.271,0.662c0,0-0.118,0.053-0.118,0.053
		c-0.145,0-0.189,0.076-0.321,0.099c-0.06,0.01-0.122,0.004-0.183-0.002c-0.275-0.029-0.66-0.156-0.931-0.083
		c-0.378,0.103-0.694,0.362-1.024,0.575c-0.216,0.139-0.392,0.256-0.661,0.265c-0.132,0.005-0.244-0.04-0.371-0.054
		c-0.126-0.013-0.267,0.009-0.394,0.014c-0.94,0.042-1.936,0.183-2.863-0.031c-0.28-0.065-0.562-0.175-0.854-0.161
		c-0.306,0.015-0.615,0.034-0.92,0.058c-0.351,0.028-0.701,0.07-1.049,0.126c-0.174,0.028-0.36,0.09-0.535,0.098
		c-0.133,0.006-0.268-0.031-0.404-0.031c-0.376,0-0.76,0.015-1.135-0.009c-0.372-0.024-1.337-0.192-1.712-1.081
		c-0.227-0.539,0.511-1.866,0.513-2.171c0.004-0.467,0.077-1.634,0.237-2.171c0.11-0.37,0.678-3.188,1.105-3.79
		C7.574,14.626,8.361,13.551,8.58,13.021z"/>
	<path style="fill:#FFFFFF;" d="M13.669,11.961c-0.105,0.265-0.198,0.539-0.319,0.799c0.038-0.026,0.075-0.054,0.117-0.056
		c0.052-0.003,0.081,0.032,0.12-0.021c0.042-0.058,0.001-0.14,0.036-0.199c0.044-0.074,0.149-0.045,0.189-0.128
		c0.02-0.043,0.022-0.092,0.027-0.139c0.01-0.092,0.061-0.181,0.163-0.188c0.086-0.005,0.212-0.016,0.274-0.085
		c0.076-0.085-0.029-0.205-0.051-0.299c-0.059-0.26,0.033-0.469,0.166-0.683c0.129-0.205,0.197-0.439,0.243-0.675
		c0.054-0.273,0.075-0.552-0.019-0.818c-0.095,0.26-0.201,0.516-0.296,0.776C14.11,10.819,13.894,11.392,13.669,11.961z"/>
	<path style="fill:none;stroke:#FFFFFF;stroke-width:0.4;stroke-miterlimit:10;" d="M12.386,19.371c0,0,0.129-0.061,0.168-0.057
		c0.039,0.004,0.184-0.122,0.224-0.157c0.039-0.036,0.145-0.115,0.145-0.115h0.211h0.184h0.355l0.079-0.105h0.105h0.211l0.197-0.06
		l0.276-0.098l0.543,0.107c0,0,0.213,0.161,0.287,0.189c0.075,0.028,0.289,0.107,0.387,0.096c0.098-0.01,0.454,0.266,0.454,0.266
		l0.566,0.737l0.263,0.447l0.211,0.263l0.105,0.25l0.105,0.303c0,0,0.066,0.092,0.105,0.158s0.105,0.263,0.171,0.263"/>
	<path style="fill:#FF0000;stroke:#FFFFFF;stroke-miterlimit:10;" d="M6.031,22.793c0.023-0.027,0.071-0.005,0.133,0.005
		c0.207,0.032,0.417,0.054,0.617,0.117c0.191,0.06,0.374,0.149,0.565,0.21c-0.051,0.027-0.111,0.044-0.169,0.052
		c-0.065,0.009-0.133,0.001-0.189-0.033c-0.029-0.018-0.053-0.043-0.081-0.061c-0.083-0.053-0.241-0.022-0.34-0.053
		c-0.049-0.015-0.549-0.161-0.549-0.177C6.017,22.822,6.022,22.803,6.031,22.793z"/>
	<path style="fill:#FF0000;stroke:#FFFFFF;stroke-miterlimit:10;" d="M7.646,23.178l-0.069,0.049l0.069,0.069l0.168,0.197
		c0,0,0.217,0.316,0.257,0.415c0.039,0.099,0.138,0.316,0.138,0.316l0.099,0.089h0.118l0.261,0.039H8.86
		c0,0-0.365,0.049-0.464-0.128c-0.099-0.178-0.178-0.316-0.178-0.316l-0.217-0.345l-0.079-0.138l-0.089-0.079L7.646,23.178z"/>
	<path style="fill:#FF0000;stroke:#FFFFFF;stroke-miterlimit:10;" d="M6.185,21.677c0.11-0.085,0.25,0.267,0.305,0.346
		c0.124,0.177,0.245,0.401,0.435,0.517c0.135,0.082,0.57,0.255,0.557,0.447c-0.337-0.006-0.638-0.214-0.869-0.442
		C6.51,22.44,6.381,22.317,6.329,22.18c-0.013-0.034-0.124-0.519-0.149-0.499C6.182,21.68,6.183,21.678,6.185,21.677z"/>
	<path style="fill:#FF0000;stroke:#FFFFFF;stroke-miterlimit:10;" d="M6.481,21.361c0.014-0.016,0.219,0.346,0.234,0.389
		c0.053,0.149,0.105,0.296,0.223,0.408c0.108,0.103,0.294,0.205,0.435,0.247c-0.039-0.157-0.194-0.276-0.289-0.401
		c-0.117-0.152-0.137-0.294-0.202-0.464c-0.032-0.082-0.143-0.291-0.237-0.312C6.593,21.218,6.509,21.325,6.481,21.361z"/>
	<path style="fill:none;stroke:#FFFFFF;stroke-width:0.1;stroke-miterlimit:10;" d="M6.817,20.984
		c0.004,0.026,0.018,0.049,0.032,0.071c0.168,0.266,0.339,0.527,0.51,0.793c0.099,0.154,0.231,0.309,0.408,0.373
		c0.112,0.041,0.239,0.029,0.356,0.027c-0.281-0.02-0.5-0.282-0.673-0.477c-0.125-0.141-0.236-0.293-0.342-0.449
		c-0.089-0.132-0.185-0.26-0.268-0.395c-0.022,0.01-0.027,0.03-0.024,0.055C6.817,20.983,6.817,20.983,6.817,20.984z"/>
	<path style="fill:none;stroke:#FFFFFF;stroke-width:0.1;stroke-miterlimit:10;" d="M6.941,20.795
		c0.028,0.04,0.052,0.073,0.055,0.076c0.046,0.046,0.388,0.304,0.312,0.124c-0.042-0.1-0.199-0.142-0.267-0.223
		c-0.027-0.033-0.053-0.093-0.086-0.118c-0.026-0.019-0.066-0.027-0.095-0.026C6.834,20.63,6.892,20.724,6.941,20.795z"/>
	<path style="fill:none;stroke:#FFFFFF;stroke-width:0.4;stroke-miterlimit:10;" d="M8.218,22.872v0.049
		c0,0,0.188,0.138,0.257,0.178c0.069,0.039,0.355,0.247,0.385,0.276c0.03,0.03,0.257,0.148,0.257,0.148l0.197,0.059
		c0,0,0.375,0.237,0.434,0.257c0.059,0.02,0.217,0.099,0.217,0.099h0.158c0,0,0.227-0.02,0.257,0c0.03,0.02,0.326-0.03,0.385,0
		c0.059,0.03,0.291,0.069,0.291,0.069l-0.064,0.118"/>
	<path style="fill:none;stroke:#FFFFFF;stroke-width:0.1;stroke-miterlimit:10;" d="M12.048,24.036c0,0,0.217,0.178,0.247,0.188
		c0.03,0.01,0.207,0.135,0.207,0.135"/>
	<path style="fill:#FF0000;stroke:#FFFFFF;stroke-miterlimit:10;" d="M13.074,24.358v-0.095l-0.099-0.066c0,0-0.089-0.092,0-0.161
		c0.089-0.069,0.276-0.227,0.276-0.227s0.02,0.006,0.079-0.041s0.091-0.057,0.169-0.057s0.186,0.066,0.226,0.057
		c0.039-0.008,0.543,0,0.543,0h0.178c0,0,0.109-0.028,0.138,0.041c0.03,0.069,0.039,0.381,0.039,0.388c0,0.007-0.099,0.076,0,0.096
		c0.099,0.02,0.112,0.067,0.166,0.064c0.054-0.003,0.273-0.16,0.273-0.16s0.282-0.191,0.311-0.161
		c0.03,0.03,0.138,0.046,0.109-0.002s-0.158-0.166-0.276-0.176c-0.118-0.01-0.306-0.091-0.306-0.091l-0.099-0.057
		c0,0,0.02-0.266,0.049-0.266s0.138-0.089,0.138-0.089"/>
	<path style="fill:none;stroke:#FFFFFF;stroke-width:0.4;stroke-miterlimit:10;" d="M12.709,22.783c0,0,0.128-0.207,0.227-0.227
		c0.099-0.02,0.276-0.089,0.306-0.089s-0.197,0.089-0.128,0.158c0.069,0.069,0.128,0.079,0.227,0.099
		c0.099,0.02,0.247,0.059,0.286,0.059c0.039,0,0.099-0.059,0.099-0.059s0.079-0.118,0.089-0.207c0.01-0.089,0.069-0.296,0.069-0.296
		l0.049-0.168c0,0,0.148-0.22,0.178-0.194c0.03,0.026-0.03,0.191,0,0.405s-0.042,0.234,0.009,0.362c0.051,0.128-0.051,0.188,0,0.158
		c0.051-0.03,0.14-0.197,0.159-0.227c0.02-0.03,0.118-0.206,0.138-0.246c0.02-0.04,0.128-0.188,0.178-0.247s0.178-0.148,0.178-0.148
		l0.079-0.058c0,0,0.049-0.021,0.059-0.1c0.01-0.079,0-0.276,0-0.276s0.079-0.178,0.089-0.286c0.01-0.109,0.059-0.354,0.064-0.503
		s-0.005-0.376,0-0.415s0.002-0.207,0.002-0.207"/>
	<path style="fill:none;stroke:#FFFFFF;stroke-width:0.1;stroke-miterlimit:10;" d="M14.131,22.921h0.128
		c0,0,0.039-0.084,0.089-0.131c0.049-0.047,0.099-0.106,0.099-0.106l0.079-0.099c0,0,0.01-0.059,0.049-0.109
		c0.039-0.049,0.049-0.147,0.099-0.167s0.099-0.139,0.099-0.139l0.079-0.049"/>
	<path style="fill:none;stroke:#FFFFFF;stroke-width:0.1;stroke-miterlimit:10;" d="M16.647,19.387
		c0.084,0.025,0.172,0.036,0.259,0.049c0.019,0.138,0.129,0.231,0.264,0.198c0.003-0.001,0.082,0.167,0,0.178
		c-0.077,0.01-0.135-0.033-0.206,0.015c-0.057,0.038-0.084,0.076,0.008,0.084c0.079,0.007,0.165-0.022,0.243,0.003
		c0.13,0.042,0.17,0.212,0.173,0.331c0.004,0.16-0.067,0.254-0.159,0.377c0.07-0.094,0.158,0.141,0.161,0.178
		c0.005,0.066,0.003,0.132,0.003,0.198"/>
	<path style="fill:none;stroke:#FFFFFF;stroke-width:0.3;stroke-miterlimit:10;" d="M10.844,12.81c0,0,0.184,0.113,0.342,0.508
		c0.158,0.395,0.12,0.5,0.35,0.869c0.229,0.368,0.164,0.429,0.512,0.793s0.086,0.444,0.454,0.759
		c0.368,0.316,0.613,0.526,0.717,0.861s0.668,1.087,0.668,1.087s0.592,0.474,0.603,0.605c0.012,0.132,0.36,0.342,0.36,0.342v0.145"
		/>
	<path style="fill:none;stroke:#FFFFFF;stroke-width:0.1;stroke-miterlimit:10;" d="M11.14,8.509c0,0,0.02,0.158,0,0.188
		c-0.02,0.03-0.049,0.178-0.049,0.276s0.03,0.286,0,0.415s-0.099,0.434-0.074,0.503c0.025,0.069,0,0.375,0,0.375l-0.005,0.513"/>
	<path style="fill:none;stroke:#FFFFFF;stroke-width:0.1;stroke-miterlimit:10;" d="M11.574,8.855l-0.109,0.415
		c0,0-0.039,0.158-0.059,0.296s0.039,0.375,0,0.454c-0.039,0.079-0.018,0.257-0.004,0.405c0.014,0.148,0.06,0.247,0.077,0.355
		s0.105,0.316,0.095,0.365c-0.01,0.049,0.001-0.257,0.001-0.257s0.011-0.257,0-0.306c-0.011-0.049-0.107-0.247-0.093-0.286
		c0.014-0.039-0.004-0.049,0-0.118c0.004-0.069-0.023-0.172,0-0.175C11.505,10,11.58,9.852,11.58,9.852l0.064-0.257
		c0,0-0.01-0.345,0-0.385c0.01-0.039,0.059-0.276,0.059-0.276V8.727"/>
	<path style="fill:none;stroke:#FFFFFF;stroke-width:0.1;stroke-miterlimit:10;" d="M11.91,8.865v0.276c0,0-0.089,0.069-0.099,0.158
		c-0.01,0.089-0.059,0.288-0.059,0.366c0,0.078-0.02,0.315,0,0.404s0.1,0.247,0.075,0.355c-0.008,0.034-0.023,0.085-0.04,0.143
		c-0.037,0.128-0.084,0.286-0.084,0.341c0,0.079,0,0.197,0,0.286s-0.01,0.257,0,0.306c0.01,0.049,0,0.207,0,0.207l0.207-1.421
		v-0.207c0,0,0.01-0.247,0-0.286c-0.01-0.039,0.004-0.247,0.004-0.247V9.329V9.21l0.104-0.266"/>
	<path style="fill:none;stroke:#FFFFFF;stroke-width:0.1;stroke-miterlimit:10;" d="M12.394,8.865l-0.047,0.326l-0.042,0.227
		l-0.059,0.464v0.148l-0.059,0.059c0,0-0.01,0.049,0,0.118c0.01,0.069,0.114,0.148,0.101,0.197
		c-0.013,0.049-0.106,0.217-0.106,0.217v0.257l-0.075,0.272v0.32v0.424l0.089-0.745l0.054-0.371l0.054-0.247
		c0,0,0.109-0.257,0.089-0.286c-0.02-0.03-0.123-0.118-0.047-0.237c0.076-0.118,0.096-0.602,0.096-0.602V9.2l0.059-0.227V8.904"/>
	<polyline style="fill:none;stroke:#FFFFFF;stroke-width:0.1;stroke-miterlimit:10;" points="12.147,12.85 12.206,12.659 
		12.239,12.488 12.298,12.304 12.344,12.106 12.386,11.942 12.423,11.738 12.482,11.593 12.482,11.435 12.482,11.323 	"/>
	<path style="fill:none;stroke:#FFFFFF;stroke-width:0.1;stroke-miterlimit:10;" d="M10.64,11.83l0.145,0.197
		c0,0,0.079,0.039,0.099,0.059c0.02,0.02,0.046,0.039,0.066,0.099c0.02,0.059,0.046,0.079,0.046,0.079l0.061,0.105l0.132,0.072"/>
	<path style="fill:none;stroke:#FFFFFF;stroke-width:0.1;stroke-miterlimit:10;" d="M11.583,12.376c0,0,0.031,0.132,0.031,0.151
		c0,0.02,0.046,0.138,0.053,0.178c0.007,0.039,0.046,0.037,0.046,0.104c0,0.067,0.025,0.113,0.025,0.113l0.041,0.112
		c0,0,0.039,0.053,0.079,0.066c0.039,0.013,0.092,0.039,0.132,0.066c0.039,0.026,0.033,0.059,0.069,0.072
		c0.036,0.013,0.036,0.013,0.036,0.013"/>
	<polyline style="fill:none;stroke:#FFFFFF;stroke-width:0.1;stroke-miterlimit:10;" points="12.252,13.186 12.219,13.113 
		12.147,13.093 12.058,13.061 12.058,12.922 12.058,12.85 12.015,12.85 	"/>
	<path style="fill:none;stroke:#FFFFFF;stroke-width:0.1;stroke-miterlimit:10;" d="M12.367,13.087c0,0-0.092,0.033-0.086,0.066
		c0.007,0.033,0.032,0.099,0,0.099s-0.104,0.039-0.104,0.039l-0.041,0.033"/>
	<path style="fill:none;stroke:#FFFFFF;stroke-width:0.4;stroke-miterlimit:10;" d="M16.608,20.691c0,0,0.128,0.256,0.118,0.305
		s0.011,0.079,0.001,0.158c-0.01,0.079-0.036,0.069-0.058,0.168s-0.061,0.138-0.061,0.188c0,0.049-0.039,0.148-0.059,0.217
		c-0.02,0.069-0.059,0.148-0.089,0.178c-0.03,0.03-0.148,0.109-0.148,0.109h-0.257h-0.207c0,0-0.03,0-0.079,0.059
		s-0.059,0.049-0.128,0.128c-0.069,0.079-0.153,0.118-0.153,0.118v0.059c0,0,0.015,0.059,0,0.089c-0.015,0.03,0.035,0.069,0,0.099
		c-0.035,0.03-0.054,0.049-0.084,0.089c-0.03,0.039-0.03,0.039-0.03,0.039h-0.168l-0.079,0.096c0,0,0.049,0.002,0,0.042
		c-0.049,0.039-0.049,0.039-0.049,0.039l-0.227,0.099l-0.069,0.109"/>
	<path style="fill:none;stroke:#FFFFFF;stroke-width:0.4;stroke-miterlimit:10;" d="M7.119,20.621
		c0.084,0.118,0.328,0.054,0.438,0.025c0.086-0.022,0.161-0.034,0.213,0.054c0.027,0.045,0.038,0.097,0.06,0.144
		c0.064,0.135,0.207,0.2,0.325,0.278c0.088,0.058,0.183,0.108,0.282,0.143c0.115,0.041,0.18,0.026,0.293,0.026"/>
</g>
<g id="Layer_2">
</g>
<g id="Layer_3">
</g>
</svg>
