<?xml version="1.0" encoding="utf-8"?>
<!-- Generator: Adobe Illustrator 19.0.0, SVG Export Plug-In . SVG Version: 6.00 Build 0)  -->
<svg version="1.1" id="Layer_1" xmlns="http://www.w3.org/2000/svg" xmlns:xlink="http://www.w3.org/1999/xlink" x="0px" y="0px"
	 viewBox="0 0 25 25" style="enable-background:new 0 0 25 25;" xml:space="preserve">
<style type="text/css">
	.st0{fill:none;stroke:#0E2E63;stroke-width:0.5;stroke-miterlimit:10;}
	.st1{fill:#FFFFFF;}
	.st2{fill:#0E2E63;}
</style>
<path class="st0" d="M19.5,23c0,0-0.6,0.3-0.7,0.3c-0.1,0.1-1.9,0-1.9,0c0,0-0.1,0-0.1,0c0,0,0,0,0,0c0,0,0,0-0.1,0
	c0,0.1-0.1,0.1-0.1,0.1c0,0-0.1,0-0.1,0c0,0,0,0,0,0c0,0,0,0,0,0c0,0,0,0,0,0c0,0,0,0,0,0c-0.1,0-0.1,0-0.2,0c0,0,0,0-0.1,0
	c0-0.1-0.1-0.1-0.2-0.1c0,0-0.9,0.1-0.9,0c0,0,0,0,0,0s0,0,0,0c0,0,0,0,0,0c0,0,0,0,0,0c-0.1-0.1-0.1-0.1-0.2,0c-0.1,0-0.1,0-0.2,0
	c-0.1,0-0.1,0-0.1,0.1c-0.1,0.1-0.1,0.2-0.2,0.3c0,0.1,0,0.1,0,0.2c0,0,0,0,0,0.1c0,0.1,0,0.2-0.1,0.3c-0.1,0.1-0.1,0.1-0.2,0.2
	c0,0,0,0.1,0,0.1c0,0,0,0.1,0,0.1c0,0,0,0,0,0.1c-0.2,0-13.2,0-13.3,0c0,0,0-0.1,0-0.1c0,0,0,0,0,0c0,0,0-0.1,0.1-0.1
	c0-0.1,0.1-0.2,0.2-0.2c0,0,0.1,0,0.1,0c0,0,0,0,0,0c0.1,0,0.1,0,0.1-0.1c0-0.1,0-0.1,0.1-0.1c0.1,0,0.1,0,0.2,0
	c0.1,0,0.2-0.1,0.2-0.2c0-0.1,0-0.1,0.1-0.1c0.1,0,0.6-0.3,0.6-0.4c0,0,0,0,0,0c0-0.1,0-0.1,0.1-0.1c0,0,0,0,0,0
	c0.1,0,0.2,0,0.2-0.2c0,0,0-0.1,0-0.1c0,0,0.2,0,0.2-0.1c0,0,0,0,0,0c0-0.1,0-0.1,0.1-0.1c0.1,0,0.1,0,0.1-0.1c0,0,0-0.1,0-0.1
	c0-0.1,0.1-0.1,0.2-0.1c0,0,0,0,0,0c0.1,0,0.1,0,0.1-0.1c0,0,0,0,0-0.1c0,0,0-0.1,0.1-0.1c0.1,0,0.2,0,0.2-0.1c0,0,0.1-0.1,0.1-0.1
	c0.1,0,0.1,0,0.1-0.1c0,0,0-0.1,0.1-0.1c0.1,0,0.1-0.1,0.1-0.2c0-0.1,0-0.2,0-0.2c0,0,0,0,0-0.1c0,0-0.1,0-0.1,0c0,0-0.1,0-0.1-0.1
	c0,0,0-0.1,0-0.1c0,0,0,0,0,0c0.1-0.1,0.2-0.2,0.2-0.3c0-0.1,0.1-0.2,0.1-0.4c0-0.1,0.1-0.1,0.1-0.1c0.1-0.1,0.1-0.2,0.1-0.3
	c0,0,0-0.1,0-0.1c0-0.1,0-0.1,0-0.2c0.1,0,0.1,0.1,0.1,0.1c0,0,0,0.1,0,0.1c0,0.1,0,0.2,0,0.3c0,0.1,0,0.1,0.1,0.1c0,0,0.1,0,0.1,0
	c0-0.1,0-0.2,0-0.3c0-0.1,0-0.1,0-0.2c0-0.1,0-0.1,0-0.2c0,0,0-0.1,0.1-0.1c0.1-0.1,0.1-0.2,0-0.3c-0.1-0.1-0.1-0.2-0.1-0.3
	c0,0,0,0,0-0.1c0-0.1,0-0.1,0-0.2c0,0,0,0,0-0.1c0.1-0.1,0-0.2-0.1-0.2c-0.1,0-0.1,0-0.2,0c-0.1,0-0.1-0.1-0.1-0.1c0,0,0-0.1,0-0.1
	c0,0,0-0.1-0.1-0.1c-0.1,0-0.3,0-0.4,0c0,0-0.1,0-0.1,0c-0.1,0-0.1,0-0.2-0.1c0,0,0,0-0.1-0.1c0,0,0,0,0,0c0,0,0-0.1,0.1-0.1
	c0,0,0.1,0,0.1-0.1C4,17.9,4,17.8,4,17.7c0-0.1,0-0.2,0-0.3c0-0.1,0-0.2,0-0.3c0-0.1,0-0.1,0.1-0.2c0.1-0.1,0.2-0.1,0.3-0.2
	c0.1,0,0.1-0.1,0.2-0.1c0.2-0.1,0.3-0.2,0.3-0.3c0,0,0,0,0,0c0-0.1,0.1-0.1,0.1-0.1c0.1,0,0.1,0,0.1-0.1c0,0,0-0.1,0-0.1
	c0,0,0,0,0-0.1c0,0,0,0,0.1,0c0.1,0,0.1,0,0.1,0c0-0.1,0.1-0.3,0.2-0.4c0.1-0.1,0.1-0.2,0.2-0.3c0,0,0-0.1,0-0.1c0-0.1,0-0.1,0-0.2
	c0.1-0.1,0.2-0.3,0.3-0.3c0.1-0.1,0.2-0.1,0.3-0.2c0.1-0.1,0.1-0.2,0.2-0.3c0.1-0.1,0.1-0.2,0.1-0.3c0-0.1,0-0.1,0-0.2
	c0.1-0.1,0.1-0.1,0.2-0.2c0-0.1,0.1-0.1,0.1,0c0.1,0.1,0.1,0.2,0.2,0.2c0.1,0.1,0.1,0.1,0,0.2c0,0,0,0,0,0c0,0,0,0.1,0,0.1
	c0.1,0,0.1,0.1,0.2,0.2c0,0.1,0.1,0.1,0.1,0.1c0,0,0,0,0,0.1c0,0,0,0.1,0,0.1c0,0,0,0,0,0c0,0,0,0,0,0c0.1-0.1,0.2-0.1,0.3-0.2
	c0-0.1,0.1-0.1,0.2-0.2c0,0,0-0.1,0-0.1c0-0.1,0-0.3,0.1-0.4C8,13.5,8,13.4,8,13.3c0-0.1,0.1-0.2,0.2-0.3c0.1-0.1,0.2,0,0.2,0.1
	c0,0,0,0.1,0.1,0.1c0-0.1,0-0.2,0-0.2c0,0,0-0.1,0-0.1c0-0.1,0-0.1,0-0.1c0.1-0.1,0.2-0.2,0.3-0.3c0-0.1,0.1-0.1,0.1-0.2
	c0,0,0,0,0-0.1c0,0,0-0.1-0.1-0.1c0-0.1,0-0.1,0-0.2c0,0,0-0.1,0-0.1c0,0,0-0.1,0-0.2c0,0,0-0.1,0.1-0.1c0,0,0-0.1,0.1-0.1
	c0,0,0-0.1,0.1,0c0,0,0.1,0,0.1,0c0.1,0.1,0.1,0.1,0.1,0.2c0,0,0,0.1,0,0.1c0,0.1,0,0.1,0,0.2c0.1,0.1,0.1,0.1,0,0.2c0,0,0,0,0,0
	c0,0.1,0,0.1,0,0.2c0.1,0,0.1,0.1,0.1,0.2c0,0.1,0.1,0.2,0.2,0.3c0.1,0,0.1,0.1,0.1,0.2c0,0,0,0.1,0,0.1c0,0,0,0.1-0.1,0.1
	c0,0.1,0,0.1,0.1,0.1c0,0,0,0,0,0c0-0.1,0-0.1,0-0.1c0.1-0.1,0.1-0.1,0.1-0.2c0-0.1,0-0.1,0.1-0.2c0,0,0.1,0,0.1,0
	c0.1,0,0.1,0,0.2-0.1c0.1-0.2,0.2-0.3,0.2-0.5c0-0.1,0-0.1,0.1-0.2c0,0,0,0,0-0.1c0.1-0.3,0.3-0.6,0.6-0.9c0,0,0,0,0.1-0.1
	c0,0,0,0,0,0c0,0,0,0,0,0c0,0-0.1,0-0.1,0c-0.1,0-0.1-0.1,0-0.1c0.1-0.1,0.1-0.1,0.2-0.1c0.1,0,0.2-0.1,0.3-0.1c0,0,0,0,0,0
	c0,0,0.1,0,0.1-0.1c0,0,0-0.1-0.1-0.1c0,0,0,0-0.1,0c0,0-0.1,0-0.1,0c0,0,0-0.1,0-0.1c0,0,0,0,0,0c0.1,0,0.1-0.1,0.2-0.1
	C11.9,10,11.9,10,12,9.9c0.1,0,0.1-0.1,0.1-0.1c0,0,0-0.1,0-0.1c0,0,0.1,0,0.1-0.1c0.1-0.1,0.1-0.1,0.1-0.2c0-0.1,0-0.1-0.1-0.2
	c0-0.1,0-0.3,0.1-0.4c0-0.1,0.1-0.1,0.1-0.2c0-0.1,0.1-0.1,0.1-0.2c0.1-0.1,0.1-0.1,0.2-0.1c0,0,0.1,0,0.1,0c0.1,0,0.1,0.1,0.1,0.2
	c0,0.1,0,0.2,0.1,0.2c0.2,0.2,0.1,0.4,0,0.5c0,0,0,0,0,0c-0.1,0.1,0,0.2,0.1,0.2c0,0,0.1,0,0.1,0c0,0,0.1,0,0,0.1c0,0,0,0,0,0
	c0,0.1,0,0.1,0,0.1c0,0,0.1,0,0.1,0.1c0,0,0.1,0,0.1,0c0,0,0.1,0,0.1-0.1c0,0,0.1-0.1,0.1-0.1c0,0,0,0,0-0.1c0,0,0,0,0,0
	c0-0.1,0.1-0.2,0.2-0.2c0,0,0.1,0,0.1,0c0,0,0,0-0.1-0.1c-0.1-0.1-0.1-0.1,0-0.2c0,0,0,0,0,0c0,0,0-0.1,0-0.1c0-0.1,0-0.1,0-0.2
	c0.1-0.1,0.1-0.2,0.2-0.2c0-0.1,0.1-0.1,0.1-0.2c0,0,0.1-0.1,0-0.2c0,0,0-0.1,0-0.1c0,0,0.1-0.1,0.1-0.1c0,0,0-0.1,0-0.1
	c0-0.1,0-0.2,0-0.3c0-0.1,0.1-0.2,0.1-0.3c0,0,0-0.1,0-0.1c0-0.2,0-0.5,0.1-0.7c0-0.2,0-0.3,0.1-0.5c0-0.3,0.1-0.6,0.2-0.9
	c0.1-0.4,0.2-0.8,0.4-1.1c0.1-0.3,0.2-0.5,0.4-0.8c0.1-0.1,0.1-0.2,0.2-0.2c0,0,0-0.1,0-0.1c0,0,0-0.1,0-0.1c0-0.1-0.1-0.1-0.1-0.2
	c0-0.1,0-0.3,0.2-0.4C16,2,16.1,1.9,16.2,1.8c0,0,0.1-0.1,0.1-0.1c0.1-0.1,0.2-0.2,0.3-0.3c0.1-0.1,0.1-0.2,0.2-0.3c0,0,0,0,0-0.1
	c0,0,0,0,0,0c-0.1-0.1-0.1-0.2,0-0.3c0,0,0.1-0.1,0.1-0.1c0.1-0.1,0.1-0.1,0.2,0c0.2,0.1,0.2,0.3,0.1,0.4c0,0,0,0,0,0c0,0,0,0,0,0
	c0.1,0,0.1,0.1,0.1,0.2c0,0,0,0.1,0.1,0.1c0,0,0,0.1,0,0.1c0,0.1,0,0.1,0.1,0.1c0.1,0,0.2,0.1,0.3,0.2C18,1.9,18.1,2,18.3,2
	c0.2,0.1,0.3,0.2,0.3,0.4c0,0.1,0,0.2-0.1,0.3c-0.1,0.1-0.1,0.1,0,0.3c0.3,0.4,0.5,0.9,0.7,1.4c0.1,0.4,0.2,0.8,0.3,1.2
	c0,0.1,0.1,0.3,0.1,0.4c0,0.1,0,0.1,0.1,0.1c0,0,0,0,0,0c0.1,0.1,0.2,0.2,0.1,0.3c0,0,0,0,0,0c0,0.1,0,0.1,0,0.2
	c0.1,0.1,0.1,0.3,0.2,0.4C19.9,7.1,20,7.3,20,7.5c0,0,0,0.1,0,0.1c0,0,0,0.1,0,0.1c0.1,0.1,0.1,0.1,0.1,0.2c0,0.2,0.1,0.5,0.2,0.7
	c0,0.1,0,0.1,0,0.2c0,0.1,0,0.1,0,0.2c0,0,0,0.1,0,0.1c0.1,0.1,0.1,0.3,0.2,0.4c0.1,0.3,0.1,0.6,0.2,0.9c0,0.2,0.1,0.5,0.1,0.7
	c0,0.1,0,0.2,0.1,0.3c0,0.1,0,0.2,0,0.3c0.2,0.1,0.2,0.2,0.2,0.4c0,0.2,0.1,0.4,0.1,0.6c0,0.1,0,0.1,0,0.2c0,0,0,0.1,0.1,0.1
	c0.1,0.1,0.2,0.2,0.1,0.3c0,0,0,0.1,0,0.1c0.1,0.1,0.1,0.3,0.2,0.5c0,0.2,0,0.3,0.1,0.5c0,0,0,0,0,0.1c0.2,0.1,0.3,0.2,0.3,0.4
	c0,0.1,0,0.1,0.1,0.1c0.1,0,0.1,0.1,0.1,0.1c0,0,0,0,0,0.1c0.1,0.1,0.2,0.2,0.2,0.3c0,0.1,0.1,0.2,0.1,0.3c0,0.1,0.1,0.1,0.1,0.1
	c0,0,0,0,0.1,0.1c0,0,0,0.1,0,0.1c0,0.1,0,0.2,0,0.3c0,0.1,0.1,0.2,0.1,0.3c0,0.1,0.1,0.1,0.1,0.1c0.1,0,0.2,0,0.3,0.1
	c0.1,0,0.2,0.1,0.3,0.1c0.1,0,0.1,0,0.1,0.1c0,0.1,0,0.3-0.1,0.4c0,0.1,0,0.1-0.1,0.2c0,0-0.1,0.1-0.1,0.1c-0.1,0.1-0.1,0.2-0.2,0.2
	c0,0-0.1,0.1,0,0.1c0,0,0,0.1,0.1,0.1c0,0,0.1,0,0.1,0c0,0,0.1,0,0.1,0.1c0,0.1,0,0.1,0,0.2c0,0.1,0,0.1-0.1,0.1c-0.1,0-0.1,0-0.2,0
	c-0.1,0-0.2,0.1-0.2,0.2c0,0.2,0,0.3-0.1,0.5c0,0.1-0.1,0.1-0.1,0.1c-0.1,0-0.1,0-0.2,0c0,0-0.1,0-0.1,0c-0.1,0-0.1,0-0.1,0.1
	c0,0.1,0,0.1-0.1,0.1c0,0,0,0,0,0c0,0,0,0,0,0c0,0,0,0,0,0c0.1,0,0.3,0,0.4,0c0.1,0,0.2,0,0.3,0c0.1,0,0.1,0,0.1,0.1
	c0,0.1,0,0.2,0,0.3c0,0,0,0,0,0c0,0.1,0,0.1,0.1,0.1c0,0,0,0,0,0c0.1,0,0.1,0.1,0.1,0.1c0,0,0,0.1,0,0.1c0,0,0,0,0.1,0
	c0.1,0,0.2-0.1,0.2-0.1c0,0,0.1-0.1,0.2-0.1c0,0,0,0,0,0c-0.1-0.1,0-0.2,0-0.3c0-0.1,0.1-0.1,0.2-0.1c0,0,0,0,0.1,0c0,0,0,0.1,0,0.1
	c0,0,0,0,0,0c-0.1,0-0.1,0.1-0.1,0.1c0,0,0,0.1,0,0.1c0,0.1,0,0.2-0.1,0.2c0,0,0,0,0,0c-0.1,0-0.2,0-0.2,0.1c0,0,0,0,0.1,0.1
	c-0.1,0-0.1,0-0.2,0c-0.1,0-0.3,0-0.4,0.1c0,0-0.1,0.1-0.1,0.1c0,0.1-0.1,0.1-0.1,0.2c-0.1,0.1-0.1,0.1-0.2,0.2c0,0,0,0,0,0
	c0,0,0,0,0,0c0,0,0-0.1,0-0.1c0,0-0.1,0-0.1,0c-0.1,0.1-0.1,0.1-0.2,0c-0.1,0-0.1,0-0.2,0C22.2,21,19.5,23,19.5,23z"/>
<path class="st1" d="M10.6,18.4C10.6,18.3,10.6,18.3,10.6,18.4c0.1-0.1,0.1-0.2,0.1-0.2c-0.1,0.2-0.3,0.4-0.2,0.4
	c0,0,0.1-0.1,0.1-0.1C10.5,18.4,10.6,18.4,10.6,18.4c0,0,0,0.1-0.1,0.1c0,0,0,0.1,0,0.1c0,0,0.1,0,0.1,0c0.1,0,0.1-0.1,0.1-0.1
	c0,0,0,0,0,0s0,0-0.1,0c0,0,0,0.1,0,0.1c0,0,0,0,0,0s0,0,0,0C10.7,18.5,10.7,18.5,10.6,18.4C10.7,18.4,10.7,18.4,10.6,18.4
	C10.6,18.4,10.6,18.4,10.6,18.4z"/>
<path class="st1" d="M12.2,21.2C12.2,21.2,12.2,21.1,12.2,21.2c-0.1,0-0.2,0.1-0.2,0.1C12,21.3,12.1,21.2,12.2,21.2
	C12.2,21.2,12.2,21.2,12.2,21.2C12.2,21.3,12.2,21.3,12.2,21.2c-0.1,0.1-0.1,0.2-0.1,0.2c0,0,0,0,0,0c0,0,0.1,0,0.1,0
	c0-0.1,0.1-0.1,0.1-0.2c0,0,0-0.1,0-0.1C12.3,21.1,12.2,21.1,12.2,21.2z"/>
<path class="st2" d="M17.6,20.5c0-0.1,0-0.1,0.1-0.1c0,0,0.1-0.1,0-0.1c-0.1,0-0.1,0.1-0.2,0.1c0,0,0,0,0,0c0,0.1-0.1,0.1-0.1,0.2
	c0,0.1-0.1,0.1,0,0.2c0.1,0,0.1-0.1,0.1-0.1C17.5,20.6,17.6,20.5,17.6,20.5C17.6,20.6,17.6,20.6,17.6,20.5c-0.1,0.2-0.1,0.2-0.2,0.3
	c0,0-0.1,0-0.1,0.1c0.1,0,0.1,0,0.2-0.1c0.1-0.1,0.2-0.3,0.3-0.4c0,0,0.1-0.1,0.1-0.1c0,0,0,0,0-0.1c0,0-0.1,0-0.1,0
	c0,0-0.1,0.1-0.1,0.1C17.7,20.5,17.7,20.5,17.6,20.5z"/>
<path class="st1" d="M15.1,22.5C15.1,22.6,15.1,22.6,15.1,22.5c-0.1,0.2-0.2,0.3-0.2,0.3c0,0,0,0,0,0.1c0.2-0.1,0.2-0.3,0.3-0.4
	C15.2,22.5,15.2,22.5,15.1,22.5C15.1,22.5,15.1,22.6,15.1,22.5C15.1,22.5,15.1,22.5,15.1,22.5c-0.1,0-0.1,0-0.1,0c0,0-0.1,0-0.1,0
	c0,0-0.1,0-0.1,0c0,0,0,0.1-0.1,0.1c0,0,0,0,0,0.1c0,0,0,0.1,0.1,0.1c0,0.1,0.1,0.1,0.1,0c0-0.1,0.1-0.2,0.1-0.2
	C15,22.6,15,22.5,15.1,22.5z"/>
<path class="st2" d="M19.1,20.2c0,0.1-0.1,0.2-0.1,0.3c0,0.1,0,0.1,0,0.1c0.1,0,0.1,0,0.1-0.1C19.1,20.4,19.1,20.3,19.1,20.2
	c0.1,0,0.2-0.1,0.2-0.2c0,0,0-0.1,0-0.1c0,0-0.1,0.1-0.1,0.1C19.2,20.1,19.1,20.1,19.1,20.2c0,0,0-0.1,0-0.1c0-0.1,0.1-0.2,0.2-0.3
	c0-0.1,0-0.1,0-0.2c-0.1,0.1-0.1,0.3-0.2,0.3c0-0.1,0.1-0.2,0-0.4C19,19.5,19,19.6,19,19.7c0,0.1,0,0.2,0,0.3
	C19,20.1,19,20.2,19.1,20.2C19,20.2,19,20.2,19.1,20.2z"/>
<path class="st2" d="M12.9,24c0,0-0.2,0-0.2,0c-0.1,0-0.3,0-0.3,0c0,0,0,0,0.1,0c0,0,0,0,0,0c-0.1,0-0.1,0-0.2,0c0,0,0,0-0.1,0
	c0,0,0,0,0-0.1c0,0,0,0,0-0.1c0,0-0.1,0-0.1,0c0,0-0.1,0.1-0.1,0.1c0,0.1,0.1,0.1,0.1,0.1c0,0,0.1,0,0.1,0C12.3,24,12.9,24,12.9,24z
	"/>
<path class="st2" d="M9.2,23C9.2,23,9.2,23,9.2,23C9.2,23.1,9.2,23.1,9.2,23C9.3,23,9.3,23,9.3,23c0-0.1,0.1-0.1,0.1-0.1
	c0.1-0.1,0.1-0.2,0.1-0.3c0,0-0.1,0.1-0.1,0.1C9.4,22.8,9.3,22.8,9.2,23C9.2,22.9,9.2,23,9.2,23c0,0,0-0.1,0.1-0.1
	c0.1-0.1,0.1-0.2,0.2-0.3c0,0,0-0.1,0.1-0.1c0-0.1,0-0.2,0-0.2c0,0-0.1-0.1-0.1-0.1c0,0,0,0,0,0.1c0,0.1,0,0.2-0.1,0.3
	c0,0.1-0.1,0.1-0.1,0.2c0,0.1-0.1,0.1-0.1,0.2c0-0.1,0.1-0.2,0.2-0.3c0,0,0,0,0,0c-0.1-0.1-0.1-0.1-0.1-0.2c0-0.1,0-0.1,0-0.2
	c0-0.1-0.1-0.1-0.1-0.1c0,0-0.1,0,0,0.1c0,0.1,0,0.2,0,0.4c0,0,0,0.1,0,0.1c0,0,0,0,0,0c0,0,0,0,0.1,0c0,0,0,0,0.1,0c0,0,0,0,0,0.1
	c-0.1,0.1-0.1,0.1-0.2,0.2c0,0,0,0,0,0.1c0,0,0,0,0.1,0c0,0,0,0,0.1,0C9.1,23,9.1,23,9.2,23C9.2,23,9.2,23,9.2,23z"/>
<path class="st2" d="M20.6,18c0,0-0.1-0.1-0.1-0.2c0-0.1,0-0.2,0-0.3c0-0.1,0-0.3,0-0.4c0-0.2-0.1-0.4-0.1-0.5c0,0,0,0,0-0.1
	c-0.1,0.1-0.1,0.1-0.1,0.2c0,0.1,0,0.2,0,0.3c0,0.3,0,0.6,0,0.9c0,0.1,0,0.3,0,0.4c0,0.1,0,0.1,0,0.2c0,0,0,0,0.1-0.1
	c0,0,0-0.1,0-0.1c0,0,0-0.1,0-0.1C20.5,18.2,20.5,18.1,20.6,18c0.1-0.1,0.1-0.2,0.1-0.3c0-0.1,0-0.2,0-0.3c0-0.2,0-0.4-0.1-0.7
	c0-0.1-0.1-0.2,0-0.3c0,0,0,0,0,0c-0.1,0-0.1,0.1,0,0.2c0,0.1,0.1,0.2,0.1,0.4c0,0.2,0,0.5,0,0.7C20.6,17.8,20.6,17.9,20.6,18z"/>
<path class="st2" d="M14.5,20.8c0.1-0.2,0.1-0.5,0-0.7c0,0,0,0,0-0.1c0-0.1,0-0.1,0-0.2c0.1-0.1,0.1-0.2,0-0.3c0,0,0,0.1,0,0.1
	c0,0,0,0,0,0.1c0,0,0,0,0,0c0,0,0,0,0,0c0,0,0,0,0-0.1c0,0,0,0,0-0.1c0,0,0,0,0,0c0,0,0,0,0,0c0,0,0,0,0,0.1c0,0,0,0.1,0,0.1
	c0,0,0,0,0,0c0,0,0,0,0,0c-0.1,0-0.1,0.1,0,0.1c0,0,0,0,0,0.1c0,0,0,0.1,0,0.2c0,0.1-0.1,0.2,0,0.2c0,0.1,0,0.1,0,0.2
	c0,0,0,0.1,0,0.1C14.3,20.7,14.3,20.8,14.5,20.8C14.4,20.8,14.4,20.8,14.5,20.8c0,0-0.1,0-0.1,0.1c-0.1,0-0.1,0-0.1-0.1
	c0-0.1,0-0.1,0-0.2c0,0,0-0.1-0.1-0.1c-0.1,0-0.1,0-0.2,0c0,0,0,0,0,0c0,0.1,0.1,0.3,0.2,0.3c0.1,0,0.2,0,0.3,0
	c0.2,0,0.2-0.1,0.2-0.3c0,0,0-0.1,0-0.1c0,0,0.1,0,0.1,0c0,0,0.1,0,0.1,0c0,0,0-0.1,0-0.1c0,0-0.1,0-0.1,0c0,0-0.1,0,0,0
	c0,0,0.1,0,0.1,0c0,0,0.1,0,0.1-0.1c0-0.1,0-0.1,0-0.2c0,0,0-0.1-0.1,0c0,0-0.1,0-0.1,0c-0.1,0-0.1,0-0.1,0.1c0,0.2,0,0.3,0,0.5
	C14.6,20.6,14.6,20.7,14.5,20.8C14.5,20.7,14.5,20.8,14.5,20.8z"/>
<path class="st2" d="M16.3,11.7C16.3,11.7,16.4,11.7,16.3,11.7c0-0.1,0-0.1,0-0.1c0-0.1,0-0.3-0.1-0.4c0,0,0-0.1,0-0.2
	c0-0.1,0-0.3,0-0.4c0-0.4,0-0.8,0-1.2c0-0.3,0-0.6,0-0.9c0-0.1,0-0.2,0-0.3c0-0.3-0.1-0.6-0.1-0.9c0-0.5,0-1,0-1.5
	c0-0.2,0-0.4,0-0.6c0,0,0-0.1,0-0.1c0,0,0-0.1-0.1-0.1c-0.1,0-0.2,0.1-0.2,0.1c0,0.1,0,0.2,0,0.3c0,0.1,0,0.2,0,0.3
	c0.1,0.1,0,0.2,0,0.3c0,0,0,0.1,0,0.1c0.1,0,0,0.1,0,0.2c0,0.4-0.1,0.8-0.1,1.2c0,0.1,0,0.1,0,0.2c0,0,0,0.1,0,0.1
	c0,0.1,0,0.3,0,0.4c0,0.2,0,0.5,0,0.7c0,0.1,0,0.3,0,0.4c0,0,0,0.1,0,0.1c0,0,0,0,0,0c0,0,0,0,0,0c-0.1,0.1-0.1,0.2,0,0.3
	c0,0,0,0,0,0c0.1,0.1,0.2,0.2,0.2,0.4c0,0,0,0,0,0c0.1,0.4,0.2,0.8,0.2,1.3c0,0.1,0,0.1,0.1,0.2C16.2,11.6,16.3,11.6,16.3,11.7z"/>
<path class="st2" d="M16.9,3.7c-0.1,0-0.2,0-0.2,0.1c0,0,0,0.1,0,0.1c-0.1,0.2,0,0.4,0.1,0.5c0,0,0,0,0,0c0,0,0,0,0.1,0c0,0,0,0,0,0
	c0,0,0,0,0-0.1c0-0.1,0-0.1,0-0.1c0,0,0.1,0,0.1,0c0,0,0,0.1,0,0.1c0,0,0,0,0,0c0-0.1,0-0.1,0-0.2c0,0.1,0,0.2,0.1,0.2
	c0-0.1,0-0.1,0.1-0.2c0,0,0,0.1,0,0.1c0,0,0,0,0,0c0,0,0,0,0-0.1c0,0,0,0,0.1,0c0,0,0,0,0.1,0c0,0,0-0.1,0-0.1c0-0.1,0-0.2-0.1-0.3
	c0,0,0-0.1-0.1-0.1c0,0-0.1,0,0-0.1c0-0.1,0-0.1-0.1-0.1c0,0-0.1,0-0.1,0c0.1,0,0.1,0,0.2,0c0.1,0,0.1,0,0.1,0
	c0,0.1,0.1,0.2,0.1,0.3c0,0.1,0.1,0.2,0.1,0.3c0,0,0,0.1,0.1,0c0,0,0.1,0,0.1-0.1c0-0.1,0-0.2,0.1-0.2c0,0,0-0.1,0-0.1
	c0-0.1-0.1-0.1,0-0.2c0,0,0,0,0,0c0-0.1,0-0.1,0.1-0.1c0.1,0,0.1,0,0.2,0c-0.2-0.1-0.3-0.1-0.5-0.1c-0.4,0-0.9,0-1.3,0.1
	c0,0,0,0-0.1,0c0,0,0,0,0,0.1c0,0,0,0,0.1,0c0.1,0,0.2,0,0.3,0c0.1,0,0.2,0,0.2,0c0,0,0.1,0,0.1,0C16.9,3.7,16.9,3.7,16.9,3.7z"/>
<path class="st2" d="M19.6,18.8c0-0.1,0-0.1,0.1-0.2c0-0.1,0-0.2,0-0.3c0,0,0,0-0.1,0c-0.1,0-0.1,0-0.2,0c-0.1,0-0.2,0-0.2,0.1
	c0,0,0,0.1,0,0.1c0,0.1,0,0.1,0,0.2c0,0,0,0.1,0,0.1c0,0.1,0,0.2,0,0.3c0,0.1,0,0.2,0.1,0.3c0,0,0,0.1,0,0.1c0,0.1,0,0.2,0,0.2
	c0,0.1,0,0.2,0,0.3c0,0,0,0.1,0.1,0c0,0,0,0,0.1,0c0,0,0,0,0,0.1c-0.1,0-0.1,0-0.1,0.1c0,0.2,0,0.3-0.1,0.5c0,0,0,0,0,0
	c0,0,0.1,0,0.1-0.1c0,0,0,0,0-0.1c0,0,0.1-0.1,0.1,0c0,0,0,0.1,0,0.1c0,0,0,0,0,0.1c0,0,0,0,0,0c0.1,0,0.1,0,0.2,0
	c-0.1-0.1,0-0.2,0-0.4c0-0.2,0-0.3-0.1-0.4c0-0.1-0.1-0.1-0.1-0.2c0,0,0-0.1,0-0.1c0,0,0,0,0.1,0.1c0,0,0,0,0-0.1c0-0.1,0-0.3,0-0.4
	C19.6,19.1,19.6,19,19.6,18.8c-0.1-0.1-0.1-0.1-0.1-0.2C19.6,18.7,19.6,18.8,19.6,18.8z"/>
<path class="st2" d="M19.6,16.4c0.1,0,0.1-0.1,0.1-0.2c0-0.1,0-0.1,0-0.2c0-0.2,0-0.5,0-0.7c0-0.2,0-0.4,0-0.6c0-0.1,0-0.2,0-0.3
	c0-0.4-0.1-0.7-0.1-1.1c0,0,0,0,0-0.1c0,0,0,0-0.1,0c0,0,0,0,0,0c0,0.1,0,0.3,0,0.4c0,0.2,0,0.4,0,0.7c0,0.3,0,0.5,0,0.8
	c0,0.4,0,0.8,0,1.2c0,0.2,0,0.3,0,0.5c0,0.1,0,0.1,0.1,0.2c0,0,0.1-0.1,0-0.1c0,0,0-0.1,0-0.1c0,0,0-0.1,0-0.1
	C19.6,16.6,19.7,16.5,19.6,16.4z"/>
<path class="st2" d="M20.9,17.9C20.9,17.9,20.8,17.9,20.9,17.9c-0.1,0-0.1,0.1-0.1,0.1c0,0,0,0,0.1,0.1c0,0,0,0-0.1,0
	c0,0-0.1,0-0.1,0.1c0,0-0.1,0.1,0,0.1c0,0,0,0.1,0.1,0.1c0,0,0,0,0,0.1c0,0.1,0,0.1,0.1,0.1c0,0,0.1,0,0.1,0c0.1,0,0.1,0,0.2,0.1
	c0,0,0,0.1,0,0.1c0,0,0,0-0.1,0.1c0,0.1,0,0.1,0,0.1c0-0.1,0-0.1,0.1-0.1c0,0.1,0,0.2,0,0.3c0,0.1,0,0.2,0,0.2c0,0,0,0.1,0,0.1
	c0,0,0.1-0.1,0.1-0.1s0,0,0.1,0c0,0,0,0,0,0.1c0,0.2,0,0.4-0.1,0.5c0,0,0,0,0,0c0,0,0.1-0.1,0.1,0c0,0,0,0.1,0,0.1
	c0,0.1-0.1,0.1-0.2,0.2c0,0,0,0,0,0.1c0,0,0,0,0.1,0c0,0,0.1,0,0.1,0c0.1-0.1,0.3-0.2,0.3-0.4c0,0,0,0,0,0c-0.1,0-0.1,0.1-0.2,0.2
	c0,0,0-0.1,0-0.1c0-0.4,0-0.8-0.2-1.1c0-0.1,0-0.1,0-0.2c0-0.1,0-0.1-0.1-0.1c-0.1,0-0.1,0-0.2,0c0,0-0.1,0-0.1,0c0.1,0,0.2,0,0.3,0
	c0,0,0.1,0,0.1,0c0.1,0,0.1,0,0.1-0.1c0,0,0-0.1-0.1-0.1c-0.1-0.1-0.2-0.1-0.3-0.1c0,0,0.1,0,0.1,0c0.1,0,0.1,0,0.1-0.1
	c0-0.1,0-0.2,0-0.3c0-0.1,0-0.2-0.1-0.3c-0.1,0-0.1,0.1,0,0.1c0,0.1,0,0.1,0,0.1c0,0,0,0,0,0.1C20.9,17.8,20.9,17.8,20.9,17.9z"/>
<path class="st2" d="M9.2,15.1C9.2,15.1,9.2,15.1,9.2,15.1c0.3,0,0.4-0.1,0.6-0.1c0.1,0,0.2,0,0.4,0c0,0,0.1,0,0.1,0
	c0.1-0.1,0.2-0.1,0.4-0.1c0.2,0,0.4,0,0.6,0.1c0,0,0.1,0,0.1,0c0-0.1,0-0.1,0.1,0c0.1,0,0.2,0,0.1-0.1c0,0,0-0.1,0-0.1c0,0,0,0,0,0
	c0,0,0,0-0.1,0c0,0,0,0,0,0.1c0,0.1,0,0.1-0.1,0.1c0,0-0.1,0-0.1,0c-0.1,0-0.1,0-0.2,0c-0.1,0-0.2,0-0.3,0c-0.2,0-0.3,0-0.5,0
	c0,0-0.1,0-0.1,0c0,0,0,0,0.1,0c0.2-0.1,0.4-0.1,0.5-0.1c0,0,0.1,0,0.1,0c0,0,0.1,0,0-0.1c0,0,0,0-0.1,0c0,0,0,0-0.1,0
	c-0.2,0-0.4,0-0.6,0c-0.1,0-0.3,0-0.4,0c-0.1,0-0.1,0-0.1,0.1c0,0,0,0.1,0,0.1c0,0,0.1,0.1,0,0.1c0,0-0.1,0-0.1,0.1c0,0-0.1,0-0.1,0
	c-0.1,0-0.1,0-0.2,0.1C9.3,15,9.2,15.1,9.2,15.1z"/>
<path class="st2" d="M20.8,19.9c0-0.4,0-0.8,0-1.3c0,0,0,0,0,0.1c0,0.2,0.1,0.3,0.1,0.5c0,0.2,0,0.4,0,0.6c0,0.1,0,0.3,0,0.4
	c0,0.1,0.1,0.2,0.1,0.3c0,0,0,0,0,0c0,0,0,0,0,0c0-0.3,0-0.6,0-0.9c0-0.1,0-0.2-0.1-0.3c0-0.1-0.1-0.1,0-0.2c0-0.1,0-0.1,0-0.2
	s0-0.1,0-0.2c0,0,0-0.1,0-0.1c0,0-0.1,0-0.1,0c-0.1,0-0.1,0-0.2-0.1c0,0-0.1,0-0.1,0c0,0,0,0.1,0,0.1c0,0.2,0,0.5,0,0.7
	c0,0.1,0,0.3,0,0.4C20.7,19.8,20.7,19.8,20.8,19.9z"/>
<path class="st2" d="M18.7,9.7c-0.1,0.1,0,0.1,0,0.1c0,0.3,0.1,0.6,0.1,0.8c0,0.5,0,1,0,1.5c0,0.1,0,0.2,0,0.3c0,0.1,0,0.1,0.1,0.1
	c0,0,0,0,0,0c0,0,0.1,0,0.1,0c0,0,0-0.1,0-0.1c-0.1,0-0.1,0,0-0.1c0-0.1,0-0.1,0.1-0.2c0-0.2,0-0.3,0-0.5c0-0.5,0-1-0.1-1.5
	C18.8,10.1,18.7,9.9,18.7,9.7z"/>
<path class="st2" d="M18.2,11.8C18.2,11.8,18.2,11.8,18.2,11.8c-0.1,0-0.1,0-0.1,0.1c0,0,0,0,0,0c0,0,0,0,0,0
	C18.1,11.9,18.2,11.9,18.2,11.8c0,0.1,0,0.1,0,0.1c0,0,0,0,0,0c0,0,0,0,0,0c-0.1,0-0.1,0.1-0.1,0.2c0,0.1,0,0.1,0.1,0.1c0,0,0,0,0,0
	c0.1,0,0.1,0,0.1-0.1c0-0.3,0-0.5,0-0.8c0-0.2,0-0.3,0-0.5c0-0.2,0-0.5,0-0.7c0-0.1,0-0.2,0-0.2c-0.1,0-0.1,0-0.1,0.1
	c0,0,0,0.1,0,0.1c0,0.3,0,0.7,0,1c0,0,0,0.1,0,0.1c0,0.1,0,0.3,0,0.4C18.1,11.7,18.1,11.8,18.2,11.8C18.2,11.8,18.2,11.8,18.2,11.8z
	"/>
<path class="st2" d="M18.3,12.9c0-0.1,0-0.1,0-0.2c0-0.1,0-0.2,0-0.2c0,0,0,0,0,0c-0.1-0.1-0.2,0-0.3,0.1c0,0.1,0,0.2,0.2,0.3
	c0,0,0,0-0.1,0C18.1,12.8,18,12.9,18,13c0,0.2,0,0.4,0,0.6c0,0.1,0.1,0.1,0,0.2c0,0,0,0.1,0.1,0c0.1,0,0.1,0,0.2,0
	c0.1,0,0.1,0,0.1-0.1c0,0,0-0.1,0-0.1c0-0.2,0-0.3,0-0.5C18.3,13,18.3,13,18.3,12.9C18.2,13,18.2,13,18.2,13c0,0,0,0-0.1,0
	c0,0,0,0.1,0,0.1c0,0.1,0,0.1,0,0.2C18,13.3,18,13.2,18,13.1c0-0.1,0-0.1,0.1-0.2c0,0,0,0,0,0C18.2,12.8,18.2,12.8,18.3,12.9z"/>
<path class="st2" d="M8.7,16.9C8.7,16.9,8.7,16.9,8.7,16.9c0.1,0,0.2,0,0.3,0c0.1,0,0.1,0,0.2,0c0.1,0,0.1-0.1,0.1-0.2
	c0,0-0.1-0.1-0.1-0.1c0-0.1-0.1-0.1,0-0.2c0-0.1,0-0.1-0.1-0.1c-0.2,0-0.3,0-0.5,0c0,0-0.1,0-0.1,0c0,0,0,0,0,0.1c0,0,0,0,0.1,0
	c0,0,0.1,0,0.1,0c0.1,0,0.1,0,0.1,0c0,0.1,0,0.1-0.1,0.2c0,0-0.1,0-0.1,0c0,0-0.1,0-0.1,0c0,0,0,0.1,0,0.1c0,0,0.1,0,0.1,0.1
	c0.1,0,0.2,0,0.2,0c0,0,0,0,0.1,0C8.9,16.9,8.8,16.9,8.7,16.9z"/>
<path class="st2" d="M20.9,20.4C20.9,20.4,20.9,20.4,20.9,20.4c-0.3,0-0.5,0-0.7,0c-0.1,0-0.2,0-0.3,0c0-0.1,0-0.1,0.1-0.1
	c0.1,0,0.2,0,0.4,0c0.1,0,0.2,0,0.3,0c0,0,0.1,0,0.1-0.1c0-0.1,0-0.1,0-0.2c0,0-0.1-0.1-0.1-0.1c0,0-0.1,0-0.1,0
	c0,0.1,0,0.1,0.1,0.2c0,0,0,0,0,0s0,0,0,0c0,0-0.1,0-0.1-0.1c0,0,0,0,0-0.1c0-0.1,0-0.1-0.1-0.1c-0.1,0-0.2,0-0.3,0c0,0,0,0,0,0
	c-0.1,0-0.1,0-0.1,0.1c0,0.1,0,0.1,0,0.2c0,0,0,0.1,0,0.1c0,0.1,0,0.1,0.1,0.1c0,0,0,0,0.1,0c0,0,0.1,0,0.1,0c0,0,0,0,0.1,0
	c0.1,0,0.2-0.1,0.3-0.1c0.1,0,0.3,0,0.4,0C20.9,20.4,20.9,20.4,20.9,20.4z"/>
<path class="st2" d="M19,9.4C19,9.4,19,9.4,19,9.4c0-0.1,0-0.1,0.1-0.1c0,0,0.1,0,0.1,0c0,0,0,0,0,0c0,0,0,0,0-0.1c0,0,0,0-0.1,0
	c-0.3-0.1-0.5-0.1-0.8-0.1c-0.1,0-0.2,0-0.3,0c-0.1,0-0.1,0.1-0.2,0.2c0,0.1,0,0.1,0.1,0.1c0.2,0,0.5,0,0.7-0.1c0,0,0.1,0,0.1,0
	c0,0,0,0,0,0c0-0.1,0-0.1,0.1-0.1C19,9.3,19,9.3,19,9.4z"/>
<path class="st2" d="M16.7,19.6c0,0,0,0.1,0,0.1c0,0,0,0.1,0,0.1c0,0.1,0,0.1,0.1,0.1c0-0.1,0-0.2,0-0.3c0,0,0-0.1,0-0.1
	c0,0,0,0,0,0c0,0,0,0,0,0c0,0,0,0,0,0C16.8,19.5,16.8,19.5,16.7,19.6c0-0.1,0-0.1,0-0.1c0,0,0,0,0-0.1c0,0,0,0,0,0c0,0-0.1,0-0.1,0
	c0,0,0,0,0,0.1c0,0,0,0.1,0,0.1c0,0,0,0,0,0c0-0.1,0-0.1-0.1-0.1c-0.1,0-0.2,0-0.2,0c-0.1,0-0.2,0.1-0.2,0.2c0,0.2,0,0.3,0,0.5
	c0,0,0,0,0,0.1c0,0,0.1-0.1,0.2-0.1c0.2-0.1,0.2-0.1,0.2-0.3c0,0,0,0,0,0c0,0,0,0,0,0c-0.1,0-0.1,0-0.1,0c0-0.1,0-0.1,0-0.2
	c0,0,0,0,0-0.1c0,0,0.1,0,0.1,0c0,0,0,0.1,0,0.1c0,0.1,0,0.1,0.1,0c0.1,0,0.1,0,0.1,0.1c0,0.1,0,0.1,0,0.2c0,0,0,0.1,0,0.1
	c0,0,0-0.1,0-0.1c0,0,0-0.1,0.1-0.1c0,0,0,0,0,0.1c0,0,0,0.1,0,0.1C16.7,19.9,16.6,19.7,16.7,19.6z"/>
<path class="st2" d="M17.3,4.9C17.3,4.9,17.3,4.9,17.3,4.9C17.3,4.9,17.3,4.9,17.3,4.9c-0.1,0.2-0.1,0.3,0,0.4
	c0.1,0.2,0.1,0.3,0.2,0.5c0,0.1,0,0.2,0.1,0.3c0.2,0.7,0.3,1.5,0.4,2.3c0,0.1,0,0.2,0,0.3c0,0,0,0.1,0.1,0.1c0-0.1,0-0.1,0-0.2
	c-0.1-0.3-0.1-0.6-0.1-0.9c0-0.4-0.1-0.7-0.1-1.1c-0.1-0.4-0.1-0.9-0.3-1.3C17.3,5.2,17.3,5.1,17.3,4.9C17.3,4.9,17.3,4.9,17.3,4.9z
	"/>
<path class="st2" d="M18.8,15.6c0-0.3,0-0.5,0-0.8c0,0,0,0,0-0.1c0,0,0,0,0,0c0,0,0,0,0,0c0,0,0,0,0,0c0,0.2,0,0.4,0,0.6
	c0,0.3-0.1,0.5,0,0.8c0,0,0,0,0,0.1c-0.1,0.1-0.1,0.2-0.1,0.3c0,0.1,0,0.1,0,0.2c0,0,0,0,0,0c0,0,0,0-0.1,0c0,0,0-0.1,0-0.1
	c0-0.1,0-0.2,0-0.3c0-0.1,0-0.1-0.1-0.1c-0.1,0-0.1,0-0.1,0.1c0,0.1,0,0.2,0,0.3c0,0.1,0,0.1,0.1,0.1c0,0,0.1,0,0.1,0
	c0.1,0,0.2,0,0.2-0.2c0-0.1,0-0.1,0-0.2C18.8,16.2,18.8,15.9,18.8,15.6z"/>
<path class="st2" d="M21.4,20.1c-0.1,0-0.2,0-0.4,0c0,0-0.1,0-0.1,0c0,0,0,0.1,0,0.1c0,0.1,0,0.1,0.1,0.1c0,0,0.1,0,0.1,0
	c0.1,0,0.1,0,0.2,0c0.1,0,0.1,0,0.1-0.1c0-0.1,0-0.2,0.1-0.2c0.1,0,0.1-0.1,0.1-0.2c0-0.1,0.1-0.2,0.1-0.2c-0.1-0.1-0.1-0.1-0.2-0.1
	c-0.1,0-0.2,0.1-0.3,0.2c0,0,0,0.1,0,0.1c0,0,0.1,0,0.2,0c0.1,0,0.1,0,0.2,0.1c-0.1,0-0.1,0-0.2,0c-0.1,0-0.1,0-0.2,0
	c0,0-0.1,0-0.1,0.1c0,0,0,0.1,0,0.1C21.2,20,21.3,20,21.4,20.1z"/>
<path class="st2" d="M19,9.6c-0.1,0.1-0.1,0.2-0.1,0.2c0.1,0.4,0.1,0.8,0.2,1.1c0,0.3,0.1,0.6,0.1,1c0,0,0,0.1,0,0.1c0,0,0,0,0,0
	c0-0.1,0.1-0.1,0.1-0.2c0-0.1,0-0.2,0-0.3c0-0.5-0.1-1-0.2-1.6C19,9.9,19,9.8,19,9.6z"/>
<path class="st2" d="M19.8,16.7c-0.1,0.2-0.2,0.4-0.2,0.7c0,0.3,0,0.6,0.2,0.8c0,0,0,0,0,0C19.8,17.7,19.8,17.2,19.8,16.7z"/>
<path class="st2" d="M10.6,19.1C10.6,19.1,10.6,19.1,10.6,19.1c0-0.2,0-0.3,0-0.4c0-0.1,0-0.2,0-0.3c0,0,0-0.1-0.1-0.1
	c0,0-0.1,0,0,0.1c0,0,0,0,0,0c-0.1,0,0,0.1-0.1,0.1c0,0.1,0,0.1,0.1,0.1c0,0,0.1,0.1,0.1,0.1C10.5,18.9,10.5,19,10.6,19.1
	C10.5,19.2,10.5,19.2,10.6,19.1c0,0.1,0.1,0.1,0.1,0.1c0,0,0.1-0.1,0.1-0.1c0-0.1,0-0.2,0-0.3c0-0.1,0-0.2,0-0.3c0,0,0,0,0,0
	c0,0,0.1,0.1,0.1,0.1c0,0,0,0,0,0.1c0,0,0,0,0.1,0c0,0,0.1,0,0.1,0c0-0.1-0.1-0.3-0.2-0.3c-0.1,0-0.1,0-0.1,0.1
	c0,0.2-0.1,0.4-0.1,0.6C10.7,19.1,10.7,19.1,10.6,19.1z"/>
<path class="st2" d="M18.3,15.1C18.4,15.1,18.4,15.1,18.3,15.1C18.4,15.1,18.4,15.1,18.3,15.1c0,0.1,0,0.1-0.1,0.1c0,0,0,0,0-0.1
	C18.2,15.1,18.2,15,18.3,15.1c0-0.1,0.1-0.1,0.1-0.1c0.1,0,0.1,0,0.1-0.1c0-0.1-0.1-0.2-0.2-0.1c-0.1,0-0.2,0.1-0.2,0.3
	c0,0.2,0,0.2,0.2,0.2c0,0,0.1,0,0.1,0c0,0-0.1,0-0.1,0c-0.1,0-0.1,0.1-0.1,0.2c0,0.1,0,0.1,0,0.2c0.1,0,0.1,0,0.2,0
	c0.1,0,0.1,0,0.1-0.1c0,0,0-0.1,0-0.1c0-0.1,0-0.2,0-0.3C18.5,15,18.5,15,18.3,15.1C18.4,15.1,18.3,15.1,18.3,15.1z"/>
<path class="st2" d="M15.4,9.5c-0.1,0.1-0.1,0.1-0.1,0.2c0,0.1,0,0.1,0,0.2c0.1,0.4,0.2,0.9,0.2,1.3c0,0.4,0,0.7,0.1,1.1
	c0,0,0,0,0,0.1c0,0,0,0,0,0c0,0,0,0,0-0.1c0.1-0.2,0.1-0.4,0-0.6c0-0.2-0.1-0.5-0.1-0.7c0-0.2,0-0.4-0.1-0.6
	C15.5,10.1,15.4,9.8,15.4,9.5z"/>
<path class="st2" d="M15.8,20C15.8,20,15.8,20,15.8,20C15.8,19.9,15.8,19.9,15.8,20c-0.2-0.1-0.2-0.1-0.3-0.1
	c-0.1,0-0.2,0.1-0.2,0.1c0,0,0,0.1,0,0.1c0,0,0.1,0,0.1,0.1c0.1,0,0.3,0,0.4-0.1c0,0,0,0,0.1,0c0.1,0.1,0.1,0.1,0.1,0c0,0,0,0,0,0
	c0,0,0-0.1,0-0.1C15.9,19.9,15.9,19.9,15.8,20C15.8,20,15.8,20,15.8,20z"/>
<path class="st2" d="M16.2,19.9c0,0.1,0,0.1,0.1,0.1c0,0,0,0,0.1,0c0,0,0,0,0,0.1c-0.1,0.1-0.1,0.2-0.2,0.2c0,0,0,0,0,0.1
	c0,0,0,0.1,0,0.1c0.1,0,0.1,0,0.2,0c0,0,0.1,0,0-0.1c0-0.1,0-0.2,0.1-0.3c0,0,0.1-0.1,0.1-0.1c0,0,0,0,0,0c-0.1-0.1-0.1-0.1,0-0.2
	c0,0,0.1-0.1,0.1-0.1c0.1-0.1,0.1-0.1,0.2,0c0.1,0,0.1,0,0.1,0c0,0,0-0.1,0-0.1c0,0,0,0-0.1,0c0,0-0.1,0-0.1,0c-0.1,0-0.1,0-0.2,0.1
	c0,0,0,0.1-0.1,0.1C16.3,19.7,16.3,19.8,16.2,19.9C16.2,19.9,16.2,19.9,16.2,19.9c0-0.1-0.1-0.1-0.1-0.1c0,0-0.1,0,0,0
	c0,0,0.1-0.1,0.1-0.1c0,0,0.1-0.1,0-0.1c-0.2,0.1-0.2,0.4-0.1,0.5C16.1,20,16.1,20,16.2,19.9C16.2,19.9,16.2,19.9,16.2,19.9z"/>
<path class="st2" d="M14.2,19C14.1,19,14.1,19,14.2,19c-0.1-0.1-0.2-0.1-0.2-0.1c-0.1,0-0.1,0-0.1,0.1c0,0.1,0,0.1,0,0.2
	c0,0,0,0.1,0,0.1c0,0.1,0.1,0.1,0.2,0.1c0,0,0,0,0,0c0.1-0.1,0.2-0.1,0.3-0.1c0.1,0,0.1,0,0.1-0.1c0-0.1,0-0.2,0-0.2
	C14.3,18.9,14.2,18.9,14.2,19z"/>
<path class="st2" d="M16.2,19.8c0,0,0-0.1,0-0.1c0-0.1,0-0.1-0.1-0.1c0,0,0,0-0.1,0c-0.2,0-0.3,0-0.5,0c-0.1,0-0.1,0.1-0.1,0.1
	c0,0,0.1,0.1,0.1,0.1c0,0,0.1,0,0.1,0C15.8,19.8,16,19.8,16.2,19.8z"/>
<path class="st2" d="M11.5,22.3c0,0,0.1,0,0.1,0c0.1,0,0.2,0,0.2-0.2c0-0.1,0-0.2,0-0.4c0-0.1,0-0.2-0.1-0.2c0,0,0,0,0-0.1
	c0-0.1,0-0.1-0.1-0.1c0,0,0,0-0.1,0c-0.1,0-0.1,0-0.1,0.1c0,0,0,0,0.1,0.1c0.1,0,0.1,0,0.1,0.1c0,0,0,0.1,0,0.1c0,0.1,0,0.1-0.1,0.2
	c0,0,0,0.1-0.1,0.1c0,0,0,0.1,0,0.1c0,0,0.1,0,0.1,0C11.6,22.2,11.6,22.2,11.5,22.3z"/>
<path class="st1" d="M20.5,20.8C20.5,20.8,20.6,20.8,20.5,20.8c0.2,0,0.7,0,0.7-0.1c0,0,0,0,0,0c0,0,0,0,0,0c0,0,0.3,0,0.3,0
	c0,0,0,0,0-0.1c0,0,0,0-0.1,0c0,0-0.1,0-0.1,0c0,0,0,0-0.1,0.1c0,0,0-0.1,0-0.1c0,0,0,0,0,0c-0.1,0-0.1,0-0.2,0c0,0,0,0,0,0
	c0,0,0-0.1-0.1,0c0,0-0.1,0-0.1,0c0,0-0.1,0-0.1,0.1c-0.1,0.1-0.1,0.1-0.1,0c0,0,0,0,0,0c0,0,0,0,0,0C20.6,20.6,20.6,20.7,20.5,20.8
	C20.5,20.7,20.5,20.8,20.5,20.8z"/>
<path class="st2" d="M5.8,17.2C5.8,17.2,5.8,17.2,5.8,17.2c0,0.1,0,0.1,0,0.1C5.8,17.3,5.8,17.3,5.8,17.2
	C5.8,17.2,5.8,17.2,5.8,17.2C5.8,17.1,5.8,17.1,5.8,17.2c-0.1-0.1-0.1-0.1-0.2,0c-0.1,0-0.1,0.1-0.1,0.1c0,0,0,0.1-0.1,0.1
	c0,0-0.1,0-0.1,0.1c0,0-0.1,0.1,0,0.1c0.2,0,0.4,0,0.5,0c0,0-0.1,0-0.1-0.1c0,0,0,0,0-0.1C5.7,17.3,5.7,17.2,5.8,17.2z"/>
<path class="st2" d="M17.4,12.1c0,0,0.1,0,0.2-0.1c0,0,0.1-0.1,0.1-0.1c0-0.1,0-0.1,0-0.2c0,0,0,0,0,0c0,0,0,0,0-0.1
	c0.1-0.1,0.1-0.2-0.1-0.2c-0.1,0-0.1,0-0.1,0c-0.1,0-0.1,0.1,0,0.2c0,0.1,0,0.1,0,0.2C17.2,11.9,17.2,11.9,17.4,12.1
	C17.3,12.1,17.3,12.1,17.4,12.1z"/>
<path class="st2" d="M15.8,20.4c0,0.1,0,0.1,0,0.2c0,0.1,0,0.2-0.1,0.3c0,0,0,0,0,0c0,0,0,0,0,0.1c0,0,0,0,0.1,0
	c0,0,0.1-0.1,0.1-0.1c0.1-0.1,0.1-0.1,0.1-0.2c0-0.1,0-0.3,0.1-0.4c0,0,0-0.1,0.1-0.1c-0.1,0-0.1,0-0.2,0c0,0.1-0.1,0.2-0.1,0.2
	C15.8,20.3,15.8,20.3,15.8,20.4z"/>
<path class="st1" d="M8.8,17.9c-0.1,0.1,0,0.3,0,0.4c-0.1-0.1-0.1-0.1-0.1-0.2C8.7,18.1,8.7,18,8.8,17.9c-0.1,0-0.1-0.1-0.2-0.1
	c0,0-0.1,0-0.1,0.1c0,0.1,0,0.2,0,0.4c0,0,0,0.1,0.1,0.1c0.1,0,0.1,0,0.2,0c0.1,0,0.1,0,0.1-0.1C8.8,18.2,8.8,18.1,8.8,17.9
	C8.8,18,8.8,18,8.8,17.9z"/>
<path class="st2" d="M17.1,18.6c-0.1,0-0.1,0-0.2,0c0,0-0.1,0,0,0c0,0.1,0,0.2-0.1,0.2c0,0,0,0.1,0,0.1c0,0,0,0,0,0c0,0,0,0,0,0
	c0-0.1,0.1-0.2,0.3-0.2c0.1,0,0.3,0,0.4,0c0.1,0,0.1,0,0.1-0.1c0,0,0,0,0,0c0,0,0-0.1-0.1-0.1C17.3,18.6,17.2,18.6,17.1,18.6z"/>
<path class="st2" d="M10.5,17.3C10.4,17.3,10.4,17.3,10.5,17.3c0,0.1,0,0.1,0,0.2c0,0.1,0,0.1,0.1,0.1c0,0,0.1,0,0.1,0
	c0.1,0,0.1,0,0.1-0.1c0-0.1,0-0.1,0-0.2c0-0.1,0-0.1,0-0.2c0-0.1,0-0.1-0.1-0.1c0,0,0,0-0.1,0c-0.1,0-0.1,0-0.2,0.1
	C10.4,17.1,10.5,17.2,10.5,17.3z"/>
<path class="st2" d="M17.1,21.4c0,0-0.1,0-0.1,0c-0.1,0-0.1,0-0.2,0c-0.1,0-0.1,0.1-0.1,0.1c0,0,0.1,0.1,0.1,0c0,0,0,0,0,0
	c0.1,0,0.2,0,0.3,0c0.1,0,0.1,0,0.2,0c0,0,0.1,0,0.1,0c0,0,0,0,0,0c0-0.1-0.1-0.1-0.1-0.1C17.3,21.4,17.2,21.4,17.1,21.4z"/>
<path class="st2" d="M15.7,20.3C15.6,20.3,15.6,20.3,15.7,20.3c-0.1,0-0.1,0-0.2,0c-0.1,0-0.2,0-0.2,0.1c0,0.1,0,0.1-0.1,0.2
	c0,0,0,0.1,0,0.1c0.1,0,0.2,0,0.3-0.1C15.6,20.5,15.6,20.4,15.7,20.3z"/>
<path class="st2" d="M8.6,16.6c0.1-0.1,0.1-0.1,0.2-0.1c0,0,0.1,0,0.1,0c0,0,0,0,0,0c0,0,0,0,0,0c0,0-0.1-0.1-0.1,0c0,0-0.1,0-0.1,0
	c-0.1,0-0.2,0-0.3,0c-0.1,0-0.2,0-0.3,0c-0.1,0-0.1,0-0.2,0c0,0-0.1,0.1,0,0.1c0,0,0,0,0.1,0c0,0,0,0,0,0c0.1,0,0.1,0,0.2,0
	c0.1,0,0.1,0,0.2,0C8.5,16.5,8.5,16.5,8.6,16.6z"/>
<path class="st2" d="M19.7,13c0,0,0,0.1,0,0.1c0,0.1,0,0.1,0,0.2c0.1,0.5,0.1,1,0.2,1.5c0,0,0,0.1,0,0.1c0,0,0,0.1,0,0.1
	C20,14.4,19.9,13.7,19.7,13z"/>
<path class="st2" d="M16,11.6c0,0,0.1,0.1,0.1,0.1c0,0,0,0,0,0c0,0,0,0,0,0c0,0,0,0,0,0c-0.1,0-0.1,0-0.2,0.1c0,0,0,0.1,0,0.1
	c0,0.1,0,0.1,0.1,0.1c0,0,0.1,0,0.1,0c0.1,0,0.1,0,0.1-0.1c0-0.1,0-0.1,0.1,0c0,0,0,0,0,0c0-0.1,0-0.1,0-0.2c0-0.1-0.1-0.1-0.1-0.2
	C16.1,11.6,16.1,11.6,16,11.6C16.1,11.6,16,11.6,16,11.6z"/>
<path class="st2" d="M14.4,17.4C14.4,17.3,14.4,17.3,14.4,17.4c0-0.1,0-0.2,0-0.2c-0.1,0-0.2-0.1-0.3-0.1c-0.1,0-0.1,0.1-0.1,0.1
	c0,0.1,0.1,0.2,0.2,0.2C14.3,17.4,14.4,17.4,14.4,17.4c0.1,0.1,0.2,0,0.1,0c0,0,0-0.1,0-0.1c0-0.1,0-0.1-0.1-0.1
	C14.5,17.3,14.5,17.3,14.4,17.4z"/>
<path class="st2" d="M13.3,16.3c0.1,0,0.1,0,0.2-0.1c0,0,0,0,0.1,0c0,0,0-0.1,0-0.1c0,0,0,0-0.1,0c-0.1,0-0.3,0-0.4,0
	c0,0-0.1,0-0.1,0c0,0-0.1,0.1-0.1,0.1c0,0,0,0,0.1,0.1c0,0,0,0,0,0c0.1,0,0.1,0.1,0.2,0.1c0.1,0.1,0.2,0.1,0.3,0c0,0,0,0,0,0
	c0-0.1,0-0.1,0-0.1C13.4,16.3,13.4,16.3,13.3,16.3z"/>
<path class="st2" d="M18.1,12.7c-0.1-0.1-0.1-0.1-0.2-0.1c-0.2,0-0.5,0-0.7,0c0,0-0.1,0-0.1,0c0,0-0.1,0.1,0,0.1c0,0,0,0.1,0.1,0.1
	c0,0,0-0.1,0-0.1c0,0,0.1,0,0.1,0c0,0,0.1,0,0.1,0.1c0.1,0,0.3,0,0.4,0C17.8,12.7,17.9,12.7,18.1,12.7z"/>
<path class="st2" d="M12.7,22.4C12.7,22.4,12.7,22.4,12.7,22.4c0.1,0,0.1,0,0.2,0c0-0.1,0.1-0.1,0.2-0.2c0.1-0.1,0.1-0.1,0.2-0.2
	c0-0.1,0-0.1,0-0.1c0,0-0.1,0-0.1,0c0,0,0,0,0,0C12.9,22,12.8,22.1,12.7,22.4C12.7,22.3,12.7,22.3,12.7,22.4z"/>
<path class="st2" d="M13.2,19.8C13.2,19.8,13.1,19.8,13.2,19.8c-0.1,0-0.1,0-0.1,0C13.1,19.9,13.1,19.9,13.2,19.8
	C13.2,19.9,13.2,19.9,13.2,19.8c0.1,0.1,0.1,0,0.1,0c0-0.1,0-0.2,0-0.3c0,0,0-0.1-0.1-0.1c-0.1,0-0.1,0-0.2,0c0,0,0,0,0,0
	c0.1,0,0.1,0,0,0.1c0,0,0,0.1-0.1,0.1C13,19.7,13.1,19.7,13.2,19.8C13.1,19.7,13.2,19.7,13.2,19.8C13.2,19.8,13.2,19.8,13.2,19.8z"
	/>
<path class="st2" d="M8.4,17.3C8.4,17.3,8.4,17.3,8.4,17.3c0,0.1,0,0.2,0.1,0.4c0,0,0,0.1,0.1,0c0,0,0,0,0.1-0.1c0-0.1,0-0.2,0-0.3
	c0,0,0-0.1-0.1-0.1C8.5,17.2,8.4,17.2,8.4,17.3c-0.1,0-0.1,0-0.1,0.1C8.3,17.3,8.4,17.3,8.4,17.3z"/>
<path class="st2" d="M9.4,22.1c-0.1,0-0.1,0-0.2,0c0,0-0.1,0-0.1,0c0,0-0.1,0-0.1,0c0,0-0.1,0,0,0.1c0,0.1,0,0.1,0.1,0.2
	c0,0.1,0.1,0.1,0.1,0c0.1-0.1,0.1-0.1,0.2-0.2C9.4,22.1,9.4,22.1,9.4,22.1z"/>
<path class="st1" d="M11.4,20.5c0,0,0,0.1,0,0.1c0,0.1,0.1,0.2,0.2,0.1c0.1,0,0.1,0,0.1-0.1c0-0.2-0.1-0.4,0-0.6
	c0-0.1,0-0.2-0.2-0.2c0,0,0,0,0,0c0,0,0,0,0,0c0.1,0.1,0.1,0.3,0.1,0.5C11.6,20.5,11.6,20.5,11.4,20.5
	C11.5,20.5,11.4,20.5,11.4,20.5z"/>
<path class="st2" d="M19.5,12.7C19.5,12.7,19.5,12.7,19.5,12.7c0.1,0,0.2-0.1,0.3-0.1c0,0,0,0,0-0.1c0,0-0.1-0.1-0.1-0.1
	c-0.1,0-0.2,0-0.4,0c-0.1,0-0.1,0-0.1,0.1c0,0.1,0,0.1,0.1,0.1C19.3,12.7,19.4,12.7,19.5,12.7z"/>
<path class="st1" d="M8.7,23.6c0.1,0,0.1,0,0.1-0.1c0-0.1,0.1-0.1,0.1-0.2c0-0.1,0.1-0.1,0.1-0.2c0,0,0,0,0-0.1c0,0,0,0-0.1,0
	c0,0,0,0-0.1,0c-0.1,0.1-0.1,0.1-0.2,0.2C8.7,23.4,8.7,23.5,8.7,23.6C8.6,23.6,8.7,23.6,8.7,23.6z"/>
<path class="st2" d="M18.3,8.2c0,0-0.1,0-0.1,0c-0.1,0-0.1,0.1-0.1,0.1c0,0.1,0.1,0.1,0.1,0.1c0.1,0,0.1,0,0.2,0
	c0.1,0,0.1-0.1,0.1-0.2c0-0.1,0-0.1-0.1-0.1C18.4,8.2,18.4,8.2,18.3,8.2z"/>
<path class="st2" d="M17.5,16.8C17.5,16.8,17.4,16.8,17.5,16.8c-0.1,0.1-0.1,0.2-0.1,0.2c0.1,0.1,0.1,0.3,0.1,0.4c0,0.1,0,0.1,0,0.2
	c0,0,0,0.1,0.1,0.1c0,0,0.1,0,0.1,0c0,0,0,0,0-0.1c0-0.1,0-0.2,0-0.2C17.6,17.3,17.5,17.1,17.5,16.8C17.6,16.8,17.6,16.8,17.5,16.8z
	"/>
<path class="st2" d="M18.8,9c0-0.1,0-0.1-0.1-0.2c-0.1,0-0.1,0-0.2,0c-0.1,0-0.2,0-0.4,0c0,0-0.1,0-0.1,0C18,8.9,18,8.9,18,9
	c0,0.1,0,0,0.1,0c0,0,0,0,0.1,0c0.1,0,0.2,0,0.4-0.1C18.6,8.9,18.7,8.9,18.8,9z"/>
<path class="st2" d="M13.3,15.7c0,0.1,0,0.1,0,0.2c0,0.1,0,0.1,0.1,0.1c0.1,0,0.1,0,0.1-0.1c0-0.1,0-0.2,0-0.4c0-0.1,0-0.1,0-0.2
	c0-0.1-0.1-0.1-0.1-0.1c0,0,0,0,0,0.1C13.3,15.5,13.3,15.6,13.3,15.7z"/>
<path class="st2" d="M15.9,20.9C16,20.9,16,20.9,15.9,20.9c0.3,0,0.4,0,0.6,0c0,0,0,0,0.1,0c0.1,0,0.1,0,0.1-0.1c0,0,0-0.1,0-0.1
	c-0.1,0.1-0.2,0.1-0.4,0.1c-0.1,0-0.1,0-0.2,0C16.1,20.8,16,20.8,15.9,20.9z"/>
<path class="st1" d="M4.8,18.7C4.8,18.7,4.8,18.7,4.8,18.7c-0.2,0-0.2,0-0.2,0.1c0,0.2,0,0.3,0,0.5c0,0,0,0,0,0c0,0,0,0.1,0.1,0.1
	c0.1,0,0.2,0,0.2,0c0,0,0,0,0,0c0,0,0,0,0,0c0,0-0.1,0-0.1,0c-0.1,0-0.1,0-0.1-0.1C4.7,19,4.7,18.9,4.8,18.7z"/>
<path class="st2" d="M10.2,14.4c0,0-0.1,0-0.1,0c0,0-0.1,0-0.1,0s-0.1,0.1,0,0.1c0,0,0,0.1,0.1,0c0,0,0,0,0,0c0.1,0,0.1,0,0.2,0
	c0.1,0,0.1-0.1,0.2-0.1c0,0,0-0.1,0-0.1c0,0,0,0,0,0c0,0,0,0,0,0c0,0,0,0,0,0c0,0,0,0,0,0C10.4,14.5,10.4,14.5,10.2,14.4
	C10.3,14.5,10.2,14.5,10.2,14.4z"/>
<path class="st2" d="M13.8,17.9c0.1,0,0.2,0,0.2,0c0.1,0,0.3,0,0.4,0c0.1,0,0.1,0,0.1-0.2c-0.1,0-0.3,0-0.4,0c-0.1,0-0.2,0-0.3,0.1
	C13.9,17.8,13.8,17.8,13.8,17.9z"/>
<path class="st2" d="M18.4,15.7c-0.1,0-0.1,0-0.1,0.1c0,0,0,0,0,0c0,0,0,0,0.1,0c0,0,0,0,0,0c0,0,0.1,0,0.1,0c0,0,0,0-0.1,0
	c0,0,0,0-0.1,0c0,0,0,0,0,0c0,0.1,0,0.2,0.1,0.2c0,0,0.1,0,0.1,0c0,0,0.1,0,0.1-0.1c0-0.1,0-0.3,0-0.4c0,0,0,0,0,0c0,0,0,0-0.1,0
	C18.4,15.7,18.3,15.7,18.4,15.7z"/>
<path class="st2" d="M19.9,12.5c-0.1-0.2-0.3-0.2-0.4-0.2c-0.1,0-0.2,0-0.2,0.1c0,0,0,0,0,0.1c0,0,0,0,0.1,0
	C19.5,12.5,19.7,12.4,19.9,12.5z"/>
<path class="st2" d="M10.7,19.8C10.7,19.8,10.7,19.8,10.7,19.8c0.1,0,0.2,0,0.2-0.1c0-0.1,0-0.1,0-0.2c0,0,0,0,0,0
	c-0.1,0-0.1,0-0.2,0c0,0-0.1,0-0.1,0.1C10.5,19.7,10.5,19.8,10.7,19.8C10.7,19.8,10.7,19.8,10.7,19.8z"/>
<path class="st2" d="M8.2,15.8c0.1,0,0.2,0,0.2,0c0,0,0.1,0,0-0.1c0,0,0-0.1-0.1-0.1c0,0-0.1,0-0.1,0c-0.1,0-0.1,0.1-0.2,0.1
	C8.1,15.7,8.1,15.8,8.2,15.8C8.2,15.8,8.2,15.8,8.2,15.8z"/>
<path class="st2" d="M17.4,19.7C17.4,19.6,17.4,19.6,17.4,19.7c0-0.1-0.1-0.1-0.1-0.1c0,0,0,0.1,0,0.1c0,0,0,0.1,0,0.1
	c0,0,0,0.1,0,0.1c0,0,0,0,0,0.1c0,0,0,0,0,0.1c0,0,0.1,0,0.1,0c0.1-0.1,0.1-0.2,0-0.3C17.4,19.7,17.4,19.7,17.4,19.7z"/>
<path class="st2" d="M12.7,19.9C12.7,19.9,12.8,19.9,12.7,19.9c0.1,0,0.1,0,0.2,0c0,0,0,0,0,0C12.8,19.8,12.7,19.8,12.7,19.9
	c-0.2-0.1-0.4,0-0.6,0c0,0,0,0-0.1,0c0,0,0,0,0,0.1c0,0,0,0,0.1,0c0,0,0,0,0,0c0,0,0.1,0,0.1,0c0.1,0,0.1,0,0.2,0
	C12.6,19.9,12.6,19.9,12.7,19.9z"/>
<path class="st2" d="M7.8,16.4C7.8,16.4,7.8,16.4,7.8,16.4c0.3,0,0.5,0,0.8,0c0,0,0,0,0,0c0,0,0.1,0,0.1,0c0,0,0,0-0.1,0
	c-0.1,0-0.3,0-0.4,0c-0.1,0-0.1,0-0.2,0C7.9,16.3,7.8,16.3,7.8,16.4z"/>
<path class="st2" d="M14.7,18.8c0,0.1-0.1,0.1-0.1,0.2c-0.1,0-0.1,0.1-0.1,0.2c0,0.1,0,0.1,0.1,0.1c0,0,0.1,0,0.1,0
	c0.1,0,0.1-0.1,0.1-0.2c0,0,0-0.1,0-0.1c-0.1,0.1-0.1,0.1-0.2,0.2c0-0.1,0.1-0.3,0.2-0.3C14.8,18.8,14.7,18.8,14.7,18.8z"/>
<path class="st2" d="M8.3,21.4c0,0-0.1,0-0.1,0c0,0,0,0,0,0c0,0,0,0,0,0.1C8.2,21.5,8.2,21.5,8.3,21.4c0.1,0.1,0.2,0.1,0.3,0.1
	c0.1,0,0.2,0,0.3,0c0.1,0,0.1-0.1,0.1-0.2c0,0,0,0-0.1,0c0,0.1,0,0.1-0.1,0c-0.1,0-0.2,0-0.2,0C8.6,21.4,8.4,21.4,8.3,21.4z"/>
<path class="st2" d="M19.2,18.2C19.2,18.3,19.3,18.3,19.2,18.2c0.2,0.1,0.3,0,0.5,0c0,0,0,0,0-0.1c0-0.1-0.1-0.2-0.2-0.1
	c-0.1,0-0.1,0-0.2,0C19.3,18.1,19.2,18.2,19.2,18.2z"/>
<path class="st1" d="M8.4,23.6c0.1,0,0.2,0,0.2-0.1c0.1-0.1,0.1-0.2,0.2-0.3c0,0,0-0.1,0-0.1c0,0-0.1,0-0.1,0c0,0,0,0.1,0,0.1
	c0,0,0,0.1-0.1,0.1C8.5,23.5,8.5,23.5,8.4,23.6z"/>
<path class="st2" d="M11.6,15.9C11.6,15.8,11.6,15.8,11.6,15.9C11.6,15.8,11.5,15.8,11.6,15.9c-0.1-0.1-0.2-0.1-0.2,0
	c0,0,0,0.1,0,0.1c0,0.1,0,0.1,0.1,0.1c0.1,0,0.2,0,0.2,0c0.1,0,0.1,0,0.1-0.1c0,0,0,0,0,0C11.8,15.8,11.7,15.8,11.6,15.9
	C11.6,15.8,11.6,15.8,11.6,15.9z"/>
<path class="st2" d="M11,16.5C11,16.5,11,16.5,11,16.5c0-0.2-0.1-0.3,0-0.5c0,0-0.1-0.1-0.1-0.1c0,0,0,0,0,0c-0.1,0-0.1,0.1-0.1,0.2
	c0,0,0,0.1,0,0.1C10.8,16.4,10.9,16.5,11,16.5z"/>
<path class="st2" d="M8.5,16c0,0-0.1,0-0.1,0c0,0,0,0,0,0c0,0,0,0,0,0C8.4,15.9,8.4,15.9,8.5,16C8.5,15.9,8.5,15.9,8.5,16
	c0.1-0.1,0.1-0.1,0.1-0.1c0,0,0,0,0,0c0,0,0,0,0,0c0,0,0,0,0,0c-0.2,0-0.4,0-0.5,0.1c0,0-0.1,0-0.1,0.1C8.2,16,8.3,16,8.5,16z"/>
<path class="st2" d="M18.1,14.2c0,0.1,0.1,0.1,0,0.2c0,0,0,0,0,0c0,0,0,0,0,0c0,0,0.1,0,0.1,0c0.1,0,0.2-0.1,0.1-0.2
	c0-0.1-0.1-0.1-0.2-0.1C18.2,14.2,18.1,14.2,18.1,14.2z"/>
<path class="st2" d="M18.3,16.8C18.3,16.8,18.3,16.8,18.3,16.8c-0.1,0-0.2,0-0.2,0.1c0,0.1-0.1,0.1-0.1,0.2c-0.1,0-0.1,0.1,0,0.1
	c0,0.1,0.1,0.1,0.2,0.1c0.1,0,0.1,0,0.1-0.1c0,0,0-0.1,0-0.1C18.2,17,18.2,16.9,18.3,16.8C18.3,16.9,18.3,16.9,18.3,16.8z"/>
<path class="st2" d="M14.7,22.5c0,0,0.1,0,0.1,0c0,0,0.1,0,0.1,0c0,0,0.1,0,0.1,0c0,0,0,0,0,0c0,0,0-0.1-0.1-0.1c0,0-0.1,0-0.1,0
	c0,0,0,0,0,0c-0.1,0-0.2,0-0.2,0c0,0,0,0-0.1,0C14.6,22.4,14.6,22.4,14.7,22.5C14.6,22.5,14.7,22.5,14.7,22.5z"/>
<path class="st2" d="M14.3,11c-0.1,0.1-0.1,0.1-0.1,0.2c0,0.1,0,0.1,0,0.2c-0.1,0-0.1,0-0.1-0.1c0,0,0-0.1-0.1,0c0,0-0.1,0.1,0,0.1
	c0,0,0.1,0.1,0.2,0.1c0.1,0,0.1,0,0.1,0.1c0,0,0,0,0.1,0c0,0,0.1-0.1,0.1-0.1c0,0,0,0,0-0.1c0,0,0,0-0.1,0c0,0,0,0,0,0
	c0,0,0,0-0.1,0c0,0,0,0-0.1-0.1c0,0,0,0,0-0.1C14.3,11.2,14.3,11.1,14.3,11z"/>
<path class="st2" d="M10.2,14.4C10.2,14.4,10.2,14.4,10.2,14.4c0.1,0,0.1,0,0.1,0C10.3,14.4,10.3,14.4,10.2,14.4
	C10.3,14.4,10.2,14.4,10.2,14.4c0-0.1,0-0.1,0-0.1c0,0,0.1-0.1,0.1-0.1c0-0.1,0-0.1-0.1-0.1c-0.1,0-0.2,0.1-0.2,0.1
	C10,14.3,10,14.4,10.2,14.4C10.1,14.4,10.2,14.4,10.2,14.4z"/>
<path class="st2" d="M13.7,18.2C13.7,18.2,13.7,18.2,13.7,18.2c0.2,0,0.4-0.1,0.6-0.1c0.1,0,0.1,0,0.2,0c0.1,0,0.1,0,0.1-0.1
	c0,0,0,0,0,0c-0.2,0-0.4,0.1-0.5,0.1C13.9,18.1,13.7,18.1,13.7,18.2z"/>
<path class="st2" d="M10.6,17.8C10.6,17.8,10.6,17.8,10.6,17.8c-0.2,0.2-0.3,0.4-0.4,0.6c0,0,0,0,0,0c0,0,0,0,0,0c0,0,0,0-0.1,0
	c0,0,0,0.1,0,0.1c0.1,0,0.1,0,0.2-0.1C10.4,18.2,10.5,18,10.6,17.8C10.6,17.9,10.6,17.8,10.6,17.8z"/>
<path class="st2" d="M19.6,11.7c0,0-0.1,0-0.1,0c-0.1,0-0.1,0-0.2,0c0,0,0,0,0,0.1c0,0.1,0.1,0.1,0.1,0.1c0.1,0,0.1,0,0.2,0
	C19.7,11.9,19.7,11.8,19.6,11.7C19.7,11.7,19.7,11.7,19.6,11.7z"/>
<path class="st2" d="M13.3,18.5C13.3,18.5,13.3,18.5,13.3,18.5c0.1-0.1,0.1-0.1,0.1-0.1c0.1-0.1,0.1-0.2,0-0.2c0,0,0,0-0.1,0
	c-0.1,0-0.2,0-0.2,0.2C13.2,18.4,13.2,18.4,13.3,18.5z"/>
<path class="st1" d="M11.9,20.1C11.9,20.1,11.9,20.1,11.9,20.1C11.9,20.1,12,20,12,20c0,0,0,0-0.1,0c0,0-0.1,0-0.1,0c0,0,0,0,0,0
	C11.7,20.1,11.7,20.2,11.9,20.1c0,0.2,0,0.3,0,0.4c0,0.1,0,0.1,0,0.2c0,0,0,0.1,0,0.1c0,0,0,0,0,0c0-0.1,0-0.2,0-0.3
	C11.9,20.3,11.9,20.3,11.9,20.1C11.9,20.2,11.9,20.2,11.9,20.1z"/>
<path class="st1" d="M16.9,1.2C17,1.1,17,1.1,16.9,1.2c0.1-0.1,0.1-0.1,0.2,0c0.1,0.1,0.1,0.1,0.1,0c0,0,0.1,0,0.1,0c0,0,0,0,0,0
	c0-0.1-0.1-0.1-0.2-0.2c0,0-0.1,0-0.1,0.1C17,1,16.9,1.1,16.9,1.2z"/>
<path class="st2" d="M17.4,18.9c-0.1,0-0.2,0-0.3,0c0,0-0.1,0-0.1,0c-0.1,0-0.1,0,0,0.1c0,0.1,0.1,0.1,0.1,0c0.1,0,0.1,0,0.2-0.1
	c0.1,0,0.2,0,0.3,0c0.1,0,0.1,0,0.1-0.1c0,0,0-0.1-0.1-0.1C17.5,18.9,17.4,18.9,17.4,18.9z"/>
<path class="st2" d="M9.8,14.8c0.2,0,0.3,0,0.4,0c0,0,0,0,0.1,0c0,0,0-0.1,0-0.1c0,0,0,0,0,0c-0.1,0-0.2,0-0.2,0
	C9.9,14.7,9.8,14.7,9.8,14.8z"/>
<path class="st2" d="M18.5,20.5c0,0,0.1,0,0.1,0c0.1,0,0.1-0.1,0.2-0.1c0,0,0-0.1,0-0.1c0,0,0-0.1,0-0.1c0,0,0,0,0,0
	C18.7,20.3,18.6,20.4,18.5,20.5z"/>
<path class="st1" d="M8.6,23.2C8.6,23.1,8.6,23.1,8.6,23.2c-0.1-0.1-0.1,0-0.1,0c0,0.1-0.1,0.2-0.2,0.4c0,0,0,0,0,0c0,0,0,0,0.1,0
	c0,0,0,0,0,0c0-0.1,0.1-0.1,0.1-0.2C8.5,23.3,8.5,23.3,8.6,23.2C8.6,23.2,8.6,23.2,8.6,23.2z"/>
<path class="st2" d="M10.9,19.2c0,0,0.1,0,0.1,0c0,0,0,0.1,0,0.1c0,0,0,0,0,0.1c0,0,0,0,0.1,0c0,0,0.1,0,0.1-0.1c0,0,0-0.1,0-0.1
	c-0.1,0-0.1-0.1-0.1-0.2c0-0.1,0-0.1,0-0.2c0,0,0-0.1,0-0.1c0,0,0,0-0.1,0c0,0,0,0-0.1,0.1c0,0,0,0,0,0C11,19,10.9,19.1,10.9,19.2z"
	/>
<path class="st2" d="M16.3,6C16.3,6,16.3,6.1,16.3,6c0,0.5,0,1,0,1.4c0,0,0,0,0,0s0,0,0,0c0,0,0,0,0,0c0-0.1,0-0.1,0-0.2
	c0-0.3,0-0.5,0-0.8C16.3,6.4,16.3,6.2,16.3,6z"/>
<path class="st1" d="M18.4,4.1c-0.1-0.3-0.2-0.4-0.4-0.4c0.1,0.1,0.1,0.1,0.2,0.2c0,0.1,0.1,0.2,0.1,0.3C18.3,4.1,18.3,4.1,18.4,4.1
	z"/>
<path class="st1" d="M8.4,23.1C8.3,23.1,8.3,23.2,8.4,23.1c-0.1,0.2-0.2,0.3-0.2,0.4c0,0,0,0,0,0.1c0,0,0.1,0,0.1,0
	c0-0.1,0.1-0.2,0.1-0.3C8.4,23.3,8.4,23.2,8.4,23.1C8.4,23.2,8.4,23.1,8.4,23.1z"/>
<path class="st2" d="M18.8,21.4c0.1,0,0.2,0,0.2-0.1c0-0.1,0.1-0.1,0.1-0.1c0,0,0.1-0.1,0.1-0.1c0,0,0,0,0-0.1c0,0,0,0-0.1,0
	c-0.1,0.1-0.1,0.1-0.2,0.2C18.9,21.3,18.8,21.3,18.8,21.4z"/>
<path class="st2" d="M14.8,22.1c0.1,0,0.1,0,0.2,0c0,0,0.1,0,0-0.1S15,22,15,22c0,0-0.1,0-0.1,0c0,0-0.1,0-0.1,0
	c-0.1,0-0.1,0-0.1,0.1c0,0,0,0.1,0,0.1C14.7,22.1,14.8,22.1,14.8,22.1z"/>
<path class="st2" d="M12.1,14.8c-0.1-0.1-0.1-0.1-0.1-0.2c0,0,0-0.1-0.1-0.1c0,0-0.1,0-0.1,0.1c0,0,0,0,0,0c0,0,0,0.1,0,0.1
	c0,0.1,0,0.1,0.1,0.1C12,14.9,12.1,14.9,12.1,14.8z"/>
<path class="st2" d="M17.2,12.4c0.2,0,0.4,0.1,0.6,0C17.7,12.3,17.4,12.3,17.2,12.4z"/>
<path class="st2" d="M11.1,20.1c0-0.1,0-0.1-0.1-0.1c0,0,0-0.1,0-0.1c0,0,0,0,0,0c0,0,0,0,0,0c-0.1,0.1-0.1,0.2,0,0.3
	c0,0,0.1,0,0.1,0c0.1,0,0.1,0,0.2,0c0,0,0,0,0,0c0,0,0,0,0-0.1c0,0,0,0,0,0c-0.1,0-0.1,0-0.2,0c0,0,0,0,0,0c0,0,0,0,0,0
	C11,20.2,11.1,20.2,11.1,20.1C11.1,20.1,11.1,20.2,11.1,20.1z"/>
<path class="st2" d="M15.3,12.9c0,0,0-0.1-0.1-0.1c0-0.1-0.1-0.1-0.1-0.1c-0.1,0-0.1,0.1-0.1,0.1c0,0,0,0.1,0,0.1c0,0,0.1,0,0.1,0.1
	c0,0,0.1,0.1,0.1,0.1C15.3,13,15.3,13,15.3,12.9z"/>
<path class="st2" d="M20.4,15.5C20.5,15.5,20.5,15.5,20.4,15.5c0.1-0.1,0-0.2-0.1-0.2c-0.1,0-0.1,0-0.2,0c0,0,0,0,0,0
	c0,0-0.1,0-0.1,0.1c0,0,0,0.1,0,0.1c0,0,0.1,0,0.1,0C20.3,15.5,20.4,15.5,20.4,15.5z"/>
<path class="st2" d="M18.8,8.7c-0.1-0.1-0.3-0.1-0.4-0.1c0,0-0.1,0-0.1,0.1s0,0.1,0,0.1c0.1,0,0.2,0,0.3,0
	C18.6,8.8,18.7,8.8,18.8,8.7z"/>
<path class="st2" d="M15.1,20c0,0,0.1,0,0.1,0c0,0,0.1,0,0.1,0s0-0.1,0-0.1c0,0,0,0-0.1,0c-0.1,0-0.2,0-0.3,0c-0.1,0-0.1,0-0.1,0.1
	c0,0.1,0,0.1,0.1,0.1C15,20,15.1,20,15.1,20z"/>
<path class="st2" d="M16.1,20c0-0.1,0-0.1-0.1-0.1c-0.1,0-0.1,0-0.2,0c-0.1,0-0.2,0-0.3,0c0,0,0,0,0,0s0,0,0,0.1c0,0,0.1,0,0.1,0
	c0.1,0,0.1,0,0.2,0c0.1,0,0.1,0,0.2,0C16,19.9,16,19.9,16.1,20z"/>
<path class="st2" d="M17.4,9.2c-0.1,0-0.1,0.1-0.1,0.1c0,0,0,0.1,0,0.1c0,0.1,0.1,0.1,0,0.2c0.1,0,0.2-0.1,0.2-0.2c0,0,0-0.1,0-0.1
	C17.4,9.3,17.4,9.3,17.4,9.2z"/>
<path class="st2" d="M20.6,19.6C20.6,19.6,20.6,19.6,20.6,19.6C20.6,19.6,20.6,19.6,20.6,19.6c0-0.2,0-0.5,0-0.7c0-0.1,0-0.2,0-0.3
	c0,0,0,0,0,0c0,0,0,0,0,0c0,0,0,0,0,0c0,0.2,0,0.5,0,0.7C20.5,19.4,20.5,19.5,20.6,19.6z"/>
<path class="st2" d="M14.9,22.3C15,22.3,15,22.3,14.9,22.3c0.2,0,0.2,0,0.3-0.1c0,0,0,0,0,0s0,0,0,0c0,0,0,0-0.1,0
	c-0.1,0-0.2,0-0.3,0c0,0,0,0,0,0c0,0-0.1,0-0.1,0.1c0,0,0,0,0.1,0C14.9,22.3,14.9,22.3,14.9,22.3z"/>
<path class="st2" d="M13,21.3c-0.1,0-0.2,0-0.2,0.1c0,0,0,0.1-0.1,0.1c0,0,0,0,0,0.1c0,0,0,0,0.1,0c0,0,0.1-0.1,0.1-0.1
	C13,21.4,13,21.4,13,21.3z"/>
<path class="st2" d="M18.5,17.3C18.5,17.3,18.5,17.3,18.5,17.3c0-0.1,0-0.1,0-0.2s0-0.1,0-0.1c0-0.1,0-0.1-0.1-0.1
	c-0.1,0-0.1,0-0.1,0.1c0,0.1,0,0.1,0,0.2c0,0.1,0,0.1,0.1,0.1C18.4,17.3,18.5,17.3,18.5,17.3z"/>
<path class="st1" d="M8.3,14.9C8.3,14.9,8.4,14.9,8.3,14.9c0-0.1,0-0.1,0.1-0.2c0,0,0-0.1,0-0.1c0,0,0,0-0.1,0c0,0-0.1,0.1-0.1,0.2
	C8.2,14.9,8.3,15,8.3,14.9C8.3,15,8.4,15,8.3,14.9C8.4,15,8.5,14.9,8.3,14.9C8.4,14.9,8.4,14.9,8.3,14.9z"/>
<path class="st2" d="M8.1,22.7c0.1-0.1,0.1-0.2,0.2-0.4c0-0.1,0-0.1,0-0.2c0,0,0,0,0,0c0,0,0,0,0,0c0,0.1-0.1,0.2-0.1,0.3
	c0,0.1-0.1,0.1-0.1,0.2C8.1,22.6,8.1,22.6,8.1,22.7z"/>
<path class="st1" d="M10.4,18.5c0.1-0.1,0.2-0.3,0.3-0.4c0,0,0-0.1,0-0.1C10.5,18.1,10.4,18.3,10.4,18.5z"/>
<path class="st2" d="M17.3,17.1C17.2,17.1,17.2,17.1,17.3,17.1c0,0.2,0.1,0.4,0.1,0.6c0-0.1,0-0.1,0-0.2c0-0.1,0-0.1,0.1-0.2
	c0.1-0.1,0.1-0.1,0-0.2c0,0,0,0.1,0,0.1c0,0,0-0.1-0.1-0.1C17.3,17.2,17.3,17.2,17.3,17.1z"/>
<path class="st2" d="M16.2,20.7L16.2,20.7c0,0,0.1,0,0.1,0c0,0,0.1,0,0.1,0c0,0,0,0,0-0.1c0,0,0,0-0.1,0c-0.1-0.1-0.2,0-0.3,0.1
	c0,0,0,0.1,0,0.1C16.2,20.7,16.2,20.7,16.2,20.7z"/>
<path class="st2" d="M14.6,21.9c0.1,0,0.3-0.1,0.3-0.3c0,0.1-0.1,0.1-0.1,0c0,0,0,0-0.1,0C14.6,21.7,14.6,21.8,14.6,21.9
	C14.6,21.9,14.6,21.9,14.6,21.9C14.6,21.9,14.6,21.9,14.6,21.9z"/>
<path class="st2" d="M19.3,12.2c0.1,0,0.2,0,0.3,0c0.1,0,0.1,0,0.2,0c0,0,0.1,0,0.1,0c0,0-0.1-0.1-0.1-0.1c0,0-0.1,0-0.1-0.1
	C19.5,12,19.4,12,19.3,12.2z"/>
<path class="st1" d="M21.7,20.2c-0.2,0.1-0.3,0.2-0.4,0.3C21.4,20.5,21.6,20.3,21.7,20.2z"/>
<path class="st2" d="M18.5,20.9c-0.1,0-0.1,0-0.2,0c0,0-0.1,0.1-0.1,0.1c0,0.1-0.1,0.1-0.1,0.2c0,0,0,0,0,0.1c0,0,0,0,0,0.1
	c0,0,0,0,0.1,0c0,0,0,0,0-0.1c0,0,0-0.1,0-0.1c0,0,0.1-0.1,0.1-0.1C18.4,21,18.4,21,18.5,20.9z"/>
<path class="st2" d="M14,19.5C14,19.5,14,19.5,14,19.5c0-0.1,0-0.1,0-0.1c0,0-0.1,0-0.1,0c-0.1,0,0,0.1,0,0.2c0,0.1,0,0.1,0.1,0.1
	C13.9,19.7,14,19.6,14,19.5z"/>
<path class="st2" d="M10,14.9c0.1,0,0.2,0,0.3,0c0,0,0.1,0,0.1,0c0,0,0,0,0,0c0,0,0,0,0,0c0,0,0,0,0,0c-0.1,0-0.2,0-0.2,0
	c-0.1,0-0.2,0-0.3,0c0,0-0.1,0-0.1,0c0,0,0,0,0,0c0,0,0,0,0,0C9.9,14.9,10,14.9,10,14.9z"/>
<path class="st2" d="M19.6,11.6c0.1,0,0.1,0,0.1-0.1c0-0.1-0.1-0.1-0.1-0.1c-0.1,0-0.1,0.1-0.1,0.1C19.5,11.5,19.5,11.6,19.6,11.6z"
	/>
<path class="st2" d="M18.7,20.9c-0.1,0-0.3,0.2-0.3,0.3c0,0,0,0.1,0,0.1c0,0,0,0,0.1,0c0,0,0.1,0,0.1,0c0-0.1,0-0.2,0.1-0.2
	C18.7,21,18.7,21,18.7,20.9z"/>
<path class="st1" d="M9.7,22.6C9.7,22.6,9.7,22.6,9.7,22.6c-0.1,0.2-0.2,0.3-0.3,0.4c0,0,0,0,0,0c0,0,0,0,0.1,0c0,0,0,0,0-0.1
	c0,0,0-0.1,0.1-0.1C9.7,22.8,9.7,22.7,9.7,22.6C9.8,22.7,9.8,22.6,9.7,22.6z"/>
<path class="st2" d="M11.8,22.5c0-0.1,0.1-0.1,0-0.2c0-0.1,0-0.1,0-0.1c0.1,0,0.1-0.1,0-0.1c0,0,0,0,0,0c-0.1,0-0.1,0-0.1,0
	c0,0.1,0,0.2,0,0.3C11.8,22.4,11.8,22.5,11.8,22.5z"/>
<path class="st2" d="M18.5,19.8c-0.1,0-0.1,0-0.2,0c0,0-0.1,0-0.1,0c-0.1,0-0.1,0.1,0,0.1c0,0,0,0,0.1,0c0.1,0,0.1,0,0.1,0
	C18.4,19.8,18.4,19.8,18.5,19.8z"/>
<path class="st2" d="M20.3,15.6c-0.1,0-0.1,0-0.2,0.1c0,0,0,0,0,0.1c0,0,0,0,0.1,0c0.1,0,0.1,0,0.2,0c0,0,0.1,0,0.1,0
	c0,0,0-0.1,0-0.1C20.4,15.6,20.4,15.6,20.3,15.6z"/>
<path class="st2" d="M13.8,18c0.2,0,0.4,0,0.6,0c0,0,0,0,0.1,0c0,0,0,0,0-0.1c0,0,0,0-0.1,0c-0.1,0-0.1,0-0.2,0c-0.1,0-0.1,0-0.2,0
	C13.9,17.9,13.9,17.9,13.8,18z"/>
<path class="st2" d="M18,7.2c0.1-0.1,0.2-0.2,0.3-0.3c0,0,0.1-0.1,0.1-0.1c0,0,0,0,0-0.1c0,0,0,0-0.1,0c0,0-0.1,0.1-0.1,0.1
	c0,0.1,0,0.1-0.1,0.1C18,7,18,7.1,18,7.2z"/>
<path class="st2" d="M16.6,20.4c0,0,0.1-0.1,0.1-0.1c0,0,0-0.1,0.1-0.1c0,0,0,0,0-0.1c0,0-0.1,0-0.1,0
	C16.6,20.1,16.6,20.3,16.6,20.4z"/>
<path class="st1" d="M8.8,23.6c0.1,0,0.2,0,0.2-0.1c0.1-0.1,0-0.2,0-0.3C9,23.4,8.9,23.5,8.8,23.6z"/>
<path class="st2" d="M17.3,9.2c0,0.1,0,0.2,0,0.3c0,0.1,0.1,0.1,0.1,0.2C17.4,9.5,17.4,9.3,17.3,9.2z"/>
<path class="st2" d="M16.4,19.3c0.1,0,0.1-0.1,0.1-0.2c0,0,0-0.1,0-0.1c0,0,0-0.1-0.1-0.1c0,0-0.1,0-0.1,0.1c0,0,0,0,0,0.1
	C16.4,19.1,16.4,19.2,16.4,19.3z"/>
<path class="st2" d="M12.8,22.9c0.1,0,0.2,0,0.4-0.1c-0.1,0-0.1,0-0.2,0C12.9,22.7,12.8,22.8,12.8,22.9z"/>
<path class="st1" d="M17.5,19.5c-0.2,0-0.4-0.1-0.6,0C17.1,19.5,17.3,19.6,17.5,19.5z"/>
<path class="st2" d="M8.7,22.3c0,0,0-0.1,0-0.1c0-0.1,0.1-0.1,0.1-0.1c0,0,0,0,0.1,0c0,0-0.1-0.1-0.1-0.1c0,0-0.1,0-0.1,0
	c0,0,0,0,0,0C8.7,22.1,8.7,22.1,8.7,22.3C8.7,22.2,8.7,22.2,8.7,22.3z"/>
<path class="st1" d="M20,21c0.1,0.1,0.2,0,0.3-0.1C20.2,20.8,20.1,20.8,20,21z"/>
<path class="st2" d="M17,18.4c0,0,0.1,0,0.1,0c0.1,0,0.2,0,0.3,0.1c0,0,0,0,0.1,0c0,0,0.1,0,0.1-0.1C17.4,18.3,17.2,18.3,17,18.4z"
	/>
<path class="st1" d="M13,15.3c0,0-0.1,0-0.1,0c0,0,0,0-0.1,0c0,0-0.1,0-0.1,0c0,0,0,0.1,0,0.1c0,0,0,0,0,0
	C12.9,15.5,13,15.5,13,15.3z"/>
<path class="st1" d="M19.5,20.9C19.4,20.9,19.4,20.9,19.5,20.9c-0.1,0.1-0.1,0.1-0.2,0.2c0,0,0,0.1,0,0.1c0,0,0,0,0.1,0
	C19.4,21.1,19.5,21.1,19.5,20.9C19.6,20.9,19.5,20.9,19.5,20.9z"/>
<path class="st2" d="M18.1,14.7c0.1,0,0.2,0,0.3,0c0,0,0,0,0.1-0.1c0,0,0-0.1,0-0.1c0,0-0.1,0-0.1,0c0,0-0.1,0-0.1,0
	c0.1,0,0.1,0,0.2-0.1C18.2,14.4,18.2,14.5,18.1,14.7z"/>
<path class="st2" d="M16.3,18.4c0,0,0.1,0,0.1,0c0,0,0-0.1,0.1-0.2c0,0,0,0,0-0.1c0,0-0.1,0-0.1,0C16.3,18.2,16.3,18.2,16.3,18.4
	C16.3,18.3,16.3,18.4,16.3,18.4z"/>
<path class="st2" d="M17.2,8.9c0.1,0,0.1,0,0.2,0c0,0,0,0,0,0c0,0,0,0,0.1,0c0,0,0-0.1,0-0.1c0-0.1-0.1-0.1-0.1-0.1
	C17.2,8.7,17.2,8.8,17.2,8.9z"/>
<path class="st1" d="M8,23.6C8.1,23.5,8.1,23.5,8,23.6c0.1-0.1,0.1-0.2,0.2-0.3c0,0,0,0,0-0.1c0,0,0,0-0.1,0c0,0,0,0,0,0
	c0,0.1-0.1,0.2-0.1,0.2C8,23.5,8,23.5,8,23.6z"/>
<path class="st2" d="M17.3,8.8c0-0.1,0-0.2,0-0.4c0,0,0,0,0,0c0,0-0.1,0-0.1,0c0,0,0,0,0,0.1C17.2,8.6,17.2,8.6,17.3,8.8
	C17.3,8.7,17.3,8.8,17.3,8.8z"/>
<path class="st2" d="M9.8,21.5C9.7,21.5,9.7,21.5,9.8,21.5c-0.1,0.1-0.1,0.1-0.2,0.1c0,0,0,0,0,0.1c0,0,0,0,0,0c0,0,0,0,0.1,0
	C9.8,21.7,9.8,21.6,9.8,21.5C9.8,21.5,9.8,21.5,9.8,21.5z"/>
<path class="st2" d="M14,17.6c0.2,0.1,0.4,0.1,0.5,0C14.3,17.5,14.1,17.5,14,17.6z"/>
<path class="st2" d="M15.1,18.2C15.1,18.2,15.1,18.2,15.1,18.2c0,0.1-0.1,0.1-0.2,0.2c-0.1,0-0.1,0.1-0.1,0.2c0,0,0-0.1,0.1-0.1
	c0,0,0.1,0,0.1,0C15.1,18.4,15.1,18.3,15.1,18.2z"/>
<path class="st2" d="M15.9,18.4c0.1,0,0.1-0.1,0.2-0.2c0-0.1,0.1-0.1,0.1-0.2C16,18,16,18.2,15.9,18.4z"/>
<path class="st2" d="M16.3,17.7c0-0.1,0.1-0.2,0.1-0.4c0,0,0-0.1,0-0.1C16.4,17.4,16.3,17.5,16.3,17.7z"/>
<path class="st2" d="M19.7,15.2c0.1-0.1,0.2-0.1,0.1-0.2c0-0.1,0-0.1-0.1-0.2c0,0,0-0.1-0.1,0c0,0,0,0,0,0c0,0,0,0,0.1,0
	c0,0,0,0,0,0.1c0,0,0,0,0,0.1c0,0,0,0,0,0.1c0,0,0.1,0,0.1,0c0,0,0,0.1-0.1,0.1C19.8,15.1,19.7,15.1,19.7,15.2z"/>
<path class="st2" d="M18.8,21.2c0.1-0.1,0.2-0.2,0.2-0.2c0,0,0,0-0.1,0c-0.1,0-0.1,0-0.1,0.1C18.8,21.1,18.8,21.2,18.8,21.2z"/>
<path class="st2" d="M13.3,19.5c-0.1,0.1-0.2,0.2-0.2,0.3c0,0,0,0,0,0c0,0,0,0,0.1,0c0,0,0,0,0,0c0,0,0-0.1,0.1-0.1
	C13.3,19.7,13.3,19.6,13.3,19.5z"/>
<path class="st1" d="M11.8,21.9c0-0.1,0-0.2,0-0.3c-0.1,0.1-0.2,0.2-0.2,0.3c0,0,0.1,0,0.1,0C11.8,21.9,11.8,21.9,11.8,21.9z"/>
<path class="st2" d="M17.8,20.7C17.9,20.7,17.9,20.7,17.8,20.7c0.1-0.1,0.1-0.2,0.2-0.2c0.1,0,0.1-0.1,0.1-0.2c0,0,0,0,0-0.1
	c0,0-0.1,0-0.1,0c0,0,0,0,0,0c0,0.1,0,0.1-0.1,0.1C17.9,20.5,17.8,20.6,17.8,20.7C17.8,20.7,17.8,20.7,17.8,20.7z"/>
<path class="st2" d="M17.4,9.2C17.5,9.2,17.5,9.2,17.4,9.2c0.1-0.1,0-0.1,0-0.2c0,0-0.1,0-0.1,0c-0.1,0-0.1,0-0.1,0.1c0,0,0,0,0,0.1
	C17.3,9.2,17.3,9.2,17.4,9.2C17.4,9.2,17.4,9.2,17.4,9.2z"/>
<path class="st2" d="M10.5,16.8c-0.1-0.1-0.1-0.1-0.1-0.1c0,0-0.1,0-0.1,0c0,0-0.1,0.1,0,0.1c0,0,0.1,0.1,0.1,0.1
	C10.4,16.8,10.4,16.8,10.5,16.8z"/>
<path class="st2" d="M17.9,16.6C17.8,16.6,17.8,16.7,17.9,16.6c-0.1,0.1-0.1,0.1-0.1,0.1c0,0,0,0,0,0C17.8,16.6,17.8,16.6,17.9,16.6
	c-0.1-0.1-0.1-0.1-0.1-0.1c0,0,0,0-0.1,0c0,0,0,0,0,0c0,0.1,0,0.2,0,0.3c0,0,0,0,0,0.1C17.8,16.8,17.9,16.7,17.9,16.6z"/>
<path class="st2" d="M12.9,15.8C12.9,15.8,13,15.9,12.9,15.8c0.1,0.1,0.1,0.1,0.1,0c0-0.1,0.1-0.2,0.1-0.3c0,0,0-0.1,0-0.1
	C13.1,15.6,13.1,15.7,12.9,15.8z"/>
<path class="st2" d="M18.9,17.3C18.9,17.3,18.9,17.3,18.9,17.3c0,0.1,0,0.1,0.1,0.1c0,0,0.1,0,0.1,0c0,0,0,0,0-0.1
	c0-0.1,0-0.1-0.1-0.1C18.9,17.1,18.9,17.2,18.9,17.3C18.9,17.2,18.9,17.2,18.9,17.3z"/>
<path class="st2" d="M10.7,19.4c0,0,0.1,0,0.1,0c0,0,0,0,0.1,0c0,0,0,0,0-0.1c0,0,0,0-0.1,0c-0.1,0-0.1,0-0.2,0c0,0-0.1,0-0.1,0.1
	C10.5,19.4,10.6,19.4,10.7,19.4C10.6,19.4,10.7,19.4,10.7,19.4z"/>
<path class="st2" d="M19.9,18.8c-0.1,0.1-0.2,0.2-0.2,0.4C19.8,19.1,19.9,19,19.9,18.8z"/>
<path class="st1" d="M16,19.5C15.9,19.5,15.9,19.5,16,19.5c-0.2-0.1-0.4,0-0.5,0c0,0,0,0,0,0c0,0,0,0,0,0c0,0,0,0,0,0c0,0,0,0,0,0
	C15.6,19.5,15.8,19.5,16,19.5C15.9,19.5,15.9,19.5,16,19.5z"/>
<path class="st2" d="M16.6,17.5C16.6,17.5,16.6,17.5,16.6,17.5c0,0.2,0,0.3-0.1,0.5c0,0,0,0.1,0.1,0s0,0,0-0.1c0-0.1,0-0.2,0-0.3
	C16.7,17.6,16.6,17.6,16.6,17.5z"/>
<path class="st1" d="M19.3,20.8c0,0-0.1,0.1-0.1,0.1c0,0-0.1,0.1-0.1,0.1s0,0.1,0,0.1C19.2,21.1,19.3,21,19.3,20.8
	C19.3,20.9,19.3,20.9,19.3,20.8z"/>
<path class="st2" d="M18.4,19.5c0.1,0,0.1,0,0.2,0c0,0,0,0,0.1,0c0,0,0,0,0,0c0,0,0,0,0,0c0,0-0.1,0-0.1,0
	C18.5,19.5,18.4,19.5,18.4,19.5z"/>
<path class="st2" d="M20,22c0.1-0.1,0.1-0.2,0.2-0.2c0,0,0-0.1,0-0.1c0,0-0.1,0-0.1,0.1C20,21.9,20,22,20,22z"/>
<path class="st1" d="M20.4,20.6C20.3,20.6,20.3,20.7,20.4,20.6c-0.1,0.1-0.1,0.2,0,0.2c0.1,0,0.2-0.1,0.2-0.1
	C20.5,20.6,20.4,20.6,20.4,20.6C20.4,20.7,20.4,20.6,20.4,20.6z"/>
<path class="st1" d="M11.7,20.7C11.7,20.7,11.7,20.7,11.7,20.7C11.7,20.7,11.7,20.7,11.7,20.7c0.1,0,0.1,0,0.1,0c0,0,0-0.1,0-0.1
	c0,0,0-0.1,0-0.1c0,0,0,0,0,0C11.7,20.6,11.7,20.6,11.7,20.7z"/>
<path class="st1" d="M12,20.9c-0.1,0-0.1,0.1-0.1,0.1c0,0,0,0.1-0.1,0.1c0,0,0,0,0,0.1c0,0,0,0,0.1,0c0,0,0,0,0,0
	C11.9,21.1,11.9,21,12,20.9z"/>
<path class="st1" d="M18.1,6.3c-0.1,0.1-0.2,0.2-0.3,0.3c0,0,0,0,0,0c0,0,0,0,0,0c0,0,0,0,0,0C18,6.6,18,6.6,18.1,6.5
	C18.1,6.4,18.1,6.4,18.1,6.3z"/>
<path d="M7.7,22.6C7.7,22.6,7.7,22.6,7.7,22.6C7.7,22.6,7.6,22.7,7.7,22.6z"/>
<path d="M6.7,21.9"/>
<path class="st2" d="M16.1,17.8C16.1,17.8,16.1,17.9,16.1,17.8c0,0.1,0.1,0.1,0.1,0.1c0,0,0,0,0-0.1C16.2,17.8,16.2,17.8,16.1,17.8
	c0-0.1-0.1-0.1-0.1,0c0,0,0,0.1,0,0.1C16,17.9,16,17.9,16.1,17.8C16.1,17.9,16.1,17.8,16.1,17.8z"/>
<path class="st2" d="M20.1,15.9C20.1,15.9,20.1,15.9,20.1,15.9c0.2,0,0.3,0,0.4,0c0,0,0,0,0,0c0,0,0,0,0,0c0,0,0,0,0,0
	c-0.1,0-0.2-0.1-0.3-0.1C20.2,15.8,20.1,15.8,20.1,15.9z"/>
<path class="st1" d="M14.1,19.9C14.1,19.9,14.1,19.9,14.1,19.9c0.1,0,0.1,0,0.1-0.1c0,0,0-0.1-0.1-0.1c-0.1,0-0.1,0-0.1,0
	c0,0,0,0,0,0C13.9,19.9,14,19.9,14.1,19.9z"/>
<path class="st2" d="M16.6,20.7c0.1,0,0.1-0.1,0.1-0.1c0,0,0-0.1,0-0.1c0,0-0.1,0-0.1,0C16.5,20.6,16.5,20.6,16.6,20.7z"/>
<path class="st2" d="M12.3,22.9c0,0,0.1,0,0.1,0c0,0,0.1,0,0.1-0.1c0,0,0,0,0,0C12.4,22.7,12.3,22.8,12.3,22.9
	C12.3,22.8,12.3,22.8,12.3,22.9C12.3,22.9,12.3,22.9,12.3,22.9z"/>
<path class="st2" d="M17.5,17.5c0,0.1,0,0.1-0.1,0.1c0,0.1,0,0.1,0.1,0.1c0,0,0.1,0,0.1,0C17.6,17.7,17.6,17.6,17.5,17.5z"/>
<path class="st2" d="M17.2,20.7C17.3,20.7,17.3,20.6,17.2,20.7c0.1-0.1,0.2-0.2,0.3-0.3c0,0,0,0,0,0c0,0,0-0.1,0-0.1
	c0,0-0.1,0-0.1,0c0,0.1-0.1,0.1-0.1,0.2C17.3,20.5,17.2,20.6,17.2,20.7z"/>
<path class="st1" d="M4.7,19.7C4.8,19.7,4.8,19.6,4.7,19.7c0.1-0.1,0.1-0.2,0-0.2C4.7,19.5,4.7,19.5,4.7,19.7
	C4.7,19.6,4.7,19.7,4.7,19.7z"/>
<path class="st2" d="M14,19.8C14,19.8,14,19.7,14,19.8c-0.1-0.1-0.1-0.1-0.2-0.1c0,0,0,0,0,0.1c0,0,0,0,0.1,0
	C13.8,19.9,13.9,19.9,14,19.8C14,19.9,14,19.9,14,19.8z"/>
<path class="st1" d="M20.1,20.8c-0.1,0-0.2,0-0.2,0.1c0,0,0,0,0,0.1c0,0,0.1,0,0.1,0c0,0,0,0,0.1,0C20,20.9,20.1,20.9,20.1,20.8z"/>
<path class="st1" d="M14.6,21.1C14.5,21,14.5,21,14.6,21.1C14.5,21,14.5,21,14.4,21c0,0,0,0,0,0.1c0,0,0,0.1,0.1,0.1
	C14.5,21.2,14.5,21.1,14.6,21.1z"/>
<path class="st2" d="M18.3,7.6C18.3,7.6,18.3,7.6,18.3,7.6c-0.1,0.1-0.1,0.1-0.1,0.2c0,0,0,0,0,0c0,0,0,0.1,0,0.1s0,0,0.1,0
	c0,0,0.1-0.1,0.1-0.1C18.4,7.7,18.4,7.6,18.3,7.6C18.4,7.6,18.3,7.6,18.3,7.6z"/>
<path class="st2" d="M13.3,15.6C13.3,15.6,13.3,15.6,13.3,15.6c0,0.2,0,0.3-0.1,0.4c0,0,0,0,0,0c0,0,0.1,0,0.1,0c0-0.1,0-0.2,0-0.3
	C13.3,15.7,13.3,15.6,13.3,15.6z"/>
<path class="st2" d="M14.1,18.8c0.2,0,0.3,0,0.5,0C14.4,18.7,14.2,18.7,14.1,18.8z"/>
<path class="st2" d="M8,22.9c0.1,0,0.3-0.2,0.2-0.4C8.2,22.6,8.2,22.8,8,22.9z"/>
<path class="st2" d="M17.3,10.1c0,0.1,0,0.1,0,0.2c0,0.1,0,0.1,0.1,0.2c0-0.1,0-0.1,0-0.2C17.4,10.2,17.4,10.2,17.3,10.1z"/>
<path class="st2" d="M8.3,19.5c-0.1,0-0.2,0.1-0.3,0.2C8.2,19.6,8.2,19.5,8.3,19.5z"/>
<path class="st2" d="M19.6,18c0-0.1-0.1-0.1-0.1-0.1c0,0-0.1,0-0.1,0c0,0-0.1,0.1,0,0.1c0,0,0,0,0,0C19.4,18,19.5,18,19.6,18z"/>
<path class="st2" d="M17.5,10.2c-0.1,0.1-0.1,0.1-0.2,0.2c0,0,0,0-0.1,0c0,0,0,0.1,0,0.1c0,0,0,0,0.1,0c0,0,0.1-0.1,0.1-0.1
	C17.4,10.3,17.5,10.3,17.5,10.2z"/>
<path class="st1" d="M12.1,20.6c0-0.1-0.1-0.1-0.1-0.1c0,0,0,0,0,0C11.9,20.6,11.9,20.6,12.1,20.6C12,20.7,12.1,20.7,12.1,20.6z"/>
<path class="st2" d="M17.6,21.1C17.6,21.1,17.6,21.1,17.6,21.1c0.1-0.1,0.1-0.1,0.2-0.2c0,0,0.1-0.1,0.1-0.1c0,0,0,0,0-0.1
	c0,0,0,0-0.1,0C17.7,20.9,17.7,21,17.6,21.1C17.6,21.1,17.6,21.1,17.6,21.1C17.6,21.1,17.6,21.1,17.6,21.1z"/>
<path class="st2" d="M13,16.7C13.1,16.7,13.1,16.7,13,16.7C13.1,16.7,13.1,16.6,13,16.7C13,16.6,13,16.6,13,16.7
	c-0.1,0-0.1,0.1-0.1,0.2c0,0,0,0.1,0,0.1C13,16.9,13,16.8,13,16.7z"/>
<path class="st2" d="M19.5,21.7C19.6,21.7,19.6,21.7,19.5,21.7c0.1,0,0.1,0,0.1-0.1c0.1,0,0.1-0.1,0-0.1c0,0,0,0,0,0
	C19.7,21.6,19.6,21.6,19.5,21.7z"/>
<path class="st2" d="M18.7,7.6c-0.1,0-0.1,0.1-0.1,0.1c0,0.1-0.1,0.1-0.1,0.2c0,0,0,0,0,0.1c0,0,0,0,0.1,0
	C18.6,7.8,18.7,7.7,18.7,7.6z"/>
<path class="st1" d="M14.7,17.4c0-0.1,0.1-0.2,0.1-0.3c0,0,0,0,0-0.1c0,0-0.1,0-0.1,0C14.7,17.2,14.7,17.3,14.7,17.4z"/>
<path class="st2" d="M19.5,21.5C19.5,21.5,19.5,21.5,19.5,21.5c-0.1,0-0.2,0.1-0.2,0.1c0,0,0,0,0,0c0,0,0,0,0,0
	C19.4,21.6,19.5,21.6,19.5,21.5z"/>
<path class="st2" d="M11.6,20.4c-0.1-0.1-0.1-0.1-0.2-0.1c0,0,0,0-0.1,0c0,0,0,0.1,0,0.1c0,0,0,0,0,0C11.4,20.3,11.5,20.4,11.6,20.4
	C11.6,20.4,11.6,20.4,11.6,20.4z"/>
<path class="st1" d="M15.9,23C15.9,23,15.9,23,15.9,23C15.8,23,15.8,23,15.9,23c-0.1,0.1-0.1,0.1-0.1,0.1c0,0,0,0,0,0.1
	c0,0,0.1,0,0.1,0c0,0,0,0,0-0.1C15.8,23.1,15.9,23,15.9,23z"/>
<path class="st2" d="M12.2,20C12.2,20,12.2,20,12.2,20c0.1,0,0.3,0,0.4,0c0,0,0,0,0,0C12.5,19.9,12.4,19.9,12.2,20z"/>
<path class="st2" d="M17.3,12.8C17.3,12.8,17.3,12.8,17.3,12.8c0,0.1,0,0.1,0,0.1c0,0.1,0,0.1,0.1,0.1c0,0,0.1,0,0,0
	C17.4,13,17.4,12.9,17.3,12.8C17.4,12.9,17.3,12.8,17.3,12.8z"/>
<path class="st2" d="M16.1,18.4C16.2,18.3,16.2,18.3,16.1,18.4c0.1-0.1,0.2-0.2,0.2-0.3c0,0,0,0,0,0c0,0,0,0,0,0
	C16.2,18.1,16.1,18.2,16.1,18.4z"/>
<path class="st1" d="M21.7,20.5c0,0-0.1,0.1-0.1,0.1c0,0,0,0,0,0.1c0,0,0,0.1,0,0.1c0,0,0.1,0,0.1,0c0,0,0,0,0-0.1
	C21.7,20.6,21.7,20.5,21.7,20.5z"/>
<path class="st2" d="M9.3,21c-0.1,0-0.2,0.1-0.3,0.2c0,0,0,0,0,0c0,0,0,0,0,0.1c0,0,0,0,0,0C9.2,21.1,9.3,21,9.3,21z"/>
<path class="st2" d="M18.2,20.6C18.2,20.6,18.2,20.7,18.2,20.6c0.1,0,0.1,0,0.2-0.1c-0.1,0,0-0.1-0.1-0.2
	C18.3,20.5,18.2,20.6,18.2,20.6z"/>
<path class="st1" d="M18.7,13c0.1,0,0.2-0.1,0.2-0.1c0,0,0,0,0,0c0,0-0.1,0,0-0.1c0,0,0,0-0.1,0c0,0,0,0,0,0
	C18.8,12.8,18.8,12.9,18.7,13C18.7,12.9,18.7,12.9,18.7,13z"/>
<path class="st2" d="M12.1,24C12,24,12,24,12.1,24C12,24,12.1,24,12.1,24z"/>
<path class="st2" d="M20.4,14.6c-0.2,0.1-0.3,0.2-0.3,0.3C20.2,14.8,20.3,14.7,20.4,14.6z"/>
<path class="st2" d="M18,16.2c-0.1,0.1-0.2,0.2-0.1,0.3C18,16.4,18,16.3,18,16.2z"/>
<path class="st2" d="M20.3,15.3C20.3,15.3,20.3,15.3,20.3,15.3C20.3,15.3,20.3,15.3,20.3,15.3c0.1,0,0.1,0,0.1-0.1c0,0,0-0.1,0-0.1
	c0,0-0.1,0-0.1,0C20.2,15.2,20.2,15.2,20.3,15.3C20.2,15.3,20.2,15.3,20.3,15.3C20.2,15.3,20.2,15.3,20.3,15.3z"/>
<path class="st2" d="M17,18.8c0.1-0.1,0.2-0.2,0.2-0.4C17.1,18.5,17,18.6,17,18.8z"/>
<path class="st2" d="M12.6,21.6c0.1,0,0.1,0,0.1-0.1c0,0,0-0.1,0.1-0.1c0,0,0,0,0-0.1c0,0,0,0,0,0C12.7,21.4,12.7,21.5,12.6,21.6z"
	/>
<path class="st1" d="M18.5,4.2c0.1-0.1,0.1-0.2-0.1-0.3C18.4,4,18.5,4.1,18.5,4.2z"/>
<path class="st2" d="M16.2,18.6C16.2,18.6,16.2,18.6,16.2,18.6c0.1,0,0.2,0,0.2-0.1c0,0,0-0.1-0.1-0.1c0,0-0.1,0-0.1,0.1
	C16.2,18.5,16.2,18.5,16.2,18.6z"/>
<path class="st1" d="M13,21.7c0.1,0,0.3,0,0.3,0C13.1,21.6,13,21.7,13,21.7z"/>
<path class="st1" d="M15.5,9.3C15.5,9.3,15.5,9.3,15.5,9.3c0.1-0.1,0.2-0.2,0.1-0.2c0-0.1-0.1-0.1-0.2,0c0,0,0,0,0,0
	C15.5,9.2,15.5,9.2,15.5,9.3z"/>
<path class="st2" d="M18.5,7.6c-0.1,0.1-0.2,0.2-0.2,0.3c0,0,0,0,0,0.1C18.4,7.8,18.5,7.7,18.5,7.6z"/>
<path class="st2" d="M12.5,22.8c0.1,0,0.2,0,0.2-0.1C12.6,22.7,12.6,22.7,12.5,22.8z"/>
<path class="st2" d="M18.1,19.5c-0.1-0.1-0.3,0-0.4,0C17.8,19.5,18,19.5,18.1,19.5z"/>
<path class="st2" d="M8.1,22C8.1,22,8.2,22,8.1,22c0.2,0.1,0.3,0,0.5,0c0,0,0,0,0,0c0,0,0,0,0,0C8.4,22,8.3,22,8.1,22z"/>
<path class="st2" d="M19.5,11c-0.1,0.1-0.2,0.2-0.2,0.3C19.4,11.3,19.5,11.2,19.5,11z"/>
<path class="st2" d="M16.4,12.2c-0.1-0.1-0.3-0.1-0.5,0C16,12.2,16.2,12.2,16.4,12.2z"/>
<path class="st1" d="M18.2,6.5c-0.1,0.1-0.3,0.3-0.3,0.4C18,6.8,18.1,6.6,18.2,6.5z"/>
<path class="st2" d="M17.5,8.1c0.1-0.1,0.2-0.2,0.2-0.3C17.6,7.9,17.5,8,17.5,8.1z"/>
<path class="st1" d="M17.9,6.4C18,6.3,18.1,6.2,18.1,6C18,6.1,17.9,6.3,17.9,6.4z"/>
<path class="st2" d="M17.8,18.5c-0.1,0-0.3,0-0.4,0c0,0,0,0,0,0c0,0,0,0,0,0c0.1,0,0.2,0,0.3,0C17.7,18.5,17.7,18.5,17.8,18.5z"/>
<path class="st2" d="M17.4,16.5c-0.1,0-0.3-0.1-0.4,0C17.2,16.6,17.3,16.6,17.4,16.5z"/>
<path class="st2" d="M18.1,16.6c-0.1,0.1-0.2,0.2-0.2,0.3C17.9,16.8,18.1,16.7,18.1,16.6z"/>
<path class="st2" d="M16.4,17.8c0.1-0.1,0.1-0.3,0.2-0.4C16.4,17.5,16.4,17.7,16.4,17.8z"/>
<path class="st1" d="M17.7,5.8c0.1-0.1,0.1-0.2,0.1-0.3C17.7,5.6,17.7,5.7,17.7,5.8z"/>
<path class="st2" d="M13.3,18.6c0.1-0.1,0.2-0.1,0.2-0.3C13.4,18.4,13.4,18.5,13.3,18.6z"/>
<path class="st2" d="M20.3,14.3c-0.1,0-0.2,0.1-0.2,0.3C20.1,14.5,20.2,14.4,20.3,14.3z"/>
<path class="st2" d="M17.4,9.3c0,0.1,0,0.3,0.1,0.4C17.5,9.5,17.5,9.4,17.4,9.3z"/>
<path class="st2" d="M15.1,13.5c0.1-0.1,0.2-0.2,0.2-0.3C15.2,13.2,15.2,13.3,15.1,13.5z"/>
<path class="st2" d="M18.1,20.5c0.1,0,0.3,0,0.4,0C18.4,20.5,18.3,20.4,18.1,20.5z"/>
<path class="st2" d="M14.3,17.1c0-0.1,0-0.1-0.1-0.2C14.2,17,14.2,17,14.3,17.1z"/>
<path class="st2" d="M15.2,20.8c-0.1,0-0.2,0.1-0.2,0.2C15.1,20.9,15.1,20.8,15.2,20.8z"/>
<path class="st1" d="M20.1,20.5c-0.1,0.1-0.2,0.1-0.2,0.2C20,20.7,20.1,20.6,20.1,20.5z"/>
<path class="st1" d="M15.9,19.8C15.9,19.8,15.9,19.8,15.9,19.8c0.1,0.1,0.3,0,0.4,0c0,0,0,0,0,0C16.1,19.8,16,19.8,15.9,19.8z"/>
<path class="st1" d="M18,7.4C18,7.4,18,7.4,18,7.4c0.1-0.1,0.2-0.1,0.2-0.2c0,0,0,0,0,0C18.1,7.3,18,7.3,18,7.4z"/>
<path class="st1" d="M13.4,14.3c-0.1,0.1,0,0.3,0,0.4C13.4,14.5,13.4,14.4,13.4,14.3z"/>
<path class="st2" d="M13.6,13.2C13.6,13.2,13.6,13.2,13.6,13.2C13.6,13.2,13.6,13.2,13.6,13.2c0.1,0.2,0.3,0.3,0.4,0.4
	c0,0,0.1,0,0.1,0.1c0,0.1,0,0.2-0.1,0.2c0,0,0,0-0.1,0c0,0,0,0,0-0.1c0,0,0,0,0,0c0,0,0-0.1,0-0.1c0,0-0.1,0-0.1,0
	c-0.1,0-0.1,0-0.2-0.1c-0.1,0-0.2-0.1-0.2-0.2c0,0,0-0.1-0.1-0.1c0,0,0,0,0,0c-0.1,0-0.1,0-0.1-0.1c0-0.1,0-0.1-0.1-0.1
	c0,0,0-0.1,0-0.1c0-0.1,0.1-0.1,0.1-0.2c0,0,0-0.1,0.1-0.1c0.1,0,0.1,0,0.1,0.1c0.1,0.1,0.1,0.2,0,0.3
	C13.6,13.1,13.6,13.1,13.6,13.2z"/>
<path class="st2" d="M13.2,13.8c-0.2,0-0.5,0-0.7,0c0.1-0.1,0.1-0.1,0-0.2c0,0,0,0,0-0.1c0,0,0-0.1,0.1-0.1c0,0,0,0.1,0,0.1
	c0,0.1,0.1,0.1,0.1,0.1c0.1,0,0.1,0,0.2,0c0,0,0.1,0,0.1-0.1c0,0,0-0.1-0.1-0.1c0,0,0,0-0.1,0c0,0-0.1,0-0.1,0
	c0-0.1,0.1-0.1,0.1-0.1c0,0,0.1,0,0.1,0c0,0,0.1,0,0.1,0c0,0,0,0.1,0,0.1C13,13.6,13.1,13.7,13.2,13.8
	C13.2,13.8,13.2,13.8,13.2,13.8z"/>
<path class="st2" d="M13.7,12.3c0.1,0,0.1,0,0.2,0.1c0.1,0,0.1,0,0.2,0.1c0,0,0,0,0,0.1c-0.1,0.1,0,0.1,0,0.2
	c-0.1,0-0.2-0.1-0.3-0.1c0,0-0.1-0.1-0.1-0.1c0,0,0,0,0,0c0,0,0,0,0,0c0,0,0,0,0,0c0,0,0.1,0,0.1,0c0,0,0-0.1,0-0.1
	C13.7,12.4,13.7,12.4,13.7,12.3z"/>
<path class="st1" d="M15.2,9.1c0,0.1,0,0.2,0,0.2c0,0.1-0.1,0.1-0.2,0c-0.1,0-0.1-0.1-0.1-0.2c0,0,0,0,0,0c0.1,0,0.1-0.1,0.2,0
	C15,9.2,15.1,9.2,15.2,9.1C15.1,9.2,15.1,9.1,15.2,9.1z"/>
<path class="st2" d="M13.8,11.8c-0.1,0.1-0.1,0.1-0.2,0.1c-0.1,0-0.1-0.1-0.1-0.2c0-0.1,0-0.1,0-0.2c0,0,0,0,0-0.1c0,0,0,0,0.1,0
	c0,0,0,0,0,0.1c0,0,0,0,0,0.1c0,0,0,0.1,0,0.1C13.7,11.8,13.7,11.8,13.8,11.8C13.8,11.8,13.8,11.8,13.8,11.8z"/>
<path class="st2" d="M13.2,12.9C13.2,12.9,13.2,13,13.2,12.9c-0.1,0.1-0.1,0.1-0.1,0c0-0.1,0,0-0.1,0c0,0,0,0-0.1,0c0,0,0,0,0,0
	c0,0,0,0,0,0c0-0.1,0.2-0.1,0.2-0.1C13.2,12.8,13.2,12.9,13.2,12.9z"/>
<path class="st2" d="M13.4,13.8C13.4,13.8,13.4,13.8,13.4,13.8c0-0.1,0.1-0.1,0.1-0.2c0,0,0-0.1,0-0.1c-0.1,0-0.1-0.1-0.1-0.1
	c0.1,0,0.2,0.1,0.2,0.1c0,0,0,0.1,0,0.1C13.5,13.7,13.5,13.8,13.4,13.8z"/>
<path class="st1" d="M13.8,9.5c-0.1,0.1-0.1,0.1-0.2,0.1c-0.1,0-0.1,0-0.2,0C13.5,9.5,13.6,9.5,13.8,9.5z"/>
<path class="st2" d="M13.1,12.3c0-0.2,0.1-0.3,0.2-0.3C13.2,12.1,13.2,12.3,13.1,12.3z"/>
<path class="st2" d="M16.1,13.7c0-0.1,0-0.3,0-0.4C16.1,13.4,16.1,13.5,16.1,13.7z"/>
<path class="st2" d="M7.8,21.8c0,0,0.1,0,0.1-0.1c0,0,0.1,0,0.1,0c0,0,0,0,0,0c0.1,0,0.1,0,0.1-0.1c0-0.1,0-0.1,0.1-0.2c0,0,0,0,0,0
	c0,0,0,0.1,0,0.1c0,0,0,0.1,0,0.1c0,0,0,0.1,0,0.1c0,0,0.1,0,0.1,0c0,0,0,0,0,0c0-0.1,0.1-0.1,0.2-0.1c0,0,0,0,0,0.1
	c0,0-0.1,0.1-0.1,0.1c0,0,0,0,0,0C8.2,21.7,8,21.7,7.8,21.8C7.8,21.8,7.8,21.8,7.8,21.8z"/>
<path class="st2" d="M8.5,21.9c0.2-0.1,0.5,0,0.7,0.1C9,22,8.8,22,8.5,21.9z"/>
<path class="st2" d="M9.5,18.3c0-0.1,0-0.3,0-0.4C9.5,18,9.5,18.3,9.5,18.3z"/>
<path class="st2" d="M10.4,19.5c-0.1-0.1-0.1-0.1,0-0.3C10.4,19.3,10.4,19.4,10.4,19.5z"/>
<path class="st2" d="M18.5,18.8c0.2,0,0.4,0,0.5,0c0,0,0,0,0,0c0,0,0,0,0,0c-0.1,0-0.1,0-0.2,0C18.7,18.8,18.6,18.8,18.5,18.8
	C18.5,18.8,18.5,18.8,18.5,18.8z"/>
<path class="st2" d="M9.9,18.8c0-0.1,0-0.3,0-0.4C10,18.5,10,18.6,9.9,18.8z"/>
<path class="st2" d="M10.4,21.4c-0.1,0.1-0.3,0.1-0.4,0.1C10.1,21.4,10.3,21.4,10.4,21.4z"/>
<path class="st2" d="M16.6,19.7c0-0.1-0.1-0.1-0.1-0.1c0,0-0.1,0-0.1,0.1c0,0.1,0,0.2,0,0.3c0,0.1,0.1,0.1,0.2,0.1
	c0,0,0.1,0,0.1,0.1c-0.1,0-0.2,0-0.2,0c0,0-0.1,0-0.1-0.1c0-0.1,0-0.1,0-0.2c0-0.1,0-0.1,0-0.2c0-0.1,0-0.1,0.1-0.1c0,0,0.1,0,0.1,0
	C16.6,19.6,16.7,19.6,16.6,19.7z"/>
<path class="st2" d="M11.8,19.4c0-0.1,0-0.3,0.1-0.4C11.9,19.1,11.9,19.3,11.8,19.4z"/>
<path class="st2" d="M10.2,14.8C10.2,14.8,10.2,14.9,10.2,14.8c0.1,0.1,0.1,0.1,0.1,0.2c0,0,0,0,0,0.1c0,0,0,0-0.1,0
	c-0.1,0-0.1,0-0.2,0c-0.1,0-0.1,0-0.1,0.1c0,0.1,0,0.1,0,0.2c0,0,0,0-0.1-0.1c0-0.1,0-0.1,0-0.2c0-0.1,0-0.1,0.1-0.1c0,0,0,0,0.1,0
	C10.2,15,10.2,15,10.2,14.8z"/>
<path class="st2" d="M9.7,15.3c0,0,0-0.1-0.1-0.2c0-0.1-0.1-0.1-0.2-0.1c-0.1,0-0.1,0-0.1,0.1c0,0,0,0.1,0,0.1c0,0-0.1-0.1-0.1-0.1
	c0-0.1,0-0.1,0-0.1c0,0,0.1,0,0.1,0C9.7,15,9.7,15,9.7,15.3C9.7,15.3,9.7,15.3,9.7,15.3z"/>
<path class="st2" d="M9.4,15.4c0.1-0.1,0.1-0.1,0.2-0.2c0,0.1,0,0.1,0,0.2c0,0.1,0,0.1-0.1,0.1C9.5,15.4,9.5,15.4,9.4,15.4z"/>
<path class="st2" d="M17.3,20.4c0-0.1,0.1-0.2,0.1-0.2c0-0.1,0.1-0.2,0.2-0.2C17.5,20.1,17.4,20.3,17.3,20.4
	C17.3,20.4,17.3,20.4,17.3,20.4z"/>
<path class="st2" d="M17.1,4.3c0-0.2,0-0.3-0.1-0.5C17.1,3.8,17.1,4.1,17.1,4.3z"/>
<path class="st2" d="M15.9,22.1c-0.3,0-0.6,0-0.9,0C15.3,22.1,15.6,22.1,15.9,22.1z"/>
<polyline class="st0" points="6.5,24.3 6.5,19.2 5.1,19.1 "/>
<g id="Layer_2">
</g>
</svg>
