<?xml version="1.0" encoding="iso-8859-1"?>
<!-- Generator: Adobe Illustrator 19.0.0, SVG Export Plug-In . SVG Version: 6.00 Build 0)  -->
<svg version="1.1" id="Layer_1" xmlns="http://www.w3.org/2000/svg" xmlns:xlink="http://www.w3.org/1999/xlink" x="0px" y="0px"
	 viewBox="0 0 20.875 22.25" style="enable-background:new 0 0 20.875 22.25;" xml:space="preserve">
<path style="fill:#FFFFFF;" d="M11.165,21.007c-0.041,0-0.082-0.005-0.127-0.011l-0.145-0.09c-0.022-0.135-0.022-0.266-0.022-0.395
	l-0.017-0.885c0-0.094,0.001-0.189-0.009-0.287c-0.042-0.004-0.084-0.005-0.126-0.005c-0.053,0-0.107,0.002-0.162,0.007
	c-0.008,0.096-0.008,0.188-0.009,0.28l-0.043,1.283l-0.084,0.095c-0.096,0.018-0.138,0.026-0.18,0.026l-3.72-0.007L6.415,20.92v0.1
	c-0.053,0-0.123-0.003-0.198-0.032l-0.064-0.085c-0.019-0.221-0.017-0.44-0.014-0.659c0,0,0.001-2.949-0.001-3.141l-0.093-0.029
	c-0.354-0.084-0.641-0.178-0.905-0.292c-0.887-0.386-1.486-1.05-1.78-1.976c-0.124-0.386-0.202-0.817-0.239-1.318
	c-0.014-0.183-0.016-0.367-0.019-0.55l-0.003-0.199l0.006-0.106l0.189-0.166c0.439,0.052,0.835,0.114,1.213,0.257
	c0.17,0.065,0.334,0.148,0.498,0.231c0.172,0.088,0.265,0.149,0.353,0.214c0.418,0.309,0.922,0.473,1.54,0.502
	c0,0,0.312,0.015,0.329,0.014c0.027-0.255,0.03-0.926,0.005-1.219c0,0-0.444-0.103-0.596-0.142c-0.289-0.073-0.567-0.174-0.829-0.3
	c-0.667-0.323-1.121-0.846-1.349-1.555C4.379,10.226,4.32,9.96,4.278,9.659C4.223,9.259,4.2,8.82,4.207,8.28l0.121-0.197
	c0.206,0.003,0.401,0.031,0.593,0.07c0.259,0.053,0.52,0.11,0.775,0.18C6,8.416,6.255,8.569,6.455,8.789
	c0.118,0.129,0.271,0.203,0.465,0.227l0.112,0.017c0.061,0.01,0.122,0.021,0.185,0.021c0.037-0.027,0.034-0.121,0.03-0.22V8.325
	L6.999,8.238C6.896,8.204,6.792,8.17,6.693,8.127C6.147,7.893,5.736,7.5,5.472,6.961c-0.155-0.314-0.262-0.668-0.328-1.08
	c-0.075-0.468-0.112-0.95-0.111-1.474l0.108-0.223c0.008,0,0.017,0,0.025,0c0.192,0,0.313,0.025,0.43,0.049
	C5.977,4.311,6.318,4.425,6.688,4.59l0.356,0.164c0.156,0.073,0.313,0.146,0.472,0.214c0.195,0.084,0.396,0.156,0.598,0.227
	c0.058,0.02,0.124,0.027,0.193,0.036l0.11,0.008c0.212,0,0.382-0.1,0.505-0.297c0.081-0.129,0.147-0.27,0.204-0.412
	c0.16-0.4,0.264-0.828,0.366-1.241l0.391-1.594c0.048-0.188,0.107-0.391,0.219-0.596l0.099-0.051
	c0.075,0.005,0.115,0.008,0.154,0.02c0.555,0.16,0.988,0.49,1.286,0.981c0.176,0.291,0.309,0.621,0.396,0.981
	c0.051,0.211,0.097,0.423,0.142,0.636l0.102,0.465c0.045,0.2,0.095,0.399,0.158,0.594c0.029,0.09,0.075,0.185,0.147,0.3
	c0.094,0.148,0.228,0.221,0.41,0.221c0.171-0.007,0.3-0.036,0.413-0.086c0.195-0.088,0.391-0.176,0.584-0.271
	c0.333-0.163,0.669-0.321,1.021-0.446c0.356-0.126,0.729-0.211,1.141-0.262l0.187,0.075l-0.072,0.116l0.1,0
	c0.004,0.599-0.013,1.239-0.16,1.859c-0.144,0.61-0.445,1.129-0.893,1.543c-0.242,0.223-0.475,0.351-0.733,0.403
	c-0.054,0.011-0.108,0.017-0.163,0.022c-0.187,0.022-0.191,0.03-0.205,0.113c-0.027,0.169-0.04,0.342-0.052,0.513
	c-0.005,0.069-0.004,0.135-0.002,0.206l0.001,0.098l0.027,0.025v-0.1c0.278-0.028,0.496-0.105,0.68-0.239
	c0.683-0.492,1.456-0.647,2.189-0.741l0.105,0.06l0.042,0.128c-0.007,0.696-0.029,1.377-0.224,2.046
	c-0.046,0.157-0.102,0.313-0.168,0.463c-0.248,0.555-0.652,0.965-1.201,1.221c-0.36,0.167-0.731,0.298-1.102,0.389l-0.203,0.056
	c-0.097,0.028-0.124,0.043-0.136,0.099l-0.014,0.936v0.286l0.041,0.048l0.01-0.1c0.086,0.008,0.172,0.013,0.257,0.013
	c0.378,0,0.733-0.088,1.055-0.261l0.864-0.466c0.097-0.054,0.219-0.13,0.307-0.241c0.064-0.083,0.156-0.131,0.273-0.145l1.026-0.123
	l0.142-0.002l0.159,0.08l0.022,0.118c-0.001,0.601-0.029,1.308-0.227,2c-0.043,0.149-0.093,0.297-0.152,0.44
	c-0.276,0.669-0.743,1.184-1.388,1.529c-0.325,0.173-0.696,0.309-1.169,0.426l-0.134,0.036c0.013,0.003,0.015,0.052,0.018,0.104
	l0.001,3.524l-0.007,0.131l-0.093,0.167c-0.097,0.014-0.138,0.02-0.178,0.02L11.165,21.007z M6.732,20.596l0-0.1l3.191,0.011
	l0.06-0.186l0.024-0.56c0.005-0.099,0.006-0.197,0.006-0.297c0.001-0.183,0.002-0.367,0.029-0.555l0.087-0.085
	c0.102-0.012,0.2-0.015,0.296-0.015l0.183,0.002l0.122,0.102v-0.1l0.265-0.006c0.123,0,0.219,0.011,0.31,0.035l0.075,0.092
	l0.01,0.249l0.02,1.2c0.001,0.038,0.007,0.076,0.013,0.117l0.162-0.013c0,0,2.799,0.038,3.069,0.039l0.073-0.011l0.001-3.499
	c-0.005-0.126-0.01-0.219,0.043-0.315l0.196-0.077l0.124-0.026c0.387-0.083,0.716-0.187,1.006-0.317
	c0.704-0.317,1.183-0.849,1.422-1.583c0.16-0.488,0.24-1.035,0.244-1.671l-0.112,0.024c-0.147,0.016-0.293,0.031-0.438,0.042
	c-0.089,0.007-0.144,0.028-0.193,0.078c-0.074,0.073-0.164,0.142-0.284,0.217c-0.385,0.241-0.796,0.458-1.22,0.644
	c-0.299,0.131-0.626,0.198-0.97,0.198l-0.678-0.021l-0.109-0.016l-0.109-0.075l-0.024-0.306c-0.001-0.392-0.003-0.784-0.001-1.177
	c0-0.089,0.018-0.176,0.037-0.258c0.043-0.191,0.165-0.33,0.352-0.398c0.093-0.035,0.189-0.062,0.286-0.085
	c0.397-0.097,0.753-0.221,1.089-0.378c0.409-0.193,0.713-0.494,0.903-0.896c0.063-0.132,0.119-0.269,0.161-0.409
	c0.136-0.458,0.202-0.954,0.206-1.56c-0.563,0.104-1.025,0.275-1.409,0.542c-0.074,0.052-0.152,0.098-0.23,0.144
	c-0.183,0.108-0.354,0.17-0.528,0.195c-0.163,0.023-0.328,0.033-0.492,0.043l-0.112,0.007l-0.12-0.011l-0.136-0.101
	c-0.014-0.206-0.012-0.401-0.002-0.595c0.012-0.22,0.023-0.44,0.059-0.655c0.057-0.343,0.203-0.482,0.558-0.531
	c0.295-0.01,0.509-0.112,0.733-0.327c0.321-0.308,0.544-0.674,0.663-1.089c0.126-0.438,0.185-0.913,0.188-1.539
	c-0.441,0.112-0.856,0.26-1.342,0.493l-0.242,0.119c-0.135,0.067-0.271,0.134-0.409,0.196c-0.159,0.071-0.322,0.139-0.49,0.177
	c-0.126,0.029-0.246,0.043-0.356,0.043c-0.425,0-0.735-0.21-0.948-0.642c-0.059-0.12-0.111-0.245-0.147-0.373
	c-0.07-0.247-0.132-0.498-0.189-0.748l-0.065-0.296c-0.063-0.289-0.125-0.577-0.218-0.858c-0.085-0.256-0.177-0.457-0.288-0.629
	c-0.169-0.265-0.375-0.446-0.63-0.554c-0.072,0.028-0.1,0.145-0.129,0.268L9.973,3.581C9.875,3.98,9.761,4.405,9.594,4.809
	c-0.088,0.214-0.182,0.38-0.295,0.524C9.07,5.622,8.78,5.77,8.438,5.77c-0.042,0-0.085-0.002-0.13-0.007
	c-0.095-0.01-0.203-0.021-0.304-0.055C7.79,5.638,7.576,5.562,7.368,5.474C7.195,5.4,7.025,5.321,6.855,5.242L6.559,5.104
	c-0.35-0.16-0.668-0.271-0.975-0.341L5.602,5.04C5.62,5.273,5.637,5.506,5.668,5.738C5.712,6.075,5.801,6.391,5.93,6.676
	c0.216,0.476,0.566,0.812,1.042,1c0.115,0.045,0.236,0.079,0.355,0.113l0.282,0.074L7.772,7.97C7.793,8.183,7.79,8.387,7.786,8.59
	l0,0.354c0.004,0.177,0.009,0.36-0.025,0.547L7.675,9.573L7.566,9.586L7.363,9.574C7.184,9.563,7.005,9.552,6.828,9.529
	C6.51,9.488,6.25,9.356,6.053,9.137c-0.126-0.142-0.294-0.244-0.5-0.303C5.374,8.783,5.191,8.743,5.009,8.703L4.884,8.675
	C4.841,8.665,4.797,8.66,4.752,8.654L4.748,8.692L4.76,8.881c0.014,0.23,0.028,0.461,0.053,0.691
	c0.028,0.258,0.085,0.519,0.169,0.774c0.187,0.558,0.547,0.968,1.073,1.217c0.078,0.037,0.157,0.071,0.236,0.103
	c0.282,0.113,0.597,0.2,1.02,0.281l0.373,0.073l0.078,0.076c0.032,0.134,0.028,0.258,0.025,0.377v1.267
	c0.002,0.123,0.004,0.246-0.017,0.37l-0.082,0.083l-0.122,0.019l-0.161,0.001c-0.402,0-0.729-0.022-1.029-0.07
	c-0.465-0.074-0.863-0.228-1.217-0.47c-0.098-0.067-0.198-0.132-0.298-0.195c-0.321-0.205-0.705-0.344-1.172-0.425l-0.041,0.192
	c0.012,0.194,0.023,0.387,0.046,0.58c0.044,0.36,0.119,0.681,0.229,0.979c0.244,0.658,0.686,1.146,1.316,1.45
	c0.27,0.129,0.567,0.232,0.883,0.303l0.466,0.102l0.079,0.095l0.007,0.285l0.001,3.334l-0.035,0.126L6.732,20.596z"/>
<path style="fill:#FFFFFF;" d="M13.182,19.824c-0.459,0-1.009-0.009-1.128-0.029l-0.083-0.089c-0.011-0.099-0.016-0.144-0.017-0.188
	l-0.002-0.267c-0.001-0.159-0.001-0.317-0.008-0.476c-0.004-0.107-0.022-0.219-0.053-0.331c-0.037-0.134-0.122-0.228-0.248-0.272
	c-0.104-0.036-0.215-0.071-0.321-0.079c-0.131-0.01-0.262-0.015-0.392-0.015c-0.33,0-0.654,0.035-0.961,0.103
	c-0.087,0.019-0.174,0.05-0.256,0.083c-0.132,0.055-0.208,0.147-0.233,0.28c-0.016,0.088-0.028,0.179-0.03,0.269
	c-0.002,0.133,0,0.646,0,0.646l-0.007,0.166l-0.03,0.121l-0.127-0.03l0,0.1l-1.75,0.008c-0.044,0-0.088-0.003-0.131-0.007
	L7.3,19.764l-0.049-0.107l-0.006-2.782l0.087-0.223c0.063-0.018,0.096-0.028,0.133-0.03l6.266-0.002l0.139,0.097v-0.1
	c0.056,0,0.128,0.004,0.202,0.034c0.096,0.293,0.095,2.838,0.061,3.07l-0.089,0.085C13.921,19.817,13.563,19.824,13.182,19.824z
	 M8.4,19.304c0.185,0,0.369-0.005,0.504-0.016l0.008-0.348c0-0.13,0.001-0.261,0.011-0.391c0.03-0.384,0.236-0.657,0.596-0.788
	c0.102-0.037,0.207-0.072,0.313-0.093c0.391-0.077,0.777-0.115,1.149-0.115c0.118,0,0.237,0.003,0.356,0.012
	c0.119,0.008,0.249,0.031,0.396,0.071c0.376,0.104,0.617,0.356,0.697,0.732c0.021,0.099,0.04,0.198,0.045,0.298
	c0.006,0.105,0.02,0.553,0.02,0.553l0.012,0.073L12.6,19.3l1.054-0.009l-0.035-2.146l-0.216-0.008l-5.492-0.001v-0.1l-0.068,0.102
	l-0.101,0.018l0.041,0.036l0.002,2.111c0.007-0.003,0.038-0.005,0.086-0.005C7.983,19.297,8.186,19.304,8.4,19.304z"/>
<path style="fill:#FFFFFF;" d="M14.034,19.705c-0.279,0.029-1.774,0.023-1.964-0.009c-0.006-0.058-0.016-0.119-0.017-0.181
	c-0.004-0.248,0-0.496-0.01-0.743c-0.005-0.119-0.025-0.239-0.056-0.353c-0.044-0.163-0.151-0.284-0.312-0.34
	c-0.112-0.039-0.23-0.076-0.347-0.085c-0.464-0.036-0.927-0.012-1.383,0.09c-0.093,0.021-0.184,0.053-0.272,0.089
	c-0.158,0.066-0.261,0.183-0.293,0.354c-0.017,0.094-0.03,0.19-0.032,0.285c-0.004,0.216,0.001,0.432,0,0.648
	c0,0.078-0.007,0.156-0.009,0.218c-0.02,0.022-0.025,0.029-0.031,0.033c-0.007,0.004-0.015,0.006-0.023,0.006
	c-0.583,0.003-1.167,0.005-1.75,0.008c-0.04,0-0.08-0.002-0.119-0.007c-0.015-0.002-0.028-0.012-0.042-0.019
	c-0.005-0.006-0.012-0.011-0.015-0.018c-0.004-0.007-0.007-0.015-0.007-0.022c-0.002-0.927-0.005-1.854-0.006-2.782
	c0-0.039,0.007-0.079,0.011-0.126c0.04-0.01,0.077-0.025,0.115-0.028c0.072-0.005,0.144-0.003,0.216-0.003
	c2.015,0,4.029,0,6.044,0.001c0.102,0,0.207-0.016,0.304,0.023C14.067,16.941,14.067,19.482,14.034,19.705z M9.001,19.379
	c0.003-0.09,0.007-0.168,0.009-0.246c0.004-0.192-0.002-0.384,0.013-0.575c0.027-0.343,0.203-0.583,0.53-0.702
	c0.097-0.035,0.197-0.069,0.298-0.089c0.489-0.095,0.982-0.135,1.48-0.102c0.127,0.008,0.254,0.035,0.376,0.068
	c0.338,0.093,0.552,0.311,0.626,0.657c0.02,0.093,0.038,0.189,0.043,0.284c0.011,0.184,0.011,0.368,0.019,0.551
	c0.002,0.053,0.017,0.105,0.026,0.163C12.49,19.393,12.545,19.4,12.6,19.4c0.352-0.002,0.703-0.005,1.055-0.009
	c0.013,0,0.027-0.014,0.051-0.027c0.004-0.022,0.014-0.053,0.014-0.083c0.001-0.712,0.001-1.424-0.001-2.135
	c0-0.029-0.015-0.059-0.026-0.101c-0.101-0.002-0.195-0.006-0.29-0.006c-1.8,0-3.599,0-5.399-0.001
	c-0.056,0-0.112-0.003-0.168,0.001c-0.045,0.003-0.09,0.015-0.139,0.023c-0.006,0.052-0.014,0.091-0.014,0.13
	c0,0.704,0.001,1.408,0.002,2.111c0,0.022,0.013,0.045,0.02,0.065C7.875,19.408,8.685,19.418,9.001,19.379z"/>
<polygon style="fill:#FF9800;" points="10.13,7.589 10.13,9.792 7.903,9.792 7.903,11.222 10.156,11.222 10.156,13.432 
	11.61,13.432 11.61,11.21 13.729,11.21 13.729,9.789 11.573,9.792 11.573,7.591 "/>
</svg>
