<?xml version="1.0" encoding="iso-8859-1"?>
<!-- Generator: Adobe Illustrator 19.0.0, SVG Export Plug-In . SVG Version: 6.00 Build 0)  -->
<svg version="1.1" id="Layer_1" xmlns="http://www.w3.org/2000/svg" xmlns:xlink="http://www.w3.org/1999/xlink" x="0px" y="0px"
	 viewBox="0 0 16.5 21.813" style="enable-background:new 0 0 16.5 21.813;" xml:space="preserve">
<path id="XMLID_292_" style="fill:#FFFFFF;" d="M7.078,21.607c-0.012-0.01-0.023-0.026-0.036-0.03
	c-0.406-0.1-0.747-0.321-1.07-0.572c-0.222-0.172-0.424-0.365-0.604-0.582c-0.025-0.03-0.053-0.058-0.087-0.095
	c-0.139,0.092-0.242,0.214-0.359,0.321c-0.124,0.113-0.245,0.23-0.367,0.346c-0.116,0.109-0.231,0.219-0.352,0.333
	c-0.054-0.026-0.097-0.044-0.138-0.067c-0.614-0.347-1.19-0.748-1.743-1.186c-0.552-0.437-0.921-0.989-1.129-1.658
	c-0.128-0.413-0.233-0.832-0.291-1.26c-0.023-0.173-0.023-0.351-0.015-0.526c0.012-0.246,0.138-0.42,0.372-0.509
	c0.06-0.023,0.119-0.046,0.18-0.067c0.451-0.154,0.789-0.445,1.033-0.851c0.188-0.312,0.308-0.651,0.379-1.005
	c0.077-0.384,0.139-0.771,0.194-1.158c0.073-0.506,0.124-1.016,0.238-1.516c0.094-0.416,0.238-0.812,0.462-1.177
	c0.134-0.218,0.26-0.441,0.382-0.666c0.278-0.515,0.598-1.003,0.947-1.471c0.11-0.147,0.217-0.297,0.327-0.444
	C5.835,7.19,6.151,6.557,6.354,5.867C6.399,5.713,6.445,5.56,6.499,5.41c0.032-0.09,0.071-0.179,0.12-0.261
	c0.094-0.158,0.236-0.254,0.417-0.298c0.39-0.096,0.874,0.004,1.156,0.475C8.249,5.421,8.297,5.52,8.357,5.633
	C8.407,5.588,8.45,5.555,8.484,5.514c0.187-0.231,0.401-0.436,0.628-0.626c0.718-0.601,1.444-1.191,2.201-1.741
	c0.323-0.235,0.658-0.454,0.993-0.671c0.133-0.086,0.281-0.151,0.425-0.22c0.181-0.087,0.374-0.107,0.559-0.028
	c0.139,0.059,0.244,0.03,0.353-0.055c0.132-0.104,0.264-0.208,0.403-0.303c0.178-0.122,0.356-0.244,0.544-0.349
	c0.175-0.098,0.368-0.154,0.57-0.174c0.085-0.008,0.155,0.01,0.218,0.071c0.133,0.129,0.257,0.263,0.349,0.424
	c0.161,0.281,0.188,0.575,0.08,0.878c-0.042,0.12-0.098,0.237-0.162,0.347c-0.083,0.143-0.102,0.28-0.022,0.431
	c0.099,0.188,0.094,0.384,0.023,0.581c-0.03,0.082-0.056,0.166-0.086,0.257c0.03,0.029,0.055,0.06,0.086,0.081
	C15.887,4.578,15.978,4.818,16,5.093c0.021,0.258-0.018,0.511-0.069,0.762c-0.045,0.219-0.093,0.438-0.14,0.657
	c-0.048,0.22-0.068,0.439-0.032,0.665c0.081,0.505,0.156,1.011,0.221,1.519c0.049,0.388,0.087,0.778,0.045,1.172
	c-0.042,0.385-0.135,0.756-0.292,1.108c-0.143,0.321-0.295,0.639-0.462,0.948c-0.221,0.408-0.452,0.81-0.695,1.205
	c-0.437,0.712-0.789,1.462-1.074,2.246c-0.169,0.466-0.346,0.929-0.529,1.389c-0.151,0.379-0.334,0.744-0.555,1.088
	c-0.621,0.968-1.511,1.542-2.623,1.787c-0.417,0.092-0.476,0.119-0.685,0.487c-0.118,0.208-0.214,0.429-0.318,0.645
	c-0.059,0.122-0.108,0.25-0.169,0.371c-0.095,0.189-0.251,0.31-0.454,0.363c-0.1,0.026-0.204,0.038-0.306,0.057
	c-0.07,0.014-0.139,0.03-0.209,0.045C7.462,21.607,7.27,21.607,7.078,21.607z M6.787,21.125c0.026,0.055,0.071,0.047,0.117,0.035
	c0.006,0.049,0.042,0.057,0.081,0.053c0.029-0.003,0.058-0.015,0.086-0.023c0.002,0.013,0.004,0.026,0.006,0.039
	c0.001,0.007-0.001,0.016,0.003,0.02c0.004,0.004,0.014,0.003,0.021,0.004c-0.005-0.009-0.009-0.017-0.014-0.026
	c-0.006-0.012-0.011-0.024-0.017-0.036c-0.058-0.008-0.115-0.016-0.174-0.023c-0.038-0.012-0.077-0.024-0.115-0.036
	c-0.031-0.017-0.063-0.034-0.094-0.051c-0.029-0.044-0.072-0.04-0.116-0.031c-0.002-0.011-0.004-0.023-0.006-0.034
	c0.004,0.01,0.008,0.021,0.014,0.029c0.038,0.01,0.076,0.02,0.114,0.03C6.706,21.124,6.749,21.12,6.787,21.125z M6.044,7.474
	C6.031,7.472,6.018,7.47,6.005,7.47c-0.004,0-0.007,0.008-0.011,0.013C6.01,7.478,6.025,7.474,6.039,7.467
	C6.043,7.453,6.047,7.439,6.05,7.425c0-0.003-0.007-0.007-0.011-0.01C6.041,7.434,6.042,7.454,6.044,7.474z M11.418,13.65
	c0.046-0.017,0.058-0.053,0.052-0.098c0.072,0.024,0.095-0.061,0.153-0.068c0.004-0.047,0.008-0.094,0.012-0.141
	c0.047-0.017,0.049-0.055,0.047-0.096c0.05-0.012,0.048-0.053,0.051-0.092c0.018-0.031,0.036-0.062,0.053-0.093
	c0.012-0.047,0.025-0.094,0.038-0.141c0.007-0.01,0.015-0.021,0.022-0.031c-0.005,0.013-0.011,0.025-0.016,0.038
	c-0.04,0.04-0.049,0.087-0.037,0.14c-0.064,0.005-0.054,0.052-0.054,0.093c-0.057,0.008-0.049,0.053-0.051,0.092
	c-0.05,0.015-0.046,0.056-0.047,0.096c-0.07,0.037-0.027,0.089-0.018,0.136c-0.037-0.006-0.073-0.017-0.1,0.025
	c-0.012,0.018-0.036,0.029-0.054,0.043c0.007,0.046-0.005,0.081-0.051,0.101c0.001,0.014,0,0.028,0.003,0.041
	c0.001,0.007,0.009,0.012,0.015,0.017c-0.001-0.007,0-0.015-0.002-0.021C11.429,13.678,11.423,13.664,11.418,13.65z M12.584,16.776
	c0.01-0.007,0.021-0.014,0.031-0.02c-0.011,0.008-0.023,0.016-0.034,0.025c0.001,0.013,0.001,0.025,0.002,0.038
	C12.584,16.804,12.584,16.79,12.584,16.776z M12.67,16.535c0.017-0.005,0.033-0.01,0.018-0.005c0.014-0.008-0.001,0.001-0.014,0.012
	c-0.002,0.013-0.004,0.026-0.006,0.039c-0.001,0.006-0.001,0.013-0.002,0.019c0.005-0.009,0.015-0.017,0.015-0.026
	C12.681,16.561,12.674,16.548,12.67,16.535z M1.673,16.351c0.002-0.01,0.004-0.021,0.007-0.031c0.006,0.002,0.012,0.003,0.018,0.005
	c-0.007,0.006-0.014,0.012-0.02,0.017c-0.011,0.002-0.021,0.003-0.032,0.005c0.003-0.009,0.005-0.018,0.008-0.027
	C1.66,16.331,1.666,16.341,1.673,16.351z M4.025,10.6c-0.046,0.02-0.044,0.061-0.044,0.102c-0.068,0.009-0.062,0.049-0.04,0.095
	c-0.053-0.003-0.093,0.005-0.066,0.073c-0.019,0.008-0.05,0.01-0.056,0.023c-0.1,0.215-0.183,0.436-0.203,0.675
	c-0.078,0.146-0.075,0.311-0.105,0.469c-0.023,0.057-0.035,0.115,0.01,0.173c-0.005-0.06-0.01-0.119-0.015-0.179
	c0.078-0.112,0.116-0.283,0.104-0.468c0.017-0.013,0.045-0.022,0.051-0.039c0.071-0.22,0.139-0.441,0.207-0.662
	c0.023-0.024,0.047-0.047,0.068-0.073c-0.003-0.039,0.003-0.073,0.045-0.089c-0.007-0.045,0.005-0.081,0.047-0.103
	c-0.005-0.005-0.011-0.009-0.013-0.015c-0.001-0.004,0.004-0.01,0.006-0.015C4.022,10.578,4.023,10.589,4.025,10.6z M13.863,10.694
	c-0.012,0.003-0.023,0.006-0.038,0.01c0.015-0.006,0.027-0.01,0.038-0.017c0.001-0.016,0.001-0.031,0-0.002
	C13.863,10.659,13.863,10.677,13.863,10.694z M14.641,7.023c0.043-0.019,0.071-0.043,0.038-0.093
	c0.029,0.005,0.064,0.023,0.085,0.013c0.063-0.03,0.12-0.072,0.176-0.106c0.041-0.267,0.034-0.393-0.027-0.52
	c-0.024,0.089-0.042,0.173-0.071,0.254c-0.045,0.124-0.065,0.261-0.159,0.365c0.004,0.038,0.001,0.072-0.042,0.089
	c-0.004,0.052-0.009,0.104-0.013,0.155c-0.025,0.015-0.057,0.025-0.072,0.046c-0.171,0.24-0.34,0.481-0.508,0.723
	c-0.006,0.009,0.002,0.028,0.005,0.049c0.131-0.05,0.212-0.188,0.351-0.214c0.034,0.247,0.067,0.482,0.097,0.718
	c0.008,0.063,0.018,0.127,0.014,0.19c-0.017,0.239-0.058,0.472-0.168,0.689c0.004,0.006,0.009,0.011,0.011,0.018
	c0.002,0.006,0,0.012,0,0.019c-0.003-0.013-0.006-0.025-0.008-0.038c0.028-0.003,0.065,0.004,0.082-0.011
	c0.07-0.063,0.134-0.133,0.2-0.201c0.032-0.033,0.06-0.069,0.09-0.104c-0.028-0.084-0.053-0.159-0.079-0.233
	c-0.135-0.388-0.185-0.785-0.115-1.192c0.027-0.156,0.064-0.31,0.095-0.466C14.628,7.122,14.634,7.072,14.641,7.023z M13.344,14.758
	c0.008-0.004,0.017-0.008,0.025-0.013c0,0.007-0.001,0.014-0.001,0.02c-0.01-0.002-0.02-0.003-0.029-0.005
	c0.019,0.01,0.041,0.02,0.002,0.034C13.342,14.783,13.343,14.771,13.344,14.758z M7.945,5.569c0.007,0.042,0.014,0.085,0.021,0.127
	C8.021,5.79,8.064,5.888,8.055,6.001C8.13,6.152,8.104,6.303,8.06,6.455C8.039,6.529,8.013,6.602,7.99,6.676
	C7.98,6.683,7.969,6.69,7.96,6.699C7.959,6.7,7.964,6.708,7.966,6.714C7.972,6.699,7.978,6.684,7.984,6.67
	C8.008,6.653,8.038,6.64,8.056,6.618c0.167-0.211,0.332-0.422,0.496-0.635c0.014-0.019,0.058-0.04,0.017-0.077
	C8.431,5.976,8.33,6.109,8.18,6.143C8.12,6.098,8.141,6.004,8.055,6.001c0.044-0.1,0.025-0.194-0.031-0.281
	c-0.009-0.014-0.04-0.015-0.058-0.024c0.026-0.048,0.039-0.093-0.026-0.122c0-0.014,0-0.029-0.002-0.043
	C7.936,5.525,7.93,5.52,7.925,5.514C7.92,5.525,7.908,5.54,7.911,5.546C7.917,5.557,7.933,5.562,7.945,5.569z M2.854,15.215
	c0.005-0.005,0.009-0.009,0.014-0.014c-0.002,0.007-0.005,0.013-0.007,0.02c-0.008,0.012-0.016,0.024-0.023,0.035
	C2.843,15.243,2.848,15.229,2.854,15.215z M13.282,15.051c-0.027,0.032-0.055,0.063-0.08,0.098c-0.002,0.013-0.005,0.027-0.005,0.04
	c0,0.005,0.009,0.009,0.014,0.014c0-0.007,0.001-0.014-0.001-0.021c-0.003-0.014-0.008-0.027-0.012-0.041
	c0.055-0.009,0.065-0.055,0.078-0.099c0.002-0.013,0.004-0.026,0.006-0.039C13.282,15.02,13.282,15.035,13.282,15.051z
	 M12.983,15.807c-0.055,0.053-0.043,0.114-0.019,0.175c-0.061,0.009-0.078,0.048-0.072,0.104c-0.052,0.02-0.046,0.066-0.047,0.109
	c-0.023,0.038-0.047,0.075-0.068,0.115c-0.005,0.013-0.011,0.025-0.015,0.038c-0.002,0.006,0.001,0.012,0.001,0.018
	c0.006-0.008,0.018-0.016,0.018-0.024c0.001-0.013-0.006-0.026-0.01-0.039c0.063-0.014,0.063-0.065,0.067-0.114
	c0.016-0.036,0.031-0.072,0.047-0.109c0.026-0.033,0.051-0.067,0.075-0.103c0.006-0.059,0.011-0.117,0.017-0.176
	c0.051-0.021,0.045-0.067,0.048-0.11c0.057-0.048,0.049-0.107,0.027-0.168c0.058-0.006,0.071-0.05,0.081-0.097
	c0.008-0.012,0.016-0.024,0.023-0.036c0.001-0.002-0.006-0.009-0.009-0.013c-0.003,0.019-0.005,0.038-0.007,0.057
	c-0.028,0.031-0.056,0.062-0.083,0.096c-0.008,0.056-0.017,0.112-0.025,0.168C13.015,15.734,12.999,15.77,12.983,15.807z
	 M6.63,6.021C6.683,5.997,6.691,5.951,6.689,5.9C6.74,5.786,6.786,5.668,6.844,5.558c0.061-0.116,0.134-0.226,0.203-0.342
	C6.926,5.26,6.9,5.276,6.848,5.388C6.772,5.552,6.706,5.722,6.696,5.907C6.673,5.945,6.651,5.984,6.628,6.024
	C6.629,6.037,6.63,6.05,6.632,6.064C6.631,6.049,6.631,6.035,6.63,6.021z M15.22,4.203c0.054-0.024,0.073-0.066,0.062-0.122
	C15.37,4,15.383,3.893,15.384,3.783c0.001-0.062-0.013-0.123-0.093-0.173c-0.001,0.169-0.002,0.322-0.003,0.475
	c-0.025,0.04-0.049,0.081-0.073,0.121c0.002,0.01,0.004,0.021,0.006,0.031C15.221,4.226,15.22,4.214,15.22,4.203z M1.494,18.322
	c0-0.017,0-0.035,0-0.052c-0.001,0-0.003,0-0.004,0c0.001,0.017,0.002,0.033,0.003,0.05c0.012,0.051,0.025,0.103,0.037,0.154
	c0.04,0.086,0.082,0.17,0.12,0.257c0.112,0.257,0.245,0.499,0.444,0.7c0.016,0.016,0.034,0.059,0.079,0.016
	c-0.021-0.031-0.042-0.064-0.065-0.095c-0.174-0.228-0.321-0.473-0.447-0.73c-0.021-0.043-0.04-0.087-0.068-0.125
	c-0.011-0.015-0.042-0.015-0.062-0.024C1.556,18.413,1.562,18.359,1.494,18.322z M1.927,16.257c0.026-0.025,0.054-0.049,0.077-0.076
	c0.013-0.015,0.02-0.035,0.029-0.053c0.076,0.015,0.119-0.026,0.15-0.089c0.171-0.061,0.27-0.197,0.376-0.336
	c-0.022-0.009-0.031-0.015-0.033-0.013c-0.104,0.097-0.208,0.194-0.31,0.293c-0.015,0.014-0.019,0.04-0.029,0.06
	c-0.07-0.004-0.114,0.036-0.148,0.09c-0.066,0.013-0.121,0.036-0.111,0.119c-0.006-0.003-0.013-0.006-0.019-0.009
	C1.915,16.248,1.921,16.252,1.927,16.257z M11.725,8.73c-0.047-0.016-0.089-0.016-0.116,0.035c-0.011,0.021-0.019,0.043-0.028,0.065
	c-0.044,0.044-0.045,0.09-0.005,0.138C11.553,8.963,11.53,8.959,11.5,8.955c-0.138,0.214-0.26,0.437-0.358,0.672
	c-0.012,0.03-0.012,0.065-0.017,0.097c0.127-0.134,0.192-0.297,0.273-0.451c0.055-0.104,0.116-0.205,0.172-0.31
	c0.001-0.047,0.003-0.094,0.004-0.14c0.02-0.007,0.043-0.01,0.06-0.022c0.031-0.021,0.057-0.048,0.083-0.075
	c-0.001-0.048-0.001-0.097-0.002-0.145c0.007,0.002,0.018,0.007,0.022,0.004c0.117-0.099,0.202-0.219,0.234-0.372
	c0.122-0.099,0.149-0.136,0.232-0.344c-0.111,0.126-0.208,0.211-0.227,0.348c-0.023,0.017-0.054,0.03-0.068,0.052
	c-0.065,0.104-0.125,0.21-0.186,0.317C11.68,8.635,11.686,8.683,11.725,8.73z M2.72,15.475c-0.068,0.005-0.083,0.047-0.09,0.15
	c0.042-0.078,0.063-0.117,0.084-0.156c0.01-0.01,0.021-0.02,0.03-0.031c0.001-0.002-0.006-0.01-0.01-0.016
	C2.729,15.439,2.725,15.457,2.72,15.475z M13.411,4.515c0.096-0.033,0.133-0.114,0.166-0.199c-0.076,0.05-0.143,0.107-0.162,0.203
	c-0.079,0.024-0.112,0.085-0.124,0.161C13.35,4.639,13.413,4.601,13.411,4.515z M7.274,7.74C7.135,7.853,7.082,7.926,7.033,8.073
	c-0.133,0.103-0.171,0.158-0.211,0.32c0.084-0.113,0.188-0.191,0.206-0.325c0.129-0.076,0.192-0.2,0.241-0.334
	C7.295,7.709,7.322,7.684,7.37,7.638C7.284,7.656,7.268,7.691,7.274,7.74z M9.812,8.693c0.122-0.082,0.199-0.196,0.24-0.335
	c0.078-0.019,0.098-0.084,0.121-0.148c-0.066,0.03-0.109,0.078-0.116,0.152c-0.141,0.116-0.191,0.186-0.24,0.335
	C9.743,8.717,9.709,8.764,9.72,8.841c-0.024,0.016-0.058,0.027-0.072,0.05C9.569,9.027,9.494,9.166,9.42,9.305
	c-0.013,0.023-0.013,0.053-0.031,0.13c0.156-0.197,0.232-0.38,0.328-0.551c0.007-0.012,0-0.03,0-0.046
	C9.787,8.815,9.821,8.768,9.812,8.693z M15.267,3.383c-0.007,0.014-0.014,0.027-0.02,0.041C15.253,3.41,15.26,3.397,15.267,3.383
	c-0.015-0.049-0.03-0.098-0.048-0.157c-0.063,0.009-0.115,0.016-0.166,0.024c-0.002,0-0.002,0.013-0.003,0.032
	c0.048,0.038,0.1,0.083,0.156,0.12C15.216,3.409,15.246,3.389,15.267,3.383z M15.417,2.731c0.019-0.008,0.049-0.011,0.056-0.026
	c0.062-0.115,0.083-0.24,0.079-0.369c-0.001-0.036-0.003-0.082-0.057-0.094c-0.025,0.165-0.049,0.329-0.073,0.494
	c-0.008,0.012-0.017,0.025-0.024,0.038c-0.001,0.002,0.008,0.009,0.012,0.013C15.414,2.769,15.415,2.75,15.417,2.731z M12.358,2.839
	c0.198-0.041,0.36-0.161,0.538-0.244c0.024-0.011,0.061-0.03,0.022-0.078c-0.194,0.066-0.373,0.165-0.541,0.285
	c-0.01,0.007-0.01,0.028-0.014,0.042c-0.02,0.003-0.039,0.006-0.059,0.008c0.006,0.009,0.011,0.017,0.017,0.026
	C12.333,2.865,12.345,2.852,12.358,2.839z M8.442,20.826c-0.022,0.001-0.052-0.008-0.064,0.004c-0.13,0.123-0.258,0.25-0.38,0.37
	c0.173-0.019,0.25-0.061,0.338-0.194c0.039-0.059,0.073-0.121,0.109-0.181c-0.003-0.007-0.008-0.013-0.009-0.02
	c-0.001-0.005,0.002-0.011,0.003-0.016C8.439,20.801,8.44,20.813,8.442,20.826z M8.253,8.923C8.207,8.912,8.177,8.935,8.154,8.97
	C8.057,9.115,7.962,9.261,7.868,9.408C7.863,9.416,7.873,9.434,7.879,9.456c0.099-0.051,0.145-0.144,0.197-0.229
	C8.138,9.127,8.195,9.023,8.254,8.92C8.253,8.902,8.251,8.884,8.25,8.865c-0.001,0-0.001,0-0.002,0
	C8.25,8.885,8.251,8.904,8.253,8.923z M13.738,2.491c-0.064,0.03-0.126,0.067-0.193,0.087c-0.065,0.019-0.135,0.021-0.207,0.031
	c0.015,0.079,0.051,0.133,0.13,0.173c0.088-0.078,0.177-0.154,0.262-0.234c0.011-0.01,0.002-0.042,0.003-0.063
	c0.045,0.023,0.078,0.023,0.088-0.047C13.789,2.459,13.763,2.475,13.738,2.491z M9.321,19.386c-0.125,0.02-0.249,0.04-0.374,0.062
	C8.94,19.45,8.935,19.47,8.93,19.479c0.027,0.013,0.054,0.026,0.083,0.04c-0.026,0.076-0.048,0.142-0.07,0.209
	c-0.009,0.012-0.018,0.023-0.025,0.036c-0.001,0.001,0.008,0.009,0.013,0.014c0.002-0.018,0.004-0.036,0.005-0.054
	c0.015,0,0.035,0.008,0.044,0c0.114-0.098,0.227-0.198,0.338-0.299c0.007-0.006,0-0.028,0-0.042c0.042,0.02,0.082,0.025,0.153-0.035
	C9.395,19.367,9.358,19.377,9.321,19.386z M14.464,1.968c0.03-0.004,0.064,0,0.091-0.012c0.109-0.047,0.213-0.109,0.325-0.145
	c0.11-0.035,0.229-0.044,0.344-0.065c-0.008-0.08-0.066-0.082-0.122-0.071c-0.235,0.046-0.456,0.126-0.632,0.298
	c-0.044,0.006-0.085,0.016-0.09,0.074C14.424,2.034,14.47,2.028,14.464,1.968z M9.577,16.378c-0.021,0.008-0.048,0.01-0.062,0.025
	c-0.214,0.225-0.427,0.452-0.639,0.679c-0.01,0.011-0.006,0.036-0.01,0.068c0.035-0.02,0.058-0.028,0.075-0.043
	c0.229-0.2,0.426-0.43,0.615-0.667c0.013-0.016,0.011-0.044,0.017-0.066c0.125-0.089,0.125-0.089,0.164-0.224
	C9.67,16.228,9.586,16.276,9.577,16.378z M12.958,9.641c-0.075-0.024-0.096,0.035-0.123,0.082c-0.184,0.329-0.302,0.682-0.382,1.049
	c-0.015,0.068-0.026,0.137-0.039,0.205c0.047-0.06,0.071-0.127,0.095-0.193c0.123-0.336,0.244-0.672,0.37-1.007
	c0.019-0.05,0.055-0.092,0.083-0.138c0-0.01,0-0.02,0-0.03C12.961,9.619,12.959,9.63,12.958,9.641z M4.033,20.513
	c0.09-0.079,0.171-0.144,0.245-0.216c0.467-0.453,0.981-0.844,1.521-1.205c0.432-0.289,0.857-0.589,1.277-0.894
	c1.821-1.323,3.197-3.026,4.255-4.999c0.167-0.311,0.301-0.635,0.41-0.97c0.15-0.464,0.28-0.934,0.378-1.412
	c0.127-0.619,0.367-1.19,0.716-1.715c0.133-0.2,0.264-0.401,0.404-0.595c0.22-0.304,0.452-0.601,0.671-0.906
	c0.149-0.208,0.294-0.419,0.424-0.639c0.22-0.374,0.309-0.786,0.316-1.217c0.001-0.043-0.017-0.085-0.026-0.126
	c-0.112,0.002-0.154,0.075-0.201,0.137c-0.082,0.109-0.154,0.225-0.242,0.328c-0.352,0.414-0.701,0.832-1.065,1.235
	c-0.377,0.417-0.717,0.859-1.016,1.334c-0.171,0.271-0.324,0.551-0.466,0.838c-0.096,0.193-0.203,0.381-0.32,0.562
	c-0.114,0.176-0.269,0.313-0.458,0.404c-0.019-0.016-0.033-0.024-0.041-0.036c-0.129-0.197-0.118-0.41-0.063-0.624
	c0.054-0.21,0.14-0.409,0.248-0.596c0.24-0.415,0.484-0.828,0.733-1.238c0.134-0.22,0.306-0.409,0.495-0.584
	c0.129-0.119,0.249-0.249,0.361-0.384c0.322-0.388,0.64-0.778,0.954-1.172c0.245-0.307,0.504-0.6,0.806-0.853
	c0.193-0.161,0.338-0.361,0.459-0.58c0.094-0.171,0.149-0.353,0.171-0.546c0.01-0.087,0.013-0.175-0.057-0.242
	c-0.154,0.025-0.158,0.02-0.247,0.088c-0.114,0.087-0.232,0.174-0.329,0.278c-0.217,0.234-0.435,0.47-0.63,0.723
	c-0.589,0.76-1.225,1.477-1.922,2.14c-0.121,0.116-0.241,0.235-0.35,0.362c-0.284,0.336-0.564,0.675-0.841,1.017
	c-0.307,0.379-0.596,0.772-0.821,1.208C9.75,9.481,9.711,9.542,9.672,9.601c-0.166,0.249-0.4,0.381-0.703,0.41
	C8.963,9.975,8.955,9.944,8.953,9.913c-0.01-0.212,0.046-0.412,0.124-0.606C9.176,9.061,9.31,8.834,9.456,8.614
	c0.284-0.427,0.603-0.828,0.949-1.205c0.465-0.507,0.936-1.008,1.416-1.501c0.352-0.362,0.681-0.74,0.981-1.147
	c0.227-0.309,0.474-0.604,0.722-0.896c0.181-0.214,0.389-0.403,0.616-0.569c0.215-0.157,0.446-0.281,0.707-0.344
	c0.053-0.013,0.107-0.024,0.16-0.036c0.095-0.196,0.142-0.398,0.177-0.603c0.007-0.039,0.005-0.08,0.003-0.12
	c-0.005-0.091-0.059-0.138-0.142-0.108c-0.12,0.042-0.244,0.085-0.35,0.152c-0.208,0.133-0.412,0.276-0.606,0.429
	c-0.415,0.327-0.803,0.686-1.174,1.061c-0.681,0.688-1.354,1.383-2.032,2.073C10.19,6.505,9.584,7.277,9.066,8.119
	C8.84,8.487,8.613,8.853,8.421,9.241c-0.063,0.128-0.142,0.251-0.23,0.364C8.059,9.776,7.879,9.87,7.649,9.895
	C7.6,9.795,7.554,9.703,7.512,9.609C7.473,9.523,7.485,9.436,7.527,9.355c0.029-0.057,0.067-0.109,0.101-0.163
	C7.783,8.949,7.94,8.708,8.092,8.464c0.19-0.305,0.372-0.616,0.566-0.919c0.54-0.844,1.137-1.645,1.841-2.36
	c0.601-0.61,1.209-1.212,1.813-1.818c0.047-0.047,0.111-0.084,0.136-0.171c-0.04,0.015-0.063,0.02-0.082,0.03
	c-0.07,0.039-0.139,0.079-0.207,0.12c-0.735,0.444-1.413,0.964-2.057,1.53c-0.82,0.722-1.56,1.513-2.144,2.444
	C7.711,7.713,7.429,8.083,7.157,8.458C7.053,8.6,6.934,8.73,6.814,8.859C6.755,8.922,6.685,8.98,6.61,9.023
	C6.465,9.107,6.286,9.018,6.27,8.852C6.262,8.776,6.273,8.69,6.301,8.619c0.051-0.125,0.112-0.248,0.186-0.361
	c0.145-0.22,0.301-0.433,0.454-0.648c0.19-0.267,0.386-0.53,0.573-0.8c0.082-0.118,0.153-0.244,0.217-0.373
	c0.034-0.07,0.064-0.154,0.057-0.229c-0.024-0.26-0.115-0.498-0.29-0.697C7.392,5.391,7.304,5.4,7.211,5.541
	c-0.052,0.08-0.093,0.168-0.13,0.256C7.045,5.885,7.018,5.977,6.988,6.069C6.684,7.016,6.23,7.88,5.582,8.64
	C5.307,8.964,5.074,9.318,4.866,9.688c-0.197,0.348-0.392,0.697-0.573,1.053c-0.098,0.191-0.177,0.394-0.246,0.597
	c-0.144,0.425-0.213,0.869-0.282,1.311c-0.081,0.513-0.154,1.028-0.245,1.539c-0.075,0.418-0.195,0.824-0.382,1.208
	C2.842,16,2.386,16.424,1.749,16.647c-0.059,0.021-0.117,0.045-0.174,0.068c-0.004,0.044-0.011,0.076-0.008,0.107
	c0.011,0.143,0.02,0.287,0.037,0.43c0.091,0.756,0.357,1.439,0.849,2.028C2.886,19.797,3.423,20.179,4.033,20.513z M8.201,19.353
	c0.149-0.109,0.327-0.153,0.507-0.188c0.282-0.055,0.567-0.097,0.85-0.151c0.702-0.134,1.319-0.429,1.816-0.954
	c0.038-0.041,0.078-0.08,0.12-0.117c0.313-0.276,0.533-0.614,0.682-1.001c0.204-0.529,0.42-1.054,0.616-1.587
	c0.279-0.76,0.613-1.494,1.018-2.195c0.248-0.429,0.507-0.852,0.749-1.285c0.183-0.328,0.359-0.661,0.516-1.001
	c0.249-0.539,0.347-1.111,0.332-1.704c-0.017-0.651-0.14-1.286-0.278-1.92c-0.007-0.034-0.036-0.064-0.055-0.097
	c-0.115,0.03-0.147,0.116-0.169,0.199c-0.084,0.319-0.132,0.64-0.071,0.972c0.05,0.269,0.139,0.524,0.248,0.775
	c-0.055,0.112-0.128,0.209-0.225,0.28c-0.116,0.084-0.187,0.196-0.239,0.323c-0.085,0.207-0.166,0.416-0.25,0.623
	c-0.099,0.245-0.208,0.485-0.351,0.708c-0.118,0.183-0.256,0.348-0.429,0.481c-0.213,0.163-0.45,0.266-0.736,0.289
	c-0.003-0.323,0.03-0.617,0.304-0.825c0.202-0.153,0.343-0.355,0.455-0.58c0.204-0.409,0.372-0.832,0.502-1.269
	c0.036-0.122,0.061-0.249,0.078-0.375c0.015-0.118,0.009-0.238-0.057-0.343c-0.023,0.004-0.042,0.002-0.052,0.011
	c-0.031,0.025-0.061,0.052-0.088,0.081C13.8,8.718,13.64,8.957,13.498,9.208c-0.233,0.412-0.417,0.847-0.562,1.296
	c-0.188,0.586-0.365,1.175-0.533,1.767c-0.17,0.596-0.404,1.16-0.726,1.691c-0.566,0.931-1.184,1.824-1.871,2.67
	c-0.283,0.349-0.593,0.67-0.941,0.956C7.92,18.367,6.949,19.11,5.93,19.79c-0.052,0.034-0.1,0.073-0.151,0.111
	c0.016,0.032,0.022,0.056,0.037,0.073c0.327,0.37,0.705,0.675,1.161,0.87C7.108,20.9,7.25,20.94,7.391,20.963
	c0.284,0.045,0.52-0.049,0.694-0.282c0.029-0.038,0.057-0.078,0.078-0.12c0.111-0.221,0.22-0.444,0.329-0.667
	c0.01-0.02,0.008-0.045,0.013-0.072c-0.025-0.01-0.046-0.02-0.067-0.025c-0.023-0.006-0.048-0.004-0.071-0.01
	c-0.101-0.028-0.126-0.06-0.137-0.168C8.222,19.533,8.212,19.448,8.201,19.353z M10.053,6.151c0.011,0.011,0.022,0.023,0.033,0.034
	c0.669-0.696,1.338-1.392,2.007-2.088c0.007-0.008,0.004-0.026,0.008-0.064c-0.037,0.025-0.063,0.038-0.082,0.057
	c-0.61,0.6-1.216,1.204-1.788,1.841C10.169,6.001,10.113,6.078,10.053,6.151z M4.076,20.891c0.04,0.017,0.062,0.035,0.077,0.03
	c0.029-0.009,0.056-0.028,0.079-0.049c0.288-0.273,0.576-0.548,0.862-0.823c0.005-0.005-0.004-0.025-0.011-0.054
	C4.751,20.29,4.425,20.58,4.076,20.891z M15.258,5.793c0.098-0.215,0.054-0.435,0.029-0.653c-0.007-0.061-0.01-0.128-0.081-0.157
	c-0.015,0.008-0.039,0.014-0.04,0.024C15.13,5.277,15.241,5.529,15.258,5.793z M15.069,6.81c0.244,0.018,0.244,0.018,0.347,0.088
	c0.02-0.156,0.041-0.31,0.067-0.514c-0.086,0.103-0.136,0.171-0.194,0.231C15.229,6.676,15.161,6.728,15.069,6.81z M1.247,16.694
	c-0.018,0-0.035-0.001-0.053-0.001c-0.023,0.272,0.034,0.537,0.096,0.809c0.008-0.013,0.016-0.02,0.015-0.025
	C1.286,17.215,1.266,16.954,1.247,16.694z M15.525,4.768c0.019,0.085,0.032,0.145,0.045,0.205c0.013,0.062,0.029,0.125,0.038,0.188
	c0.009,0.063,0.011,0.127,0.017,0.191c0.005,0.05,0.011,0.1,0.017,0.151C15.715,5.084,15.693,4.943,15.525,4.768z M11.82,18.069
	c-0.056,0.052-0.112,0.103-0.167,0.155c-0.057,0.054-0.113,0.11-0.169,0.165c-0.052,0.052-0.103,0.104-0.154,0.156
	C11.538,18.443,11.702,18.283,11.82,18.069z M14.85,5.226c-0.017-0.079-0.032-0.146-0.051-0.231c-0.111,0.079-0.2,0.154-0.269,0.271
	C14.642,5.252,14.733,5.24,14.85,5.226z M8.813,5.616C8.827,5.63,8.84,5.643,8.854,5.657c0.064-0.07,0.13-0.14,0.193-0.212
	c0.06-0.068,0.139-0.121,0.171-0.213C9.068,5.346,8.927,5.467,8.813,5.616z M13.656,10.987c-0.233,0.159-0.257,0.183-0.303,0.301
	C13.477,11.219,13.56,11.125,13.656,10.987z M8.766,17.194c-0.064,0.058-0.129,0.116-0.193,0.174
	C8.669,17.351,8.733,17.292,8.766,17.194z M15.209,4.601c-0.133-0.067-0.136-0.066-0.151,0.057
	C15.12,4.671,15.175,4.667,15.209,4.601z M12.885,3.265c0.078-0.034,0.078-0.034,0.124-0.11C12.961,3.198,12.923,3.232,12.885,3.265
	z M9.882,6.371c0.007,0.008,0.014,0.016,0.021,0.024c0.017-0.015,0.038-0.028,0.05-0.047c0.015-0.023,0.057-0.04,0.019-0.084
	C9.941,6.3,9.912,6.335,9.882,6.371z M13.217,4.804c-0.069,0.01-0.106,0.047-0.119,0.144C13.154,4.88,13.185,4.842,13.217,4.804z
	 M10.368,7.988c-0.005-0.005-0.011-0.01-0.016-0.014c-0.017,0.012-0.039,0.022-0.048,0.038c-0.011,0.021-0.058,0.037-0.016,0.079
	C10.316,8.055,10.342,8.022,10.368,7.988z M13.718,4.126c0.007,0.006,0.014,0.012,0.021,0.018c0.02-0.021,0.04-0.041,0.059-0.062
	c0.005-0.006,0.008-0.014,0.012-0.021c-0.013,0-0.032-0.006-0.039,0.001C13.751,4.081,13.736,4.105,13.718,4.126z M3.451,12.499
	c0.002,0,0.005,0,0.007,0c0-0.026,0-0.052,0-0.077c-0.002,0-0.005,0-0.007,0C3.451,12.448,3.451,12.474,3.451,12.499z M5.374,8.347
	C5.386,8.347,5.396,8.35,5.397,8.348C5.405,8.332,5.41,8.315,5.416,8.298C5.403,8.314,5.39,8.329,5.374,8.347z M5.727,7.927
	C5.717,7.919,5.707,7.91,5.696,7.902C5.68,7.929,5.663,7.957,5.646,7.985C5.654,7.99,5.662,7.995,5.67,8
	C5.689,7.976,5.708,7.951,5.727,7.927z M9.843,16.069c0.02-0.024,0.037-0.044,0.062-0.075C9.849,16.001,9.824,16.016,9.843,16.069z
	 M10.586,7.694c-0.01,0.011-0.02,0.022-0.03,0.032c0.006,0.002,0.016,0.007,0.019,0.004c0.011-0.009,0.021-0.021,0.031-0.032
	C10.599,7.697,10.593,7.696,10.586,7.694z M10.068,15.768c-0.006,0-0.012-0.002-0.017,0c-0.006,0.003-0.011,0.008-0.016,0.013
	c0.007,0.001,0.014,0.004,0.02,0.002C10.061,15.781,10.064,15.774,10.068,15.768z M11.127,18.724
	c0.049-0.027,0.067-0.034,0.08-0.046c0.006-0.005,0.003-0.019,0.005-0.03c-0.007,0.001-0.016-0.001-0.021,0.003
	C11.177,18.665,11.165,18.68,11.127,18.724z M5.585,8.116c-0.044,0.008-0.09,0.022-0.059,0.078C5.547,8.165,5.566,8.141,5.585,8.116
	z M9.891,19.269c-0.006,0.002-0.013,0.004-0.019,0.006c0.008,0.004,0.016,0.01,0.025,0.012c0.003,0.001,0.008-0.007,0.012-0.011
	C9.904,19.274,9.898,19.271,9.891,19.269z M9.679,19.333c0.007,0,0.014,0.001,0.02,0.001c-0.006-0.005-0.012-0.009-0.018-0.014
	C9.68,19.324,9.68,19.328,9.679,19.333z M1.334,17.683c0,0.008-0.001,0.015,0.001,0.022c0,0.002,0.009,0.002,0.014,0.002
	c0-0.007,0.001-0.015,0-0.022C1.348,17.683,1.34,17.683,1.334,17.683z M12.158,2.966c0.005-0.002,0.011-0.004,0.016-0.006
	c-0.004-0.004-0.008-0.009-0.013-0.01c-0.005-0.001-0.011,0.003-0.016,0.006C12.15,2.959,12.154,2.963,12.158,2.966z M13.016,5.032
	l-0.017-0.001l0.007,0.02L13.016,5.032z M9.75,6.57L9.736,6.57l0.006,0.017L9.75,6.57z M5.819,7.781
	c-0.003-0.006-0.007-0.012-0.01-0.018c-0.005,0.004-0.015,0.01-0.014,0.011C5.798,7.784,5.804,7.792,5.81,7.801
	C5.813,7.794,5.816,7.788,5.819,7.781z M5.896,7.625C5.894,7.631,5.892,7.637,5.889,7.643c0.008,0.001,0.016,0.001,0.023,0.002
	c-0.001-0.006,0-0.013-0.003-0.018C5.909,7.624,5.901,7.625,5.896,7.625z M7.43,7.5l0.008,0.018l0.007-0.018L7.43,7.5z
	 M10.996,18.797l0.017,0.009l0.002-0.014L10.996,18.797z M10.045,19.229l0.015,0.01l0.003-0.013L10.045,19.229z M11.284,13.979
	l-0.006-0.016l-0.006,0.017L11.284,13.979z M14.243,2.136l-0.014,0.006l0.014,0.006L14.243,2.136z"/>
<path id="XMLID_291_" style="fill:#FFFFFF;" d="M14.47,1.973c0.176-0.172,0.397-0.252,0.632-0.298
	c0.056-0.011,0.114-0.009,0.122,0.071c-0.115,0.02-0.234,0.03-0.344,0.065c-0.112,0.035-0.216,0.098-0.325,0.145
	c-0.027,0.012-0.06,0.008-0.091,0.012C14.464,1.968,14.47,1.973,14.47,1.973z"/>
<path id="XMLID_290_" style="fill:#FFFFFF;" d="M13.733,2.484c0,0.022,0.009,0.053-0.002,0.064c-0.085,0.08-0.173,0.156-0.262,0.234
	c-0.079-0.041-0.116-0.094-0.13-0.173c0.071-0.01,0.142-0.012,0.207-0.031c0.067-0.02,0.129-0.057,0.193-0.087
	C13.738,2.491,13.733,2.484,13.733,2.484z"/>
<path id="XMLID_289_" style="fill:#FFFFFF;" d="M14.85,5.226c-0.117,0.015-0.209,0.026-0.32,0.04
	c0.07-0.117,0.158-0.191,0.269-0.271C14.818,5.08,14.833,5.147,14.85,5.226z"/>
<path id="XMLID_288_" style="fill:#FFFFFF;" d="M12.362,2.844c0.004-0.014,0.004-0.035,0.014-0.042
	c0.168-0.12,0.347-0.219,0.541-0.285c0.04,0.048,0.002,0.067-0.022,0.078c-0.178,0.084-0.34,0.204-0.538,0.244
	C12.358,2.839,12.362,2.844,12.362,2.844z"/>
<path id="XMLID_287_" style="fill:#FFFFFF;" d="M15.288,4.085c0.001-0.153,0.002-0.306,0.004-0.475
	c0.08,0.05,0.093,0.111,0.093,0.173C15.383,3.893,15.37,4,15.282,4.081C15.282,4.081,15.288,4.085,15.288,4.085z"/>
<path id="XMLID_286_" style="fill:#FFFFFF;" d="M13.656,10.987c-0.096,0.138-0.179,0.232-0.303,0.301
	C13.398,11.171,13.423,11.146,13.656,10.987z"/>
<path id="XMLID_285_" style="fill:#FFFFFF;" d="M11.972,8.213c-0.032,0.153-0.117,0.272-0.234,0.372
	c-0.004,0.003-0.014-0.003-0.022-0.004c0,0,0.005,0.005,0.005,0.005c0.062-0.106,0.122-0.212,0.187-0.316
	c0.014-0.023,0.045-0.035,0.068-0.052C11.977,8.218,11.972,8.213,11.972,8.213z"/>
<path id="XMLID_284_" style="fill:#FFFFFF;" d="M15.267,3.381c-0.021,0.008-0.051,0.028-0.062,0.021
	c-0.056-0.037-0.108-0.082-0.156-0.12c0.002-0.018,0.001-0.031,0.003-0.032c0.052-0.008,0.103-0.015,0.166-0.024
	c0.018,0.058,0.033,0.108,0.049,0.157C15.267,3.383,15.267,3.381,15.267,3.381z"/>
<path id="XMLID_283_" style="fill:#FFFFFF;" d="M9.816,8.697c0.049-0.148,0.099-0.219,0.24-0.335l-0.005-0.004
	c-0.041,0.139-0.118,0.254-0.24,0.335C9.812,8.693,9.816,8.697,9.816,8.697z"/>
<path id="XMLID_282_" style="fill:#FFFFFF;" d="M7.028,8.069C7.009,8.203,6.905,8.281,6.821,8.394
	c0.04-0.162,0.078-0.218,0.211-0.32C7.033,8.073,7.028,8.069,7.028,8.069z"/>
<path id="XMLID_281_" style="fill:#FFFFFF;" d="M3.51,12.036c0.031-0.157,0.028-0.321,0.106-0.468c0,0-0.005-0.005-0.005-0.005
	c0.012,0.185-0.026,0.356-0.104,0.468L3.51,12.036z"/>
<path id="XMLID_280_" style="fill:#FFFFFF;" d="M7.269,7.735C7.22,7.869,7.157,7.993,7.028,8.069c0,0,0.005,0.004,0.005,0.004
	c0.049-0.147,0.102-0.22,0.241-0.333L7.269,7.735z"/>
<path id="XMLID_279_" style="fill:#FFFFFF;" d="M8.766,17.194c-0.033,0.097-0.097,0.157-0.193,0.174
	C8.637,17.311,8.702,17.252,8.766,17.194z"/>
<path id="XMLID_278_" style="fill:#FFFFFF;" d="M15.209,4.601c-0.034,0.066-0.089,0.07-0.151,0.057
	C15.073,4.535,15.076,4.534,15.209,4.601z"/>
<path id="XMLID_277_" style="fill:#FFFFFF;" d="M13.415,4.519c0.018-0.096,0.085-0.154,0.162-0.203
	c-0.033,0.085-0.07,0.166-0.166,0.199L13.415,4.519z"/>
<path id="XMLID_276_" style="fill:#FFFFFF;" d="M9.577,16.378c0.01-0.102,0.093-0.15,0.159-0.229
	c-0.039,0.136-0.039,0.136-0.164,0.224C9.572,16.373,9.577,16.378,9.577,16.378z"/>
<path id="XMLID_275_" style="fill:#FFFFFF;" d="M12.885,3.265c0.038-0.034,0.076-0.068,0.124-0.11
	C12.963,3.231,12.963,3.231,12.885,3.265z"/>
<path id="XMLID_274_" style="fill:#FFFFFF;" d="M7.963,5.698c0.021,0.007,0.051,0.008,0.06,0.022
	C8.08,5.808,8.099,5.901,8.055,6.001c0,0,0,0,0,0C8.064,5.888,8.021,5.79,7.967,5.695C7.968,5.694,7.963,5.698,7.963,5.698z"/>
<path id="XMLID_273_" style="fill:#FFFFFF;" d="M9.882,6.371c0.03-0.035,0.059-0.07,0.09-0.107c0.039,0.044-0.003,0.062-0.019,0.084
	C9.941,6.367,9.92,6.379,9.903,6.395C9.896,6.387,9.889,6.379,9.882,6.371z"/>
<path id="XMLID_272_" style="fill:#FFFFFF;" d="M13.217,4.804c-0.032,0.038-0.064,0.077-0.119,0.144
	C13.111,4.85,13.148,4.814,13.217,4.804z"/>
<path id="XMLID_271_" style="fill:#FFFFFF;" d="M13.411,4.515c0.002,0.086-0.061,0.124-0.12,0.165
	c0.013-0.076,0.045-0.136,0.124-0.161C13.415,4.519,13.411,4.515,13.411,4.515z"/>
<path id="XMLID_270_" style="fill:#FFFFFF;" d="M10.368,7.988c-0.026,0.034-0.052,0.067-0.08,0.102
	c-0.042-0.042,0.004-0.057,0.016-0.079c0.009-0.017,0.032-0.026,0.048-0.038C10.358,7.979,10.363,7.983,10.368,7.988z"/>
<path id="XMLID_269_" style="fill:#FFFFFF;" d="M13.718,4.126c0.017-0.022,0.033-0.046,0.053-0.064
	c0.007-0.007,0.026-0.001,0.039-0.001c-0.004,0.007-0.007,0.015-0.012,0.021c-0.019,0.021-0.039,0.042-0.059,0.062
	C13.732,4.138,13.725,4.132,13.718,4.126z"/>
<path id="XMLID_268_" style="fill:#FFFFFF;" d="M3.507,12.031c0.005,0.06,0.01,0.119,0.015,0.179
	c-0.045-0.058-0.033-0.115-0.011-0.174C3.51,12.036,3.507,12.031,3.507,12.031z"/>
<path id="XMLID_267_" style="fill:#FFFFFF;" d="M3.451,12.499c0-0.026,0-0.052,0-0.077c0.002,0,0.005,0,0.007,0
	c0,0.026,0,0.052,0,0.077C3.456,12.5,3.453,12.499,3.451,12.499z"/>
<path id="XMLID_266_" style="fill:#FFFFFF;" d="M9.72,8.841C9.709,8.764,9.743,8.717,9.816,8.697c0,0-0.004-0.004-0.004-0.004
	c0.009,0.075-0.024,0.122-0.095,0.145C9.716,8.837,9.72,8.841,9.72,8.841z"/>
<path id="XMLID_265_" style="fill:#FFFFFF;" d="M7.274,7.74C7.268,7.691,7.284,7.656,7.37,7.638
	C7.322,7.684,7.295,7.709,7.269,7.735C7.269,7.735,7.274,7.74,7.274,7.74z"/>
<path id="XMLID_264_" style="fill:#FFFFFF;" d="M14.464,1.968c0.006,0.061-0.04,0.067-0.085,0.079
	c0.006-0.058,0.046-0.068,0.09-0.074C14.47,1.973,14.464,1.968,14.464,1.968z"/>
<path id="XMLID_263_" style="fill:#FFFFFF;" d="M13.738,2.491c0.025-0.016,0.051-0.032,0.084-0.053
	c-0.01,0.07-0.043,0.071-0.088,0.047C13.733,2.484,13.738,2.491,13.738,2.491z"/>
<path id="XMLID_262_" style="fill:#FFFFFF;" d="M5.374,8.347C5.39,8.329,5.403,8.314,5.416,8.298
	C5.41,8.315,5.405,8.332,5.397,8.348C5.396,8.35,5.386,8.347,5.374,8.347z"/>
<path id="XMLID_261_" style="fill:#FFFFFF;" d="M2.714,15.469c-0.021,0.039-0.042,0.077-0.084,0.156
	c0.007-0.103,0.023-0.145,0.09-0.15C2.72,15.475,2.714,15.469,2.714,15.469z"/>
<path id="XMLID_260_" style="fill:#FFFFFF;" d="M5.727,7.927C5.708,7.951,5.689,7.976,5.67,8C5.662,7.995,5.654,7.99,5.646,7.985
	c0.017-0.028,0.034-0.055,0.05-0.083C5.707,7.91,5.717,7.919,5.727,7.927z"/>
<path id="XMLID_259_" style="fill:#FFFFFF;" d="M11.581,8.828c0.009-0.021,0.018-0.043,0.029-0.064
	c0.026-0.051,0.069-0.051,0.115-0.035c-0.001,0-0.004-0.002-0.004-0.002c-0.028,0.025-0.055,0.051-0.086,0.073
	c-0.017,0.012-0.04,0.015-0.06,0.022C11.575,8.823,11.581,8.828,11.581,8.828z"/>
<path id="XMLID_258_" style="fill:#FFFFFF;" d="M9.843,16.069c-0.019-0.052,0.005-0.067,0.062-0.075
	C9.88,16.025,9.863,16.045,9.843,16.069z"/>
<path id="XMLID_257_" style="fill:#FFFFFF;" d="M10.586,7.694c0.007,0.002,0.013,0.003,0.02,0.005
	c-0.01,0.011-0.02,0.023-0.031,0.032c-0.003,0.002-0.012-0.003-0.019-0.004C10.566,7.716,10.576,7.705,10.586,7.694z"/>
<path id="XMLID_256_" style="fill:#FFFFFF;" d="M10.068,15.768c-0.004,0.005-0.007,0.013-0.013,0.015
	c-0.006,0.002-0.013-0.001-0.02-0.002c0.005-0.004,0.01-0.01,0.016-0.013C10.056,15.767,10.063,15.768,10.068,15.768z"/>
<path id="XMLID_255_" style="fill:#FFFFFF;" d="M11.127,18.724c0.038-0.044,0.051-0.059,0.065-0.073
	c0.004-0.004,0.014-0.002,0.021-0.003c-0.001,0.01,0.001,0.025-0.005,0.03C11.194,18.69,11.176,18.696,11.127,18.724z"/>
<path id="XMLID_254_" style="fill:#FFFFFF;" d="M9.321,19.386c0.037-0.01,0.074-0.019,0.149-0.039
	c-0.071,0.06-0.111,0.056-0.153,0.035C9.317,19.381,9.321,19.386,9.321,19.386z"/>
<path id="XMLID_253_" style="fill:#FFFFFF;" d="M11.469,13.553c0.018-0.014,0.042-0.025,0.054-0.043
	c0.027-0.042,0.063-0.031,0.1-0.025c0,0,0-0.001,0-0.001C11.564,13.491,11.541,13.577,11.469,13.553L11.469,13.553z"/>
<path id="XMLID_252_" style="fill:#FFFFFF;" d="M5.585,8.116C5.566,8.141,5.547,8.165,5.526,8.194
	C5.494,8.138,5.541,8.124,5.585,8.116z"/>
<path id="XMLID_251_" style="fill:#FFFFFF;" d="M2.039,16.133c0.035-0.054,0.078-0.094,0.148-0.09c0,0-0.004-0.005-0.004-0.005
	c-0.03,0.063-0.074,0.103-0.15,0.089L2.039,16.133z"/>
<path id="XMLID_250_" style="fill:#FFFFFF;" d="M2.034,16.128c-0.01,0.018-0.016,0.038-0.029,0.053
	c-0.024,0.027-0.051,0.051-0.077,0.076c0,0,0.001-0.004,0.001-0.004c-0.01-0.084,0.045-0.106,0.111-0.119
	C2.039,16.133,2.034,16.128,2.034,16.128z"/>
<path id="XMLID_249_" style="fill:#FFFFFF;" d="M12.838,16.188c-0.004,0.049-0.005,0.1-0.067,0.114c0,0,0.004,0.005,0.004,0.005
	c0.023-0.038,0.047-0.075,0.07-0.113C12.844,16.194,12.838,16.188,12.838,16.188z"/>
<path id="XMLID_248_" style="fill:#FFFFFF;" d="M7.071,21.19c0.005,0.012,0.011,0.024,0.017,0.036
	c0.004,0.009,0.009,0.018,0.014,0.026c-0.007-0.001-0.016,0-0.021-0.004c-0.004-0.004-0.002-0.013-0.003-0.02
	C7.076,21.216,7.073,21.203,7.071,21.19L7.071,21.19z"/>
<path id="XMLID_247_" style="fill:#FFFFFF;" d="M12.962,15.979c-0.026,0.033-0.051,0.067-0.077,0.1c0,0,0.007,0.006,0.007,0.006
	c-0.006-0.055,0.011-0.095,0.072-0.103C12.964,15.982,12.962,15.979,12.962,15.979z"/>
<path id="XMLID_246_" style="fill:#FFFFFF;" d="M11.824,12.922c-0.012,0.047-0.025,0.094-0.038,0.141c0,0,0.007,0.006,0.007,0.006
	c-0.012-0.053-0.003-0.101,0.037-0.14L11.824,12.922z"/>
<path id="XMLID_245_" style="fill:#FFFFFF;" d="M1.494,18.324c0.069,0.035,0.062,0.089,0.037,0.149
	c-0.001,0.001,0.002-0.002,0.001-0.001c-0.013-0.05-0.026-0.102-0.038-0.153L1.494,18.324z"/>
<path id="XMLID_244_" style="fill:#FFFFFF;" d="M13.133,15.427c-0.011,0.046-0.024,0.09-0.082,0.096l0.002,0.004
	c0.028-0.031,0.056-0.062,0.085-0.093L13.133,15.427z"/>
<path id="XMLID_243_" style="fill:#FFFFFF;" d="M15.214,4.207c0.025-0.04,0.049-0.081,0.074-0.121c0,0-0.006-0.005-0.006-0.005
	c0.011,0.057-0.008,0.098-0.062,0.122C15.22,4.203,15.214,4.207,15.214,4.207z"/>
<path id="XMLID_242_" style="fill:#FFFFFF;" d="M9.891,19.269c0.006,0.002,0.012,0.005,0.019,0.007
	c-0.004,0.004-0.009,0.012-0.012,0.011c-0.009-0.002-0.017-0.008-0.025-0.012C9.879,19.273,9.885,19.271,9.891,19.269z"/>
<path id="XMLID_241_" style="fill:#FFFFFF;" d="M9.679,19.333c0.001-0.004,0.002-0.009,0.002-0.013
	c0.006,0.005,0.012,0.009,0.018,0.014C9.692,19.333,9.686,19.333,9.679,19.333z"/>
<path id="XMLID_240_" style="fill:#FFFFFF;" d="M13.051,15.523c0.022,0.061,0.03,0.12-0.027,0.168c0,0,0.006,0.006,0.006,0.006
	c0.008-0.056,0.017-0.112,0.024-0.169C13.053,15.526,13.051,15.523,13.051,15.523z"/>
<path id="XMLID_239_" style="fill:#FFFFFF;" d="M6.628,6.023c0.023-0.039,0.046-0.077,0.068-0.116c0,0-0.006-0.006-0.007-0.006
	C6.691,5.951,6.683,5.997,6.63,6.021C6.63,6.021,6.628,6.023,6.628,6.023z"/>
<path id="XMLID_238_" style="fill:#FFFFFF;" d="M12.964,15.982c-0.024-0.062-0.035-0.122,0.019-0.176c0,0-0.007-0.006-0.007-0.006
	c-0.006,0.059-0.011,0.117-0.016,0.177C12.962,15.979,12.964,15.982,12.964,15.982z"/>
<path id="XMLID_237_" style="fill:#FFFFFF;" d="M1.334,17.683c0.006,0.001,0.014,0.001,0.015,0.002c0.001,0.007,0,0.015,0,0.022
	c-0.005-0.001-0.014-0.001-0.014-0.002C1.333,17.698,1.334,17.69,1.334,17.683z"/>
<path id="XMLID_236_" style="fill:#FFFFFF;" d="M13.2,15.146c0.027-0.032,0.055-0.063,0.082-0.095c0,0-0.004-0.006-0.004-0.006
	c-0.014,0.042-0.024,0.088-0.079,0.097C13.198,15.142,13.2,15.146,13.2,15.146z"/>
<path id="XMLID_235_" style="fill:#FFFFFF;" d="M7.071,21.19c-0.029,0.008-0.057,0.02-0.086,0.023
	c-0.039,0.004-0.074-0.005-0.081-0.053c-0.001,0-0.006,0.006-0.006,0.006C6.955,21.174,7.013,21.182,7.071,21.19
	C7.071,21.19,7.071,21.19,7.071,21.19z"/>
<path id="XMLID_234_" style="fill:#FFFFFF;" d="M15.417,2.731c-0.002,0.019-0.003,0.037-0.005,0.056
	c-0.004-0.005-0.013-0.012-0.012-0.013c0.007-0.013,0.016-0.025,0.023-0.038C15.423,2.736,15.417,2.731,15.417,2.731z"/>
<path id="XMLID_233_" style="fill:#FFFFFF;" d="M12.358,2.839c-0.013,0.013-0.025,0.026-0.038,0.039
	c-0.006-0.009-0.011-0.017-0.017-0.026c0.02-0.003,0.039-0.006,0.059-0.008C12.362,2.844,12.358,2.839,12.358,2.839z"/>
<path id="XMLID_232_" style="fill:#FFFFFF;" d="M12.158,2.966c-0.004-0.004-0.008-0.007-0.012-0.011
	c0.005-0.002,0.011-0.006,0.016-0.006c0.005,0.001,0.008,0.006,0.013,0.01C12.169,2.962,12.163,2.964,12.158,2.966z"/>
<path id="XMLID_231_" style="fill:#FFFFFF;" d="M2.86,15.221c0.002-0.007,0.005-0.013,0.007-0.02
	c-0.005,0.005-0.009,0.009-0.014,0.014L2.86,15.221z"/>
<path id="XMLID_230_" style="fill:#FFFFFF;" d="M13.198,15.142c0.004,0.013,0.008,0.027,0.012,0.041
	c0.002,0.007,0.001,0.014,0.001,0.021c-0.005-0.005-0.014-0.009-0.014-0.014c0-0.013,0.003-0.027,0.004-0.042
	C13.2,15.146,13.198,15.142,13.198,15.142z"/>
<path id="XMLID_229_" style="fill:#FFFFFF;" d="M2.854,15.215c-0.006,0.014-0.011,0.028-0.017,0.042
	c0.008-0.012,0.016-0.024,0.023-0.035C2.86,15.221,2.854,15.215,2.854,15.215z"/>
<path id="XMLID_228_" style="fill:#FFFFFF;" d="M15.267,3.383c-0.007,0.014-0.014,0.027-0.021,0.041
	c0.007-0.014,0.014-0.027,0.02-0.042C15.267,3.381,15.267,3.383,15.267,3.383z"/>
<path id="XMLID_227_" style="fill:#FFFFFF;" d="M15.22,4.203c0,0.012,0.001,0.023,0.001,0.035c-0.002-0.01-0.004-0.021-0.007-0.031
	C15.214,4.207,15.22,4.203,15.22,4.203z"/>
<path id="XMLID_226_" style="fill:#FFFFFF;" d="M13.138,15.433c0.003-0.019,0.005-0.038,0.008-0.057
	c0.003,0.004,0.01,0.011,0.009,0.013c-0.006,0.013-0.015,0.024-0.022,0.037C13.133,15.427,13.138,15.433,13.138,15.433z"/>
<path id="XMLID_225_" style="fill:#FFFFFF;" d="M2.72,15.475c0.004-0.018,0.009-0.035,0.013-0.053
	c0.003,0.005,0.011,0.014,0.01,0.016c-0.009,0.011-0.019,0.021-0.029,0.031C2.714,15.469,2.72,15.475,2.72,15.475z"/>
<polygon id="XMLID_224_" style="fill:#FFFFFF;" points="13.016,5.032 13.006,5.051 12.999,5.032 "/>
<path id="XMLID_223_" style="fill:#FFFFFF;" d="M7.945,5.569C7.933,5.562,7.917,5.557,7.911,5.546
	C7.908,5.54,7.92,5.525,7.925,5.514C7.93,5.52,7.936,5.525,7.937,5.531C7.94,5.545,7.939,5.56,7.939,5.574
	C7.939,5.574,7.945,5.569,7.945,5.569z"/>
<path id="XMLID_222_" style="fill:#FFFFFF;" d="M7.939,5.574c0.065,0.028,0.052,0.074,0.025,0.123
	C7.963,5.698,7.968,5.694,7.967,5.695C7.959,5.654,7.952,5.611,7.945,5.569C7.945,5.569,7.939,5.574,7.939,5.574z"/>
<path id="XMLID_221_" style="fill:#FFFFFF;" d="M13.338,14.761c0.01,0.002,0.02,0.003,0.03,0.005c0-0.007,0.001-0.014,0.001-0.02
	c-0.008,0.004-0.017,0.008-0.025,0.013C13.344,14.758,13.338,14.761,13.338,14.761z"/>
<path id="XMLID_220_" style="fill:#FFFFFF;" d="M6.63,6.021c0,0.014,0.001,0.028,0.001,0.042C6.63,6.05,6.629,6.037,6.628,6.023
	C6.628,6.023,6.63,6.021,6.63,6.021z"/>
<polygon id="XMLID_219_" style="fill:#FFFFFF;" points="9.75,6.57 9.742,6.587 9.736,6.57 "/>
<path id="XMLID_218_" style="fill:#FFFFFF;" d="M7.984,6.67C7.978,6.684,7.972,6.699,7.966,6.714C7.964,6.708,7.959,6.7,7.96,6.699
	C7.969,6.69,7.98,6.683,7.99,6.676C7.99,6.676,7.984,6.67,7.984,6.67z"/>
<path id="XMLID_217_" style="fill:#FFFFFF;" d="M14.679,6.93c0.033,0.05,0.004,0.074-0.038,0.093l0,0.001
	c0.043-0.016,0.046-0.05,0.041-0.089C14.681,6.933,14.679,6.93,14.679,6.93z"/>
<path id="XMLID_216_" style="fill:#FFFFFF;" d="M3.939,10.792c-0.023,0.024-0.047,0.047-0.07,0.071c0,0,0.006,0.006,0.006,0.006
	c-0.026-0.068,0.014-0.076,0.066-0.074C3.94,10.795,3.939,10.792,3.939,10.792z"/>
<path id="XMLID_215_" style="fill:#FFFFFF;" d="M12.844,16.194c0.002-0.042-0.005-0.088,0.047-0.109c0,0-0.007-0.006-0.007-0.006
	c-0.016,0.036-0.031,0.072-0.047,0.109C12.838,16.188,12.844,16.194,12.844,16.194z"/>
<path id="XMLID_214_" style="fill:#FFFFFF;" d="M13.864,10.69c-0.012,0.004-0.024,0.009-0.039,0.014
	c0.015-0.004,0.026-0.007,0.038-0.01C13.863,10.694,13.864,10.69,13.864,10.69z"/>
<path id="XMLID_213_" style="fill:#FFFFFF;" d="M3.982,10.701c-0.043,0.015-0.048,0.05-0.044,0.09
	c0.001,0.001,0.003,0.004,0.003,0.005C3.919,10.75,3.913,10.71,3.982,10.701L3.982,10.701z"/>
<path id="XMLID_212_" style="fill:#FFFFFF;" d="M13.863,10.694c0-0.018,0-0.036,0-0.009c0.001-0.029,0.001-0.013,0,0.004
	C13.864,10.69,13.863,10.694,13.863,10.694z"/>
<path id="XMLID_211_" style="fill:#FFFFFF;" d="M1.927,16.257c-0.006-0.004-0.012-0.009-0.018-0.013
	c0.006,0.003,0.013,0.006,0.019,0.009C1.928,16.253,1.927,16.257,1.927,16.257z"/>
<path id="XMLID_210_" style="fill:#FFFFFF;" d="M3.981,10.701C3.98,10.661,3.978,10.62,4.025,10.6l0.005-0.002
	C3.987,10.619,3.975,10.656,3.981,10.701C3.982,10.701,3.981,10.701,3.981,10.701z"/>
<path id="XMLID_209_" style="fill:#FFFFFF;" d="M1.677,16.343c0.007-0.006,0.014-0.013,0.02-0.019
	c-0.006-0.002-0.012-0.003-0.018-0.005c-0.002,0.01-0.004,0.021-0.007,0.031L1.677,16.343z"/>
<path id="XMLID_208_" style="fill:#FFFFFF;" d="M1.673,16.351c-0.006-0.01-0.013-0.02-0.019-0.03
	c-0.003,0.009-0.005,0.018-0.008,0.027c0.011-0.002,0.021-0.003,0.032-0.004C1.677,16.343,1.673,16.351,1.673,16.351z"/>
<path id="XMLID_207_" style="fill:#FFFFFF;" d="M12.77,16.302c0.004,0.013,0.011,0.026,0.01,0.039c0,0.008-0.012,0.016-0.018,0.024
	c-0.001-0.006-0.003-0.013-0.001-0.018c0.004-0.013,0.01-0.025,0.014-0.039C12.774,16.307,12.77,16.302,12.77,16.302z"/>
<path id="XMLID_206_" style="fill:#FFFFFF;" d="M4.025,10.6c-0.001-0.011-0.002-0.022-0.003-0.033
	c-0.002,0.005-0.007,0.011-0.006,0.015c0.002,0.006,0.009,0.01,0.014,0.015C4.03,10.598,4.025,10.6,4.025,10.6z"/>
<path id="XMLID_205_" style="fill:#FFFFFF;" d="M12.958,9.641c0.001-0.011,0.003-0.021,0.004-0.032c0,0.01,0,0.02,0,0.03
	C12.963,9.639,12.958,9.641,12.958,9.641z"/>
<path id="XMLID_204_" style="fill:#FFFFFF;" d="M12.672,16.539c0.015-0.009,0.031-0.018,0.016-0.009
	c0.015-0.005-0.001,0-0.018,0.005C12.67,16.535,12.672,16.539,12.672,16.539z"/>
<path id="XMLID_203_" style="fill:#FFFFFF;" d="M12.67,16.535c0.004,0.013,0.011,0.026,0.011,0.039c0,0.009-0.01,0.017-0.015,0.026
	c0.001-0.006,0.001-0.013,0.002-0.019c0.002-0.013,0.004-0.026,0.005-0.041C12.672,16.539,12.67,16.535,12.67,16.535z"/>
<path id="XMLID_202_" style="fill:#FFFFFF;" d="M14.348,9.379c0.003,0.013,0.006,0.025,0.008,0.038c0-0.006,0.002-0.013,0-0.019
	c-0.002-0.006-0.007-0.012-0.011-0.018C14.345,9.38,14.348,9.379,14.348,9.379z"/>
<path id="XMLID_201_" style="fill:#FFFFFF;" d="M12.582,16.779c0.011-0.008,0.023-0.016,0.034-0.023
	c-0.01,0.007-0.021,0.014-0.031,0.02L12.582,16.779z"/>
<path id="XMLID_200_" style="fill:#FFFFFF;" d="M12.584,16.776c0,0.014,0,0.029,0,0.043c-0.001-0.013-0.001-0.025-0.002-0.039
	C12.582,16.779,12.584,16.776,12.584,16.776z"/>
<path id="XMLID_199_" style="fill:#FFFFFF;" d="M11.577,8.967c-0.04-0.047-0.039-0.093,0.005-0.138
	c-0.001,0-0.006-0.006-0.007-0.007c-0.002,0.046-0.003,0.093-0.003,0.141C11.573,8.965,11.577,8.967,11.577,8.967z"/>
<path id="XMLID_198_" style="fill:#FFFFFF;" d="M8.253,8.923C8.251,8.904,8.25,8.885,8.248,8.866c0.001,0,0.001,0,0.002,0
	c0.002,0.018,0.003,0.037,0.004,0.055C8.254,8.921,8.253,8.923,8.253,8.923z"/>
<path id="XMLID_197_" style="fill:#FFFFFF;" d="M11.83,12.928c0.005-0.013,0.011-0.025,0.016-0.038
	c-0.007,0.01-0.015,0.021-0.022,0.031C11.824,12.922,11.83,12.928,11.83,12.928z"/>
<path id="XMLID_196_" style="fill:#FFFFFF;" d="M5.819,7.781C5.816,7.788,5.813,7.794,5.81,7.801
	C5.804,7.792,5.798,7.784,5.794,7.774C5.793,7.773,5.803,7.767,5.808,7.763C5.812,7.769,5.815,7.775,5.819,7.781z"/>
<path id="XMLID_195_" style="fill:#FFFFFF;" d="M11.739,13.161c0-0.042-0.01-0.089,0.054-0.093c0,0-0.007-0.006-0.007-0.006
	c-0.018,0.031-0.035,0.062-0.053,0.094C11.733,13.156,11.739,13.161,11.739,13.161z"/>
<path id="XMLID_194_" style="fill:#FFFFFF;" d="M11.688,13.253c0.002-0.039-0.005-0.083,0.051-0.092c0,0-0.006-0.006-0.006-0.006
	c-0.003,0.039-0.001,0.079-0.051,0.092L11.688,13.253z"/>
<path id="XMLID_193_" style="fill:#FFFFFF;" d="M11.682,13.247c0.002,0.04,0,0.079-0.047,0.096l0.006,0.005
	c0.001-0.039-0.003-0.081,0.047-0.095C11.688,13.253,11.682,13.247,11.682,13.247z"/>
<path id="XMLID_192_" style="fill:#FFFFFF;" d="M1.493,18.319c-0.001-0.017-0.002-0.033-0.003-0.05c0.001,0,0.003,0,0.004,0
	c0,0.017,0,0.035,0,0.053C1.494,18.324,1.493,18.319,1.493,18.319z"/>
<path id="XMLID_191_" style="fill:#FFFFFF;" d="M5.896,7.625c0.005,0,0.012-0.001,0.013,0.001c0.003,0.005,0.002,0.012,0.003,0.018
	C5.905,7.644,5.897,7.643,5.889,7.643C5.892,7.637,5.894,7.631,5.896,7.625z"/>
<path id="XMLID_190_" style="fill:#FFFFFF;" d="M11.635,13.343c-0.004,0.047-0.008,0.094-0.012,0.141c0,0,0,0.001,0,0.001
	c-0.009-0.047-0.052-0.099,0.018-0.136C11.641,13.349,11.635,13.343,11.635,13.343z"/>
<polygon id="XMLID_189_" style="fill:#FFFFFF;" points="7.43,7.5 7.445,7.499 7.438,7.518 "/>
<path id="XMLID_188_" style="fill:#FFFFFF;" d="M11.469,13.553c0.006,0.045-0.005,0.081-0.052,0.098l-0.001,0.002
	C11.464,13.635,11.476,13.599,11.469,13.553C11.469,13.553,11.469,13.553,11.469,13.553z"/>
<path id="XMLID_187_" style="fill:#FFFFFF;" d="M11.418,13.65c0.005,0.014,0.011,0.027,0.015,0.041
	c0.002,0.007,0.001,0.014,0.002,0.021c-0.005-0.006-0.013-0.011-0.015-0.017c-0.003-0.013-0.002-0.028-0.003-0.042
	C11.417,13.652,11.418,13.65,11.418,13.65z"/>
<polygon id="XMLID_186_" style="fill:#FFFFFF;" points="10.996,18.797 11.015,18.792 11.013,18.806 "/>
<path id="XMLID_185_" style="fill:#FFFFFF;" d="M6.041,7.469C6.025,7.474,6.01,7.478,5.994,7.482C5.998,7.478,6.001,7.47,6.005,7.47
	c0.013,0,0.026,0.003,0.039,0.004C6.044,7.474,6.041,7.469,6.041,7.469z"/>
<polygon id="XMLID_184_" style="fill:#FFFFFF;" points="10.045,19.229 10.064,19.225 10.061,19.238 "/>
<polygon id="XMLID_183_" style="fill:#FFFFFF;" points="11.284,13.979 11.272,13.979 11.278,13.963 "/>
<path id="XMLID_182_" style="fill:#FFFFFF;" d="M6.044,7.474c-0.002-0.02-0.003-0.04-0.005-0.06c0.004,0.003,0.012,0.008,0.011,0.01
	C6.047,7.439,6.043,7.453,6.04,7.468C6.041,7.469,6.044,7.474,6.044,7.474z"/>
<path id="XMLID_181_" style="fill:#FFFFFF;" d="M11.716,8.581c0.001,0.048,0.001,0.097,0.003,0.146
	c0.001,0.001,0.005,0.002,0.005,0.003c-0.038-0.046-0.044-0.094-0.002-0.143C11.721,8.586,11.716,8.581,11.716,8.581z"/>
<path id="XMLID_180_" style="fill:#FFFFFF;" d="M8.936,19.723c-0.002,0.018-0.004,0.036-0.005,0.054
	c-0.005-0.005-0.014-0.012-0.013-0.014c0.007-0.012,0.017-0.024,0.025-0.036C8.942,19.728,8.936,19.723,8.936,19.723z"/>
<polygon id="XMLID_141_" style="fill:#FFFFFF;" points="14.243,2.136 14.242,2.148 14.229,2.142 "/>
<path id="XMLID_140_" style="fill:#FFFFFF;" d="M13.344,14.758c-0.001,0.012-0.002,0.025-0.003,0.037
	c0.039-0.014,0.016-0.024-0.003-0.034C13.338,14.761,13.344,14.758,13.344,14.758z"/>
<path id="XMLID_139_" style="fill:#FFFFFF;" d="M14.641,7.023c-0.007,0.049-0.013,0.099-0.019,0.149
	c0.001,0.001,0.005,0.007,0.005,0.007C14.631,7.128,14.636,7.076,14.641,7.023C14.641,7.023,14.641,7.023,14.641,7.023z"/>
<path id="XMLID_138_" style="fill:#FFFFFF;" d="M8.442,20.826c-0.001-0.013-0.003-0.025-0.004-0.038
	c-0.001,0.005-0.004,0.011-0.003,0.016c0.002,0.007,0.006,0.014,0.01,0.02C8.445,20.824,8.442,20.826,8.442,20.826z"/>
<path id="XMLID_137_" style="fill:#FFFFFF;" d="M6.577,21.046c-0.004-0.01-0.008-0.021-0.012-0.031
	c0.002,0.011,0.004,0.023,0.006,0.034C6.571,21.049,6.577,21.046,6.577,21.046z"/>
<path id="XMLID_136_" style="fill:#FFFFFF;" d="M6.571,21.049c0.044-0.008,0.086-0.013,0.116,0.031l0.006-0.007
	c-0.038-0.01-0.076-0.02-0.115-0.029C6.577,21.046,6.571,21.049,6.571,21.049z"/>
<path id="XMLID_135_" style="fill:#FFFFFF;" d="M6.687,21.08c0.031,0.017,0.063,0.034,0.094,0.051c0,0,0.006-0.006,0.006-0.006
	c-0.038-0.005-0.08-0.001-0.094-0.051C6.693,21.074,6.687,21.08,6.687,21.08z"/>
<path id="XMLID_134_" style="fill:#FFFFFF;" d="M6.781,21.131c0.038,0.012,0.077,0.024,0.116,0.035
	c0.001-0.001,0.006-0.006,0.007-0.006c-0.046,0.011-0.091,0.019-0.117-0.035C6.787,21.125,6.781,21.131,6.781,21.131z"/>
<path id="XMLID_133_" style="fill:#FFFFFF;" d="M13.282,15.051c0-0.016,0-0.031,0-0.047c-0.002,0.013-0.004,0.026-0.005,0.04
	C13.278,15.045,13.282,15.051,13.282,15.051z"/>
</svg>
