<?xml version="1.0" encoding="iso-8859-1"?>
<!-- Generator: Adobe Illustrator 19.0.0, SVG Export Plug-In . SVG Version: 6.00 Build 0)  -->
<svg version="1.1" id="Layer_1" xmlns="http://www.w3.org/2000/svg" xmlns:xlink="http://www.w3.org/1999/xlink" x="0px" y="0px"
	 viewBox="0 0 25 25" style="enable-background:new 0 0 25 25;" xml:space="preserve">
<path style="fill:#FFFFFF;" d="M7.49,24.28l-0.099-0.065c-0.682-0.14-1.277-0.541-1.849-1.255c-0.356-0.446-0.585-0.955-0.779-1.438
	c-0.062-0.154-0.129-0.308-0.196-0.46c-0.077-0.176-0.154-0.352-0.224-0.53c-0.044-0.113-0.075-0.232-0.106-0.351
	C4.217,20.1,4.196,20.02,4.17,19.94l-0.097-0.313C3.986,19.343,3.9,19.058,3.776,18.79c-0.179-0.386-0.401-0.783-0.721-1.287
	c-0.313-0.495-0.648-0.978-0.998-1.448c-0.112-0.149-0.284-0.27-0.451-0.385c-0.168-0.117-0.197-0.228-0.193-0.302
	c0.004-0.07,0.042-0.173,0.202-0.261c0.122-0.067,0.254-0.119,0.386-0.171l0.139-0.056c0.339-0.138,0.661-0.338,0.958-0.595
	c0.06-0.053,0.111-0.119,0.165-0.19c0.033-0.044,0.066-0.087,0.103-0.128c0.176-0.204,0.366-0.304,0.578-0.304
	c0.141,0,0.289,0.041,0.48,0.134c0.123,0.06,0.246,0.146,0.377,0.264c0.07,0.063,0.136,0.092,0.213,0.092
	c0.062,0,0.135-0.019,0.237-0.058c0.283-0.113,0.509-0.315,0.728-0.512c0.242-0.217,0.5-0.314,0.759-0.314
	c0.259,0,0.493,0.094,0.677,0.271l0.136,0.132c0.174,0.168,0.349,0.336,0.519,0.509l0.511-0.457l0.427-0.407
	c0.152-0.146,0.212-0.335,0.256-0.574c0.06-0.332,0.125-0.662,0.209-0.988c0.09-0.344,0.193-0.686,0.313-1.02
	c0.051-0.142,0.115-0.28,0.178-0.418c0.064-0.139,0.128-0.277,0.178-0.42c0.153-0.432,0.38-0.827,0.6-1.21l0.101-0.175
	c0.282-0.497,0.649-0.936,1.004-1.36l0.099-0.118c0.449-0.54,0.772-1.055,0.987-1.574c0.045-0.11,0.094-0.22,0.143-0.329
	c0.071-0.159,0.143-0.318,0.203-0.482c0.044-0.119,0.074-0.243,0.104-0.367c0.023-0.098,0.048-0.195,0.077-0.291
	c0.064-0.21,0.13-0.424,0.369-0.459l0.108-0.007c0.13,0,0.266,0.032,0.373,0.087c0.037,0.008,0.066,0.012,0.09,0.012
	c0.055,0,0.084-0.021,0.127-0.058c0.092-0.081,0.201-0.171,0.328-0.222c0.069-0.028,0.138-0.042,0.205-0.042
	c0.161,0,0.313,0.082,0.438,0.238c0.031,0.039,0.069,0.085,0.089,0.103c-0.012-0.018,0.026-0.071,0.051-0.105
	c0.246-0.336,0.575-0.599,1.007-0.803c0.286-0.136,0.557-0.301,0.828-0.466l0.8-0.474c0.454-0.266,0.907-0.531,1.366-0.791
	c0.1-0.057,0.208-0.099,0.316-0.141l0.176-0.07l0.119-0.073h0.349l0.175,0.144l0.168,0.187l0.492-0.315l0.562-0.015l0.094,0.064
	c0.279,0.146,0.421,0.432,0.557,0.708l0.091,0.179c0.031,0.059,0.051,0.133,0.055,0.205c0.025,0.451-0.02,0.85-0.138,1.222
	l-0.036,0.52c-0.018,0.277-0.034,0.553-0.061,0.829c-0.023,0.248-0.054,0.495-0.084,0.743c-0.024,0.202-0.05,0.404-0.07,0.606
	c-0.028,0.288,0.01,0.543,0.117,0.779c0.162,0.354,0.132,0.703,0.078,1.09c-0.046,0.336-0.063,0.678-0.08,1.018l-0.019,0.345
	c-0.009,0.123-0.004,0.246,0.005,0.367c0.021,0.315-0.119,0.565-0.256,0.807c-0.398,0.703-0.786,1.397-1.168,2.096
	c-0.15,0.275-0.297,0.551-0.443,0.828c-0.159,0.302-0.319,0.604-0.483,0.902c-0.057,0.102-0.133,0.186-0.207,0.268l-0.104,0.119
	l-1.203,1.512c-0.31,0.397-0.63,0.809-1.074,1.1c-0.093,0.061-0.191,0.112-0.295,0.167l-0.037,0.02l0.179,0.225
	c0.266,0.334,0.414,0.716,0.513,1.011c0.037,0.112,0.077,0.194,0.16,0.259c0.287,0.225,0.432,0.546,0.559,0.83
	c0.24,0.533,0.318,0.978,0.244,1.4c-0.063,0.353-0.179,0.744-0.573,0.97c-0.039,0.021-0.099,0.049-0.164,0.05
	c-0.614,0.027-1.176,0.252-1.716,0.688l-0.102,0.082c-0.151,0.122-0.303,0.244-0.46,0.357c-0.154,0.111-0.33,0.163-0.553,0.163
	c-0.119,0-0.241-0.015-0.361-0.03c-0.17-0.021-0.253-0.048-0.337-0.075c-0.063-0.021-0.126-0.042-0.19-0.053
	c-0.468-0.082-0.89-0.322-1.327-0.758l-0.211-0.21c-0.456-0.452-0.911-0.905-1.373-1.351c-0.046-0.046-0.141-0.08-0.225-0.084
	c-0.152-0.005-0.305-0.007-0.462-0.007l-0.454,0.002l0.228,0.446c0.115,0.218,0.23,0.437,0.321,0.664
	c0.103,0.257,0.158,0.519,0.162,0.759c0.009,0.603-0.203,1.068-0.629,1.383c-0.066,0.048-0.154,0.055-0.201,0.055
	c-0.292-0.008-0.573-0.017-0.854-0.037c-0.006,0-0.012,0-0.018,0c-0.277,0-0.476,0.063-0.678,0.188l-0.114,0.076L8.474,24.28H7.49z
	 M3.568,17.433l0.142,0.246c0.168,0.289,0.336,0.579,0.483,0.879c0.115,0.233,0.197,0.484,0.278,0.732l0.036,0.11
	c0.041,0.124,0.075,0.25,0.11,0.376c0.043,0.16,0.087,0.32,0.144,0.475c0.078,0.209,0.166,0.414,0.253,0.619
	c0.084,0.195,0.167,0.392,0.243,0.591c0.24,0.629,0.553,1.135,0.959,1.544c0.221,0.223,0.435,0.388,0.659,0.507l-0.052-0.135
	C7,23.304,7.122,23.253,7.256,23.253c0.091,0,0.177,0.023,0.261,0.073l-0.032-0.109l-0.01-0.156l-0.034-0.005
	c-0.108-0.014-0.221-0.029-0.331-0.057c-0.079-0.02-0.188-0.074-0.237-0.162c-0.036-0.064-0.061-0.11-0.072-0.12
	c0.005,0.008-0.045,0.03-0.095,0.053l-0.152-0.041l-0.02-0.214c-0.013-0.132-0.024-0.257-0.047-0.379
	c-0.026-0.155-0.046-0.28-0.091-0.315c-0.128-0.103-0.182-0.226-0.234-0.344c-0.023-0.053-0.046-0.106-0.077-0.158l0.068-0.15
	l0.032-0.005c-0.123-0.197-0.121-0.412-0.119-0.606c0.001-0.104-0.003-0.235-0.046-0.332c-0.083-0.191-0.084-0.374-0.004-0.577
	c0.03-0.076,0.052-0.155,0.075-0.239c-0.053-0.013-0.108-0.039-0.146-0.09c-0.048-0.065-0.055-0.155-0.021-0.266l0.12-0.067
	c0.003,0,0.005,0,0.008,0c0.067,0,0.077-0.029,0.061-0.139l0.109-0.114l0.162,0.03c0.064,0.016,0.138,0.033,0.201,0.073l0.09,0.118
	c0.014,0.07-0.023,0.126-0.049,0.162c0.006,0.406-0.028,0.776-0.069,1.131l0.009-0.01l0.164,0.022l0.131,0.178
	c0.121,0.164,0.242,0.327,0.354,0.497c0.06,0.09,0.034,0.224,0.021,0.276c-0.017,0.066-0.044,0.129-0.079,0.206l0.044,0.003
	c0.122,0.009,0.233,0.017,0.344,0.031c0.045,0.007,0.197,0.034,0.244,0.138c0.042,0.092,0.078,0.187,0.113,0.281
	c0.042,0.112,0.084,0.225,0.137,0.331l0.052,0.156c-0.002-0.023,0.021-0.075,0.046-0.13c0.047-0.107,0.102-0.229,0.229-0.316
	l0.155,0.064c0.019,0.136,0.023,0.173,0.035,0.194c0.036,0.067,0.087,0.163,0.115,0.177c0.035,0.001,0.066,0.002,0.093,0.002
	c0.086,0,0.137-0.006,0.189-0.013l0.009-0.001c-0.022-0.044-0.044-0.086-0.07-0.119c-0.289-0.368-0.515-0.724-0.691-1.087
	c-0.118-0.244-0.25-0.481-0.383-0.719l-0.291-0.53c-0.095-0.173-0.19-0.346-0.273-0.522c-0.071-0.151-0.137-0.305-0.202-0.459
	c-0.074-0.174-0.148-0.349-0.231-0.519c-0.327-0.669-0.656-1.337-1.005-1.994c-0.246-0.464-0.517-0.955-0.826-1.41
	c-0.15-0.221-0.353-0.418-0.549-0.609l-0.161-0.158c-0.059-0.059-0.118-0.093-0.183-0.105c0.058,0.096,0.048,0.206,0.04,0.291
	c-0.004,0.038-0.008,0.075-0.005,0.112l-0.084,0.105c-0.004,0-0.009,0-0.013,0c-0.16,0-0.245-0.061-0.301-0.126l0.032,0.14
	l-0.689,0.482c-0.129,0.089-0.26,0.178-0.38,0.278c-0.069,0.059-0.122,0.104-0.183,0.12c0.023,0.029,0.053,0.066,0.091,0.114
	l-0.001,0.128l-0.08,0.092l0.126,0.196l0.168,0.244c0.098-0.095,0.166-0.144,0.247-0.144l0.126,0.043
	c0.131,0.086,0.25,0.164,0.262,0.28c0.017,0.162-0.094,0.313-0.231,0.392C3.222,16.852,3.483,17.284,3.568,17.433z M10.341,22.424
	l-0.059,0.294c0.07,0.07,0.339,0.037,0.362,0.103c0,0.001,0,0.002,0.001,0.002c0.012-0.103,0.009-0.206-0.01-0.312
	c-0.038-0.221-0.099-0.438-0.169-0.648L10.341,22.424z M12.243,17.686c-0.208,0.162-0.416,0.327-0.602,0.513
	c-0.02,0.067,0.008,0.097,0.063,0.119c0.082,0.034,0.129,0.139,0.14,0.2c0.031,0.185,0.061,0.372,0.074,0.558
	c0.006,0.074,0.015,0.149,0.024,0.224c0.036,0.292,0.073,0.594-0.088,0.901c-0.074,0.14-0.074,0.14,0.062,0.257l0.135,0.12
	l0.503,0.51c0.279,0.282,0.557,0.565,0.839,0.845c0.202,0.2,0.45,0.421,0.762,0.534c0.027,0.01,0.063,0.015,0.1,0.015
	s0.075-0.005,0.11-0.014c0.124-0.033,0.246-0.076,0.368-0.119l0.325-0.106c0.156-0.044,0.292-0.082,0.374-0.214l0.103,0.047
	l-0.015-0.099l0.109,0.043c0.046,0.071,0.088,0.111,0.117,0.111c0.018,0,0.058-0.012,0.136-0.089l0.182-0.035l-0.072-0.069
	l0.29-0.298c-0.1-0.024-0.172-0.106-0.231-0.174c-0.043-0.05-0.104-0.091-0.17-0.131c-0.053-0.033-0.108-0.063-0.165-0.093
	c-0.117-0.063-0.239-0.128-0.338-0.225c-0.325-0.32-0.747-0.752-1.119-1.255c-0.256-0.346-0.555-0.672-0.844-0.986l-0.337-0.371
	c-0.236-0.264-0.474-0.515-0.774-0.677l-0.088-0.129l0,0.01L12.243,17.686z M7.706,22.6l0.106-0.258l-0.118-0.26
	c-0.074-0.099-0.284-0.201-0.148-0.337c-0.031,0.009-0.059,0.013-0.085,0.013c-0.064,0-0.114-0.021-0.164-0.021
	c-0.004,0-0.009,0-0.013,0l-0.013,0.188l-0.089,0.093l0.006,0.253C7.296,22.343,7.6,22.524,7.706,22.6z M17.724,21.417
	c0.075,0.013,0.146,0.025,0.217,0.044c0.043,0.012,0.084,0.018,0.123,0.018c0.081,0,0.188-0.025,0.238-0.145
	c0.083-0.195,0.162-0.4,0.159-0.586c-0.005-0.266-0.056-0.559-0.147-0.849c-0.006-0.02-0.013-0.039-0.02-0.059
	c0.027,0.146,0.054,0.299,0.069,0.453c0.013,0.118-0.016,0.253-0.074,0.352c-0.073,0.12-0.159,0.232-0.245,0.345L17.724,21.417z
	 M5.284,14.585c0.046,0.064,0.089,0.122,0.125,0.184l0.197,0.324c0.188,0.308,0.376,0.616,0.547,0.935
	c0.217,0.404,0.419,0.817,0.622,1.229l0.677,1.385c0.185,0.375,0.342,0.695,0.505,1.013l0.619,1.178l0.172,0.12l-0.042-0.091
	c0.089-0.041,0.176-0.09,0.262-0.139c0.458-0.256,0.939-0.483,1.501-0.483c0.053,0,0.188,0.006,0.203,0.006
	c0.241,0,0.401-0.026,0.559-0.053c0.143-0.023,0.266-0.157,0.268-0.291c0-0.008,0-0.017,0-0.025
	c-0.044,0.051-0.104,0.078-0.17,0.078c-0.063,0-0.13-0.025-0.185-0.069c-0.152-0.118-0.275-0.24-0.366-0.363
	c-0.268-0.362-0.465-0.771-0.629-1.127c-0.313-0.673-0.609-1.25-0.907-1.764c-0.31-0.533-0.673-1.052-0.987-1.489
	c-0.228-0.317-0.495-0.638-0.815-0.98c-0.157-0.169-0.369-0.307-0.556-0.428c-0.042-0.027-0.094-0.042-0.154-0.042
	c-0.123,0-0.266,0.059-0.383,0.156l-0.095,0.079c-0.201,0.166-0.401,0.333-0.614,0.484c-0.097,0.068-0.204,0.112-0.317,0.158
	L5.284,14.585z M13.121,17.023c-0.056,0-0.089,0.012-0.124,0.043c-0.059,0.053-0.122,0.103-0.185,0.151s-0.126,0.098-0.185,0.151
	c0.037,0.028,0.215,0.151,0.215,0.151c0.578,0.448,1.041,1.013,1.488,1.558l0.127,0.155c0.319,0.388,0.646,0.771,0.975,1.149
	c0.204-0.217,0.499-0.273,0.759-0.323c0.244-0.048,0.443-0.064,0.644-0.081l0.308-0.029c0.19-0.021,0.297-0.084,0.347-0.204
	c0.123-0.296,0.144-0.65,0.062-1.082c-0.076-0.401-0.299-0.786-0.7-1.209c-0.057-0.06-0.104-0.067-0.144-0.067
	c-0.033,0-0.07,0.007-0.127,0.021c-0.104,0.036-0.145,0.05-0.186,0.058l-0.01,0.01h0.074l0.1,0.112l-0.021,0.099
	c-0.008,0.033-0.021,0.088-0.015,0.104c0.048,0.103,0.126,0.212,0.229,0.324c0.053,0.057,0.117,0.104,0.187,0.153l0.104,0.077
	l-0.012,0.166l-0.1,0.055c-0.044,0.024-0.071,0.038-0.087,0.054c-0.028,0.184-0.008,0.325,0.015,0.464
	c0.108,0.117,0.171,0.179,0.165,0.264c0,0.008-0.001,0.015-0.003,0.021c0.019-0.009,0.035-0.019,0.052-0.028
	c0.094-0.055,0.2-0.117,0.33-0.117l0.112,0.12c-0.03,0.155-0.093,0.346-0.305,0.442c-0.14,0.063-0.283,0.096-0.428,0.096
	c-0.188,0-0.379-0.055-0.566-0.162c-0.401-0.232-0.668-0.6-0.876-0.928c-0.195-0.311-1.012-1.579-1.012-1.579
	c-0.07-0.11-0.156-0.153-0.304-0.153c-0.147,0.009-0.205,0.012-0.264,0.012c-0.153,0-0.31-0.017-0.464-0.032L13.121,17.023z
	 M11.252,18.586c0.023,0.275,0.051,0.552,0.087,0.826c0.068,0.038,0.119,0.074,0.154,0.111c-0.006-0.099-0.018-0.197-0.037-0.292
	c-0.038-0.189-0.1-0.374-0.162-0.56l-0.042-0.129l-0.1,0.051L11.252,18.586z M14.23,4.228c-0.013,0.108-0.026,0.216-0.055,0.321
	C14.124,4.739,14,4.861,13.816,4.899c-0.062,0.014-0.137,0.061-0.155,0.1c-0.084,0.166-0.157,0.335-0.23,0.505
	c-0.058,0.133-0.115,0.265-0.177,0.396c-0.241,0.507-0.565,0.992-0.989,1.48c-0.334,0.386-0.631,0.775-0.883,1.157
	c-0.28,0.426-0.517,0.877-0.712,1.262c-0.13,0.256-0.233,0.527-0.335,0.797l-0.059,0.154c-0.086,0.226-0.16,0.456-0.233,0.686
	l-0.044,0.136c-0.057,0.174-0.115,0.349-0.154,0.528c-0.035,0.159-0.061,0.32-0.087,0.482c-0.025,0.154-0.05,0.309-0.082,0.461
	c-0.032,0.155-0.092,0.354-0.266,0.509c-0.186,0.166-0.367,0.338-0.548,0.51l-0.413,0.387c-0.06,0.055-0.075,0.092-0.01,0.185
	l0.2,0.278c0.381,0.529,0.774,1.075,1.079,1.671l0.785,1.553c0.047,0.094,0.099,0.183,0.153,0.274l0.018,0.032l0.102-0.093
	c0.146-0.134,0.281-0.256,0.421-0.372c0.153-0.127,0.309-0.252,0.464-0.376c0.255-0.204,0.51-0.408,0.754-0.626
	c0.255-0.227,0.521-0.337,0.813-0.337c0.061,0,0.123,0.005,0.188,0.015c0.073,0.012,0.146,0.017,0.216,0.017
	c0.307,0,0.616-0.104,0.974-0.331c0.522-0.328,0.934-0.813,1.336-1.57c0.191-0.363,0.374-0.686,0.669-0.949
	c0.22-0.196,0.464-0.438,0.609-0.75l0.21-0.435c0.127-0.26,0.253-0.52,0.366-0.785c0.079-0.189,0.158-0.407,0.135-0.583
	c-0.031-0.243,0.021-0.424,0.174-0.604c0.026-0.032,0.049-0.075,0.072-0.122l0.157-0.309c0.124-0.241,0.248-0.482,0.364-0.727
	c0.137-0.29,0.261-0.587,0.385-0.883c0.129-0.308,0.249-0.572,0.464-0.8c0.154-0.164,0.293-0.342,0.431-0.52l0.124-0.158
	c0.065-0.083,0.128-0.169,0.189-0.255c0.125-0.172,0.25-0.345,0.398-0.494c0.255-0.254,0.482-0.497,0.629-0.791
	c-0.06,0.066-0.139,0.12-0.237,0.165c-0.053,0.023-0.111,0.036-0.174,0.036c-0.191,0-0.396-0.113-0.524-0.287
	c-0.104,0.077-0.186,0.156-0.269,0.234c-0.117,0.113-0.235,0.226-0.343,0.348c-0.088,0.099-0.166,0.206-0.244,0.312
	c-0.121,0.165-0.243,0.329-0.391,0.463c-0.482,0.433-0.791,0.967-1.118,1.533l-0.116,0.199c-0.253,0.432-0.534,0.847-0.815,1.261
	L17.011,9.98c-0.052,0.076-0.114,0.158-0.214,0.158c-0.087,0-0.156-0.065-0.226-0.139l-0.007-0.13l0.087-0.109
	c0.063-0.076,0.125-0.151,0.176-0.234C16.99,9.26,17.6,8.235,17.6,8.235l0.163-0.28c0.136-0.238,0.271-0.475,0.438-0.69
	c0.251-0.324,0.528-0.629,0.806-0.934l0.23-0.254c0.247-0.274,0.499-0.543,0.76-0.806c0.366-0.368,0.676-0.671,1.057-0.934
	c0.535-0.371,0.779-0.857,0.724-1.446c-0.014-0.148-0.107-0.244-0.245-0.251H21.53c-0.234,0-0.555,0.209-0.595,0.38
	c-0.024,0.098-0.011,0.219,0.018,0.249c0.005,0,0.01,0.001,0.015,0.001c0.061,0,0.128-0.049,0.174-0.083
	c0.082-0.059,0.156-0.124,0.231-0.189l0.109-0.094l0.16,0.048c0.067,0.225-0.065,0.522-0.282,0.636
	c-0.096,0.047-0.211,0.104-0.345,0.104c-0.161,0-0.313-0.079-0.474-0.247l-0.038,0.031l-0.376,0.388
	c-0.485,0.494-0.969,0.969-1.547,1.35l-0.173,0.109c-0.164,0.101-0.318,0.195-0.437,0.323c-0.225,0.241-0.419,0.51-0.613,0.779
	c0,0-1.012,1.421-1.194,1.671c-0.131,0.181-0.281,0.35-0.434,0.514l-0.15,0.076c-0.092,0-0.174-0.122-0.174-0.213
	c0-0.112,0.066-0.218,0.106-0.271c0.054-0.071,0.112-0.138,0.17-0.205c0.066-0.077,0.134-0.153,0.192-0.235l0.588-0.839
	c0.248-0.356,0.497-0.712,0.75-1.065c0.238-0.334,0.438-0.613,0.76-0.782c0.492-0.258,0.963-0.621,1.48-1.142
	c0.429-0.43,0.845-0.872,1.262-1.313l0.091-0.097c0.193-0.206,0.406-0.305,0.65-0.305c0.038,0,0.076,0.002,0.115,0.007
	c0.068,0.008,0.138,0.03,0.205,0.053l0.1,0.023c0.102-0.232,0.165-0.385,0.237-0.53c0.104-0.209-0.05-0.49-0.194-0.604l-0.07-0.12
	l-0.05,0.098c-0.33,0-0.509,0.287-0.565,0.556c0.024,0.005,0.046,0.008,0.067,0.008c0.079,0,0.138-0.034,0.197-0.068l0.452-0.254
	l0.133,0.033l0.046,0.142c-0.094,0.265-0.286,0.461-0.526,0.54c-0.106,0.035-0.208,0.052-0.301,0.052
	c-0.248,0-0.437-0.125-0.543-0.357l-0.051,0.046c-0.104,0.093-0.199,0.18-0.299,0.262l-0.302,0.25
	c-0.314,0.261-0.628,0.522-0.956,0.765c-0.396,0.294-0.755,0.522-1.095,0.698c-0.461,0.24-0.879,0.458-1.175,0.868
	c-0.338,0.47-0.698,0.925-1.058,1.38l-0.216,0.272c-0.253,0.32-0.515,0.635-0.781,0.942c-0.072,0.084-0.157,0.13-0.239,0.13
	c-0.047,0-0.117-0.015-0.18-0.088l-0.003-0.126l0.733-0.942l0.709-0.936l0.327-0.417c0.163-0.207,0.325-0.413,0.482-0.623
	c0.163-0.221,0.355-0.442,0.648-0.567c0.265-0.112,0.52-0.224,0.738-0.373c0.427-0.289,0.844-0.591,1.261-0.892l0.399-0.287
	c-0.178-0.062-0.378-0.165-0.462-0.403L19.2,1.772l-0.412,0.236c-0.578,0.332-1.156,0.664-1.73,1.001
	c-0.081,0.047-0.166,0.09-0.251,0.132c-0.202,0.101-0.393,0.196-0.53,0.363L16.01,3.835c-0.149,0.189-0.3,0.379-0.46,0.56
	c-0.377,0.424-0.67,0.8-0.924,1.183c-0.291,0.441-0.642,0.853-0.979,1.25L13.415,7.1c-0.188,0.224-0.386,0.439-0.585,0.656
	l-0.351,0.385c-0.029,0.032-0.052,0.069-0.075,0.106c-0.03,0.046-0.06,0.092-0.096,0.132L12.163,8.44l-0.159-0.069
	c-0.024-0.079-0.041-0.132-0.026-0.189c0.018-0.07,0.056-0.133,0.089-0.188c0.191-0.325,0.423-0.558,0.645-0.771
	c0.186-0.177,0.347-0.38,0.508-0.583l0.47-0.571c0.166-0.2,0.333-0.4,0.502-0.598C14.492,5.121,14.4,4.578,14.23,4.228z
	 M14.882,16.742c0.34,0.224,0.675,0.332,1.024,0.332l0.125-0.005c0.226-0.017,0.443-0.037,0.64-0.105
	c0.271-0.095,0.551-0.192,0.76-0.361c0.431-0.347,0.772-0.802,1.102-1.242l0.116-0.154c0.167-0.22,0.343-0.434,0.518-0.647
	l0.435-0.534c0.111-0.137,0.225-0.273,0.308-0.426c0.175-0.322,0.341-0.65,0.507-0.978c0.116-0.23,0.232-0.459,0.352-0.688
	c0.104-0.2,0.218-0.396,0.331-0.592l0.172-0.299l0.172-0.313c0.137-0.251,0.273-0.503,0.43-0.741c0.152-0.231,0.214-0.478,0.201-0.8
	c-0.021-0.537-0.03-1.062,0.093-1.57c0.064-0.262,0.055-0.518-0.031-0.831c-0.085-0.305-0.153-0.639-0.202-0.993
	c-0.021-0.135-0.017-0.273-0.012-0.412c0.003-0.078,0.005-0.156,0.003-0.233c-0.002-0.043-0.01-0.081-0.025-0.114
	c0,0.051-0.001,0.1-0.005,0.149c-0.008,0.113-0.019,0.233-0.052,0.346c-0.089,0.313-0.28,0.563-0.465,0.805
	c-0.098,0.128-0.102,0.187-0.063,0.264c0.044,0.084,0.108,0.161,0.177,0.243c0.095,0.115,0.145,0.17,0.197,0.229l0.083,0.092
	l-0.034,0.158c-0.069,0.031-0.135,0.047-0.199,0.047c-0.139,0-0.24-0.072-0.328-0.148l-0.007,0.037
	c-0.024,0.139-0.048,0.27-0.051,0.401c-0.002,0.114-0.012,0.227-0.021,0.34c-0.019,0.216-0.036,0.42-0.001,0.627
	c0.026,0.164,0.052,0.277,0.156,0.37c0.045,0.04,0.082,0.086,0.121,0.135l0.015,0.208c-0.072,0.039-0.141,0.058-0.21,0.058
	c-0.137,0-0.236-0.073-0.324-0.137l-0.21,0.354c-0.197,0.338-0.393,0.671-0.574,1.012c-0.112,0.213-0.201,0.408-0.154,0.621
	c0.021,0.089,0.052,0.177,0.083,0.266l0.047,0.135l-0.094,0.131c-0.252,0-0.44-0.136-0.456-0.322
	c-0.029-0.319-0.032-0.734,0.21-1.12c0.156-0.25,0.303-0.506,0.449-0.763l0.206-0.361c0.176-0.302,0.288-0.571,0.265-0.9
	c-0.033-0.468,0.036-0.93,0.209-1.371c0.014-0.036,0.016-0.081,0.017-0.131c-0.027,0.027-0.053,0.054-0.075,0.084
	c-0.092,0.126-0.179,0.256-0.266,0.386c-0.198,0.295-0.402,0.6-0.659,0.865c-0.022,0.023-0.053,0.055,0.05,0.156
	c0,0,0.202,0.177,0.243,0.218l0.052,0.187C20.212,8.783,20.11,8.81,20.063,8.81c-0.172-0.06-0.293-0.112-0.407-0.178
	c-0.031-0.018-0.06-0.039-0.084-0.061c0,0-0.36,0.849-0.488,1.14c-0.043,0.095-0.093,0.187-0.143,0.278
	c-0.036,0.068-0.073,0.136-0.107,0.206c-0.021,0.043-0.021,0.086-0.003,0.132c0.035,0.085,0.137,0.164,0.271,0.21
	c0.048,0.018,0.084,0.048,0.122,0.08l0.028,0.221c-0.089,0.029-0.175,0.043-0.256,0.043c-0.188,0-0.331-0.077-0.437-0.16
	c-0.111,0.209-0.177,0.416-0.204,0.639c-0.041,0.337-0.163,0.667-0.274,0.951c-0.113,0.291-0.158,0.531-0.01,0.761
	c0.08,0.125,0.184,0.236,0.286,0.347l0.313,0.34l-0.04,0.163c-0.061,0.021-0.119,0.031-0.177,0.031c-0.168,0-0.29-0.09-0.398-0.169
	c-0.011-0.008-0.021-0.016-0.032-0.023c0.001,0.007,0.003,0.013,0.004,0.02c0.035,0.158,0.079,0.356-0.115,0.538l-0.166-0.052
	c-0.02-0.068-0.03-0.107-0.023-0.151c0.017-0.112-0.02-0.205-0.13-0.329c-0.058-0.064-0.112-0.129-0.153-0.205
	c-0.093,0.13-0.177,0.222-0.253,0.32l0.167-0.004l0.054,0.158l-0.107,0.132c-0.071,0.087-0.137,0.164-0.188,0.25
	c-0.079,0.133-0.185,0.196-0.334,0.196c-0.139-0.014-0.176-0.018-0.207-0.018c-0.066,0-0.079,0-0.148,0.189
	c-0.156,0.428-0.377,0.782-0.655,1.056c-0.232,0.228-0.478,0.442-0.724,0.657l-0.219,0.193
	C14.845,16.721,14.863,16.73,14.882,16.742z M21.198,4.81c-0.23,0.067-0.335,0.172-0.392,0.325c-0.045,0.122-0.039,0.146,0.044,0.2
	c0.027,0.008,0.05,0.011,0.07,0.011c0.055,0,0.084-0.025,0.117-0.053c0.065-0.055,0.261-0.239,0.261-0.239l0.159,0.068
	c-0.005-0.076-0.033-0.148-0.087-0.223C21.329,4.841,21.268,4.81,21.198,4.81z M21.801,4.533c0.082,0,0.171,0.007,0.254,0.045
	c0.01-0.122,0.024-0.243,0.038-0.363c0.024-0.202,0.048-0.397,0.051-0.592c-0.015,0.053-0.033,0.105-0.064,0.153
	c-0.104,0.165-0.224,0.32-0.344,0.475l-0.178,0.238l0.003,0c0.083,0.023,0.155,0.043,0.221,0.043H21.801z M15.038,3.73
	c-0.076,0.036-0.144,0.068-0.203,0.112c-0.13,0.097-0.165,0.161-0.138,0.257l0.115,0.445l0.399-0.465
	c-0.024-0.103-0.075-0.214-0.127-0.329l-0.017-0.035L15.038,3.73z M20.381,1.156c-0.185,0.059-0.278,0.089-0.358,0.136
	c-0.186,0.112-0.297,0.212-0.313,0.391c0.098,0.037,0.158,0.053,0.206,0.053c0.167-0.056,0.281-0.13,0.396-0.203
	c0.065-0.042,0.132-0.084,0.2-0.123c0.056-0.031,0.084-0.069,0.052-0.164c-0.017-0.049-0.09-0.095-0.154-0.095v-0.1L20.381,1.156z"
	/>
</svg>
