<?xml version="1.0" encoding="iso-8859-1"?>
<!-- Generator: Adobe Illustrator 19.0.0, SVG Export Plug-In . SVG Version: 6.00 Build 0)  -->
<svg version="1.1" id="Layer_1" xmlns="http://www.w3.org/2000/svg" xmlns:xlink="http://www.w3.org/1999/xlink" x="0px" y="0px"
	 viewBox="0 0 21.563 16.375" style="enable-background:new 0 0 21.563 16.375;" xml:space="preserve">
<path style="fill:#FFFFFF;" d="M11.691,14.523c-0.271-0.005-0.489-0.03-0.687-0.079l-0.226,0.003
	c-0.075,0.007-0.149,0.013-0.224,0.014l-1.345,0.008c-0.248,0-0.497-0.002-0.745-0.007c-0.618-0.014-1.239-0.103-1.847-0.265
	c-1.068-0.285-2.073-0.813-2.984-1.572c-0.482-0.4-0.933-0.89-1.377-1.496c-0.542-0.738-1.029-1.571-1.45-2.476
	C0.742,8.518,0.693,8.375,0.644,8.233l-0.06-0.171l0.059-0.24c0.591-0.093,1.22-0.137,1.979-0.139c0.627,0,1.232,0.06,1.855,0.181
	C4.471,7.839,4.429,7.711,4.421,7.674c-0.013-0.061-0.08-0.296-0.08-0.296l-0.08-0.329C4.237,6.937,4.216,6.827,4.196,6.716
	l-0.053-0.31L4.051,5.761C4.035,5.629,4.022,5.527,4.013,5.424L3.968,4.775C3.962,4.662,3.959,4.549,3.957,4.437L3.955,3.785
	l0.007-0.339l0.048-0.657l0.067-0.086C4.121,2.688,4.165,2.681,4.21,2.681c0.089,0,0.168,0.028,0.238,0.053
	c0.11,0.039,0.218,0.085,0.321,0.141C5.671,3.36,6.371,3.816,6.972,4.311C7.215,4.512,7.446,4.73,7.662,4.96
	c0.371,0.395,0.702,0.758,0.982,1.166c0,0,0,0,0-0.001c0.117-1.026,0.379-1.999,0.782-2.925c0.211-0.486,0.497-1.124,0.833-1.737
	c0.085-0.156,0.181-0.307,0.276-0.458c0.082-0.129,0.174-0.224,0.291-0.297l0.12,0.01c0.066,0.055,0.101,0.083,0.129,0.119
	c0.081,0.103,0.149,0.189,0.204,0.285c0.405,0.702,0.864,1.524,1.194,2.393c0.318,0.836,0.524,1.68,0.614,2.51l0.026,0.19
	c0.182-0.362,0.431-0.675,0.698-0.972c0.31-0.345,0.643-0.659,0.987-0.933c0.614-0.489,1.147-0.863,1.68-1.177
	c0.186-0.11,0.38-0.206,0.574-0.302c0.221-0.11,0.381-0.149,0.556-0.154l0.098,0.067l0.034,0.111
	c0.019,0.155,0.031,0.249,0.034,0.342c0.022,0.727,0.015,1.317-0.024,1.856c-0.035,0.481-0.081,0.961-0.154,1.438
	c-0.057,0.374-0.144,0.861-0.309,1.342c0.688-0.119,1.318-0.177,2.005-0.177c0.362,0,0.726,0.017,1.089,0.046
	c0.124,0.01,0.248,0.028,0.369,0.055c0.112,0.024,0.282,0.062,0.4,0.222l0.004,0.13c-0.009,0.039-0.02,0.08-0.036,0.118
	c-0.685,1.646-1.546,2.97-2.635,4.045c-1.064,1.052-2.37,1.737-3.88,2.036c-0.351,0.069-0.71,0.106-1.066,0.142
	c-0.499,0.051-0.987,0.075-1.489,0.075L11.691,14.523z M11.355,14.08l0.004-0.1l0.199,0.01c0.169,0.008,0.338,0.017,0.507,0.017
	c0.795-0.01,1.471-0.062,2.12-0.157c0.843-0.123,1.647-0.388,2.389-0.788c0.73-0.395,1.403-0.947,2.054-1.689
	c0.721-0.82,1.341-1.812,1.895-3.034c0.016-0.034,0.028-0.07,0.041-0.107c-0.004,0.005-0.018,0.007-0.038,0.007
	c-0.024,0-0.342-0.025-0.342-0.025c-0.338-0.022-0.618-0.033-0.897-0.033c-0.575,0-1.106,0.043-1.622,0.133
	c-1.163,0.201-2.219,0.67-3.14,1.396c-0.708,0.558-1.341,1.249-1.883,2.055c-0.27,0.401-0.521,0.815-0.772,1.229l-0.127,0.21
	c-0.108,0.179-0.204,0.365-0.299,0.551l-0.054,0.104c-0.032,0.061-0.061,0.114-0.061,0.19L11.355,14.08z M1.195,8.279
	c0.017,0.055,0.041,0.104,0.066,0.156c0.287,0.609,0.601,1.177,0.958,1.738c0.287,0.452,0.567,0.834,0.855,1.167
	c1.41,1.629,3.21,2.504,5.352,2.6c0.273,0.012,0.547,0.017,0.82,0.017c0.38,0,0.76-0.009,1.14-0.018
	c0.009-0.026-0.048-0.129-0.099-0.218l-0.212-0.364c-0.247-0.423-0.494-0.847-0.75-1.265c-0.407-0.66-0.905-1.273-1.523-1.876
	C6.841,9.281,5.71,8.667,4.44,8.391C3.855,8.265,3.239,8.203,2.555,8.203c-0.364,0-0.728,0.018-1.093,0.047L1.195,8.279z
	 M10.695,1.723c-0.372,0.692-0.694,1.382-0.958,2.052C9.375,4.694,9.161,5.665,9.1,6.659c-0.073,1.203,0.08,2.425,0.454,3.632
	c0.205,0.663,0.482,1.292,0.748,1.881c0.132,0.292,0.274,0.579,0.416,0.866c0,0,0.133,0.271,0.146,0.294
	c0.012-0.02,0.021-0.034,0.029-0.049c0.3-0.556,0.548-1.06,0.757-1.541c0.566-1.301,0.885-2.553,0.977-3.829
	c0.082-1.132-0.033-2.262-0.34-3.361c-0.296-1.059-0.781-2.017-1.418-3.129C10.868,1.424,10.743,1.635,10.695,1.723z M4.488,3.314
	C4.363,4.654,4.605,6.791,5.001,7.791c1.302,0.348,2.399,1.003,3.328,1.93c0.132,0.132,0.259,0.269,0.386,0.405l0.082,0.087
	c-0.325-1.14-0.464-2.281-0.414-3.396C8.388,6.708,8.362,6.62,8.295,6.519c-0.232-0.352-0.52-0.672-0.797-0.981L7.344,5.366
	C7.126,5.121,6.878,4.89,6.586,4.659C6.042,4.227,5.415,3.82,4.611,3.375C4.571,3.353,4.53,3.332,4.488,3.314z M17.158,3.352
	c-0.135,0.068-0.271,0.137-0.4,0.214c-0.533,0.317-1.068,0.692-1.637,1.146c-0.6,0.478-1.136,1.053-1.596,1.708l-0.078,0.108
	c-0.089,0.121-0.089,0.121-0.083,0.333c0.021,0.763-0.026,1.453-0.139,2.118c-0.075,0.439-0.165,0.839-0.273,1.218
	c0.025-0.027,0.051-0.055,0.076-0.082c0.091-0.099,0.182-0.197,0.279-0.289l0.121-0.117c0.157-0.151,0.314-0.302,0.481-0.441
	c0.21-0.176,0.432-0.342,0.66-0.495c0.235-0.157,0.478-0.304,0.728-0.436c0.242-0.128,0.494-0.243,0.749-0.345
	c0.175-0.07,0.355-0.13,0.539-0.191l0.243-0.082c-0.003-0.103,0.022-0.173,0.044-0.246c0.146-0.492,0.223-0.994,0.284-1.464
	c0.062-0.476,0.101-0.989,0.122-1.615c0.01-0.277,0.006-0.554,0.002-0.832l-0.002-0.146c0-0.051,0-0.086-0.004-0.113L17.158,3.352z"
	/>
</svg>
