<?xml version="1.0" encoding="iso-8859-1"?>
<!-- Generator: Adobe Illustrator 19.0.0, SVG Export Plug-In . SVG Version: 6.00 Build 0)  -->
<svg version="1.1" id="Layer_1" xmlns="http://www.w3.org/2000/svg" xmlns:xlink="http://www.w3.org/1999/xlink" x="0px" y="0px"
	 viewBox="0 0 25 25" style="enable-background:new 0 0 25 25;" xml:space="preserve">
<path style="fill:#FFFFFF;" d="M13.094,0.671c0.411,0.07,0.824,0.127,1.231,0.214c2.34,0.497,3.717,1.999,4.381,4.23
	c0.486,1.634,0.629,3.312,0.614,5.011c-0.019,2.075-0.015,4.149-0.021,6.224c0,0.159,0,0.318,0,0.465
	c-0.372,0.209-0.408,0.014-0.408-0.272c0.004-2.338,0.038-4.676-0.008-7.013c-0.044-2.267-0.584-4.407-1.927-6.284
	c-0.711-0.994-1.594-1.795-2.801-2.128c-1.639-0.451-3.085,0.035-4.35,1.076C8.484,3.282,7.755,4.74,7.401,6.397
	C7.387,6.463,7.4,6.536,7.505,6.655c0.067-0.11,0.156-0.213,0.199-0.332C8.092,5.226,8.62,4.215,9.447,3.375
	c0.8-0.814,1.82-1.228,2.843-1.664c0.398-0.169,0.663-0.119,1.019,0.083c0.513,0.291,1.109,0.436,1.619,0.731
	c0.869,0.503,1.551,1.214,2.004,2.136c-1.179-0.997-2.333-2.032-3.996-2.249c0,1.146-0.069,2.271,0.022,3.382
	c0.071,0.866,0.985,1.557,1.942,1.583c1.14,0.032,1.829,0.648,2.358,1.593c0.705,1.259,0.363,2.532,0.166,3.845
	c0.367,0.055,0.377,0.384,0.286,0.626c-0.092,0.245-0.331,0.439-0.523,0.638c-0.079,0.082-0.233,0.099-0.3,0.186
	c-0.439,0.577-0.806,1.222-1.313,1.73c-0.376,0.376-0.522,0.775-0.583,1.255c-0.038,0.301-0.078,0.601-0.12,0.925
	c1.689,0.156,2.826,1.082,3.586,2.524c0.431,0.818,0.718,1.676,0.699,2.603c-0.039,0.018-0.078,0.036-0.117,0.053
	c-0.315-0.36-0.631-0.719-0.987-1.125c-0.34,0.784-0.796,1.369-1.606,1.716c0.209,0.246,0.389,0.456,0.588,0.691
	c-0.127,0.068-0.259,0.137-0.388,0.206c-0.419-0.594-1.066-0.847-1.6-1.251c-0.295-0.224-0.502-0.645-0.607-1.017
	c-0.104-0.368-0.193-0.695-0.456-0.999c-0.407-0.472-0.745-1.004-1.129-1.533c-0.54,0.702-1.086,1.41-1.642,2.131
	c0.048,0.099,0.116,0.207,0.157,0.325c0.183,0.52-0.058,1.025-0.591,1.097c-0.468,0.063-0.762,0.299-1.012,0.661
	c-0.165,0.239-0.359,0.457-0.556,0.703c-0.151-0.108-0.288-0.205-0.46-0.327c0.321-0.375,0.62-0.725,0.897-1.049
	c-0.5-0.414-0.992-0.821-1.5-1.242c-0.252,0.215-0.572,0.489-0.913,0.781c-0.134-0.112-0.254-0.212-0.419-0.35
	c0.337-0.319,0.66-0.608,0.959-0.919c0.086-0.089,0.158-0.248,0.146-0.365c-0.085-0.805,0.383-1.442,1.148-1.282
	c0.68,0.142,0.931-0.213,1.255-0.604c0.054-0.065,0.107-0.131,0.169-0.206c-0.369,0-0.716,0.047-1.045-0.008
	c-1.333-0.225-2.105-1.115-2.576-2.304c-0.479-1.209-0.701-2.474-0.615-3.772c0.118-1.788,0.233-3.579,0.443-5.357
	c0.179-1.521,0.515-3.025,1.289-4.376c0.996-1.737,2.542-2.634,4.516-2.831c0.111-0.011,0.218-0.052,0.328-0.08
	C12.918,0.671,13.006,0.671,13.094,0.671z M7.382,8.721C7.325,8.717,7.268,8.712,7.21,8.707c-0.114,0.666-0.299,1.329-0.325,1.998
	c-0.052,1.328-0.048,2.66-0.006,3.988c0.036,1.147,0.301,2.247,0.96,3.219c0.639,0.941,1.403,1.238,2.524,1.037
	c0.37-0.066,0.4-0.225,0.336-0.536c-0.124-0.613-0.292-1.231-0.302-1.85c-0.008-0.525-0.186-0.907-0.497-1.292
	c-0.224-0.277-0.372-0.613-0.565-0.916c-0.064-0.1-0.145-0.225-0.245-0.259c-0.558-0.189-0.697-0.536-0.45-1.068
	c0.095-0.206,0.131-0.456,0.129-0.685c-0.005-0.418-0.059-0.835-0.092-1.252c0.313,1.544,0.555,3.096,1.77,4.33
	c0.431-1.125,0.843-2.201,1.272-3.321c-1.134,0.474-1.86-0.183-1.984-1.062c0.257,0.226,0.524,0.525,0.849,0.731
	c0.546,0.347,1.223,0.079,1.455-0.524c0.125-0.325,0.252-0.65,0.394-0.969c0.036-0.081,0.136-0.194,0.201-0.19
	c0.315,0.018,0.586,0.083,0.673,0.484c0.07,0.321,0.235,0.627,0.398,0.918c0.074,0.132,0.233,0.274,0.374,0.302
	c0.385,0.076,0.763,0.015,1.038-0.307c0.234-0.274,0.451-0.562,0.71-0.887c-0.041,0.473-0.24,0.825-0.52,1.14
	c-0.357,0.402-0.815,0.485-1.249,0.385c0.412,1.226,0.825,2.454,1.261,3.754c0.364-0.494,0.783-0.979,1.107-1.521
	c0.673-1.126,0.922-2.385,0.948-3.678c0.023-1.17-0.554-2.237-1.642-2.642c-0.318-0.119-0.678-0.126-1.02-0.181
	c-0.948-0.153-1.606-0.663-1.924-1.623c-0.094,0.236-0.152,0.433-0.248,0.61c-0.288,0.535-0.622,1.064-1.259,1.192
	C10.542,8.183,9.814,8.311,9.28,8.923c0.276-0.784,0.864-1.163,1.621-1.3c0.885-0.161,1.427-0.699,1.659-1.53
	c0.107-0.383,0.097-0.805,0.104-1.21c0.015-0.811,0.004-1.623,0.004-2.478c-0.483,0.087-0.916,0.105-1.305,0.246
	c-1.119,0.407-1.999,1.144-2.595,2.171c-1.317,2.269-1.371,4.634-0.448,7.053c0.128,0.336,0.139,0.332-0.133,0.596
	C7.578,11.291,7.388,10.027,7.382,8.721z M13.071,11.994c-0.037,0.008-0.074,0.016-0.11,0.024c-0.012,0.135-0.034,0.269-0.034,0.404
	c-0.003,2.074-0.013,4.148,0.004,6.222c0.003,0.325,0.077,0.669,0.199,0.971c0.467,1.154,1.331,1.996,2.262,2.796
	c0.539-0.241,1.02-0.536,1.229-1.111c0.048-0.132,0.031-0.378-0.058-0.454c-0.396-0.341-0.839-0.628-1.245-0.959
	c-0.226-0.184-0.474-0.383-0.607-0.631c-0.319-0.598-0.2-1.248-0.09-1.879c0.165-0.943,0.265-1.871-0.205-2.77
	c-0.39-0.747-0.749-1.512-1.126-2.266C13.229,12.22,13.145,12.11,13.071,11.994z M12.668,10.648
	c-0.025-0.004-0.051-0.008-0.076-0.012c-0.582,1.467-1.191,2.925-1.731,4.408c-0.152,0.418-0.173,0.917-0.129,1.367
	c0.079,0.808,0.266,1.604,0.376,2.41c0.026,0.187-0.018,0.441-0.132,0.58c-0.414,0.507-0.867,0.983-1.313,1.464
	c-0.484,0.521-0.473,0.679,0.124,1.097c0.141,0.099,0.3,0.199,0.464,0.231c0.133,0.026,0.342,0,0.42-0.088
	c0.584-0.665,1.171-1.333,1.698-2.043c0.185-0.249,0.283-0.62,0.286-0.936c0.024-2.249,0.013-4.498,0.011-6.747
	c0-0.104-0.028-0.209-0.042-0.313c-0.051-0.009-0.102-0.019-0.153-0.028c-0.237,0.837-0.474,1.674-0.711,2.511
	c-0.045-0.012-0.089-0.024-0.134-0.036c-0.005-0.11-0.041-0.23-0.011-0.33c0.237-0.794,0.485-1.584,0.737-2.374
	c0.025-0.079,0.093-0.145,0.143-0.217c0.057-0.083,0.156-0.16,0.165-0.247C12.684,11.116,12.668,10.881,12.668,10.648z
	 M18.599,22.523c0.035-0.017,0.069-0.034,0.104-0.051c0-0.055,0.013-0.114-0.002-0.164c-0.3-0.967-0.741-1.864-1.424-2.617
	c-0.503-0.554-1.081-1.008-1.869-1.11c-0.282-0.036-0.506,0.047-0.51,0.311c-0.002,0.16,0.176,0.388,0.334,0.474
	c0.673,0.368,1.073,1.159,2.005,1.172c0.251,0.004,0.515,0.554,0.733,0.88C18.204,21.77,18.391,22.153,18.599,22.523z M17.65,21.219
	c-0.454,1.014-0.542,1.119-1.059,1.324c0.589-0.567,0.79-1.215,0.524-1.685c-0.294,1.113-0.955,1.822-2.195,2.003
	c0.238,0.28,0.475,0.646,0.788,0.729c0.601,0.16,1.138-0.124,1.545-0.592C17.674,22.513,17.859,21.963,17.65,21.219z M8.959,20.398
	c-0.417,0.118-0.736,0.266-0.735,0.723c0.003,1.053,1.206,2.219,2.262,2.198c0.474-0.009,0.707-0.299,0.636-0.792
	C9.984,23.056,8.661,21.55,8.959,20.398z M13.046,10.592c-0.045,0.007-0.089,0.015-0.134,0.022c0,0.257-0.007,0.515,0.005,0.772
	c0.003,0.064,0.06,0.131,0.104,0.187c0.109,0.14,0.256,0.259,0.332,0.414c0.353,0.719,0.688,1.448,1.029,2.173
	c0.032-0.014,0.064-0.028,0.097-0.042C14.001,12.942,13.523,11.767,13.046,10.592z M17.302,12.91
	c-0.097,0.385-0.176,0.699-0.269,1.068C17.635,13.577,17.71,13.318,17.302,12.91z M9.207,14.034
	c-0.136-0.376-0.234-0.649-0.345-0.957C8.606,13.559,8.648,13.696,9.207,14.034z"/>
<path style="fill:#FFFFFF;" d="M18.599,22.523c-0.208-0.369-0.394-0.752-0.629-1.104c-0.218-0.326-0.483-0.876-0.733-0.88
	c-0.932-0.013-1.332-0.804-2.005-1.172c-0.158-0.087-0.337-0.314-0.334-0.474c0.003-0.264,0.227-0.348,0.51-0.311
	c0.788,0.102,1.367,0.556,1.869,1.11c0.683,0.753,1.125,1.649,1.424,2.617c0.015,0.05,0.002,0.109,0.002,0.164
	C18.668,22.488,18.633,22.505,18.599,22.523z"/>
<path style="fill:#FFFFFF;" d="M17.65,21.219c0.209,0.744,0.024,1.294-0.398,1.779c-0.407,0.468-0.944,0.751-1.545,0.592
	c-0.312-0.083-0.549-0.449-0.788-0.729c1.24-0.181,1.902-0.89,2.195-2.003c0.267,0.47,0.065,1.118-0.524,1.685
	C17.108,22.339,17.196,22.233,17.65,21.219z"/>
<path style="fill:#FFFFFF;" d="M8.959,20.398c-0.298,1.152,1.025,2.658,2.163,2.129c0.071,0.493-0.162,0.783-0.636,0.792
	c-1.057,0.021-2.259-1.145-2.262-2.198C8.223,20.664,8.543,20.516,8.959,20.398z M9.572,22.602c-0.298-0.43-0.609-0.878-0.892-1.285
	C8.45,21.887,8.896,22.548,9.572,22.602z"/>
<path style="fill:#FFFFFF;" d="M13.046,10.592c0.477,1.175,0.955,2.351,1.432,3.526c-0.032,0.014-0.064,0.028-0.097,0.042
	c-0.341-0.725-0.676-1.454-1.029-2.173c-0.076-0.155-0.223-0.274-0.332-0.414c-0.044-0.056-0.101-0.123-0.104-0.187
	c-0.012-0.257-0.005-0.514-0.005-0.772C12.957,10.606,13.001,10.599,13.046,10.592z"/>
<path style="fill:#FFFFFF;" d="M16.21,9.636c-0.541,0.778-1.294,1.184-2.238,1.207c-0.119,0.003-0.241-0.131-0.361-0.201
	c0.105-0.077,0.207-0.217,0.315-0.221C14.765,10.386,15.492,10.048,16.21,9.636z"/>
<path style="fill:#FFFFFF;" d="M9.529,9.902c0.556,0.153,1.215,0.337,1.874,0.515c0.262,0.071,0.51,0.139,0.257,0.48
	C10.795,10.819,9.906,10.377,9.529,9.902z"/>
<path style="fill:#FFFFFF;" d="M13.31,8.608c-0.244,0.155-0.386,0.317-0.524,0.313c-0.123-0.004-0.24-0.191-0.36-0.298
	c0.118-0.13,0.225-0.349,0.358-0.366C12.91,8.241,13.064,8.434,13.31,8.608z"/>
<path style="fill:#FFFFFF;" d="M9.572,22.602c-0.675-0.054-1.122-0.715-0.892-1.285C8.963,21.724,9.274,22.172,9.572,22.602z"/>
</svg>
