<?xml version="1.0" encoding="iso-8859-1"?>
<!-- Generator: Adobe Illustrator 19.0.0, SVG Export Plug-In . SVG Version: 6.00 Build 0)  -->
<svg version="1.1" id="Layer_1" xmlns="http://www.w3.org/2000/svg" xmlns:xlink="http://www.w3.org/1999/xlink" x="0px" y="0px"
	 viewBox="0 0 22.625 21.813" style="enable-background:new 0 0 22.625 21.813;" xml:space="preserve">
<path style="fill:#FFFFFF;" d="M11.001,18.13l-0.123-0.04c-0.075-0.091-0.069-0.187-0.065-0.257v-1.939l-0.006-0.188
	c-0.312-0.039-0.657-0.085-1-0.188c-0.301-0.09-0.602-0.211-0.918-0.371c-0.078,0.11-0.14,0.224-0.202,0.335l-0.542,0.941
	c-0.083,0.147-0.168,0.296-0.27,0.444l-0.113,0.038c-0.139-0.045-0.257-0.114-0.374-0.216l-0.021-0.124
	c0.173-0.313,0.352-0.621,0.531-0.929c0.166-0.286,0.332-0.572,0.494-0.863l-0.011-0.058l-0.058,0.081
	c-0.558-0.4-1.021-0.896-1.377-1.476c-0.094,0.007-0.223,0.089-0.353,0.173L5.143,14.4l-0.115-0.007
	c-0.123-0.098-0.183-0.221-0.242-0.341l0.02-0.142c0.138-0.106,0.284-0.196,0.429-0.284l1.036-0.648
	c0.121-0.075,0.243-0.15,0.365-0.232L6.586,12.62c-0.093-0.243-0.19-0.493-0.238-0.756c-0.041-0.221-0.077-0.442-0.113-0.67
	l-0.038-0.234l-0.143-0.006l-1.56-0.001l-0.18-0.004l-0.179-0.069c-0.039-0.111-0.034-0.209-0.029-0.297l0.049-0.176
	c0.079-0.05,0.152-0.056,0.208-0.056c0,0,1.741,0.001,1.756,0.001c0.085,0,0.112-0.006,0.14-0.023C6.28,9.63,6.482,8.932,6.82,8.319
	C6.792,8.295,6.759,8.279,6.724,8.26L2.745,5.963L2.582,5.864l-0.11-0.152c0.034-0.127,0.099-0.224,0.157-0.31l0.087-0.08
	c0.01,0,0.02,0,0.029,0c0.127,0,0.186,0.04,0.229,0.069L7.02,7.729l0.127,0.068l0.078-0.109C7.33,7.56,7.433,7.434,7.544,7.316
	C7.699,7.151,7.866,6.993,8.04,6.847C8.164,6.744,8.295,6.648,8.431,6.55l0.112-0.082c-0.073-0.14-0.152-0.275-0.232-0.41
	l-2.25-3.902L6.074,2.04c0.109-0.122,0.235-0.178,0.378-0.233l0.12,0.038C6.678,2.008,6.772,2.174,6.867,2.34l2.214,3.835
	l0.027-0.006c0.537-0.249,1.131-0.403,1.767-0.456c0.047-0.007,0.045-0.044,0.041-0.106l-0.034-4.624
	c-0.001-0.132,0.005-0.273,0.102-0.412l0.094-0.042c0.111,0.014,0.227,0.049,0.364,0.112L11.5,0.733l0.008,3.381
	c0.002,0.528,0.004,1.056,0.012,1.596c0.715,0.061,1.335,0.225,1.895,0.503l0.017-0.12l2.258-4.015
	c0.067-0.12,0.137-0.242,0.293-0.311c0.181,0.06,0.243,0.136,0.298,0.204l0.067,0.078l0.011,0.124l-0.062,0.093
	c-0.04,0.06-0.078,0.116-0.111,0.175l-2.288,4.075c0.606,0.365,1.08,0.828,1.457,1.375c0.004,0.007,0.011,0.01,0.019,0.01
	c0.021,0,0.051-0.021,0.083-0.044l3.818-2.448c0.12-0.077,0.229-0.147,0.365-0.165l0.163,0.067c0.066,0.146,0.095,0.271,0.091,0.39
	L19.72,5.856c-0.087,0.051-0.171,0.1-0.252,0.152L15.83,8.337l-0.135,0.09c0.25,0.552,0.409,1.069,0.48,1.593
	c0.01,0.072,0.049,0.48,0.049,0.48l0.113,0.003l1.638-0.042c0.159,0.009,0.243,0.061,0.29,0.141c0.046,0.081,0.05,0.18,0.009,0.267
	c-0.056,0.115-0.153,0.185-0.283,0.202c-0.05,0.007-0.101,0.007-0.152,0.008l-1.49,0.035l-0.136,0.01l-0.032,0.239
	c-0.043,0.233-0.086,0.462-0.141,0.688c-0.07,0.291-0.187,0.593-0.368,0.951l0.101,0.001l1.474,0.853l0.15,0.091l0.107,0.152
	c-0.041,0.143-0.109,0.264-0.217,0.382l-0.12,0.021c-0.208-0.108-0.409-0.226-0.609-0.343l-1.163-0.671l-0.04,0.043
	c-0.34,0.494-0.76,0.921-1.246,1.268l0.982,1.828l-0.014,0.118c-0.102,0.11-0.218,0.165-0.341,0.223l-0.147-0.021
	c-0.101-0.141-0.184-0.288-0.266-0.434l-0.783-1.356l-0.048,0.017c-0.494,0.251-1.018,0.417-1.556,0.493
	c-0.077,0.011-0.384,0.039-0.384,0.039c-0.105,0.006-0.134,0.008-0.168,0.039c0.028,0.09,0.029,0.258,0.029,0.428V18l-0.061,0.092
	c-0.072,0.03-0.145,0.044-0.232,0.044L11.001,18.13z M11.22,6.315c-1.177,0-2.286,0.463-3.123,1.304
	C7.27,8.451,6.817,9.55,6.824,10.712C6.816,11.878,7.27,12.979,8.1,13.814c0.831,0.835,1.938,1.295,3.121,1.295
	c2.42-0.002,4.39-1.969,4.394-4.386c0.002-1.177-0.451-2.281-1.275-3.107c-0.825-0.827-1.96-1.301-3.116-1.302l-0.003-0.1V6.315z"/>
<path style="fill:#FFFFFF;" d="M16.035,19.525c-0.104-0.132-0.184-0.275-0.263-0.418l-0.877-1.52
	c-0.083-0.14-0.168-0.282-0.234-0.442l0.042-0.124l0.325-0.189l0.129,0.025c0.085,0.108,0.149,0.222,0.21,0.333l1.164,2.021
	l-0.028,0.131c-0.085,0.063-0.122,0.091-0.161,0.115c-0.039,0.023-0.078,0.043-0.121,0.065L16.035,19.525z"/>
<path style="fill:#FFFFFF;" d="M1.338,10.97l-0.045-0.113l-0.061,0.084c-0.108-0.207-0.093-0.347-0.075-0.468l0.072-0.082
	l0.117-0.028l2.327,0l0.048,0.108l0.061-0.089l0.08,0.08c0.021,0.111,0.04,0.258-0.006,0.412l-0.082,0.074l-1.85,0.022H1.338z"/>
<path style="fill:#FFFFFF;" d="M19.688,15.935c-0.181-0.062-1.914-1.05-2.207-1.26l-0.03-0.129l0.122-0.224l0.188-0.136
	c0.196,0.074,1.959,1.085,2.194,1.257l0.037,0.107c-0.034,0.123-0.098,0.239-0.196,0.354L19.688,15.935z"/>
<path style="fill:#FFFFFF;" d="M2.555,15.919c-0.113-0.102-0.177-0.229-0.225-0.341l0.026-0.115c0.151-0.133,1.782-1.16,2.029-1.278
	l0.128,0.038l0.192,0.31l-0.02,0.129c-0.161,0.138-1.785,1.162-2.021,1.274L2.555,15.919z"/>
<path style="fill:#FFFFFF;" d="M18.917,11.051c-0.041-0.162-0.032-0.297-0.019-0.421l0.078-0.087
	c0.071-0.019,0.109-0.029,0.151-0.03c0,0,1.938-0.05,1.939-0.05c0.133,0,0.271,0.021,0.385,0.174l0.006,0.11l-0.169,0.285
	l-0.127,0.049c-0.652,0-1.31,0.021-1.973,0.042l-0.172,0.005L18.917,11.051z"/>
<path style="fill:#FFFFFF;" d="M10.941,20.631l-0.097-0.077c-0.018-0.058-0.029-0.093-0.029-0.134v-2.007l0.07-0.168
	c0.063-0.03,0.129-0.044,0.209-0.044c0.041,0,0.082,0.003,0.123,0.007l0.169,0.09c0.033,0.202,0.039,1.963,0.008,2.244l-0.1,0.089
	H10.941z"/>
<path style="fill:#FFFFFF;" d="M6.353,19.353c-0.1-0.023-0.178-0.071-0.246-0.113c-0.037-0.022-0.074-0.045-0.115-0.064
	l-0.051-0.129c0.032-0.084,0.044-0.116,0.061-0.146l0.896-1.551l0.171-0.136c0.146,0.034,0.256,0.116,0.354,0.188L7.467,17.5
	l-0.966,1.747L6.353,19.353z"/>
</svg>
