<?xml version="1.0" encoding="utf-8"?>
<!-- Generator: Adobe Illustrator 19.0.0, SVG Export Plug-In . SVG Version: 6.00 Build 0)  -->
<svg version="1.1" id="Layer_1" xmlns="http://www.w3.org/2000/svg" xmlns:xlink="http://www.w3.org/1999/xlink" x="0px" y="0px"
	 viewBox="0 0 25 25" style="enable-background:new 0 0 25 25;" xml:space="preserve">
<style type="text/css">
	.st0{fill:none;stroke:#0E2E63;stroke-width:0.5;stroke-miterlimit:10;}
	.st1{fill:none;stroke:#FFFFFF;stroke-width:0.5;stroke-miterlimit:10;}
	.st2{fill:#0E2E63;}
	.st3{font-family:'AlteHaasGrotesk_Bold';}
	.st4{font-size:1.1046px;}
	.st5{font-size:2.2091px;}
</style>
<path id="XMLID_49_" class="st0" d="M24,5.7c0,0-0.6,0.2-0.8,0.3c-0.2,0.1-0.7,0.6-0.9,0.7s-1,0.2-1.3,0.7s-0.4,0.2-0.6,0.4
	c-0.2,0.2-0.5,0.3-0.8,0.3c-0.3,0-1.4,1.1-1.5,1.2s-0.5,0.4-0.5,0.4l0-2.8l-0.4-0.2l-1.2-2c0,0-0.2-0.4,0-0.6
	c0.2-0.2,0.2-0.1,0.2-0.5c0-0.4,0.1-0.9,0-1.1s0-0.4-0.3-0.5c-0.3-0.1-1.7,0-1.7,0l-1,0c0,0-0.6,0-0.6,0h-0.6l-1,0
	c0,0-1.4-0.1-1.7,0C9,1.9,9.1,2.1,9,2.4s0,0.7,0,1.1S9,3.8,9.2,4s0,0.6,0,0.6L8,6.7v2.9H7.7c0,0-0.5-0.2-0.6-0.3
	C7.1,9.2,6,8.1,5.7,8.1S5.1,8.1,4.9,7.8C4.6,7.6,4.6,7.9,4.3,7.4S3.2,6.9,3,6.7C2.8,6.6,2.2,6.2,2.1,6.1S1.5,5.9,1.5,5.9L1,6.1
	c0,0-0.4,9,0.1,9s1.5,0.6,2.2,0.8c0.7,0.2,0.6,2.3,0.7,3s0,0.4,0.6,0.6c0.6,0.2,1.1,0.6,1.5,1.2c0.4,0.6,1,0.9,1.4,1
	s0.7,0.2,1.1,0.6s0.6,0.3,1.4,0.5c1.2,0.2,2.7,0.4,3.8-0.8c0.1-0.1,0.3-0.1,0.4-0.1c0.5,0,1,0.3,1.5,0.4c0.5,0.1,1.3,0.1,1.9-0.7
	c0.5-0.6,0.7-0.1,1.2-0.7c0.4-0.5,1.1-0.9,1.5-1.7c0.3-0.6,0.1-1.6,0.2-2.3c0.1-0.7-0.2-1.5,0.5-1.7C22,15,23.6,13,24,13
	C24.5,13.1,24,5.7,24,5.7z"/>
<path id="XMLID_48_" class="st0" d="M7.3,15.3c0.4,0.3,0.5,0.8,0.6,1.3c0.1,0.5,0.2,1.1,0.2,1.7c0,0.2,0,0.5-0.2,0.7
	c-0.2,0.2-0.4,0.2-0.6,0.2c-0.1,0-0.2,0-0.3,0c-0.1-0.1-0.2-0.2-0.3-0.4c-0.2-0.3-0.6-0.5-0.6-0.8"/>
<path id="XMLID_47_" class="st0" d="M7.8,19.3c0.1,0.1,0,0.2-0.1,0.3s-0.2,0.1-0.3,0.1c0.6,0.2,1.4-0.1,1.9,0.2
	c0.1,0,0.2,0.1,0.2,0.1c0.1,0,0.1,0,0.2,0c0.5-0.2,1-0.3,1.5-0.2s0.9,0.7,0.7,1.2c-0.4,0-0.8-0.1-1.2-0.2s-0.8,0-1.1,0.3
	c-0.1,0.1-0.1,0.2-0.2,0.2c-0.1,0-0.2,0.1-0.2,0.1c-0.7,0.1-1.4,0-2-0.1"/>
<path id="XMLID_46_" class="st0" d="M9.1,21.9c1.1,0,2.3-0.2,3.1-0.9c0.1-0.1,0.2-0.1,0.2-0.2c0.1,0,0.2-0.1,0.3-0.1
	c0.3,0,0.5,0.1,0.7,0.3c0.2,0.2,0.3,0.5,0.4,0.7"/>
<path id="XMLID_44_" class="st0" d="M19.1,20.3c-0.3,0.4-0.8,0.6-1.3,0.6c-0.2,0-0.3,0-0.5,0c-0.1,0-0.3,0-0.4,0.1
	c-0.3,0-0.5,0-0.8-0.1c-0.3,0-0.6-0.1-0.7-0.3c-0.2-0.3,0-0.6,0.2-0.8s0.5-0.2,0.8-0.3c0.3,0,0.6,0,0.9-0.1c0.2,0,0.4-0.1,0.4,0.1
	c-0.1,0-0.1-0.1-0.1-0.1s0.1-0.1,0.2-0.1c0.3-0.1,0.5-0.2,0.8-0.2c0.2,0,0.4-0.1,0.6-0.1s0.4-0.2,0.5-0.4c-0.3-0.4-0.9-0.7-1.2-1.1
	c-0.1-0.2-0.2-0.4-0.2-0.7c-0.1-0.5-0.2-1-0.2-1.5"/>
<path id="XMLID_43_" class="st0" d="M18.1,11.1c0.5,0.2,0.9,0.5,1.1,0.9"/>
<path id="XMLID_36_" class="st0" d="M21.6,7.6C22.1,8,22.5,8.5,22.9,9"/>
<path id="XMLID_35_" class="st0" d="M21.4,11.9c0.1-0.1,0.1-0.2,0.2-0.4c0-0.1,0.1-0.1,0.1-0.1c0.1,0,0.1-0.1,0.2,0
	c0.2,0,0.4,0,0.5,0c0.3-0.1,0.5-0.3,0.7-0.4"/>
<path id="XMLID_33_" class="st0" d="M4,16.6c0.2-0.7-0.2-1.4-0.2-2c0-0.3,0.1-0.5,0.1-0.8c0-0.2,0.1-0.4,0.1-0.6
	c0.1-0.3,0.1-0.7-0.1-0.9"/>
<path id="XMLID_31_" class="st0" d="M4.2,11.5c0.2-0.2,0.4-0.3,0.5-0.5C4.9,11,5,10.9,5,10.8c0.1-0.2,0.2-0.4,0.4-0.5
	c0.1-0.1,0.2-0.1,0.3-0.2c0.4-0.2,0.7-0.3,1.1-0.4"/>
<path id="XMLID_30_" class="st1" d="M6,17.8c-0.1-0.1-0.1-0.3-0.1-0.4c0-0.1,0-0.2,0.1-0.3c0.1-0.1,0.2-0.2,0.4-0.2
	c0.1,0,0.3,0.1,0.4,0.1"/>
<path id="XMLID_25_" class="st0" d="M20.6,12.5c0,0.1,0,0.2-0.1,0.2c-0.5,0.8-0.5,1.9,0,2.7"/>
<circle id="XMLID_24_" class="st0" cx="10.1" cy="18.1" r="1.4"/>
<circle id="XMLID_22_" class="st0" cx="13" cy="19.3" r="0.9"/>
<circle id="XMLID_21_" class="st0" cx="14.9" cy="17.7" r="1.2"/>
<path id="XMLID_20_" class="st0" d="M16.5,15.7c-0.1,0.4-0.2,0.9-0.2,1.3c0,0.4,0.2,0.9,0.6,1.1c0.1,0.1,0.2,0.1,0.3,0.1
	c0.1,0,0.3-0.1,0.3-0.3s0-0.3,0-0.4c0-0.8,0-1.6,0.1-2.5"/>
<path id="XMLID_16_" class="st0" d="M9.9,4.2c2,0,4.1,0,6.1-0.1h-0.5"/>
<path id="XMLID_12_" class="st0" d="M17.6,15c-1.9,1.7-7.5,1.2-9.4-0.1c0-1-0.5-8.2-0.1-8.3c4.3,0.9,5.1,0.7,9.6,0.4
	C17.9,7.1,17.5,14.3,17.6,15z"/>
<path id="XMLID_11_" class="st0" d="M15.5,20.5c0.1-0.1,0.3-0.1,0.4-0.2c0.1,0,0.2-0.1,0.3-0.1c0.2,0,0.3,0,0.5,0.1
	c0.3,0.1,0.6,0.2,0.9,0.3c0.1,0.1,0.3,0.1,0.4,0.2"/>
<text id="XMLID_3_" transform="matrix(1 0 0 1 10.5677 9.673)" class="st2 st3 st4">PLEASE</text>
<text id="XMLID_2_" transform="matrix(1 0 0 1 9.8984 12.0063)" class="st2 st3 st5">HELP</text>
<path id="XMLID_1_" class="st0" d="M16.8,18c0.1-0.2,0.1-0.3,0.2-0.5c0-0.1,0.1-0.2,0.2-0.3s0.2-0.1,0.3,0"/>
<line id="XMLID_4_" class="st0" x1="9.9" y1="12.8" x2="15.7" y2="12.8"/>
<line id="XMLID_13_" class="st0" x1="9.9" y1="14" x2="15.7" y2="14"/>
</svg>
