<?xml version="1.0" encoding="iso-8859-1"?>
<!-- Generator: Adobe Illustrator 19.0.0, SVG Export Plug-In . SVG Version: 6.00 Build 0)  -->
<svg version="1.1" id="Layer_1" xmlns="http://www.w3.org/2000/svg" xmlns:xlink="http://www.w3.org/1999/xlink" x="0px" y="0px"
	 viewBox="0 0 25 25" style="enable-background:new 0 0 25 25;" xml:space="preserve">
<image style="overflow:visible;" width="320" height="180" id="XMLID_17_" xlink:href="../NASIK FOLDER/gyanshala.jpg"  transform="matrix(0.0783 0 0 0.0783 -39.9069 5.3333)">
</image>
<path id="XMLID_16_" style="fill:none;stroke:#FFFFFF;stroke-width:0.5;stroke-miterlimit:10;" d="M20.493,19.922H1.094l1.97-3.915
	l1.945-1.022c0,0,4.675-1.471,5.897,0.312c1.222-2.169,5.722-0.636,5.722-0.636l1.322,0.673L20.493,19.922z"/>
<path id="XMLID_15_" style="fill:none;stroke:#FFFFFF;stroke-width:0.5;stroke-miterlimit:10;" d="M17.949,15.335l-1.322-0.673
	c0,0-0.009-0.003-0.025-0.008l1.409,3.137c0,0-4.725-1.975-7.131,0.997c-1.334-2.057-7.405-0.524-7.405-0.524l1.539-3.281
	c-0.003,0.001-0.006,0.002-0.006,0.002l-1.945,1.022l-1.97,3.915h19.399L17.949,15.335z"/>
<path id="XMLID_14_" style="fill:none;stroke:#FFFFFF;stroke-width:0.25;stroke-miterlimit:10;" d="M10.88,18.788
	c0.111-0.137,0.227-0.264,0.347-0.38l-0.322-3.11l-0.264,3.205C10.732,18.589,10.813,18.684,10.88,18.788z"/>
<path id="XMLID_13_" style="fill:none;stroke:#FFFFFF;stroke-width:0.25;stroke-miterlimit:10;" d="M3.765,18.822
	c1.883-0.532,5.167-1.055,7.028,0.553"/>
<path id="XMLID_11_" style="fill:none;stroke:#FFFFFF;stroke-width:0.25;stroke-miterlimit:10;" d="M5.841,19.42
	c1.344-0.379,3.351-0.887,4.938,0"/>
<path id="XMLID_10_" style="fill:none;stroke:#FFFFFF;stroke-width:0.25;stroke-miterlimit:10;" d="M17.938,18.822
	c-1.883-0.532-5.167-1.055-7.028,0.553"/>
<path id="XMLID_8_" style="fill:none;stroke:#FFFFFF;stroke-width:0.25;stroke-miterlimit:10;" d="M15.862,19.42
	c-1.344-0.379-3.351-0.887-4.938,0"/>
<path id="XMLID_7_" style="fill:none;stroke:#FFFFFF;stroke-width:0.5;stroke-miterlimit:10;" d="M10.905,15.297
	c1.222-2.169,5.722-0.636,5.722-0.636l1.322,0.673l0.065,0.117l6.518-9.119h-3.366L7.134,14.519
	C8.538,14.32,10.238,14.323,10.905,15.297z"/>
<line id="XMLID_6_" style="fill:none;stroke:#FFFFFF;stroke-width:0.25;stroke-miterlimit:10;" x1="18.061" y1="17.862" x2="18.473" y2="18.405"/>
<line id="XMLID_5_" style="fill:none;stroke:#FFFFFF;stroke-width:0.25;stroke-miterlimit:10;" x1="19.265" y1="18.405" x2="18.365" y2="18.405"/>
<line id="XMLID_4_" style="fill:none;stroke:#FFFFFF;stroke-width:0.25;stroke-miterlimit:10;" x1="19.165" y1="18.405" x2="19.857" y2="19.237"/>
<line id="XMLID_2_" style="fill:none;stroke:#FFFFFF;stroke-width:0.25;stroke-miterlimit:10;" x1="3.562" y1="16.157" x2="3.138" y2="17.288"/>
<line id="XMLID_1_" style="fill:none;stroke:#FFFFFF;stroke-width:0.5;stroke-miterlimit:10;" x1="21.474" y1="7.167" x2="12.724" y2="13"/>
<line id="XMLID_3_" style="fill:none;stroke:#FFFFFF;stroke-width:0.5;stroke-miterlimit:10;" x1="22.042" y1="7.375" x2="16.875" y2="12.792"/>
</svg>
