<?xml version="1.0" encoding="iso-8859-1"?>
<!-- Generator: Adobe Illustrator 19.0.0, SVG Export Plug-In . SVG Version: 6.00 Build 0)  -->
<svg version="1.1" id="Layer_1" xmlns="http://www.w3.org/2000/svg" xmlns:xlink="http://www.w3.org/1999/xlink" x="0px" y="0px"
	 viewBox="0 0 20.375 23.188" style="enable-background:new 0 0 20.375 23.188;" xml:space="preserve">
<path id="XMLID_279_" style="fill:#FFFFFF;" d="M5.718,16.903c-0.091,0-0.183-0.005-0.274-0.017
	c-0.132-0.017-0.267-0.04-0.393-0.081c-0.899-0.294-1.137-1.08-1.059-1.717c0.04-0.315,0.136-0.625,0.286-0.922
	c0.417-0.829,0.958-1.439,1.652-1.866c0.261-0.159,0.528-0.306,0.796-0.452c0,0,0.915-0.489,1.078-0.579
	c0.255-0.141,0.495-0.307,0.714-0.491c0.394-0.333,0.659-0.712,0.813-1.16C9.282,9.43,8.825,8.939,8.666,8.814L8.521,8.88
	c-0.17,0.035-0.338,0.069-0.507,0.098c-0.142,0.024-0.285,0.04-0.428,0.056l-0.172,0.02c-0.42,0.042-0.42,0.042-0.593,0.312
	C6.668,9.603,6.563,9.768,6.452,9.929c-0.212,0.308-0.424,0.53-0.667,0.701c-0.013,0.021,0.009,0.07,0.033,0.127l0.234,0.593
	c0.075,0.199,0.109,0.377,0.107,0.559l-0.063,0.097l-1.09,0.81c-0.141,0.104-0.262,0.232-0.37,0.392
	c-0.156,0.229-0.713,1.025-0.713,1.025c-0.094,0.133-0.192,0.246-0.311,0.354l-0.159-0.035c-0.034-0.074-0.048-0.104-0.056-0.139
	c-0.041-0.174-0.117-0.336-0.22-0.525c-0.122-0.228-0.233-0.462-0.337-0.698c-0.161-0.366-0.322-0.734-0.467-1.108
	c-0.124-0.32-0.204-0.666-0.239-1.027c-0.028-0.289,0.002-0.58,0.095-0.89c0.104-0.351,0.235-0.686,0.39-0.998
	c0.274-0.551,0.558-1.099,0.843-1.645c0.15-0.287,0.306-0.571,0.461-0.856l0.334-0.601c0.169-0.292,0.409-0.537,0.714-0.729
	c0.281-0.176,0.601-0.319,1.005-0.45c0.657-0.212,1.336-0.373,1.992-0.527L10.8,3.689c0.8-0.189,1.607-0.471,2.399-0.837
	l1.656-0.763c0.174-0.079,0.35-0.153,0.525-0.227l0.313-0.132l0.137-0.069h0.288l0.105,0.149l0.024-0.097
	c0.263,0.067,0.512,0.192,0.76,0.384c0.266,0.206,0.515,0.466,0.763,0.796c0.461,0.614,0.846,1.323,1.174,2.169
	c0.178,0.458,0.294,0.85,0.366,1.234c0.06,0.323,0.063,0.674,0.012,1.105c-0.036,0.299-0.191,0.54-0.45,0.696l-0.777,0.474
	c-0.379,0.236-0.71,0.55-1.012,0.958c-0.285,0.387-0.548,0.806-0.78,1.246l-0.324,0.614c-0.296,0.562-0.736,1.015-1.31,1.347
	c-0.52,0.302-1.116,0.557-1.823,0.781c-0.367,0.116-0.735,0.226-1.105,0.33c-0.353,0.1-0.676,0.265-0.962,0.492l-0.852,0.691
	c-0.221,0.178-0.44,0.355-0.668,0.524c-0.393,0.29-0.837,0.536-1.321,0.73c-0.494,0.199-0.979,0.393-1.483,0.517
	C6.176,16.871,5.942,16.903,5.718,16.903z M8.889,8.235c0.226,0.233,1.02,1.073,1.02,1.073l0.028,0.1
	C9.921,9.542,9.906,9.598,9.89,9.654c-0.182,0.632-0.559,1.179-1.119,1.623c-0.263,0.207-0.563,0.401-0.923,0.593l-0.405,0.212
	c-0.177,0.091-0.354,0.182-0.527,0.278c-0.271,0.149-0.54,0.302-0.799,0.471c-0.572,0.373-1.021,0.904-1.374,1.624
	c-0.13,0.265-0.202,0.53-0.216,0.789c-0.026,0.548,0.241,0.925,0.753,1.061c0.116,0.031,0.239,0.044,0.359,0.052
	c0.015,0,0.029,0,0.043,0c0.245,0,0.418-0.026,0.638-0.081c0.461-0.114,0.911-0.293,1.347-0.467
	c0.491-0.196,0.906-0.425,1.279-0.696c0.225-0.164,0.442-0.338,0.659-0.513l0.797-0.656c0.363-0.292,0.767-0.501,1.199-0.62
	c0.322-0.089,0.644-0.185,0.962-0.285c0.705-0.219,1.268-0.453,1.771-0.736c0.532-0.299,0.92-0.694,1.187-1.207l0.293-0.555
	c0.329-0.619,0.648-1.111,0.996-1.542c0.261-0.322,0.531-0.574,0.826-0.771c0.188-0.124,0.378-0.244,0.569-0.364
	c0.103-0.064,0.207-0.126,0.313-0.186c0.167-0.093,0.257-0.231,0.273-0.423c0.023-0.269,0.039-0.556-0.012-0.834
	c-0.071-0.4-0.198-0.816-0.399-1.308c-0.302-0.742-0.646-1.365-1.053-1.903c-0.21-0.28-0.408-0.49-0.623-0.66
	c-0.17-0.135-0.325-0.224-0.488-0.278c-0.081-0.027-0.155-0.041-0.226-0.041c-0.075,0-0.146,0.015-0.215,0.046L15.25,2.506
	L13.485,3.32c-0.835,0.386-1.63,0.669-2.43,0.867c-0.49,0.121-0.979,0.239-1.469,0.356c0,0-2.077,0.489-2.637,0.625
	C6.517,5.275,6.124,5.397,5.753,5.544c-0.56,0.22-0.945,0.567-1.181,1.061C4.446,6.871,4.302,7.129,4.158,7.386l-0.167,0.3
	C3.672,8.266,3.351,8.851,3.087,9.45c-0.109,0.252-0.205,0.511-0.3,0.77l-0.035,0.096c-0.068,0.186-0.094,0.396-0.078,0.645
	c0.021,0.327,0.094,0.645,0.217,0.947c0.171,0.42,0.354,0.836,0.537,1.252l0.126,0.287c0.026,0.061,0.062,0.117,0.097,0.173
	l0.017,0.023l0.164-0.228c0.127-0.178,0.253-0.356,0.374-0.538c0.119-0.181,0.271-0.341,0.448-0.475l0.862-0.649l0.079-0.069
	c-0.023-0.089-0.077-0.222-0.134-0.362c0,0-0.194-0.512-0.261-0.702c-0.016-0.046-0.02-0.092-0.022-0.136l0.053-0.159
	c0.432-0.201,0.7-0.579,0.918-0.918c0.128-0.2,0.252-0.404,0.374-0.61C6.56,8.733,6.625,8.646,6.752,8.622l0.164-0.033
	c0.111-0.023,0.222-0.046,0.333-0.062c0.15-0.021,0.764-0.095,0.764-0.095c0.255-0.033,0.505-0.104,0.764-0.218L8.889,8.235z"/>
<path id="XMLID_251_" style="fill:#FFFFFF;" d="M5.423,21.813c-0.635,0-1.23-0.165-1.771-0.489
	c-0.744-0.448-1.239-1.072-1.469-1.855c-0.069-0.234-0.112-0.488-0.128-0.753l-0.017-0.529c-0.015-0.308,0.04-0.621,0.167-0.954
	c0.146-0.382,0.363-0.75,0.683-1.158c0.218-0.275,0.496-0.409,0.874-0.421l0.103,0.089l0.024,0.21
	c0.017,0.137,0.063,0.247,0.142,0.334l0.154,0.183c0.304,0.341,0.7,0.526,1.176,0.551l0.135,0.004c0.258,0,0.528-0.04,0.805-0.119
	c0.216-0.062,0.43-0.131,0.644-0.202l0.405-0.13c0.215-0.066,0.431-0.128,0.647-0.187c0.056-0.015,0.113-0.021,0.175-0.027
	l0.187,0.047l0.056,0.118l0.185,0.492l0.065,0.153c0.036,0.083,0.073,0.167,0.101,0.253c0.044,0.138,0.087,0.289,0.097,0.443
	C8.889,18.3,8.868,18.726,8.8,19.132c-0.138,0.814-0.574,1.497-1.3,2.031c-0.479,0.354-1.049,0.565-1.691,0.63
	C5.679,21.806,5.55,21.813,5.423,21.813z M3.418,16.328c-0.063,0.032-0.073,0.044-0.116,0.101c-0.224,0.295-0.472,0.653-0.613,1.069
	c-0.057,0.165-0.109,0.342-0.108,0.529c0.001,0.307,0.003,0.614,0.046,0.919c0.066,0.462,0.229,0.854,0.5,1.197
	c0.546,0.69,1.271,1.065,2.154,1.117c0.067,0.004,0.134,0.006,0.2,0.006c0.569,0,1.09-0.148,1.548-0.441
	c0.642-0.411,1.047-0.959,1.204-1.631c0.079-0.332,0.091-0.672,0.099-1.051c0.005-0.252-0.044-0.489-0.148-0.725l-0.185-0.417
	l-0.089-0.035l-0.282,0.087l-0.352,0.117c-0.209,0.071-0.418,0.141-0.629,0.206c-0.417,0.128-0.802,0.19-1.175,0.19
	c-0.062,0-0.122-0.001-0.184-0.005c-0.536-0.03-0.999-0.23-1.376-0.594C3.739,16.802,3.55,16.598,3.418,16.328z"/>
</svg>
