<?xml version="1.0" encoding="utf-8"?>
<!-- Generator: Adobe Illustrator 19.0.0, SVG Export Plug-In . SVG Version: 6.00 Build 0)  -->
<svg version="1.1" id="Layer_1" xmlns="http://www.w3.org/2000/svg" xmlns:xlink="http://www.w3.org/1999/xlink" x="0px" y="0px"
	 viewBox="-273 364 65 65" style="enable-background:new -273 364 65 65;" xml:space="preserve">
<style type="text/css">
	.st0{fill:none;stroke:#202E61;stroke-width:0.5;stroke-miterlimit:10;}
	.st1{fill:none;stroke:#202E61;stroke-width:0.25;stroke-miterlimit:10;}
	.st2{fill:#202E61;}
	.st3{fill:#212F61;}
</style>
<path id="XMLID_35_" class="st0" d="M-231.2,395.1v-2.3c0,0,0.3-1.5-0.4-2.1h-1.8l-1.1-4.3c0,0,1.5-1.4,0.6-1.4s-1.1-0.4-1.1-0.4
	s-0.2-1.3-1.6-2.6l0.1-0.3c0-0.2,0.1-0.4,0-0.6s-0.3-0.3-0.5-0.4c-0.1,0-0.2,0-0.3,0s-0.2,0-0.3-0.1s-0.1-0.2-0.2-0.4
	c-0.1-0.1-0.1-0.3-0.2-0.4c-0.1-0.1-0.3-0.3-0.4-0.3c-0.5,0-1.3-0.5-1-2.4l1-2.1c0.1-0.2,0.1-0.3,0.1-0.4c-0.1-0.2-0.2-0.3-0.4-0.5
	s-0.5-0.3-0.8-0.5c-0.1-0.1-0.3-0.2-0.3-0.4c-0.3-0.4-0.4-0.9-0.5-1.4c-0.3-1.6-0.3-2.5-0.3-2.5s-0.1,0.9-0.3,2.5
	c-0.1,0.6-0.3,1.1-0.6,1.6c-0.3,0.4-0.9,0.5-1.3,0.9c-0.1,0.2-0.2,0.5,0,0.7l1,2.1c0.3,1.9-0.5,2.4-1,2.4c-0.3,0-0.5,0.3-0.6,0.5
	c-0.1,0.1-0.1,0.2-0.1,0.3c0,0.1,0,0.2-0.1,0.2c-0.1,0.1-0.3,0-0.4,0c-0.1,0-0.3,0.1-0.4,0.1c-0.2,0.1-0.3,0.2-0.3,0.4
	c0,0.1,0,0.3,0,0.5c0,0.1,0,0.2,0.1,0.3c-1.3,1.3-1.6,2.6-1.6,2.6s-0.3,0.4-1.1,0.4s0.6,1.4,0.6,1.4l-1.1,4.3h-1.8
	c-0.7,0.7-0.4,2.1-0.4,2.1v2.3c-3.8,8.9-4.1,18.2-4.1,18.2v12.9h27.3v-12.9C-227.2,413.4-227.5,404-231.2,395.1z"/>
<path id="XMLID_34_" class="st0" d="M-244.3,425.4h-5.3c-0.1,0-0.3-0.1-0.3-0.3v-11.6c0-0.1,0.1-0.3,0.3-0.3h5.3
	c0.1,0,0.3,0.1,0.3,0.3v11.6C-244,425.3-244.1,425.4-244.3,425.4z"/>
<rect id="XMLID_33_" x="-241.7" y="392.9" class="st0" width="2.8" height="33.4"/>
<line id="XMLID_32_" class="st0" x1="-250.3" y1="392.9" x2="-231.2" y2="392.9"/>
<path id="XMLID_31_" class="st0" d="M-236.7,394.9l0.9,4.2c0,0.5,0.5,1.2,0.6,1.7c0.2,0.7,0.3,1.5,0.3,2.2c0,1.1,0,2.1,0,3.2
	c0.5,1.9,0.7,3.5,0.7,5.5c0,1.5-0.1,3,0.5,4.5c0.9,2.5,0.3,5.8,0.3,8.4"/>
<path id="XMLID_30_" class="st0" d="M-233.5,397.3l1,4.1c0,0.4,0.5,1.1,0.6,1.6c0.2,0.7,0.2,1.3,0.2,2c0,1,0,1.9,0,2.9
	c0.4,1.7,0.7,3.2,0.7,5c0,1.4-0.1,2.8,0.4,4.1c0.9,2.2,0.3,5.2,0.3,7.6"/>
<path id="XMLID_29_" class="st0" d="M-248.8,394.3c0,0-0.2,1.7-0.5,2.5s-0.7,1.3-0.9,2.2c-0.1,1-1.1,6.2-1.3,7s-0.6,3.4-1,4.6
	s-0.4,14.3-0.4,14.3"/>
<path id="XMLID_28_" class="st0" d="M-244.3,394.6c-0.7-0.2-1.4,0-2,0c-0.8,0-1.1,2.6-1.2,3.2c-0.1,0.6-0.2,1.2-0.3,1.8
	c0,0.3,0,0.6-0.1,0.9c-0.1,0.2-0.3,0.4-0.4,0.6c-0.3,0.5-0.3,0.9-0.3,1.4s-0.2,1-0.3,1.6c0,0.5-0.2,1.1-0.3,1.6s-0.1,1-0.3,1.5
	c-0.4,0.9-0.2,1.8-0.2,2.7c0,0.6,0,1.1,0,1.7c0,0.2,0.1,0.3,0.3,0.3h5.1c0.2,0,0.3-0.1,0.3-0.3c0-1.1,0-2.3,0-3.4c0-2.3,0-4.6,0-6.9
	c0-1.2,0-2.4,0-3.6c0-0.6,0-1.2,0-1.8C-244,395.5-243.8,394.8-244.3,394.6z"/>
<line id="XMLID_36_" class="st0" x1="-244" y1="374.9" x2="-237.7" y2="374.9"/>
<line id="XMLID_40_" class="st0" x1="-248.1" y1="390.8" x2="-233.5" y2="390.8"/>
<line id="XMLID_41_" class="st0" x1="-247" y1="386.5" x2="-234.6" y2="386.5"/>
<line id="XMLID_42_" class="st0" x1="-235.1" y1="384.6" x2="-246.4" y2="384.6"/>
<line id="XMLID_43_" class="st0" x1="-242.1" y1="377.4" x2="-239.5" y2="377.4"/>
<line id="XMLID_44_" class="st0" x1="-244.9" y1="382" x2="-236.7" y2="382"/>
<line id="XMLID_45_" class="st0" x1="-243" y1="379.8" x2="-238.5" y2="379.8"/>
<rect id="XMLID_46_" x="-240.8" y="395.3" class="st1" width="1" height="2"/>
<rect id="XMLID_48_" x="-240.8" y="399.8" class="st1" width="1" height="2"/>
<rect id="XMLID_49_" x="-240.8" y="404.3" class="st1" width="1" height="2"/>
<rect id="XMLID_50_" x="-240.8" y="408.8" class="st1" width="1" height="2"/>
<rect id="XMLID_51_" x="-240.8" y="413.3" class="st1" width="1" height="2"/>
<rect id="XMLID_52_" x="-240.8" y="417.8" class="st1" width="1" height="2"/>
<rect id="XMLID_53_" x="-240.8" y="422.3" class="st1" width="1" height="2"/>
<rect x="-240.9" y="364.1" class="st2" width="0.5" height="7"/>
<path class="st3" d="M-236.5,367c-1-0.7-1-1.7-2-2.7h-4c0.7,3.4,3.4,5,6.4,6c2,0.7,3.4,1,4.7,3c5-0.7,0,0,5-0.7
	C-231.8,368-233.8,369.4-236.5,367z"/>
</svg>
