<?xml version="1.0" encoding="utf-8"?>
<!-- Generator: Adobe Illustrator 19.0.0, SVG Export Plug-In . SVG Version: 6.00 Build 0)  -->
<svg version="1.1" id="Layer_1" xmlns="http://www.w3.org/2000/svg" xmlns:xlink="http://www.w3.org/1999/xlink" x="0px" y="0px"
	 viewBox="-293 384 25 25" style="enable-background:new -293 384 25 25;" xml:space="preserve">
<style type="text/css">
	.st0{fill:none;stroke:#FFFFFF;stroke-width:0.5;stroke-miterlimit:10;}
	.st1{fill:#FFFFFF;}
	.st2{fill:#FAFBFC;}
	.st3{fill:#FCFCFC;}
	.st4{fill:#0E2E63;}
</style>
<path class="st0" d="M-274.9,407c0,0-0.6,0.2-0.6,0.3c-0.1,0.1-1.6,0-1.7,0h-0.1l0,0c0,0,0,0-0.1,0c0,0.1-0.1,0.1-0.1,0h-0.1l0,0
	l0,0l0,0l0,0c0,0-0.1,0-0.2,0l0,0c0,0-0.1-0.1-0.2-0.1h-0.8l0,0l0,0l0,0l0,0c-0.1,0-0.1,0-0.2,0h-0.1h-0.1c-0.1,0.1-0.1,0.2-0.1,0.2
	c0,0.1,0,0.1,0,0.2c0,0,0,0,0,0.1c0,0.1,0,0.2-0.1,0.2s-0.1,0.1-0.2,0.2v0.1c0,0,0,0,0,0.1c0,0,0,0,0,0.1c-0.2,0-11.4,0-11.4,0
	s0,0,0-0.1l0,0c0,0,0-0.1,0.1-0.1c0-0.1,0.1-0.1,0.2-0.2h0.1l0,0c0.1,0,0.1,0,0.1-0.1c0-0.1,0-0.1,0.1-0.1h0.1
	c0.1,0,0.1-0.1,0.2-0.1c0-0.1,0-0.1,0.1-0.1c0,0,0.5-0.2,0.5-0.3l0,0c0,0,0-0.1,0.1-0.1l0,0c0.1,0,0.1,0,0.2-0.1c0,0,0,0,0-0.1
	c0,0,0.2,0,0.2-0.1l0,0c0-0.1,0-0.1,0.1-0.1s0.1,0,0.1-0.1c0,0,0,0,0-0.1c0-0.1,0.1-0.1,0.1-0.1l0,0c0.1,0,0.1,0,0.1-0.1
	c0,0,0,0,0-0.1c0,0,0-0.1,0.1,0c0.1,0,0.1,0,0.2-0.1c0,0,0-0.1,0.1-0.1s0.1,0,0.1-0.1c0,0,0,0,0-0.1c0.1,0,0.1-0.1,0.1-0.2
	c0-0.1,0-0.1,0-0.2c0,0,0,0,0-0.1c0,0,0,0-0.1,0c0,0,0,0-0.1,0v-0.1l0,0c0.1,0,0.2-0.1,0.2-0.3c0-0.1,0.1-0.2,0.1-0.3
	c0,0,0-0.1,0.1-0.1c0.1-0.1,0.1-0.2,0.1-0.3v-0.1c0-0.1,0-0.1,0-0.2l0.1,0.1v0.1c0,0.1,0,0.1,0,0.2c0,0.1,0,0.1,0.1,0.1h0.1
	c0-0.1,0-0.2,0-0.3c0-0.1,0-0.1,0-0.2c0-0.1,0-0.1,0-0.1s0,0,0.1-0.1c0.1-0.1,0-0.2,0-0.2c-0.1-0.1-0.1-0.1,0-0.2c0,0,0,0,0-0.1
	c0-0.1,0-0.1,0-0.1s0,0,0-0.1c0.1-0.1,0-0.2-0.1-0.2s-0.1,0-0.2,0s-0.1,0-0.1-0.1v-0.1c0,0,0-0.1,0,0c-0.1,0-0.2,0-0.3,0h-0.1
	c-0.1,0-0.1,0-0.1-0.1c0,0,0,0-0.1,0l0,0c0,0,0-0.1,0.1-0.1s0.1,0,0.1-0.1c0.1,0,0.1-0.1,0.1-0.1c0-0.1,0-0.2,0-0.3s0-0.2,0-0.2
	c0-0.1,0-0.1,0-0.2c0.1-0.1,0.2-0.1,0.2-0.1c0.1,0,0.1,0,0.2-0.1c0.1,0,0.2-0.1,0.3-0.3l0,0c0,0,0-0.1,0.1-0.1c0,0,0.1,0,0-0.1v-0.1
	c0,0,0,0,0-0.1c0,0,0,0,0.1,0s0.1,0,0.1,0c0-0.1,0.1-0.2,0.2-0.3s0.1-0.2,0.2-0.3V400c0-0.1,0-0.1,0-0.2c0.1-0.1,0.1-0.2,0.3-0.3
	c0.1,0,0.2-0.1,0.2-0.2c0.1-0.1,0.1-0.1,0.2-0.2c0.1-0.1,0.1-0.2,0.1-0.3c0-0.1,0-0.1,0-0.1c0-0.1,0.1-0.1,0.1-0.2
	c0-0.1,0.1-0.1,0.1,0c0.1,0.1,0.1,0.1,0.2,0.2c0,0,0,0.1,0,0.2l0,0v0.1c0.1,0,0.1,0.1,0.2,0.2l0.1,0.1c0,0,0,0,0,0.1v0.1l0,0l0,0
	c0.1-0.1,0.2-0.1,0.2-0.2c0-0.1,0.1-0.1,0.1-0.2V399c0-0.1,0-0.2,0.1-0.3c0.1-0.1,0.1-0.2,0.1-0.3c0-0.1,0.1-0.2,0.2-0.2
	c0.1-0.1,0.2,0,0.2,0.1c0,0,0,0.1,0.1,0.1c0-0.1,0-0.1,0-0.2v-0.1c0-0.1,0-0.1,0-0.1c0.1-0.1,0.2-0.2,0.2-0.3c0-0.1,0.1-0.1,0.1-0.2
	c0,0,0,0,0-0.1v-0.1c0-0.1,0-0.1,0-0.2V397v-0.1c0,0,0,0,0-0.1c0,0,0-0.1,0.1-0.1c0,0,0,0,0.1,0h0.1c0.1,0.1,0.1,0.1,0.1,0.2v0.1
	c0,0.1,0,0.1,0,0.1c0.1,0,0.1,0.1,0,0.2l0,0c0,0.1,0,0.1,0,0.1c0.1,0,0.1,0.1,0.1,0.2c0,0.1,0.1,0.2,0.2,0.2s0.1,0.1,0.1,0.2
	c0,0,0,0,0,0.1v0.1c0,0,0,0.1,0.1,0.1l0,0v-0.1c0.1-0.1,0.1-0.1,0.1-0.2c0-0.1,0-0.1,0.1-0.1c0,0,0,0,0.1,0s0.1,0,0.1-0.1
	c0.1-0.1,0.1-0.3,0.2-0.4c0-0.1,0-0.1,0.1-0.1l0,0c0.1-0.3,0.3-0.5,0.5-0.8c0,0,0,0,0.1,0l0,0l0,0c0,0,0,0-0.1,0s-0.1-0.1,0-0.1
	c0.1-0.1,0.1-0.1,0.2-0.1s0.2-0.1,0.2-0.1l0,0c0,0,0.1,0,0-0.1c0,0,0-0.1-0.1-0.1l0,0h-0.1v-0.1l0,0l0.1-0.1
	c0.1-0.1,0.1-0.1,0.2-0.1s0.1-0.1,0.1-0.1v-0.1h0.1c0.1,0,0.1-0.1,0.1-0.2c0-0.1,0-0.1-0.1-0.2c0-0.1,0-0.2,0.1-0.3
	c0,0,0.1-0.1,0.1-0.2c0-0.1,0.1-0.1,0.1-0.2c0-0.1,0.1-0.1,0.1,0h0.1l0.1,0.1c0,0.1,0,0.1,0.1,0.2c0.1,0.2,0.1,0.3,0,0.5l0,0
	c-0.1,0.1,0,0.1,0.1,0.2c0,0,0,0,0.1,0c0,0,0.1,0,0,0.1l0,0c0,0.1,0,0.1,0,0.1s0,0,0.1,0.1h0.1c0,0,0.1,0,0.1-0.1l0.1-0.1l0,0l0,0
	c0-0.1,0-0.2,0.1-0.2c0,0,0,0,0.1,0c0,0,0,0-0.1-0.1c-0.1-0.1-0.1-0.1,0-0.2l0,0v-0.1c0-0.1,0-0.1,0-0.2c0.1-0.1,0.1-0.1,0.1-0.2
	c0-0.1,0.1-0.1,0.1-0.2c0,0,0.1-0.1,0-0.1v-0.1l0.1-0.1v-0.1c0-0.1,0-0.2,0-0.3s0.1-0.2,0.1-0.3v-0.1c0-0.2,0-0.4,0.1-0.6
	c0-0.1,0-0.3,0.1-0.4c0-0.2,0.1-0.5,0.1-0.7c0.1-0.3,0.2-0.7,0.3-1c0.1-0.2,0.2-0.4,0.3-0.7c0-0.1,0.1-0.2,0.2-0.2v-0.1v-0.1
	c0-0.1,0-0.1-0.1-0.2c0-0.1,0-0.2,0.1-0.3c0.1-0.1,0.2-0.2,0.3-0.3l0.1-0.1c0.1-0.1,0.2-0.2,0.3-0.3c0.1-0.1,0.1-0.2,0.2-0.3
	c0,0,0,0,0-0.1l0,0c-0.1-0.1,0-0.2,0-0.3l0.1-0.1c0.1,0,0.1,0,0.2,0c0.2,0.1,0.2,0.3,0.1,0.4l0,0l0,0c0.1,0,0.1,0.1,0.1,0.1
	s0,0.1,0.1,0.1v0.1c0,0.1,0,0.1,0,0.1c0.1,0,0.2,0.1,0.2,0.2c0.1,0.1,0.2,0.2,0.3,0.2c0.1,0.1,0.2,0.2,0.2,0.3s0,0.2-0.1,0.3
	s-0.1,0.1,0,0.2c0.2,0.4,0.4,0.8,0.6,1.2c0.1,0.3,0.2,0.7,0.3,1c0,0.1,0,0.2,0.1,0.4c0,0,0,0.1,0.1,0.1l0,0c0.1,0.1,0.1,0.1,0.1,0.3
	l0,0v0.1c0.1,0.1,0.1,0.2,0.2,0.4s0.1,0.3,0.1,0.5v0.1v0.1c0.1,0.1,0.1,0.1,0.1,0.2c0,0.2,0.1,0.4,0.1,0.6c0,0.1,0,0.1,0,0.2v0.1
	v0.1c0.1,0.1,0.1,0.2,0.1,0.4c0.1,0.2,0.1,0.5,0.2,0.7c0,0.2,0.1,0.4,0.1,0.6c0,0.1,0,0.2,0.1,0.3c0,0.1,0,0.1,0,0.3
	c0.1,0.1,0.2,0.2,0.2,0.3c0,0.2,0.1,0.4,0.1,0.5c0,0.1,0,0.1,0,0.2c0,0,0,0.1,0.1,0.1c0.1,0.1,0.1,0.2,0.1,0.3v0.1
	c0.1,0.1,0.1,0.3,0.1,0.4c0,0.1,0,0.3,0.1,0.4l0,0c0.2,0,0.3,0.2,0.3,0.3c0,0.1,0,0.1,0.1,0.1l0.1,0.1c0,0,0,0,0,0.1
	c0.1,0.1,0.2,0.2,0.2,0.3s0.1,0.2,0.1,0.2s0,0.1,0.1,0.1c0,0,0,0,0.1,0.1v0.1c0,0.1,0,0.2,0,0.2c0,0.1,0.1,0.2,0.1,0.2
	s0,0.1,0.1,0.1s0.2,0,0.2,0.1c0.1,0,0.2,0.1,0.3,0c0.1,0,0.1,0,0.1,0.1c0,0.1,0,0.2,0,0.3s0,0.1-0.1,0.2l-0.1,0.1
	c0,0.1-0.1,0.1-0.2,0.2c0,0,0,0,0,0.1c0,0,0,0,0.1,0.1c0,0,0,0,0.1,0c0,0,0,0,0,0.1v0.1c0,0.1,0,0.1-0.1,0.1h-0.1
	c-0.1,0-0.1,0.1-0.1,0.2c0,0.1,0,0.3,0,0.4c0,0.1,0,0.1-0.1,0.1s-0.1,0-0.2,0h-0.1c-0.1,0-0.1,0-0.1,0.1v0.1l0,0l0,0l0,0
	c0.1,0,0.2,0,0.3,0c0.1,0,0.2,0,0.3,0c0.1,0,0.1,0,0.1,0.1c0,0.1,0,0.2,0,0.2l0,0c0,0.1,0,0.1,0.1,0.1l0,0c0.1,0,0.1,0,0.1,0.1
	c0,0,0,0,0,0.1l0,0c0.1,0,0.1-0.1,0.2-0.1c0,0,0.1-0.1,0.1,0l0,0c-0.1-0.1,0-0.2,0-0.3c0,0,0.1-0.1,0.2-0.1l0,0v0.1l0,0
	c-0.1,0-0.1,0.1-0.1,0.1v0.1c0,0.1,0,0.2-0.1,0.2l0,0c-0.1,0-0.1,0-0.2,0.1c0,0,0,0,0.1,0.1c-0.1,0-0.1,0-0.1,0
	c-0.1,0-0.2,0-0.3,0.1c0,0-0.1,0-0.1,0.1c0,0.1-0.1,0.1-0.1,0.2c0,0.1-0.1,0.1-0.2,0.1l0,0l0,0v-0.1h-0.1c0,0-0.1,0.1-0.2,0h-0.1
	C-272.5,405.2-274.8,407-274.9,407z"/>
<path class="st1" d="M-282.5,403C-282.6,402.9-282.5,402.9-282.5,403c0.1-0.1,0.1-0.1,0.1-0.2c-0.1,0.2-0.2,0.3-0.2,0.4
	C-282.7,403.1-282.6,403.1-282.5,403C-282.6,403-282.6,403-282.5,403L-282.5,403v0.2h0.1c0.1,0,0.1,0,0.1-0.1l0,0l0,0c0,0,0,0,0,0.1
	l0,0l0,0C-282.5,403.1-282.5,403-282.5,403L-282.5,403L-282.5,403z"/>
<path class="st1" d="M-281.2,405.4C-281.2,405.4-281.2,405.3-281.2,405.4c-0.1,0-0.2,0-0.2,0.1
	C-281.3,405.5-281.2,405.4-281.2,405.4L-281.2,405.4C-281.1,405.5-281.1,405.5-281.2,405.4c0,0.1-0.1,0.2-0.1,0.2l0,0h0.1
	c0-0.1,0.1-0.1,0.1-0.2v-0.1C-281.1,405.4-281.2,405.4-281.2,405.4z"/>
<path class="st1" d="M-275.2,404.5c0,0.1-0.1,0.2-0.1,0.2c0,0.1,0,0.1,0,0.1c0.1,0,0.1,0,0.1-0.1
	C-275.2,404.8-275.2,404.7-275.2,404.5c0.1,0,0.1-0.1,0.2-0.1v-0.1l-0.1,0.1C-275.2,404.4-275.2,404.5-275.2,404.5L-275.2,404.5
	c0.1-0.2,0.1-0.3,0.2-0.4c0-0.1,0-0.1,0-0.2c-0.1,0.1-0.1,0.2-0.2,0.3c0-0.1,0.1-0.2,0-0.3c0,0.1-0.1,0.1-0.1,0.2c0,0.1,0,0.2,0,0.3
	C-275.3,404.5-275.3,404.5-275.2,404.5C-275.3,404.6-275.3,404.5-275.2,404.5z"/>
<path class="st1" d="M-280.6,407.8h-0.2c-0.1,0-0.3,0-0.3,0s0,0,0.1,0l0,0c-0.1,0-0.1,0-0.2,0l0,0c0,0,0,0,0-0.1c0,0,0,0,0-0.1h-0.1
	c0,0-0.1,0.1-0.1,0c0,0.1,0.1,0.1,0.1,0.1h0.1C-281.1,407.8-280.6,407.8-280.6,407.8z"/>
<path class="st1" d="M-283.8,406.9C-283.8,406.9-283.8,407-283.8,406.9C-283.8,407-283.7,407-283.8,406.9c0.1,0.1,0.1,0.1,0.1,0
	c0-0.1,0.1-0.1,0.1-0.1c0.1-0.1,0.1-0.2,0.1-0.2l-0.1,0.1C-283.6,406.8-283.7,406.8-283.8,406.9
	C-283.7,406.9-283.8,406.9-283.8,406.9s0-0.1,0.1-0.1c0.1-0.1,0.1-0.2,0.2-0.2c0,0,0,0,0-0.1c0-0.1,0-0.1,0-0.2c0,0-0.1-0.1-0.1,0
	c0,0,0,0,0,0.1c0,0.1,0,0.2,0,0.3s-0.1,0.1-0.1,0.2H-283.8c0,0,0.1-0.1,0.1-0.1l0,0c-0.1-0.1-0.1-0.1-0.1-0.2c0-0.1,0-0.1,0-0.2
	c0-0.1,0-0.1-0.1-0.1c0,0-0.1,0,0,0.1c0,0.1,0,0.2,0,0.3v0.1l0,0l0,0l0,0l0,0c0,0.1-0.1,0.1-0.1,0.2c0,0,0,0,0,0.1c0,0,0,0,0.1,0
	c0,0,0,0,0.1,0C-283.9,407-283.9,407-283.8,406.9L-283.8,406.9z"/>
<path class="st1" d="M-273.9,402.7c0,0,0-0.1-0.1-0.1c0-0.1,0-0.2,0-0.2c0-0.1,0-0.3,0-0.4c0-0.2-0.1-0.3-0.1-0.5l0,0
	c0,0-0.1,0.1,0,0.2c0,0.1,0,0.2,0,0.3c0,0.3,0,0.5,0,0.8c0,0.1,0,0.2,0,0.3v0.1c0,0,0,0,0.1-0.1V403v-0.1
	C-274,402.8-274,402.7-273.9,402.7c0.1-0.1,0.1-0.1,0.1-0.2c0-0.1,0-0.2,0-0.3c0-0.2,0-0.4-0.1-0.6c0-0.1-0.1-0.2,0-0.3l0,0
	c0,0-0.1,0.1,0,0.1c0,0.1,0.1,0.2,0.1,0.3c0,0.2,0,0.4,0,0.6C-273.9,402.5-273.9,402.6-273.9,402.7z"/>
<path class="st1" d="M-279.2,405c0.1-0.2,0.1-0.4,0-0.6c0,0,0,0,0-0.1c0-0.1,0-0.1,0-0.2c0.1-0.1,0.1-0.1,0-0.2c0,0,0,0,0,0.1
	c0,0,0,0,0,0.1l0,0l0,0l0,0c0,0,0,0,0-0.1l0,0l0,0l0,0v0.1l0,0l0,0c-0.1,0-0.1,0.1,0,0.1c0,0,0,0,0,0.1v0.1c0,0.1,0,0.1,0,0.2
	c0,0.1,0,0.1,0,0.2V405C-279.4,405-279.3,405-279.2,405C-279.3,405.1-279.2,405.1-279.2,405C-279.3,405.1-279.3,405.1-279.2,405
	c-0.2,0.1-0.2,0.1-0.2,0c0-0.1,0-0.1,0-0.2c0,0,0-0.1-0.1-0.1h-0.1l0,0c0,0.1,0.1,0.2,0.2,0.3C-279.3,405-279.2,405-279.2,405
	c0.2,0,0.2-0.1,0.2-0.3v-0.1h0.1h0.1v-0.1c0,0,0,0-0.1,0l0,0c0,0,0,0,0.1,0c0,0,0.1,0,0.1-0.1v-0.1c0,0,0,0-0.1,0c0,0,0,0-0.1,0
	s-0.1,0-0.1,0.1c0,0.1,0,0.3,0,0.4C-279.1,404.9-279.1,405-279.2,405L-279.2,405z"/>
<path class="st2" d="M-277.6,397.2L-277.6,397.2L-277.6,397.2c0-0.2,0-0.3-0.1-0.4v-0.1c0-0.1,0-0.3,0-0.4c0-0.4,0-0.7,0-1.1
	c0-0.3,0-0.5,0-0.8c0-0.1,0-0.2,0-0.3c0-0.2-0.1-0.5-0.1-0.7c0-0.4,0-0.9,0-1.3c0-0.2,0-0.3,0-0.5v-0.1c0,0,0,0,0-0.1
	c-0.1,0-0.2,0.1-0.2,0.1c0,0.1,0,0.2,0,0.2c0,0.1,0,0.2,0,0.3s0,0.2,0,0.3v0.1v0.1c0,0.3-0.1,0.7-0.1,1c0,0.1,0,0.1,0,0.2v0.1
	c0,0.1,0,0.2,0,0.3c0,0.2,0,0.4,0,0.6c0,0.1,0,0.3,0,0.4l0,0l0,0l0,0c-0.1,0.1-0.1,0.2,0,0.3l0,0c0.1,0.1,0.2,0.2,0.2,0.3l0,0
	c0.1,0.4,0.2,0.7,0.2,1.1c0,0.1,0,0.1,0.1,0.2C-277.7,397.1-277.6,397.1-277.6,397.2z"/>
<path class="st1" d="M-277.1,390.3c-0.1,0-0.2,0-0.2,0.1v0.1c0,0.2,0,0.3,0.1,0.5l0,0l0,0l0,0c0,0,0,0,0-0.1v-0.1h0.1v0.1l0,0
	c0-0.1,0-0.1,0-0.2c0,0.1,0,0.1,0.1,0.2c0-0.1,0-0.1,0-0.2v0.1l0,0l0,0c0,0,0,0,0.1,0c0,0,0,0,0.1,0v-0.1c0-0.1,0-0.2-0.1-0.3
	c0,0,0-0.1-0.1-0.1c0,0,0,0,0-0.1c0-0.1,0-0.1,0-0.1C-276.9,390.3-277,390.3-277.1,390.3c0.1-0.1,0.2-0.1,0.2-0.1c0.1,0,0.1,0,0.1,0
	c0,0.1,0.1,0.2,0.1,0.3c0,0.1,0.1,0.2,0.1,0.2s0,0,0.1,0c0,0,0.1,0,0.1-0.1c0-0.1,0-0.1,0.1-0.2v-0.1c0-0.1,0-0.1,0-0.2l0,0
	c0-0.1,0-0.1,0.1,0c0.1,0,0.1,0,0.2,0c-0.1-0.1-0.3-0.1-0.4-0.1c-0.4,0-0.7,0-1.1,0.1l0,0c0,0,0,0,0,0.1c0,0,0,0,0.1,0s0.2,0,0.2,0
	c0.1,0,0.1,0,0.2,0h0.1C-277.2,390.3-277.1,390.3-277.1,390.3z"/>
<path class="st1" d="M-274.7,403.4c0-0.1,0-0.1,0.1-0.2c0-0.1,0-0.2,0-0.2s0,0-0.1,0s-0.1,0-0.2,0s-0.1,0-0.2,0.1v0.1v0.1v0.1
	c0,0.1,0,0.1,0,0.2c0,0.1,0,0.2,0.1,0.3v0.1c0,0.1,0,0.1,0,0.2c0,0.1,0,0.1,0,0.2c0,0,0,0.1,0.1,0c0,0,0,0,0.1,0c0,0,0,0,0,0.1
	c-0.1,0-0.1,0,0,0.1c0,0.2,0,0.3-0.1,0.4l0,0h0.1c0,0,0,0,0-0.1c0,0,0-0.1,0.1,0c0,0,0,0,0,0.1c0,0,0,0,0,0.1l0,0c0.1,0,0.1,0,0.2,0
	c0-0.1,0-0.2,0-0.3c0-0.1,0-0.3-0.1-0.4c0-0.1-0.1-0.1-0.1-0.2v-0.1c0,0,0,0,0.1,0c0,0,0,0,0-0.1c0-0.1,0-0.3,0-0.4
	C-274.8,403.6-274.8,403.5-274.7,403.4c-0.1-0.1-0.1-0.1,0-0.2C-274.8,403.3-274.8,403.3-274.7,403.4z"/>
<path class="st1" d="M-274.8,401.3c0.1,0,0.1-0.1,0.1-0.1c0-0.1,0-0.1,0-0.2c0-0.2,0-0.4,0-0.6s0-0.4,0-0.5c0-0.1,0-0.2,0-0.3
	c0-0.3-0.1-0.6-0.1-0.9c0,0,0,0,0-0.1l0,0l0,0c0,0.1,0,0.2,0,0.4c0,0.2,0,0.4,0,0.6s0,0.4,0,0.7C-274.8,400.6-274.8,401-274.8,401.3
	c0,0.1,0,0.3,0,0.4c0,0.1,0,0.1,0.1,0.2c0,0,0,0,0-0.1v-0.1c0,0,0,0,0-0.1C-274.8,401.4-274.7,401.4-274.8,401.3z"/>
<path class="st1" d="M-273.7,402.5L-273.7,402.5c-0.1,0-0.1,0-0.1,0.1c0,0,0,0,0,0.1l0,0c0,0-0.1,0-0.1,0.1v0.1c0,0,0,0.1,0.1,0.1
	c0,0,0,0,0,0.1c0,0.1,0,0.1,0.1,0.1c0,0,0,0,0.1,0s0.1,0,0.2,0c0,0,0,0,0,0.1c0,0,0,0-0.1,0.1v0.1c0-0.1,0-0.1,0.1-0.1
	c0,0.1,0,0.2,0,0.2c0,0.1,0,0.1,0,0.2v0.1c0,0,0.1,0,0.1-0.1c0-0.1,0,0,0,0s0,0,0,0.1c0,0.2,0,0.3-0.1,0.5l0,0c0,0,0.1-0.1,0.1,0
	c0,0,0,0,0,0.1c0,0.1-0.1,0.1-0.1,0.2c0,0,0,0,0,0.1c0,0,0,0,0.1,0h0.1c0.1-0.1,0.2-0.2,0.3-0.3l0,0c-0.1,0-0.1,0.1-0.1,0.2v-0.1
	c0-0.3,0-0.7-0.1-1c0-0.1,0-0.1,0-0.2c0-0.1,0-0.1-0.1-0.1s-0.1,0-0.2,0h-0.1c0.1,0,0.2,0,0.3,0h0.1c0,0,0.1,0,0.1-0.1
	c0,0,0-0.1-0.1-0.1c-0.1-0.1-0.2-0.1-0.3-0.1h0.1c0.1,0,0.1,0,0.1-0.1c0-0.1,0-0.2,0-0.3c0-0.1,0-0.2-0.1-0.2v0.1c0,0.1,0,0.1,0,0.1
	s0,0,0,0.1C-273.7,402.5-273.7,402.5-273.7,402.5z"/>
<path class="st1" d="M-283.8,400.1C-283.8,400.2-283.7,400.1-283.8,400.1c0.2,0,0.4-0.1,0.5-0.1s0.2,0,0.3,0h0.1
	c0.1,0,0.2-0.1,0.3-0.1c0.2,0,0.3,0,0.5,0h0.1c0-0.1,0-0.1,0.1,0c0.1,0,0.1,0,0.1-0.1v-0.1l0,0c0,0,0,0-0.1,0c0,0,0,0,0,0.1
	c0,0.1,0,0.1-0.1,0.1h-0.1c-0.1,0-0.1,0-0.2,0s-0.2,0-0.3,0c-0.1,0-0.3,0-0.4,0h-0.1l0,0c0.2,0,0.3-0.1,0.5-0.1h0.1c0,0,0,0,0-0.1
	c0,0,0,0-0.1,0l0,0c-0.2,0-0.3,0-0.5,0c-0.1,0-0.2,0-0.3,0c-0.1,0-0.1,0-0.1,0.1v0.1c0,0,0,0,0,0.1h-0.1L-283.8,400.1
	c0-0.1,0-0.1-0.1,0C-283.7,400.1-283.7,400.1-283.8,400.1z"/>
<path class="st1" d="M-273.7,404.3c0-0.4,0-0.7,0-1.1l0,0c0,0.1,0,0.3,0.1,0.4C-273.6,403.8-273.6,404-273.7,404.3
	c0.1,0,0.1,0.2,0.1,0.3s0.1,0.2,0.1,0.2l0,0l0,0c0-0.3,0-0.5,0-0.8c0-0.1,0-0.2-0.1-0.3c0-0.1,0-0.1,0-0.2c0-0.1,0-0.1,0-0.2
	c0-0.1,0-0.1,0-0.2V403h-0.1c-0.1,0-0.1,0-0.1,0s0,0-0.1,0v0.1c0,0.2,0,0.4,0,0.6c0,0.1,0,0.2,0,0.3
	C-273.9,404.2-273.8,404.2-273.7,404.3z"/>
<path class="st1" d="M-275.6,395.5L-275.6,395.5c0,0.3,0.1,0.6,0.1,0.8c0,0.4,0,0.9,0,1.3c0,0.1,0,0.2,0,0.3c0,0.1,0,0.1,0.1,0.1
	l0,0c0,0,0.1,0,0,0v-0.1c-0.1,0-0.1,0,0-0.1c0-0.1,0-0.1,0-0.2c0-0.1,0-0.3,0-0.4c0-0.4,0-0.9-0.1-1.3
	C-275.5,395.8-275.5,395.7-275.6,395.5z"/>
<path class="st1" d="M-276,397.3L-276,397.3c-0.1,0-0.1,0-0.1,0.1l0,0C-276.1,397.4-276.1,397.4-276,397.3
	C-276,397.4-276,397.4-276,397.3C-276,397.4-276,397.4-276,397.3C-276,397.4-276,397.4-276,397.3L-276,397.3
	c-0.1,0.1-0.1,0.2-0.1,0.2c0,0.1,0,0.1,0.1,0.1l0,0c0.1,0,0.1,0,0.1-0.1c0-0.2,0-0.4,0-0.7c0-0.1,0-0.3,0-0.4c0-0.2,0-0.4,0-0.6
	c0-0.1,0-0.1,0-0.2c-0.1,0-0.1,0-0.1,0.1v0.1c0,0.3,0,0.6,0,0.9v0.1c0,0.1,0,0.3,0,0.4C-276.1,397.2-276.1,397.3-276,397.3
	L-276,397.3z"/>
<path class="st1" d="M-275.9,398.2c0-0.1,0-0.1,0-0.2c0-0.1,0-0.1,0-0.2l0,0c-0.1-0.1-0.2,0-0.2,0.1c0,0.1,0,0.2,0.1,0.2
	c0,0,0,0-0.1,0s-0.1,0.1-0.1,0.2c0,0.2,0,0.3,0,0.5c0,0.1,0,0.1,0,0.2l0,0h0.1c0.1,0,0.1,0,0.1-0.1v-0.1c0-0.1,0-0.3,0-0.4
	C-275.9,398.3-275.9,398.3-275.9,398.2c-0.1,0.1-0.1,0.1-0.1,0.1s0,0-0.1,0v0.1c0,0.1,0,0.1,0,0.2c0-0.1-0.1-0.1-0.1-0.2
	c0-0.1,0-0.1,0.1-0.1l0,0C-276,398.2-276,398.2-275.9,398.2z"/>
<path class="st1" d="M-284.2,401.7L-284.2,401.7c0.1,0,0.2,0,0.3,0c0.1,0,0.1,0,0.2,0s0.1-0.1,0.1-0.1s0-0.1-0.1-0.1
	c0-0.1,0-0.1,0-0.2c0-0.1,0-0.1-0.1-0.1s-0.3,0-0.4,0h-0.1c0,0,0,0,0,0.1c0,0,0,0,0.1,0c0,0,0,0,0.1,0c0,0,0.1,0,0,0
	c0,0.1,0,0.1-0.1,0.1h-0.1h-0.1v0.1h0.1C-284.2,401.6-284.1,401.7-284.2,401.7c0.1,0,0.1-0.1,0.1,0
	C-284.1,401.7-284.1,401.7-284.2,401.7z"/>
<path class="st1" d="M-273.7,404.7L-273.7,404.7c-0.3,0-0.4,0-0.6,0c-0.1,0-0.2,0-0.3,0c0,0,0-0.1,0.1-0.1s0.2,0,0.3,0
	c0.1,0,0.2,0,0.2,0h0.1c0-0.1,0-0.1,0-0.2l-0.1-0.1c0,0,0,0-0.1,0c0,0.1,0,0.1,0,0.1l0,0l0,0c0,0-0.1,0-0.1-0.1c0,0,0,0,0-0.1
	c0-0.1,0-0.1-0.1-0.1s-0.2,0-0.3,0l0,0c0,0-0.1,0,0,0.1c0,0.1,0,0.1,0,0.1v0.1c0,0.1,0,0.1,0.1,0.1c0,0,0,0,0.1,0h0.1c0,0,0,0,0.1,0
	s0.2-0.1,0.3-0.1C-274,404.7-273.8,404.7-273.7,404.7L-273.7,404.7z"/>
<path class="st1" d="M-275.3,395.2L-275.3,395.2C-275.3,395.1-275.3,395.1-275.3,395.2l0.1-0.1l0,0l0,0l0,0
	c-0.2-0.1-0.5-0.1-0.7-0.1c-0.1,0-0.2,0-0.2,0c-0.1,0-0.1,0.1-0.1,0.1c0,0.1,0,0.1,0.1,0.1c0.2,0,0.4,0,0.6-0.1h0.1l0,0
	c0-0.1,0-0.1,0.1-0.1C-275.3,395.1-275.3,395.2-275.3,395.2z"/>
<path class="st1" d="M-277.3,404.1L-277.3,404.1c0,0.1,0,0.1,0,0.2c0,0,0,0.1,0.1,0.1c0-0.1,0-0.2,0-0.3V404l0,0l0,0l0,0
	C-277.2,404-277.2,404-277.3,404.1C-277.3,404-277.3,404-277.3,404.1C-277.3,404-277.3,404-277.3,404.1L-277.3,404.1
	c0-0.1,0-0.1-0.1-0.1C-277.4,403.9-277.4,403.9-277.3,404.1c-0.1-0.1-0.1,0-0.1,0l0,0c0-0.1,0-0.1-0.1-0.1s-0.1,0-0.2,0
	s-0.2,0-0.2,0.2c0,0.1,0,0.3,0,0.4c0,0,0,0,0,0.1l0.1-0.1c0.2-0.1,0.2-0.1,0.1-0.2l0,0l0,0c-0.1,0-0.1,0-0.1,0c0-0.1,0-0.1,0-0.2
	l0,0l0,0c0,0,0,0,0,0.1c0,0.1,0,0.1,0.1,0c0.1,0,0.1,0,0.1,0.1v0.1v0.1v-0.1v-0.1c0,0,0,0,0,0.1v0.1
	C-277.3,404.3-277.4,404.1-277.3,404.1z"/>
<path class="st1" d="M-276.8,391.3L-276.8,391.3C-276.8,391.3-276.8,391.4-276.8,391.3c-0.1,0.1-0.1,0.2,0,0.3s0.1,0.3,0.1,0.4
	c0,0.1,0,0.2,0.1,0.3c0.1,0.6,0.3,1.3,0.3,2c0,0.1,0,0.2,0,0.2v0.1c0-0.1,0-0.1,0-0.2c0-0.3-0.1-0.5-0.1-0.8s-0.1-0.6-0.1-0.9
	c-0.1-0.4-0.1-0.8-0.3-1.1C-276.7,391.6-276.8,391.5-276.8,391.3C-276.7,391.4-276.7,391.3-276.8,391.3z"/>
<path class="st1" d="M-275.5,400.6c0-0.2,0-0.4,0-0.7c0,0,0,0,0-0.1l0,0l0,0l0,0c0,0.2,0,0.4,0,0.6s-0.1,0.4,0,0.7c0,0,0,0,0,0.1
	c-0.1,0.1-0.1,0.2,0,0.3v0.1l0,0l0,0v-0.1c0-0.1,0-0.1,0-0.2c0-0.1,0-0.1-0.1-0.1s-0.1,0-0.1,0.1c0,0.1,0,0.2,0,0.3s0,0.1,0.1,0.1
	h0.1c0.1,0,0.2,0,0.2-0.1c0-0.1,0-0.1,0-0.2C-275.5,401.1-275.5,400.9-275.5,400.6z"/>
<path class="st1" d="M-273.3,404.4c-0.1,0-0.2,0-0.3,0h-0.1v0.1c0,0.1,0,0.1,0.1,0.1h0.1c0.1,0,0.1,0,0.2,0c0,0,0.1,0,0-0.1
	c0-0.1,0-0.2,0.1-0.2s0.1-0.1,0.1-0.2c0-0.1,0-0.1,0.1-0.2c-0.1-0.1-0.1-0.1-0.2-0.1s-0.2,0.1-0.3,0.1c0,0,0,0,0,0.1h0.1
	c0.1,0,0.1,0,0.1,0.1c-0.1,0-0.1,0-0.2,0s-0.1,0-0.2,0c0,0,0,0-0.1,0c0,0,0,0,0,0.1C-273.4,404.4-273.3,404.4-273.3,404.4z"/>
<path class="st1" d="M-275.3,395.4c0,0.1-0.1,0.1-0.1,0.2c0.1,0.3,0.1,0.7,0.1,1s0,0.6,0.1,0.8v0.1l0,0c0-0.1,0.1-0.1,0.1-0.2
	c0-0.1,0-0.1,0-0.2c0-0.4-0.1-0.9-0.1-1.3C-275.3,395.7-275.3,395.5-275.3,395.4z"/>
<path class="st1" d="M-274.6,401.5c-0.1,0.2-0.2,0.4-0.2,0.6c0,0.3,0,0.5,0.2,0.7l0,0C-274.6,402.4-274.6,402-274.6,401.5z"/>
<path class="st1" d="M-282.6,403.6L-282.6,403.6c0-0.1,0-0.3,0-0.4c0-0.1,0-0.2,0-0.3c0,0,0-0.1,0,0c0,0-0.1,0,0,0.1l0,0v0.1
	c0,0.1,0,0.1,0,0.1l0.1,0.1C-282.6,403.4-282.6,403.5-282.6,403.6C-282.6,403.6-282.6,403.7-282.6,403.6c0,0.1,0.1,0.1,0.1,0.1
	s0.1,0,0.1-0.1c0-0.1,0-0.2,0-0.2c0-0.1,0-0.2,0-0.2l0,0l0.1,0.1l0,0c0,0,0,0,0.1,0l0,0c0-0.1-0.1-0.2-0.2-0.3c-0.1,0-0.1,0-0.1,0.1
	S-282.5,403.4-282.6,403.6C-282.5,403.6-282.5,403.6-282.6,403.6z"/>
<path class="st1" d="M-275.9,400.1C-275.9,400.1-275.8,400.1-275.9,400.1C-275.8,400.2-275.8,400.2-275.9,400.1
	C-275.9,400.2-275.9,400.2-275.9,400.1c-0.1,0.1-0.1,0-0.1,0S-276,400.1-275.9,400.1c0-0.1,0-0.1,0.1-0.1c0,0,0.1,0,0.1-0.1
	c0-0.1-0.1-0.2-0.2-0.1c-0.1,0-0.1,0.1-0.1,0.2c0,0.2,0,0.2,0.2,0.2h0.1h-0.1c-0.1,0-0.1,0.1-0.1,0.2c0,0.1,0,0.1,0,0.2
	c0.1,0,0.1,0,0.2,0c0,0,0.1,0,0.1-0.1c0,0,0,0,0-0.1c0-0.1,0-0.2,0-0.3C-275.7,400.1-275.8,400.1-275.9,400.1
	C-275.8,400.1-275.9,400.1-275.9,400.1z"/>
<path class="st2" d="M-278.4,395.3c0,0-0.1,0.1-0.1,0.2c0,0.1,0,0.1,0,0.2c0.1,0.4,0.1,0.8,0.2,1.1c0,0.3,0,0.6,0.1,0.9l0,0l0,0
	c0,0,0,0,0-0.1c0-0.2,0-0.4,0-0.5c0-0.2-0.1-0.4-0.1-0.6s0-0.3-0.1-0.5C-278.4,395.8-278.4,395.6-278.4,395.3z"/>
<path class="st1" d="M-277.7,404.3C-277.7,404.4-277.7,404.4-277.7,404.3c0.1,0,0.1,0,0.1,0.1l0,0c-0.1,0.1-0.1,0.1-0.2,0.2
	c0,0,0,0,0,0.1v0.1c0.1,0,0.1,0,0.2,0c0,0,0,0,0-0.1c0-0.1,0-0.2,0.1-0.2l0.1-0.1l0,0c-0.1-0.1-0.1-0.1,0-0.2l0.1-0.1
	c0.1-0.1,0.1-0.1,0.1,0h0.1V404c0,0,0,0-0.1,0h-0.1c-0.1,0-0.1,0-0.1,0.1v0.1C-277.6,404.1-277.7,404.2-277.7,404.3
	C-277.7,404.3-277.7,404.2-277.7,404.3c0-0.1-0.1-0.1-0.1-0.1l0,0c0,0,0-0.1,0.1-0.1c0,0,0.1-0.1,0-0.1
	C-277.9,404-277.9,404.2-277.7,404.3C-277.8,404.4-277.8,404.4-277.7,404.3C-277.8,404.3-277.7,404.3-277.7,404.3z"/>
<path class="st1" d="M-279.5,403.5L-279.5,403.5c-0.1-0.1-0.1-0.1-0.2-0.1s-0.1,0-0.1,0.1v0.1v0.1c0,0.1,0.1,0.1,0.2,0.1l0,0
	c0.1-0.1,0.1-0.1,0.2-0.1s0.1,0,0.1-0.1c0-0.1,0-0.1,0-0.2C-279.4,403.4-279.4,403.4-279.5,403.5z"/>
<path class="st1" d="M-277.8,404.2C-277.7,404.2-277.7,404.2-277.8,404.2c0-0.1,0-0.2,0-0.2s0,0-0.1,0s-0.3,0-0.4,0s-0.1,0-0.1,0.1
	c0,0,0,0.1,0.1,0.1h0.1C-278,404.2-277.9,404.2-277.8,404.2z"/>
<path class="st1" d="M-281.7,406.4h0.1c0.1,0,0.1,0,0.1-0.1c0-0.1,0-0.2,0-0.3c0-0.1,0-0.1-0.1-0.2c0,0,0,0,0-0.1
	c0-0.1,0-0.1-0.1-0.1c0,0,0,0-0.1,0s-0.1,0-0.1,0.1c0,0,0,0,0.1,0.1c0.1,0,0.1,0,0.1,0.1v0.1c0,0.1,0,0.1,0,0.2c0,0,0,0.1-0.1,0.1
	c0,0,0,0,0,0.1C-281.8,406.5-281.8,406.5-281.7,406.4C-281.7,406.2-281.7,406.3-281.7,406.4z"/>
<path class="st1" d="M-286.7,401.6L-286.7,401.6C-286.7,401.7-286.7,401.7-286.7,401.6C-286.7,401.7-286.7,401.7-286.7,401.6
	L-286.7,401.6C-286.7,401.6-286.7,401.5-286.7,401.6c0,0-0.1,0-0.2,0s-0.1,0-0.1,0.1c0,0,0,0.1-0.1,0.1c0,0,0,0-0.1,0.1
	c0,0,0,0,0,0.1c0.2,0,0.3,0,0.5,0c0,0,0,0-0.1-0.1c0,0,0,0,0-0.1C-286.8,401.7-286.8,401.6-286.7,401.6z"/>
<path class="st1" d="M-276.7,397.5h0.1c0,0,0.1,0,0.1-0.1c0-0.1,0-0.1,0-0.1l0,0c0,0,0,0,0-0.1c0.1-0.1,0.1-0.2-0.1-0.2
	c-0.1,0-0.1,0-0.1,0s-0.1,0.1,0,0.1v0.1C-276.8,397.3-276.8,397.4-276.7,397.5C-276.8,397.5-276.8,397.5-276.7,397.5z"/>
<path class="st1" d="M-284.1,402.6c-0.1,0.1,0,0.2,0,0.4c-0.1-0.1-0.1-0.1-0.1-0.2C-284.2,402.7-284.2,402.7-284.1,402.6
	c-0.1,0-0.1-0.1-0.2,0c0,0-0.1,0-0.1,0.1c0,0.1,0,0.2,0,0.3c0,0,0,0.1,0.1,0.1s0.1,0,0.2,0c0,0,0.1,0,0-0.1
	C-284.1,402.9-284.1,402.8-284.1,402.6L-284.1,402.6z"/>
<path class="st1" d="M-276.9,403.2c-0.1,0-0.1,0-0.2,0l0,0c0,0.1,0,0.1-0.1,0.2v0.1l0,0l0,0c0-0.1,0.1-0.1,0.2-0.1s0.2,0,0.3,0
	c0.1,0,0.1,0,0.1-0.1l0,0c0,0,0-0.1-0.1-0.1C-276.7,403.2-276.8,403.1-276.9,403.2z"/>
<path class="st1" d="M-282.7,402L-282.7,402c0,0.1,0,0.1,0,0.2c0,0,0,0.1,0.1,0.1h0.1c0.1,0,0.1,0,0.1-0.1c0-0.1,0-0.1,0-0.2
	c0-0.1,0-0.1,0-0.2c0-0.1,0-0.1-0.1-0.1c0,0,0,0-0.1,0s-0.1,0-0.1,0.1C-282.7,401.9-282.7,402-282.7,402z"/>
<path class="st1" d="M-276.9,405.6h-0.1h-0.1l-0.1,0.1c0,0,0,0,0.1,0l0,0c0.1,0,0.2,0,0.2,0c0.1,0,0.1,0,0.2,0c0,0,0,0,0.1,0l0,0
	c0-0.1-0.1-0.1-0.1-0.1C-276.8,405.6-276.9,405.6-276.9,405.6z"/>
<path class="st1" d="M-278.2,404.6L-278.2,404.6c-0.1,0-0.1,0-0.2,0s-0.1,0-0.1,0.1c0,0.1,0,0.1-0.1,0.2c0,0,0,0,0,0.1
	c0.1,0,0.2,0,0.2-0.1C-278.3,404.8-278.2,404.7-278.2,404.6z"/>
<path class="st1" d="M-284.3,401.4c0.1-0.1,0.1-0.1,0.1-0.1h0.1l0,0l0,0h-0.1C-284.2,401.3-284.2,401.3-284.3,401.4
	c-0.1-0.1-0.1-0.1-0.2-0.1s-0.2,0-0.3,0c-0.1,0-0.1,0-0.1,0s-0.1,0.1,0,0.1c0,0,0,0,0.1,0l0,0h0.1c0.1,0,0.1,0,0.2,0
	C-284.4,401.4-284.3,401.4-284.3,401.4z"/>
<path class="st1" d="M-274.7,398.4L-274.7,398.4c0,0.1,0,0.2,0,0.2c0.1,0.4,0.1,0.8,0.2,1.3v0.1v0.1
	C-274.5,399.5-274.5,398.9-274.7,398.4z"/>
<path class="st2" d="M-277.9,397.2C-277.9,397.2-277.8,397.2-277.9,397.2c0.1,0.1,0.1,0.1,0.1,0.1l0,0l0,0c-0.1,0-0.1,0-0.1,0.1v0.1
	c0,0.1,0,0.1,0.1,0.1h0.1c0.1,0,0.1,0,0.1-0.1c0,0,0-0.1,0.1,0l0,0c0-0.1,0-0.1,0-0.1c0-0.1-0.1-0.1-0.1-0.2
	C-277.8,397.1-277.8,397.1-277.9,397.2C-277.8,397.1-277.9,397.1-277.9,397.2z"/>
<path class="st1" d="M-279.3,402.1C-279.3,402.1-279.2,402-279.3,402.1c0-0.1,0-0.1,0-0.2c-0.1,0-0.1-0.1-0.2-0.1s-0.1,0.1-0.1,0.1
	c0,0.1,0.1,0.2,0.2,0.2C-279.3,402.2-279.3,402.2-279.3,402.1c0.1,0.1,0.1,0,0.1,0V402c0-0.1,0-0.1-0.1-0.1
	C-279.2,402-279.2,402.1-279.3,402.1z"/>
<path class="st1" d="M-280.2,401.2c0.1,0,0.1,0,0.1,0s0,0,0.1,0c0,0,0,0,0-0.1c0,0,0,0-0.1,0s-0.2,0-0.4,0h-0.1l-0.1,0.1
	c0,0,0,0,0.1,0l0,0C-280.4,401.1-280.3,401.2-280.2,401.2c0,0.2,0.1,0.2,0.1,0.1l0,0C-280,401.2-280,401.2-280.2,401.2
	C-280.1,401.2-280.2,401.2-280.2,401.2z"/>
<path class="st1" d="M-276.1,398.1c-0.1-0.1-0.1-0.1-0.2-0.1c-0.2,0-0.4,0-0.6,0h-0.1v0.1c0,0,0,0.1,0.1,0.1v-0.1h0.1h0.1
	c0.1,0,0.2,0,0.3,0C-276.3,398.1-276.2,398.1-276.1,398.1z"/>
<path class="st1" d="M-280.8,406.4C-280.7,406.4-280.7,406.4-280.8,406.4c0.1,0,0.1,0,0.1,0c0-0.1,0.1-0.1,0.1-0.2
	c0.1-0.1,0.1-0.1,0.2-0.2c0-0.1,0-0.1,0-0.1h-0.1l0,0C-280.6,406.1-280.6,406.2-280.8,406.4C-280.7,406.4-280.8,406.4-280.8,406.4z"
	/>
<path class="st1" d="M-280.3,404.2C-280.3,404.2-280.4,404.2-280.3,404.2C-280.4,404.2-280.4,404.2-280.3,404.2
	C-280.4,404.2-280.4,404.3-280.3,404.2C-280.3,404.3-280.3,404.3-280.3,404.2c0.1,0,0.1,0,0.1,0c0-0.1,0-0.2,0-0.3
	c0,0,0-0.1-0.1-0.1s-0.1,0-0.2,0l0,0c0.1,0,0.1,0,0,0.1c0,0,0,0,0,0.1C-280.4,404.1-280.4,404.1-280.3,404.2
	C-280.4,404.1-280.3,404.1-280.3,404.2L-280.3,404.2z"/>
<path class="st1" d="M-284.5,402C-284.4,402-284.4,402-284.5,402c0,0.1,0,0.2,0,0.3c0,0,0,0,0.1,0c0,0,0,0,0-0.1c0-0.1,0-0.2,0-0.3
	c0,0,0-0.1-0.1-0.1C-284.4,402-284.4,402-284.5,402s-0.1,0-0.1,0.1C-284.5,402.1-284.5,402.1-284.5,402z"/>
<path class="st1" d="M-283.6,406.2c-0.1,0-0.1,0-0.2,0h-0.1h-0.1c0,0,0,0,0,0.1v0.1c0,0.1,0.1,0.1,0.1,0
	C-283.8,406.3-283.7,406.3-283.6,406.2L-283.6,406.2z"/>
<path class="st1" d="M-281.9,404.8C-281.9,404.9-281.8,404.9-281.9,404.8c0,0.2,0.1,0.2,0.2,0.2s0.1,0,0.1-0.1c0-0.2,0-0.3,0-0.5
	c0-0.1,0-0.2-0.2-0.1l0,0l0,0c0.1,0.1,0.1,0.3,0.1,0.4C-281.7,404.8-281.7,404.8-281.9,404.8C-281.8,404.8-281.8,404.8-281.9,404.8z
	"/>
<path class="st1" d="M-274.9,398.1L-274.9,398.1c0.1,0,0.2-0.1,0.3-0.1c0,0,0,0,0-0.1l-0.1-0.1c-0.1,0-0.2,0-0.3,0
	c-0.1,0-0.1,0-0.1,0.1c0,0.1,0,0.1,0.1,0.1C-275,398.1-275,398.1-274.9,398.1z"/>
<path class="st1" d="M-284.2,407.5c0,0,0.1,0,0.1-0.1c0-0.1,0-0.1,0.1-0.2c0-0.1,0.1-0.1,0.1-0.2l0,0c0,0,0,0-0.1,0l0,0
	c-0.1,0.1-0.1,0.1-0.1,0.2C-284.2,407.3-284.2,407.4-284.2,407.5C-284.2,407.4-284.2,407.5-284.2,407.5z"/>
<path class="st1" d="M-275.9,394.2L-275.9,394.2c-0.2,0-0.2,0.1-0.2,0.1c0,0.1,0.1,0.1,0.1,0.1h0.1c0.1,0,0.1-0.1,0.1-0.1
	C-275.8,394.2-275.8,394.2-275.9,394.2C-275.8,394.2-275.8,394.2-275.9,394.2z"/>
<path class="st1" d="M-276.6,401.6L-276.6,401.6c-0.1,0.1-0.1,0.1-0.1,0.2c0,0.1,0.1,0.2,0.1,0.4c0,0.1,0,0.1,0,0.2v0.1h0.1
	c0,0,0,0,0-0.1c0-0.1,0-0.1,0-0.2C-276.5,402-276.6,401.8-276.6,401.6C-276.5,401.6-276.5,401.6-276.6,401.6z"/>
<path class="st1" d="M-275.5,394.9c0-0.1,0-0.1-0.1-0.1s-0.1,0-0.2,0s-0.2,0-0.3,0h-0.1c0,0-0.1,0-0.1,0.1c0,0.1,0,0,0.1,0l0,0
	c0.1,0,0.2,0,0.3-0.1C-275.6,394.8-275.5,394.8-275.5,394.9z"/>
<path class="st1" d="M-280.2,400.7c0,0,0,0.1,0,0.2c0,0.1,0,0.1,0.1,0.1s0.1,0,0.1-0.1c0-0.1,0-0.2,0-0.3s0-0.1,0-0.2
	c0-0.1-0.1-0.1-0.1-0.1s0,0,0,0.1C-280.2,400.5-280.2,400.6-280.2,400.7z"/>
<path class="st1" d="M-287.5,403.3C-287.6,403.3-287.6,403.3-287.5,403.3c-0.1,0-0.2,0-0.2,0.1c0,0.1,0,0.3,0,0.4l0,0
	c0,0,0,0,0.1,0.1c0.1,0,0.1,0,0.2,0l0,0l0,0c0,0,0,0-0.1,0s-0.1,0-0.1-0.1C-287.6,403.6-287.6,403.4-287.5,403.3z"/>
<path class="st1" d="M-282.9,399.6C-282.9,399.6-283,399.6-282.9,399.6c-0.1,0-0.2,0-0.2,0v0.1c0,0,0,0,0.1,0l0,0c0.1,0,0.1,0,0.2,0
	s0.1,0,0.1-0.1v-0.1l0,0l0,0l0,0l0,0C-282.7,399.6-282.8,399.6-282.9,399.6C-282.8,399.6-282.9,399.6-282.9,399.6z"/>
<path class="st1" d="M-279.8,402.5c0.1,0,0.1,0,0.2,0s0.2,0,0.3,0c0.1,0,0.1,0,0.1-0.1c-0.1,0-0.2,0-0.3,0c-0.1,0-0.2,0-0.2,0.1
	H-279.8z"/>
<path class="st1" d="M-275.8,400.7C-275.9,400.7-275.9,400.7-275.8,400.7c-0.1,0.1-0.1,0.1-0.1,0.1S-275.9,400.8-275.8,400.7
	C-275.9,400.8-275.9,400.8-275.8,400.7C-275.9,400.8-275.8,400.8-275.8,400.7c0,0.1,0,0.1,0,0.1l0,0l0,0c0,0.1,0,0.1,0.1,0.1h0.1
	c0,0,0,0,0.1-0.1c0-0.1,0-0.2,0-0.3C-275.7,400.6-275.7,400.6-275.8,400.7C-275.8,400.6-275.8,400.6-275.8,400.7
	C-275.9,400.6-275.9,400.6-275.8,400.7z"/>
<path class="st1" d="M-274.5,397.9c-0.1-0.1-0.2-0.2-0.4-0.2c-0.1,0-0.2,0-0.2,0.1c0,0,0,0,0,0.1c0,0,0,0,0.1,0
	S-274.7,397.8-274.5,397.9z"/>
<path class="st1" d="M-282.5,404.2C-282.5,404.2-282.4,404.2-282.5,404.2c0.1,0,0.1,0,0.2-0.1V404l0,0c-0.1,0-0.1,0-0.2,0h-0.1
	C-282.7,404.1-282.6,404.2-282.5,404.2L-282.5,404.2z"/>
<path class="st1" d="M-284.6,400.7c0.1,0,0.1,0,0.2,0c0,0,0,0,0-0.1c0,0,0-0.1-0.1-0.1h-0.1C-284.6,400.6-284.6,400.6-284.6,400.7
	C-284.7,400.7-284.7,400.7-284.6,400.7C-284.6,400.8-284.6,400.8-284.6,400.7z"/>
<path class="st1" d="M-276.7,404.1L-276.7,404.1c0-0.1-0.1-0.1-0.1-0.1s0,0,0,0.1v0.1v0.1c0,0,0,0,0,0.1l0,0c0,0,0,0,0.1,0
	C-276.6,404.4-276.6,404.3-276.7,404.1C-276.7,404.2-276.7,404.1-276.7,404.1z"/>
<path class="st1" d="M-280.7,404.2C-280.7,404.3-280.7,404.3-280.7,404.2c0.1,0,0.1,0,0.1,0l0,0
	C-280.7,404.2-280.7,404.2-280.7,404.2c-0.2-0.1-0.3,0-0.5,0c0,0,0,0-0.1,0l0,0l0,0l0,0h0.1c0.1,0,0.1,0,0.2,0
	C-280.9,404.3-280.8,404.3-280.7,404.2z"/>
<path class="st1" d="M-285,401.2L-285,401.2c0.3,0,0.5,0,0.7,0l0,0h0.1l0,0c-0.1,0-0.2,0-0.4,0c-0.1,0-0.1,0-0.2,0
	S-284.9,401.2-285,401.2z"/>
<path class="st1" d="M-279,403.3c0,0.1-0.1,0.1-0.1,0.2l-0.1,0.1c0,0,0,0.1,0.1,0.1h0.1c0.1,0,0.1-0.1,0.1-0.1v-0.1
	c-0.1,0.1-0.1,0.1-0.2,0.2c0-0.1,0.1-0.2,0.2-0.3C-279,403.4-279,403.4-279,403.3z"/>
<path class="st1" d="M-284.5,405.6h-0.1l0,0c0,0,0,0,0,0.1C-284.6,405.6-284.6,405.6-284.5,405.6c0.1,0.1,0.2,0.1,0.3,0.1
	c0.1,0,0.2,0,0.3,0c0.1,0,0.1-0.1,0.1-0.1s0,0-0.1,0c0,0.1,0,0.1-0.1,0c-0.1,0-0.1,0-0.2,0C-284.3,405.6-284.4,405.6-284.5,405.6z"
	/>
<path class="st1" d="M-275.1,402.8C-275.1,402.9-275.1,402.9-275.1,402.8c0.2,0.1,0.3,0,0.4,0l0,0c0-0.1-0.1-0.1-0.2-0.1
	C-274.9,402.7-275,402.7-275.1,402.8L-275.1,402.8z"/>
<path class="st1" d="M-284.4,407.5c0.1,0,0.1,0,0.2-0.1c0-0.1,0.1-0.2,0.1-0.3V407h-0.1v0.1c0,0,0,0.1-0.1,0.1
	C-284.4,407.4-284.4,407.4-284.4,407.5z"/>
<path class="st1" d="M-281.7,400.8L-281.7,400.8C-281.7,400.7-281.7,400.7-281.7,400.8c-0.1-0.1-0.1-0.1-0.2,0v0.1
	c0,0.1,0,0.1,0.1,0.1s0.1,0,0.2,0s0.1,0,0.1-0.1l0,0C-281.6,400.8-281.6,400.7-281.7,400.8L-281.7,400.8z"/>
<path class="st1" d="M-282.2,401.4L-282.2,401.4c0-0.1-0.1-0.3,0-0.4l-0.1-0.1l0,0c-0.1,0-0.1,0.1-0.1,0.1v0.1
	C-282.4,401.2-282.3,401.3-282.2,401.4z"/>
<path class="st1" d="M-284.4,400.9h-0.1l0,0l0,0C-284.5,400.8-284.4,400.8-284.4,400.9C-284.4,400.8-284.4,400.8-284.4,400.9
	C-284.3,400.8-284.3,400.8-284.4,400.9c0.1-0.1,0.1-0.1,0.1-0.1S-284.3,400.8-284.4,400.9c0.1-0.1,0.1-0.1,0.1-0.1
	c-0.2,0-0.3,0-0.4,0.1c0,0-0.1,0-0.1,0.1C-284.7,400.9-284.5,400.9-284.4,400.9z"/>
<path class="st1" d="M-275.9,401.6L-275.9,401.6c-0.1,0-0.1,0-0.2,0.1c0,0.1-0.1,0.1-0.1,0.1c-0.1,0-0.1,0.1,0,0.1l0.1,0.1
	c0.1,0,0.1,0,0.1-0.1v-0.1C-276,401.8-276,401.7-275.9,401.6C-275.9,401.7-275.9,401.7-275.9,401.6z"/>
<path class="st1" d="M-279,406.5h0.1h0.1h0.1l0,0v-0.1h-0.1l0,0c-0.1,0-0.1,0-0.2,0c0,0,0,0-0.1,0
	C-279.1,406.4-279.1,406.5-279,406.5C-279.1,406.5-279,406.5-279,406.5z"/>
<path class="st1" d="M-279.4,396.6c-0.1,0.1-0.1,0.1-0.1,0.2v0.1c0,0-0.1,0-0.1-0.1c0,0,0,0-0.1,0v0.1l0.1,0.1c0.1,0,0.1,0,0.1,0
	s0,0,0.1,0c0,0,0.1,0,0.1-0.1c0,0,0,0,0-0.1l0,0l0,0c0,0,0,0-0.1,0c0,0,0,0,0-0.1C-279.4,396.8-279.4,396.8-279.4,396.6
	C-279.4,396.8-279.4,396.7-279.4,396.6z"/>
<path class="st1" d="M-282.9,399.6L-282.9,399.6C-282.8,399.6-282.8,399.5-282.9,399.6C-282.8,399.5-282.8,399.5-282.9,399.6
	C-282.9,399.5-282.9,399.5-282.9,399.6C-282.9,399.5-282.9,399.5-282.9,399.6c0-0.1,0.1-0.1,0.1-0.2c0-0.1,0-0.1-0.1-0.1
	s-0.1,0-0.2,0.1C-283.1,399.5-283.1,399.5-282.9,399.6C-283,399.6-282.9,399.6-282.9,399.6z"/>
<path class="st1" d="M-279.9,402.8L-279.9,402.8c0.2,0,0.4,0,0.5,0s0.1,0,0.2,0s0.1,0,0.1-0.1l0,0c-0.2,0-0.3,0-0.5,0.1
	C-279.7,402.7-279.8,402.7-279.9,402.8z"/>
<path class="st1" d="M-282.5,402.5C-282.6,402.5-282.6,402.5-282.5,402.5c-0.2,0.2-0.2,0.3-0.3,0.5l0,0l0,0l0,0v0.1
	c0.1,0,0.1,0,0.1-0.1C-282.7,402.8-282.7,402.7-282.5,402.5L-282.5,402.5z"/>
<path class="st1" d="M-274.8,397.2h-0.1h-0.1c0,0,0,0,0,0.1c0,0.1,0.1,0.1,0.1,0.1c0.1,0,0.1,0,0.2,0
	C-274.7,397.4-274.7,397.3-274.8,397.2C-274.7,397.2-274.7,397.2-274.8,397.2z"/>
<path class="st1" d="M-280.2,403.1C-280.2,403.1-280.2,403-280.2,403.1c0.1-0.1,0.1-0.1,0.1-0.1c0.1-0.1,0.1-0.1,0-0.2
	c0,0,0,0-0.1,0s-0.2,0-0.2,0.1C-280.3,403-280.3,403-280.2,403.1z"/>
<path class="st1" d="M-281.5,404.5C-281.5,404.5-281.4,404.5-281.5,404.5c0.1-0.1,0.1-0.1,0.1-0.1s0,0-0.1,0h-0.1l0,0
	C-281.6,404.4-281.6,404.5-281.5,404.5c0,0.1,0,0.2,0,0.3s0,0.1,0,0.2c0,0,0,0,0,0.1l0,0c0-0.1,0-0.2,0-0.3
	C-281.4,404.7-281.4,404.6-281.5,404.5C-281.4,404.5-281.4,404.5-281.5,404.5z"/>
<path class="st1" d="M-277.1,389.1L-277.1,389.1c0.1-0.1,0.1-0.1,0.1,0h0.1h0.1l0,0c0-0.1-0.1-0.1-0.1-0.2c0,0-0.1,0-0.1,0.1
	C-277,389-277.1,389-277.1,389.1z"/>
<path class="st1" d="M-276.7,403.4c-0.1,0-0.2,0-0.2,0h-0.1c0,0-0.1,0,0,0.1c0,0,0,0.1,0.1,0c0.1,0,0.1,0,0.2,0s0.2,0,0.2,0
	c0.1,0,0.1,0,0.1-0.1c0,0,0-0.1-0.1-0.1C-276.6,403.4-276.7,403.4-276.7,403.4z"/>
<path class="st1" d="M-283.2,399.9c0.1,0,0.3,0,0.4,0l0,0c0,0,0,0,0-0.1l0,0c-0.1,0-0.1,0-0.2,0
	C-283.2,399.8-283.2,399.8-283.2,399.9z"/>
<path class="st1" d="M-284.3,407.1L-284.3,407.1c-0.1,0-0.1,0-0.1,0c0,0.1-0.1,0.2-0.2,0.3l0,0c0,0,0,0,0.1,0l0,0
	c0-0.1,0.1-0.1,0.1-0.1S-284.3,407.2-284.3,407.1L-284.3,407.1z"/>
<path class="st1" d="M-282.3,403.7L-282.3,403.7c0.1,0.1,0.1,0.1,0.1,0.1l0,0c0,0,0,0,0.1,0c0,0,0.1,0,0.1-0.1v-0.1
	c-0.1,0-0.1-0.1-0.1-0.1c0-0.1,0-0.1,0-0.2c0,0,0,0,0-0.1c0,0,0,0-0.1,0l0,0l0,0C-282.3,403.5-282.3,403.6-282.3,403.7z"/>
<path class="st2" d="M-277.6,392.3L-277.6,392.3c0,0.4,0,0.8,0,1.2l0,0l0,0l0,0c0-0.1,0-0.1,0-0.2c0-0.2,0-0.5,0-0.7
	C-277.6,392.6-277.6,392.5-277.6,392.3z"/>
<path class="st3" d="M-275.8,391.7c0-0.3-0.2-0.4-0.4-0.4c0.1,0.1,0.1,0.1,0.2,0.2C-276,391.6-275.9,391.6-275.8,391.7
	C-275.9,391.6-275.9,391.6-275.8,391.7z"/>
<path class="st1" d="M-284.5,407.1L-284.5,407.1c-0.1,0.2-0.2,0.3-0.2,0.4l0,0c0,0,0,0,0.1,0c0-0.1,0.1-0.2,0.1-0.3
	C-284.5,407.2-284.5,407.2-284.5,407.1L-284.5,407.1z"/>
<path class="st1" d="M-278.4,405.8c0.1,0,0.1,0,0.2,0c0,0,0,0,0-0.1c0,0,0-0.1-0.1,0c0,0,0,0-0.1,0
	C-278.4,405.7-278.4,405.7-278.4,405.8c-0.1-0.1-0.1-0.1-0.1-0.1v0.1H-278.4z"/>
<path class="st1" d="M-281.2,399.9c0,0-0.1-0.1-0.1-0.2c0,0,0-0.1-0.1,0c0,0-0.1,0-0.1,0.1l0,0v0.1v0.1
	C-281.4,400-281.3,400-281.2,399.9z"/>
<path class="st1" d="M-276.9,397.8c0.2,0,0.3,0.1,0.5,0C-276.4,397.7-276.7,397.7-276.9,397.8z"/>
<path class="st1" d="M-282.1,404.5c0-0.1,0-0.1,0-0.1l0,0l0,0l0,0c-0.1,0.1-0.1,0.2,0,0.3c0,0,0,0,0.1,0h0.1l0,0
	C-282,404.6-282,404.6-282.1,404.5C-282,404.6-282,404.6-282.1,404.5C-282.1,404.6-282.1,404.6-282.1,404.5
	c-0.1,0.1-0.1,0.1-0.1,0.1l0,0C-282.2,404.5-282.2,404.5-282.1,404.5L-282.1,404.5z"/>
<path class="st1" d="M-278.5,398.3C-278.5,398.2-278.5,398.2-278.5,398.3c-0.1-0.1-0.1-0.2-0.2-0.2s-0.1,0.1-0.1,0.1v0.1h0.1
	C-278.7,398.4-278.6,398.4-278.5,398.3C-278.5,398.4-278.5,398.3-278.5,398.3z"/>
<path class="st1" d="M-274.1,400.5C-274,400.5-274,400.5-274.1,400.5c0.1-0.1,0-0.2-0.1-0.2h-0.1l0,0c0,0,0,0-0.1,0.1v0.1h0.1
	C-274.2,400.5-274.1,400.5-274.1,400.5z"/>
<path class="st1" d="M-275.5,394.6c-0.1-0.1-0.3-0.1-0.4-0.1c0,0-0.1,0-0.1,0.1v0.1c0.1,0,0.2,0,0.3,0
	C-275.6,394.7-275.6,394.7-275.5,394.6z"/>
<path class="st1" d="M-278.6,404.4h0.1h0.1v-0.1l0,0C-278.5,404.3-278.6,404.3-278.6,404.4c-0.2-0.1-0.2-0.1-0.2,0
	c0,0.1,0,0.1,0.1,0.1C-278.7,404.3-278.7,404.4-278.6,404.4z"/>
<path class="st1" d="M-276.7,395.1c-0.1,0-0.1,0.1-0.1,0.1v0.1v0.1c0.1,0,0.2-0.1,0.2-0.2C-276.6,395.2-276.6,395.2-276.7,395.1
	C-276.7,395.2-276.7,395.1-276.7,395.1z"/>
<path class="st1" d="M-274,404L-274,404C-274,404-273.9,404-274,404c0-0.2,0-0.4,0-0.6c0-0.1,0-0.2,0-0.2l0,0l0,0l0,0
	c0,0.2,0,0.4,0,0.6C-274,403.9-274,404-274,404z"/>
<path class="st1" d="M-278.8,406.3L-278.8,406.3c0.1,0,0.2,0,0.2-0.1l0,0l0,0c0,0,0,0-0.1,0s-0.2,0-0.3,0l0,0c0,0-0.1,0-0.1,0.1l0,0
	C-278.9,406.3-278.8,406.3-278.8,406.3z"/>
<path class="st1" d="M-280.4,405.5c-0.1,0-0.1,0-0.2,0.1c0,0,0,0.1-0.1,0.1c0,0,0,0,0,0.1c0,0,0,0,0.1,0l0.1-0.1
	C-280.5,405.6-280.5,405.6-280.4,405.5z"/>
<path class="st1" d="M-275.7,402.1C-275.7,402-275.7,402-275.7,402.1C-275.7,402-275.7,402-275.7,402.1c0-0.1,0-0.1,0-0.2
	c0,0,0-0.1-0.1-0.1s-0.1,0-0.1,0.1c0,0.1,0,0.1,0,0.2C-275.9,402-275.9,402.1-275.7,402.1C-275.8,402-275.8,402.1-275.7,402.1z"/>
<path class="st1" d="M-284.5,400L-284.5,400c0-0.1,0-0.1,0-0.2c0,0,0,0,0-0.1c0,0,0,0-0.1,0C-284.6,399.9-284.6,399.9-284.5,400
	C-284.6,400-284.6,400-284.5,400C-284.5,400.1-284.5,400.1-284.5,400C-284.4,400-284.4,400-284.5,400L-284.5,400z"/>
<path class="st1" d="M-284.7,406.7c0.1-0.1,0.1-0.2,0.2-0.3c0-0.1,0-0.1,0-0.2l0,0l0,0c0,0.1,0,0.2-0.1,0.2c0,0,0,0.1-0.1,0.1
	C-284.7,406.6-284.8,406.7-284.7,406.7z"/>
<path class="st1" d="M-282.8,403.1c0.1-0.1,0.2-0.2,0.2-0.3v-0.1C-282.6,402.7-282.7,402.9-282.8,403.1z"/>
<path class="st1" d="M-276.8,401.9L-276.8,401.9c0,0.2,0.1,0.4,0.1,0.6c0-0.1,0-0.1,0-0.2v-0.1c0.1-0.1,0.1-0.1,0-0.1v0.1
	c0,0,0-0.1-0.1-0.1C-276.8,402-276.8,401.9-276.8,401.9z"/>
<path class="st1" d="M-279.1,406c0.1,0,0.2-0.1,0.2-0.2c0,0.1-0.1,0.1-0.1,0l0,0C-279.1,405.9-279.1,405.9-279.1,406L-279.1,406
	L-279.1,406z"/>
<path class="st1" d="M-275.1,397.6c0.1,0,0.2,0,0.2,0c0.1,0,0.1,0,0.1,0h0.1c0,0-0.1,0-0.1-0.1c0,0-0.1,0-0.1-0.1
	C-274.9,397.5-275,397.5-275.1,397.6z"/>
<path class="st1" d="M-279.6,404L-279.6,404c0-0.1,0-0.1,0-0.1h-0.1c-0.1,0,0,0.1,0,0.2c0,0,0,0.1,0.1,0.1
	C-279.7,404.1-279.6,404.1-279.6,404z"/>
<path class="st1" d="M-283,400c0.1,0,0.2,0,0.3,0h0.1l0,0l0,0l0,0c-0.1,0-0.1,0-0.2,0s-0.2,0-0.3,0c0,0,0,0-0.1,0l0,0l0,0
	C-283.2,400-283.1,400-283,400z"/>
<path class="st1" d="M-274.8,397.1c0.1,0,0.1,0,0.1-0.1c0-0.1-0.1-0.1-0.1-0.1c-0.1,0-0.1,0.1-0.1,0.1
	C-274.9,397.1-274.9,397.1-274.8,397.1z"/>
<path class="st1" d="M-283.3,406.6L-283.3,406.6c-0.1,0.1-0.1,0.3-0.2,0.4l0,0c0,0,0,0,0.1,0c0,0,0,0,0-0.1c0,0,0-0.1,0.1-0.1
	C-283.3,406.8-283.3,406.8-283.3,406.6C-283.3,406.7-283.3,406.6-283.3,406.6z"/>
<path class="st1" d="M-281.5,406.6c0-0.1,0.1-0.1,0-0.2c0-0.1,0-0.1,0-0.1v-0.1l0,0h-0.1c0,0.1,0,0.1,0,0.2
	C-281.5,406.5-281.5,406.5-281.5,406.6z"/>
<path class="st1" d="M-274.2,400.6c-0.1,0-0.1,0-0.1,0.1c0,0,0,0,0,0.1c0,0,0,0,0.1,0s0.1,0,0.2,0h0.1v-0.1
	C-274.1,400.6-274.1,400.6-274.2,400.6z"/>
<path class="st1" d="M-279.8,402.6c0.2,0,0.4,0,0.5,0l0,0c0,0,0,0,0-0.1c0,0,0,0-0.1,0s-0.1,0-0.2,0S-279.7,402.5-279.8,402.6
	C-279.7,402.6-279.7,402.6-279.8,402.6z"/>
<path class="st1" d="M-276.2,393.3c0.1-0.1,0.2-0.2,0.2-0.3l0.1-0.1l0,0l0,0l-0.1,0.1v0.1C-276.1,393.1-276.2,393.2-276.2,393.3z"/>
<path class="st1" d="M-277.3,404.7l0.1-0.1c0,0,0-0.1,0.1-0.1c0,0,0,0,0-0.1h-0.1C-277.4,404.5-277.4,404.6-277.3,404.7z"/>
<path class="st1" d="M-284.1,407.5c0.1,0,0.1,0,0.2-0.1c0-0.1,0-0.1,0-0.2C-284,407.3-284,407.4-284.1,407.5z"/>
<path class="st1" d="M-276.8,395.1c0,0.1,0,0.2,0,0.2c0,0.1,0,0.1,0.1,0.1C-276.7,395.3-276.7,395.2-276.8,395.1z"/>
<path class="st1" d="M-277.5,403.8c0.1,0,0.1-0.1,0.1-0.1v-0.1c0,0,0-0.1-0.1-0.1c0,0,0,0-0.1,0c0,0,0,0,0,0.1
	C-277.5,403.6-277.6,403.7-277.5,403.8z"/>
<path class="st1" d="M-280.7,406.8c0.1,0,0.2,0,0.3-0.1c-0.1,0-0.1,0-0.2,0C-280.6,406.7-280.6,406.8-280.7,406.8z"/>
<path class="st1" d="M-276.6,403.9c-0.2,0-0.3-0.1-0.5,0C-276.9,404-276.7,404-276.6,403.9z"/>
<path class="st1" d="M-284.2,406.3L-284.2,406.3c0.1-0.2,0.1-0.2,0.2-0.2c0,0,0,0,0.1,0c0,0,0-0.1-0.1-0.1h-0.1l0,0
	C-284.2,406.2-284.2,406.2-284.2,406.3L-284.2,406.3z"/>
<path class="st1" d="M-277,403L-277,403c0.2,0,0.3,0,0.3,0.1c0,0,0,0,0.1,0c0,0,0.1,0,0.1-0.1C-276.7,402.9-276.9,402.9-277,403z"/>
<path class="st1" d="M-280.5,400.3L-280.5,400.3c-0.1,0-0.1,0-0.2,0h-0.1v0.1l0,0C-280.6,400.5-280.5,400.5-280.5,400.3z"/>
<path class="st1" d="M-274.9,405.1L-274.9,405.1c-0.1,0.1-0.1,0.1-0.2,0.2c0,0,0,0,0,0.1c0,0,0,0,0.1,0
	C-274.9,405.3-274.9,405.3-274.9,405.1C-274.8,405.2-274.8,405.1-274.9,405.1z"/>
<path class="st1" d="M-276.1,399.8c0.1,0,0.2,0,0.2,0l0,0l0,0h-0.1H-276.1c0.1,0,0.1,0,0.2-0.1C-276,399.6-276,399.6-276.1,399.8z"
	/>
<path class="st1" d="M-277.6,403C-277.6,403-277.5,403-277.6,403c0.1-0.1,0.1-0.1,0.1-0.2l0,0h-0.1
	C-277.6,402.8-277.6,402.8-277.6,403C-277.7,403-277.7,403-277.6,403z"/>
<path class="st1" d="M-276.8,394.8c0.1,0,0.1,0,0.1,0l0,0l0,0v-0.1c0-0.1-0.1-0.1-0.1-0.1C-276.8,394.7-276.8,394.7-276.8,394.8z"/>
<path class="st1" d="M-284.8,407.4C-284.7,407.4-284.7,407.4-284.8,407.4c0.1-0.1,0.1-0.2,0.2-0.3c0,0,0,0,0-0.1c0,0,0,0-0.1,0l0,0
	C-284.7,407.2-284.7,407.3-284.8,407.4L-284.8,407.4z"/>
<path class="st1" d="M-276.8,394.7c0-0.1,0-0.2,0-0.3l0,0h-0.1c0,0,0,0,0,0.1C-276.9,394.5-276.8,394.6-276.8,394.7L-276.8,394.7z"
	/>
<path class="st1" d="M-283.3,405.7L-283.3,405.7c-0.1,0-0.1,0-0.1,0.1c0,0,0,0,0,0.1l0,0c0,0,0,0,0.1,0
	C-283.3,405.8-283.2,405.8-283.3,405.7C-283.2,405.7-283.2,405.7-283.3,405.7z"/>
<path class="st1" d="M-279.6,402.3c0.2,0.1,0.4,0,0.5,0C-279.3,402.2-279.5,402.2-279.6,402.3z"/>
<path class="st1" d="M-278.7,402.8L-278.7,402.8c0,0.1-0.1,0.1-0.1,0.1c-0.1,0-0.1,0.1-0.1,0.2c0,0,0-0.1,0.1-0.1h0.1
	C-278.7,403-278.7,402.9-278.7,402.8z"/>
<path class="st1" d="M-278,403c0.1,0,0.1-0.1,0.2-0.1c0-0.1,0.1-0.1,0.1-0.2C-277.9,402.7-277.9,402.8-278,403z"/>
<path class="st1" d="M-277.6,402.4c0-0.1,0.1-0.2,0.1-0.3V402C-277.6,402.1-277.7,402.2-277.6,402.4z"/>
<path class="st1" d="M-274.7,400.2c0.1-0.1,0.1-0.1,0.1-0.2c0-0.1,0-0.1,0-0.2c0,0,0,0-0.1,0l0,0l0,0c0,0,0,0,0,0.1l0,0l0,0
	c0,0,0,0,0.1,0C-274.6,400.1-274.6,400.1-274.7,400.2C-274.7,400.1-274.7,400.2-274.7,400.2z"/>
<path class="st1" d="M-280.2,404c-0.1,0.1-0.1,0.1-0.2,0.2l0,0l0,0l0,0c0,0,0-0.1,0.1-0.1S-280.2,404-280.2,404z"/>
<path class="st1" d="M-281.5,406c0-0.1,0-0.2,0-0.2c-0.1,0.1-0.1,0.2-0.2,0.3h0.1C-281.6,406-281.6,406-281.5,406z"/>
<path class="st1" d="M-276.3,405L-276.3,405c0.1-0.1,0.1-0.1,0.1-0.2l0.1-0.1c0,0,0,0,0-0.1c0,0,0,0-0.1,0l0,0c0,0.1,0,0.1-0.1,0.1
	C-276.3,404.8-276.3,404.9-276.3,405C-276.4,405-276.3,405-276.3,405z"/>
<path class="st1" d="M-276.7,395C-276.6,395-276.6,395-276.7,395c0.1-0.1,0-0.1,0-0.1s0,0-0.1,0s-0.1,0-0.1,0.1c0,0,0,0,0,0.1
	C-276.8,395-276.7,395-276.7,395L-276.7,395z"/>
<path class="st1" d="M-282.6,401.6l-0.1-0.1h-0.1v0.1c0,0,0,0.1,0.1,0C-282.8,401.6-282.7,401.6-282.6,401.6z"/>
<path class="st1" d="M-276.3,401.5L-276.3,401.5c-0.1,0.1-0.1,0.1-0.1,0.1l0,0C-276.4,401.5-276.4,401.5-276.3,401.5
	C-276.3,401.4-276.3,401.4-276.3,401.5c-0.1-0.1-0.1-0.1-0.1-0.1l0,0c0,0.1,0,0.2,0,0.2s0,0,0,0.1
	C-276.3,401.6-276.3,401.6-276.3,401.5z"/>
<path class="st1" d="M-280.5,400.8L-280.5,400.8c0.1,0.1,0.1,0.1,0.1,0c0-0.1,0.1-0.2,0.1-0.3c0,0,0,0,0-0.1
	C-280.4,400.6-280.4,400.7-280.5,400.8z"/>
<path class="st1" d="M-275.4,402L-275.4,402C-275.4,402.1-275.4,402.1-275.4,402c0.1,0.1,0.1,0.1,0.1,0.1s0,0,0-0.1
	c0,0,0-0.1-0.1-0.1C-275.4,401.9-275.4,401.9-275.4,402L-275.4,402z"/>
<path class="st1" d="M-282.5,403.9h0.1l0,0c0,0,0,0,0-0.1C-282.4,403.8-282.4,403.8-282.5,403.9c0-0.1,0-0.1-0.1-0.1h-0.1
	C-282.6,403.9-282.6,403.9-282.5,403.9L-282.5,403.9z"/>
<path class="st1" d="M-274.5,403.3c-0.1,0.1-0.2,0.2-0.1,0.3C-274.6,403.6-274.5,403.5-274.5,403.3z"/>
<path class="st1" d="M-277.4,402.2L-277.4,402.2c0,0.2,0,0.3-0.1,0.4c0,0,0,0,0.1,0c0,0,0,0,0-0.1
	C-277.4,402.4-277.4,402.3-277.4,402.2C-277.3,402.3-277.3,402.3-277.4,402.2z"/>
<path class="st1" d="M-275.8,404c0.1,0,0.1,0,0.2,0l0,0l0,0l0,0h-0.1C-275.8,403.9-275.8,403.9-275.8,404z"/>
<path class="st1" d="M-281.6,405L-281.6,405L-281.6,405C-281.6,405-281.5,405-281.6,405c0.1-0.1,0.1-0.1,0.1-0.1s0,0,0-0.1l0,0
	C-281.6,404.9-281.6,404.9-281.6,405z"/>
<path class="st1" d="M-281.4,405.1c-0.1,0-0.1,0-0.1,0.1c0,0,0,0.1-0.1,0.1l0,0c0,0,0,0,0.1,0l0,0
	C-281.5,405.3-281.4,405.2-281.4,405.1z"/>
<path class="st1" d="M-285.1,406.7C-285.1,406.7-285.1,406.6-285.1,406.7C-285.1,406.6-285.2,406.7-285.1,406.7z"/>
<path d="M-285.9,406"/>
<path class="st1" d="M-277.8,402.5L-277.8,402.5C-277.8,402.6-277.7,402.6-277.8,402.5c0.1,0.1,0.1,0,0.1,0
	S-277.7,402.5-277.8,402.5c0-0.1-0.1-0.1-0.1,0c0,0,0,0,0,0.1C-277.9,402.6-277.9,402.6-277.8,402.5L-277.8,402.5z"/>
<path class="st1" d="M-274.4,400.8C-274.4,400.8-274.3,400.8-274.4,400.8c0.1,0,0.2,0,0.3,0l0,0l0,0l0,0c-0.1,0-0.1,0-0.2-0.1
	C-274.3,400.8-274.3,400.8-274.4,400.8z"/>
<path class="st1" d="M-279.6,404.3C-279.5,404.3-279.5,404.3-279.6,404.3C-279.5,404.3-279.5,404.3-279.6,404.3
	c0.1-0.1,0.1-0.1,0-0.1h-0.1l0,0C-279.7,404.3-279.6,404.3-279.6,404.3z"/>
<path class="st1" d="M-277.4,405c0.1,0,0.1,0,0.1-0.1v-0.1h-0.1C-277.4,404.9-277.4,404.9-277.4,405z"/>
<path class="st1" d="M-281.1,406.9C-281,406.9-281,406.8-281.1,406.9c0.1,0,0.1-0.1,0.1-0.1l0,0C-281,406.7-281.1,406.8-281.1,406.9
	C-281.1,406.8-281.1,406.8-281.1,406.9L-281.1,406.9z"/>
<path class="st1" d="M-276.6,402.2c0,0,0,0.1-0.1,0.1c0,0.1,0,0.1,0.1,0.1h0.1C-276.5,402.4-276.5,402.3-276.6,402.2z"/>
<path class="st1" d="M-287.6,404.1C-287.5,404.1-287.5,404.1-287.6,404.1C-287.5,404-287.6,404-287.6,404.1
	C-287.7,403.9-287.7,404-287.6,404.1C-287.7,404.1-287.7,404.1-287.6,404.1z"/>
<path class="st1" d="M-279.6,404.2C-279.6,404.2-279.7,404.1-279.6,404.2c-0.1-0.1-0.1-0.1-0.2-0.1c0,0,0,0,0,0.1c0,0,0,0,0.1,0
	C-279.8,404.3-279.7,404.3-279.6,404.2C-279.7,404.3-279.6,404.3-279.6,404.2z"/>
<path class="st1" d="M-279.1,405.3C-279.1,405.3-279.2,405.2-279.1,405.3c-0.1-0.1-0.1-0.1-0.1-0.1s0,0,0,0.1v0.1
	C-279.2,405.4-279.2,405.3-279.1,405.3z"/>
<path class="st1" d="M-275.9,393.7L-275.9,393.7c-0.1,0.1-0.1,0.1-0.1,0.1l0,0c0,0,0,0,0,0.1c0,0,0,0,0.1,0l0.1-0.1
	C-275.8,393.7-275.8,393.7-275.9,393.7C-275.8,393.7-275.9,393.7-275.9,393.7z"/>
<path class="st1" d="M-280.2,400.6C-280.3,400.6-280.3,400.6-280.2,400.6c0,0.1,0,0.3-0.1,0.3l0,0h0.1
	C-280.2,400.8-280.2,400.7-280.2,400.6C-280.2,400.6-280.2,400.6-280.2,400.6z"/>
<path class="st1" d="M-279.6,403.4c0.1,0,0.3,0,0.4,0C-279.3,403.3-279.4,403.3-279.6,403.4z"/>
<path class="st1" d="M-284.8,406.9c0.1,0,0.2-0.2,0.2-0.3C-284.7,406.6-284.7,406.8-284.8,406.9z"/>
<path class="st1" d="M-276.8,395.9c0,0.1,0,0.1,0,0.1c0,0.1,0,0.1,0.1,0.1c0-0.1,0-0.1,0-0.1C-276.7,395.9-276.7,395.9-276.8,395.9z
	"/>
<path class="st1" d="M-284.5,403.9c-0.1,0-0.2,0.1-0.2,0.1C-284.7,404-284.6,404-284.5,403.9z"/>
<path class="st1" d="M-274.8,402.7l-0.1-0.1h-0.1c0,0,0,0,0,0.1l0,0C-275,402.7-274.9,402.7-274.8,402.7z"/>
<path class="st1" d="M-276.6,395.9c-0.1,0.1-0.1,0.1-0.2,0.2c0,0,0,0-0.1,0c0,0,0,0,0,0.1c0,0,0,0,0.1,0l0.1-0.1
	C-276.6,396-276.6,396-276.6,395.9z"/>
<path class="st1" d="M-281.3,404.9C-281.3,404.9-281.3,404.8-281.3,404.9c-0.1-0.1-0.1-0.1-0.1-0.1
	C-281.4,404.9-281.4,404.9-281.3,404.9C-281.3,405-281.3,404.9-281.3,404.9z"/>
<path class="st1" d="M-280.5,401.5C-280.4,401.5-280.4,401.5-280.5,401.5C-280.4,401.5-280.4,401.4-280.5,401.5
	C-280.5,401.4-280.5,401.4-280.5,401.5c-0.1,0-0.1,0.1-0.1,0.1v0.1C-280.5,401.7-280.5,401.6-280.5,401.5z"/>
<path class="st1" d="M-274.8,405.9L-274.8,405.9c0.1,0,0.1,0,0.1-0.1c0.1,0,0.1,0,0-0.1l0,0C-274.7,405.8-274.8,405.8-274.8,405.9z"
	/>
<path class="st1" d="M-279,402.1c0-0.1,0.1-0.2,0.1-0.3c0,0,0,0,0-0.1h-0.1C-279,401.9-279.1,402-279,402.1z"/>
<path class="st1" d="M-274.9,405.7L-274.9,405.7c-0.1,0-0.2,0.1-0.2,0.1l0,0l0,0C-275,405.8-274.9,405.7-274.9,405.7z"/>
<path class="st1" d="M-281.7,404.7c0-0.1-0.1-0.1-0.2-0.1l0,0c0,0,0,0,0,0.1l0,0C-281.8,404.7-281.8,404.7-281.7,404.7L-281.7,404.7
	z"/>
<path class="st1" d="M-281.1,404.4L-281.1,404.4c0.1,0,0.3,0,0.4,0l0,0C-280.9,404.3-281,404.3-281.1,404.4z"/>
<path class="st1" d="M-276.8,398.2L-276.8,398.2c0,0.1,0,0.1,0,0.1c0,0.1,0,0.1,0.1,0.1c0,0,0.1,0,0,0
	C-276.7,398.3-276.7,398.3-276.8,398.2C-276.7,398.2-276.7,398.2-276.8,398.2z"/>
<path class="st1" d="M-277.8,403C-277.7,403-277.7,402.9-277.8,403c0.1-0.1,0.1-0.2,0.2-0.2l0,0l0,0
	C-277.7,402.8-277.8,402.9-277.8,403z"/>
<path class="st1" d="M-283.6,405.2c-0.1,0-0.2,0.1-0.2,0.2l0,0l0,0l0,0C-283.8,405.3-283.7,405.3-283.6,405.2z"/>
<path class="st1" d="M-275.6,398.3c0.1,0,0.1-0.1,0.2-0.1l0,0c0,0-0.1,0,0-0.1l0,0l0,0C-275.5,398.2-275.5,398.2-275.6,398.3
	C-275.5,398.3-275.6,398.3-275.6,398.3z"/>
<path class="st4" d="M-281.3,407.8L-281.3,407.8C-281.4,407.8-281.3,407.8-281.3,407.8z"/>
<path class="st1" d="M-274.1,399.7c-0.1,0.1-0.2,0.2-0.2,0.3C-274.3,399.9-274.2,399.8-274.1,399.7z"/>
<path class="st1" d="M-276.2,401.1c-0.1,0.1-0.2,0.2-0.1,0.3C-276.2,401.2-276.2,401.2-276.2,401.1z"/>
<path class="st1" d="M-274.2,400.3L-274.2,400.3L-274.2,400.3c0.1,0,0.1,0,0.1-0.1v-0.1h-0.1C-274.2,400.2-274.3,400.3-274.2,400.3
	C-274.3,400.3-274.3,400.3-274.2,400.3L-274.2,400.3z"/>
<path class="st1" d="M-277,403.3c0-0.1,0.1-0.2,0.2-0.4C-277,403.1-277,403.2-277,403.3z"/>
<path class="st1" d="M-280.8,405.7c0.1,0,0.1,0,0.1-0.1v-0.1c0,0,0,0,0-0.1l0,0C-280.7,405.6-280.8,405.7-280.8,405.7z"/>
<path class="st1" d="M-277.8,403.2C-277.7,403.2-277.7,403.2-277.8,403.2c0.1,0,0.2,0,0.2-0.1c0,0,0-0.1-0.1-0.1
	C-277.7,403-277.7,403-277.8,403.2C-277.7,403.1-277.8,403.1-277.8,403.2z"/>
<path class="st1" d="M-280.5,405.9c0.1,0,0.2,0,0.2,0C-280.4,405.8-280.5,405.8-280.5,405.9z"/>
<path class="st2" d="M-278.3,395.2C-278.3,395.1-278.3,395.1-278.3,395.2c0.1-0.1,0.1-0.1,0.1-0.2c0-0.1-0.1-0.1-0.1,0l0,0
	C-278.3,395-278.3,395-278.3,395.2z"/>
<path class="st1" d="M-280.9,406.8c0.1,0,0.1,0,0.2-0.1C-280.8,406.7-280.9,406.7-280.9,406.8z"/>
<path class="st1" d="M-276.1,403.9c-0.1,0-0.3,0-0.3,0C-276.3,403.9-276.2,404-276.1,403.9z"/>
<path class="st1" d="M-284.7,406.1L-284.7,406.1c0.2,0,0.3,0,0.4,0l0,0l0,0C-284.4,406.1-284.6,406.1-284.7,406.1z"/>
<path class="st1" d="M-274.8,396.6c-0.1,0.1-0.2,0.2-0.2,0.3C-275,396.8-274.9,396.8-274.8,396.6z"/>
<path class="st1" d="M-277.6,397.7c-0.1-0.1-0.3-0.1-0.4,0C-277.9,397.7-277.7,397.7-277.6,397.7z"/>
<path class="st1" d="M-276.6,394.1c0.1-0.1,0.2-0.2,0.2-0.3C-276.5,393.9-276.6,394-276.6,394.1z"/>
<path class="st1" d="M-276.4,403c-0.1,0-0.2,0-0.4,0l0,0l0,0c0.1,0,0.1,0,0.2,0C-276.5,403.1-276.4,403.1-276.4,403z"/>
<path class="st1" d="M-276.7,401.4c-0.1,0-0.2-0.1-0.4,0C-276.9,401.4-276.8,401.4-276.7,401.4z"/>
<path class="st1" d="M-276.1,401.4c-0.1,0.1-0.2,0.2-0.2,0.3C-276.2,401.6-276.1,401.5-276.1,401.4z"/>
<path class="st1" d="M-277.5,402.5c0.1-0.1,0.1-0.3,0.1-0.4C-277.5,402.2-277.5,402.4-277.5,402.5z"/>
<path class="st1" d="M-276.4,392.1c0.1-0.1,0.1-0.2,0.1-0.3C-276.4,392-276.5,392.1-276.4,392.1z"/>
<path class="st1" d="M-280.7,402.9c0.1-0.1,0.2-0.1,0.2-0.2C-280.7,402.7-280.7,402.8-280.7,402.9z"/>
<path class="st1" d="M-276.7,395.1c0,0.1,0,0.2,0,0.3C-276.6,395.3-276.6,395.2-276.7,395.1z"/>
<path class="st4" d="M-277.9,401.3c0.1-0.1,0.2-0.2,0.2-0.3C-277.7,401.1-277.8,401.2-277.9,401.3z"/>
<path class="st1" d="M-279.4,401.9c0-0.1,0-0.1-0.1-0.2C-279.5,401.7-279.5,401.8-279.4,401.9z"/>
<path class="st4" d="M-278,404.2L-278,404.2c0.1,0,0.2,0,0.4,0l0,0C-277.8,404.2-277.9,404.2-278,404.2z"/>
<path class="st1" d="M-276.2,393.5L-276.2,393.5c0.1,0,0.2-0.1,0.2-0.2l0,0C-276.1,393.4-276.1,393.5-276.2,393.5z"/>
<path class="st1" d="M-280.2,399.4c0,0.1,0,0.2,0,0.3C-280.2,399.7-280.2,399.5-280.2,399.4z"/>
<path class="st1" d="M-280,398.5L-280,398.5C-279.9,398.5-279.9,398.5-280,398.5c0.1,0.2,0.2,0.3,0.4,0.3c0,0,0.1,0,0.1,0.1
	c0,0.1,0,0.2-0.1,0.2c0,0,0,0-0.1,0c0,0,0,0,0-0.1l0,0v-0.1h-0.1h-0.1c-0.1,0-0.1-0.1-0.2-0.2c0,0,0-0.1-0.1,0l0,0
	c-0.1,0-0.1,0-0.1-0.1c0-0.1,0-0.1-0.1-0.1v-0.1c0,0,0.1-0.1,0.1-0.2c0,0,0-0.1,0.1-0.1c0,0,0.1,0,0.1,0.1c0.1,0.1,0.1,0.2,0,0.2
	C-280,398.4-280,398.4-280,398.5z"/>
<path class="st1" d="M-280.3,399c-0.2,0-0.4,0-0.6,0c0.1-0.1,0-0.1,0-0.1s0,0,0-0.1c0,0,0-0.1,0.1-0.1v0.1c0,0.1,0,0.1,0.1,0.1
	s0.1,0,0.2,0c0,0,0.1,0,0-0.1c0,0,0-0.1-0.1-0.1c0,0,0,0-0.1,0h-0.1c0-0.1,0-0.1,0.1-0.1c0,0,0,0,0.1,0h0.1c0,0,0,0,0,0.1
	C-280.5,398.9-280.4,398.9-280.3,399L-280.3,399z"/>
<path class="st1" d="M-279.9,397.7c0.1,0,0.1,0,0.2,0.1c0.1,0,0.1,0,0.1,0.1l0,0c0,0.1,0,0.1,0,0.2c-0.1,0-0.2,0-0.2-0.1l-0.1-0.1
	l0,0l0,0l0,0c0,0,0,0,0.1,0v-0.1C-279.8,397.8-279.9,397.8-279.9,397.7z"/>
<path class="st1" d="M-278.6,395c0,0.1,0,0.1,0,0.2c0,0-0.1,0.1-0.2,0c-0.1,0-0.1-0.1-0.1-0.2l0,0c0,0,0.1-0.1,0.1,0
	C-278.7,395.1-278.7,395.1-278.6,395C-278.7,395.1-278.7,395-278.6,395z"/>
<path class="st1" d="M-279.8,397.3c-0.1,0.1-0.1,0.1-0.1,0l-0.1-0.1v-0.1l0,0c0,0,0,0,0.1,0l0,0c0,0,0,0,0,0.1c0,0,0,0,0,0.1
	C-279.9,397.3-279.9,397.3-279.8,397.3L-279.8,397.3z"/>
<path class="st1" d="M-280.3,398.3L-280.3,398.3c-0.1,0.1-0.1,0.1-0.1,0c0,0,0,0-0.1,0l0,0l0,0l0,0
	C-280.5,398.2-280.4,398.2-280.3,398.3C-280.3,398.2-280.3,398.2-280.3,398.3z"/>
<path class="st1" d="M-280.1,399.1C-280.1,399-280.1,399-280.1,399.1c0-0.1,0.1-0.1,0.1-0.1v-0.1c-0.1,0-0.1,0-0.1-0.1
	c0.1,0,0.1,0,0.2,0.1v0.1C-280,399-280.1,399-280.1,399.1z"/>
<path class="st1" d="M-280.4,397.8c0-0.2,0.1-0.2,0.2-0.2C-280.3,397.6-280.3,397.7-280.4,397.8z"/>
<path class="st1" d="M-285,405.9C-284.9,405.9-284.9,405.8-285,405.9c0.1-0.1,0.2-0.1,0.2-0.1l0,0c0.1,0,0.1,0,0.1-0.1
	c0-0.1,0-0.1,0.1-0.1l0,0v0.1v0.1l0,0h0.1l0,0c0-0.1,0.1-0.1,0.1-0.1s0,0,0,0.1l-0.1,0.1l0,0C-284.6,405.8-284.8,405.9-285,405.9
	C-284.9,405.9-285,405.9-285,405.9z"/>
<path class="st1" d="M-284.3,406c0.2-0.1,0.4,0,0.6,0.1C-283.9,406.1-284.1,406.1-284.3,406z"/>
<path class="st1" d="M-283.5,402.9c0-0.1,0-0.2,0-0.3V402.9z"/>
<path class="st1" d="M-282.7,404c-0.1-0.1-0.1-0.1,0-0.2C-282.7,403.8-282.7,403.9-282.7,404z"/>
<path class="st1" d="M-275.8,403.3c0.2,0,0.3,0,0.5,0l0,0l0,0c-0.1,0-0.1,0-0.2,0S-275.7,403.3-275.8,403.3L-275.8,403.3z"/>
<path class="st1" d="M-283.2,403.3c0-0.1,0-0.2,0-0.3C-283.1,403.1-283.1,403.2-283.2,403.3z"/>
<path class="st1" d="M-282.7,405.6c-0.1,0.1-0.2,0.1-0.4,0.1C-283,405.6-282.9,405.6-282.7,405.6z"/>
<path class="st1" d="M-277.4,404.1c0-0.1-0.1-0.1-0.1-0.1h-0.1c0,0.1,0,0.1,0,0.2c0,0.1,0.1,0.1,0.1,0.1h0.1c-0.1,0-0.1,0-0.2,0
	c0,0-0.1,0,0-0.1c0-0.1,0-0.1,0-0.2v-0.1c0-0.1,0-0.1,0.1-0.1h0.1C-277.3,404-277.3,404-277.4,404.1z"/>
<path class="st1" d="M-281.5,403.8c0-0.1,0-0.2,0-0.4C-281.4,403.6-281.4,403.8-281.5,403.8z"/>
<path class="st1" d="M-282.9,399.9C-282.9,399.9-282.9,400-282.9,399.9c0.1,0.1,0.1,0.1,0.1,0.1l0,0c0,0,0,0-0.1,0s-0.1,0-0.2,0
	s-0.1,0-0.1,0.1c0,0.1,0,0.1,0,0.2c0,0,0,0-0.1,0v-0.1c0-0.1,0-0.1,0.1-0.1c0,0,0,0,0.1,0C-282.9,400-282.9,400-282.9,399.9z"/>
<path class="st1" d="M-283.3,400.3c0,0,0-0.1-0.1-0.1c0-0.1-0.1-0.1-0.2-0.1c0,0-0.1,0,0,0.1v0.1c0,0,0-0.1-0.1-0.1v-0.1h0.1
	C-283.4,400.1-283.3,400.1-283.3,400.3L-283.3,400.3z"/>
<path class="st1" d="M-283.6,400.4c0.1-0.1,0.1-0.1,0.1-0.2c0,0.1,0,0.1,0,0.1C-283.4,400.4-283.4,400.5-283.6,400.4
	C-283.5,400.4-283.5,400.4-283.6,400.4z"/>
<path class="st1" d="M-277.5,406.2c-0.2,0-0.5,0-0.7,0C-278,406.1-277.8,406.2-277.5,406.2z"/>
<polyline class="st0" points="-286.1,408.1 -286.1,403.7 -287.3,403.6 "/>
<g id="Layer_2">
</g>
<rect x="-277.3" y="384" class="st1" width="0.5" height="3.9"/>
<path class="st1" d="M-275.6,385.7c-0.4-0.3-0.4-0.6-0.8-1h-1.5c0.3,1.3,1.3,1.9,2.4,2.3c0.8,0.3,1.3,0.4,1.8,1.1
	c1.9-0.3,0,0,1.9-0.3C-273.8,386.1-274.6,386.6-275.6,385.7z"/>
</svg>
