<?xml version="1.0" encoding="iso-8859-1"?>
<!-- Generator: Adobe Illustrator 19.0.0, SVG Export Plug-In . SVG Version: 6.00 Build 0)  -->
<svg version="1.1" id="Layer_1" xmlns="http://www.w3.org/2000/svg" xmlns:xlink="http://www.w3.org/1999/xlink" x="0px" y="0px"
	 viewBox="3.458 -0.112 25 25" style="enable-background:new 3.458 -0.112 25 25;" xml:space="preserve">
<title></title>
<path style="fill:#042863;" d="M24.381,3.541V1.013h-1.685v2.528h-3.37V1.013h-1.685v2.528h-3.37V1.013h-1.687v2.528h-3.37V1.013
	H7.529v2.528h-3.37v20.223h23.593V3.541H24.381z M7.528,5.226v1.685h1.685V5.226h3.37v1.685h1.685V5.226h3.37v1.685h1.685V5.226
	h3.37v1.685h1.685V5.226h1.685v3.37H5.843v-3.37C5.843,5.226,7.528,5.226,7.528,5.226z M5.843,22.078V10.282h20.223v11.797
	L5.843,22.078L5.843,22.078z"/>
<rect x="12.584" y="13.652" style="fill:#FF9800;" width="1.685" height="1.685"/>
<rect x="15.954" y="13.652" style="fill:#FF9800;" width="1.685" height="1.685"/>
<rect x="19.325" y="13.652" style="fill:#FF9800;" width="1.685" height="1.685"/>
<rect x="9.214" y="17.022" style="fill:#FF9800;" width="1.685" height="1.685"/>
<rect x="12.584" y="17.022" style="fill:#FF9800;" width="1.685" height="1.685"/>
<rect x="15.954" y="17.022" style="fill:#FF9800;" width="1.685" height="1.685"/>
</svg>
