<?xml version="1.0" encoding="iso-8859-1"?>
<!-- Generator: Adobe Illustrator 19.0.0, SVG Export Plug-In . SVG Version: 6.00 Build 0)  -->
<svg version="1.1" id="Layer_1" xmlns="http://www.w3.org/2000/svg" xmlns:xlink="http://www.w3.org/1999/xlink" x="0px" y="0px"
	 viewBox="6.5 18.5 25 25" style="enable-background:new 6.5 18.5 25 25;" xml:space="preserve">
<path style="fill:none;stroke:#FF9800;stroke-miterlimit:10;" d="M29.393,37.121c-0.03-0.035-0.062-0.067-0.095-0.099
	c-0.746-0.72-1.822-1.188-2.728-1.666c-0.498-0.263-1-0.519-1.5-0.778c-0.688-0.356-1.248-0.637-1.547-1.396
	c-0.27-0.686-0.276-0.765-0.32-1.491l0.334-0.41c0.249-0.368,0.438-1.766,0.438-1.766c0.297-0.008,0.531-0.32,0.609-0.565
	c0.126-0.397,0.247-0.765,0.296-1.178c0.036-0.305,0.097-0.68-0.145-0.922c-0.041-0.041-0.389-0.13-0.439-0.025
	c0.036-0.074,0.083-1.944,0.083-1.944l0.453-0.337l-0.135-1.024c0,0-0.461-2.239-2.779-2.779c-2.318-0.54-3.713,0.72-3.713,0.72
	c-0.161,0-0.304,0.034-0.441,0.08c0.231,0.02,0.469,0.05,0.723,0.109c2.318,0.54,2.779,2.779,2.779,2.779l0.135,1.024l-0.453,0.337
	c0,0-0.047,1.87-0.083,1.944c0.05-0.104,0.398-0.015,0.439,0.025c0.243,0.242,0.181,0.617,0.145,0.922
	c-0.048,0.414-0.17,0.782-0.296,1.178c-0.078,0.245-0.312,0.557-0.609,0.565c0,0-0.19,1.399-0.438,1.766l-0.334,0.41
	c0.044,0.725,0.049,0.805,0.32,1.491c0.299,0.758,0.858,1.04,1.547,1.396c0.5,0.259,1.002,0.515,1.5,0.778
	c0.906,0.478,1.982,0.946,2.728,1.666c0.033,0.031,0.065,0.064,0.095,0.099c0.323,0.378,0.533,0.971,0.666,1.474H30.1v0.001
	c0.079,0,0.14-0.067,0.126-0.145C30.149,38.928,29.92,37.737,29.393,37.121z"/>
<g id="Padding__x26__Artboard" style="display:none;">
</g>
<path style="fill:none;stroke:#042863;stroke-width:1.5;stroke-linecap:round;stroke-linejoin:round;stroke-miterlimit:10;" d="
	M26.669,40.414c0.079,0,0.14-0.067,0.126-0.145c-0.077-0.431-0.306-1.621-0.833-2.238c-0.03-0.035-0.062-0.067-0.095-0.099
	c-0.746-0.72-1.822-1.188-2.728-1.666c-0.498-0.263-1-0.519-1.5-0.778c-0.688-0.356-1.248-0.637-1.547-1.396
	c-0.27-0.686-0.276-0.765-0.32-1.491l0.334-0.41c0.249-0.367,0.438-1.766,0.438-1.766c0.297-0.008,0.531-0.32,0.609-0.565
	c0.126-0.397,0.247-0.765,0.296-1.178c0.036-0.305,0.097-0.68-0.145-0.922c-0.041-0.041-0.389-0.13-0.439-0.025
	c0.036-0.074,0.083-1.944,0.083-1.944l0.453-0.337l-0.135-1.024c0,0-0.461-2.239-2.779-2.779c-2.318-0.54-3.713,0.72-3.713,0.72
	c-0.731,0-1.215,0.495-1.44,1.395c-0.18,0.721-0.071,1.467-0.001,2.194c0.033,0.345,0.045,0.688,0.058,1.034
	c0.007,0.2-0.044,0.554,0.046,0.74c-0.05-0.104-0.398-0.015-0.439,0.025c-0.243,0.242-0.181,0.617-0.145,0.922
	c0.048,0.414,0.17,0.782,0.296,1.178c0.078,0.245,0.312,0.557,0.609,0.565c0,0,0.19,1.399,0.438,1.766l0.334,0.41
	c-0.044,0.725-0.049,0.805-0.32,1.491c-0.299,0.758-0.858,1.04-1.547,1.396c-0.5,0.259-1.002,0.515-1.5,0.778
	c-0.906,0.478-1.982,0.946-2.728,1.666c-0.033,0.032-0.065,0.064-0.095,0.099c-0.534,0.625-0.763,1.841-0.836,2.256
	c-0.012,0.069,0.042,0.128,0.113,0.128L26.669,40.414L26.669,40.414z"/>
<g id="Padding__x26__Artboard_1_" style="display:none;">
</g>
</svg>
