<?xml version="1.0" encoding="iso-8859-1"?>
<!-- Generator: Adobe Illustrator 19.0.0, SVG Export Plug-In . SVG Version: 6.00 Build 0)  -->
<svg version="1.1" id="Capa_1" xmlns="http://www.w3.org/2000/svg" xmlns:xlink="http://www.w3.org/1999/xlink" x="0px" y="0px"
	 viewBox="2.785 -0.216 25 25" style="enable-background:new 2.785 -0.216 25 25;" xml:space="preserve">
<path style="fill:#042863;" d="M15.285,0.407c-6.558,0-11.877,5.319-11.877,11.877s5.319,11.877,11.877,11.877
	s11.877-5.319,11.877-11.877S21.843,0.407,15.285,0.407z M15.285,22.464c-5.616,0-10.18-4.564-10.18-10.18s4.564-10.18,10.18-10.18
	s10.18,4.564,10.18,10.18S20.901,22.464,15.285,22.464z"/>
<polygon style="fill:#FF9800;" points="20.375,11.436 20.375,13.133 16.133,13.133 16.133,17.374 14.437,17.374 14.437,13.132 
	10.196,13.132 10.196,11.436 14.437,11.436 14.437,7.195 16.133,7.195 16.133,11.436 "/>
</svg>
