<?xml version="1.0" encoding="iso-8859-1"?>
<!-- Generator: Adobe Illustrator 19.0.0, SVG Export Plug-In . SVG Version: 6.00 Build 0)  -->
<svg version="1.1" id="Layer_1" xmlns="http://www.w3.org/2000/svg" xmlns:xlink="http://www.w3.org/1999/xlink" x="0px" y="0px"
	 viewBox="1 -2.57 28.57 29.313" style="enable-background:new 1 -2.57 28.57 29.313;" xml:space="preserve">
<path style="fill:none;stroke:#042863;stroke-width:1.5;stroke-linecap:round;stroke-linejoin:round;stroke-miterlimit:10;" d="
	M27.281,24.587c0.103,0,0.181-0.087,0.164-0.188c-0.1-0.558-0.397-2.1-1.079-2.9c-0.039-0.045-0.081-0.087-0.123-0.127
	c-0.967-0.933-2.36-1.539-3.534-2.159c-0.646-0.341-1.296-0.672-1.944-1.007c-0.892-0.461-1.617-0.826-2.004-1.808
	c-0.351-0.888-0.357-0.992-0.414-1.931l0.432-0.532c0.322-0.476,0.567-2.288,0.567-2.288c0.385-0.011,0.688-0.414,0.79-0.732
	c0.163-0.514,0.321-0.991,0.383-1.526c0.046-0.395,0.126-0.881-0.188-1.194c-0.053-0.053-0.504-0.168-0.57-0.033
	c0.046-0.095,0.107-2.518,0.107-2.518l0.587-0.437l-0.175-1.327c0,0-0.597-2.901-3.601-3.601s-4.811,0.932-4.811,0.932
	c-0.948,0-1.574,0.641-1.866,1.807c-0.233,0.933-0.092,1.9-0.001,2.842c0.043,0.447,0.059,0.892,0.075,1.339
	c0.009,0.259-0.058,0.718,0.059,0.959c-0.065-0.135-0.515-0.02-0.57,0.033C9.253,8.504,9.332,8.989,9.379,9.385
	c0.063,0.536,0.22,1.013,0.383,1.526c0.101,0.318,0.405,0.721,0.79,0.732c0,0,0.246,1.811,0.567,2.288l0.432,0.532
	c-0.056,0.939-0.064,1.043-0.414,1.931c-0.388,0.982-1.113,1.347-2.004,1.808c-0.648,0.335-1.298,0.667-1.944,1.007
	c-1.174,0.619-2.568,1.225-3.534,2.159c-0.042,0.041-0.084,0.083-0.123,0.127c-0.691,0.81-0.988,2.384-1.083,2.922
	c-0.015,0.09,0.054,0.166,0.146,0.166H27.28v0.003H27.281z"/>
</svg>
