<?xml version="1.0" encoding="iso-8859-1"?>
<!-- Generator: Adobe Illustrator 19.0.0, SVG Export Plug-In . SVG Version: 6.00 Build 0)  -->
<svg version="1.1" id="Layer_1" xmlns="http://www.w3.org/2000/svg" xmlns:xlink="http://www.w3.org/1999/xlink" x="0px" y="0px"
	 viewBox="2.667 -0.862 25 25" style="enable-background:new 2.667 -0.862 25 25;" xml:space="preserve">
<path style="fill:#042863;" d="M14.988,23.214c-6.417,0-11.638-5.221-11.638-11.638S8.571-0.062,14.988-0.062
	c6.417,0,11.638,5.221,11.638,11.638S21.405,23.214,14.988,23.214z M14.988,1.219C9.276,1.219,4.63,5.865,4.63,11.576
	c0,5.711,4.646,10.357,10.358,10.357s10.358-4.646,10.358-10.357C25.346,5.865,20.699,1.219,14.988,1.219z"/>
<path style="fill:#042863;" d="M14.988,0.138C8.675,0.138,3.55,5.263,3.55,11.576s5.125,11.438,11.438,11.438
	s11.438-5.125,11.438-11.438S21.301,0.138,14.988,0.138z M14.988,22.134c-5.829,0-10.558-4.729-10.558-10.558
	S9.159,1.018,14.988,1.018s10.558,4.729,10.558,10.558S20.817,22.134,14.988,22.134z"/>
<path style="fill:#FF9800;" d="M14.988,15.23c-0.165,0-0.299-0.086-0.377-0.242c-0.392-0.875-2.287-5.305-2.287-8.998
	c0-1.469,1.195-2.665,2.664-2.665c1.469,0,2.665,1.195,2.665,2.665c0,3.692-1.896,8.122-2.276,8.973
	C15.286,15.144,15.152,15.23,14.988,15.23z M14.988,4.187c-1.006,0-1.824,0.818-1.824,1.824c0,2.86,1.278,6.36,1.824,7.722
	c0.598-1.484,1.823-4.877,1.823-7.722C16.811,5.006,15.992,4.187,14.988,4.187z"/>
<path style="fill:#FF9800;" d="M14.988,15.029c-0.088,0-0.154-0.044-0.198-0.132c-0.088-0.198-2.266-4.993-2.266-8.908
	c0-1.364,1.1-2.464,2.464-2.464s2.464,1.1,2.464,2.464c0,3.915-2.178,8.71-2.266,8.908C15.142,14.985,15.076,15.029,14.988,15.029z
	 M14.988,3.987c-1.122,0-2.024,0.902-2.024,2.024c0,3.123,1.474,6.951,2.024,8.248c0.55-1.298,2.024-5.125,2.024-8.248
	C17.011,4.889,16.11,3.987,14.988,3.987z"/>
<path style="fill:#FF9800;" d="M14.988,19.805c-1.093,0-1.982-0.89-1.982-1.982s0.89-1.982,1.982-1.982
	c1.092,0,1.982,0.89,1.982,1.982S16.08,19.805,14.988,19.805z M14.988,16.703c-0.63,0-1.142,0.512-1.142,1.142
	s0.512,1.143,1.142,1.143c0.629,0,1.142-0.513,1.142-1.143S15.617,16.703,14.988,16.703z"/>
<path style="fill:#FF9800;" d="M14.988,19.604c-0.968,0-1.782-0.792-1.782-1.782s0.792-1.782,1.782-1.782s1.782,0.792,1.782,1.782
	S15.956,19.604,14.988,19.604z M14.988,16.503c-0.726,0-1.342,0.594-1.342,1.342c0,0.726,0.594,1.342,1.342,1.342
	c0.726,0,1.342-0.594,1.342-1.342C16.33,17.097,15.714,16.503,14.988,16.503z"/>
</svg>
